<svg id="圖層_1" data-name="圖層 1" xmlns="http://www.w3.org/2000/svg" viewBox="0 0 96 96"><rect x="0.01" y="0.02" width="96" height="96" style="fill:#fff"/><g id="text4188"><g style="isolation:isolate"><path d="M20.27,89V77.5h1.56l6,9v-9h1.45V89H27.74l-6-9v9Z" style="fill:#10366a"/><path d="M35.07,89V84.1l-4.42-6.6H32.5L34.75,81c.42.65.81,1.29,1.17,1.94.34-.6.76-1.28,1.25-2l2.22-3.36h1.76l-4.57,6.6V89Z" style="fill:#10366a"/><path d="M42.47,89V77.5h2.28l2.71,8.11c.25.75.43,1.32.54,1.69.13-.42.34-1,.61-1.83l2.75-8h2V89H51.93V79.36L48.61,89H47.24L43.93,79.2V89Z" style="fill:#10366a"/><path d="M55.84,89V77.5h4.32a9.67,9.67,0,0,1,1.74.11,3.42,3.42,0,0,1,1.42.53,2.83,2.83,0,0,1,.92,1.11,3.75,3.75,0,0,1-.59,4,4.44,4.44,0,0,1-3.36,1H57.36V89Zm1.52-6h3a3.15,3.15,0,0,0,2.08-.54A2,2,0,0,0,63,80.86a2.08,2.08,0,0,0-.36-1.23,1.7,1.7,0,0,0-1-.68,6.33,6.33,0,0,0-1.41-.1H57.36Z" style="fill:#10366a"/><path d="M66.56,89V77.5h1.52v4.7h6V77.5h1.51V89H74v-5.4h-6V89Z" style="fill:#10366a"/></g></g><path id="path13" d="M83.6,10H12.15a2.92,2.92,0,0,0-2.7,3.11V62.37a2.94,2.94,0,0,0,2.7,3.12H83.6a2.93,2.93,0,0,0,2.71-3.12V13.09A2.92,2.92,0,0,0,83.6,10Z" style="fill:#10366a"/><circle id="circle17" cx="13.12" cy="13.16" r="2.15" style="fill:#fff"/><circle id="circle19" cx="13.12" cy="13.16" r="1.35" style="fill:#10366a"/><circle id="ellipse23" cx="82.93" cy="13.15" r="2.15" style="fill:#fff"/><circle id="ellipse25" cx="82.93" cy="13.15" r="1.35" style="fill:#10366a"/><circle id="circle29" cx="13.12" cy="62.35" r="2.15" style="fill:#fff"/><circle id="circle31" cx="13.12" cy="62.35" r="1.35" style="fill:#10366a"/><circle id="ellipse35" cx="82.95" cy="62.31" r="2.15" style="fill:#fff"/><circle id="ellipse37" cx="82.95" cy="62.31" r="1.35" style="fill:#10366a"/><rect x="16.24" y="51.29" width="11.57" height="15.76" style="fill:#fff"/><path d="M28.14,67.38H15.91V51H28.14Zm-11.58-.66H27.48V51.62H16.56Z" style="fill:#103770"/><path d="M18,65.54V60.37s0-.55.49-.55h1a.42.42,0,0,1,.42.45V65.6s0,.55-.17.55-.21-.59-.21-.59l-.21-4.46h-.7l-.13,4.39s0,.72-.21.72-.3-.44-.3-.67Z" style="fill:#103770"/><path d="M24.23,65.54V60.37s0-.55.49-.55h1a.4.4,0,0,1,.43.36.28.28,0,0,1,0,.09V65.6s0,.55-.17.55-.21-.59-.21-.59l-.21-4.46h-.65l-.14,4.39s0,.72-.21.72-.31-.44-.31-.67Z" style="fill:#103770"/><path d="M36,59.26H30.06v7h1v.39a1.67,1.67,0,0,0,1.66,1.66h.7a1.58,1.58,0,0,0,1.52-1.65v-.39h1Z" style="fill:#fff"/><path d="M33.34,68.6h-.62a2,2,0,0,1-2-2v-.06h-1V58.93h6.55v7.62h-1v.06a1.93,1.93,0,0,1-.5,1.36,1.9,1.9,0,0,1-1.34.62Zm-3-2.71h1v.72a1.34,1.34,0,0,0,1.33,1.33h.68a1.28,1.28,0,0,0,.88-.41,1.27,1.27,0,0,0,.33-.91v-.73h1v-6.3H30.38Z" style="fill:#103770"/><polygon id="polygon47" points="35.98 61.82 35.98 63.66 33.14 65.5 33.14 63.66 35.98 61.82" style="fill:#10366a"/><path d="M58.15,62.76H39.31v4.06h4.15v2.42a1.2,1.2,0,0,0,1.18,1.18H52.8A1.16,1.16,0,0,0,54,69.24V66.82h4.2Z" style="fill:#fff"/><path d="M44.64,70.75a1.53,1.53,0,0,1-1.51-1.51V67.15H39V62.43h19.5v4.72h-4.2v2.09a1.45,1.45,0,0,1-.43,1.06,1.53,1.53,0,0,1-1.05.45Zm-5-4.26h4.15v2.75a.87.87,0,0,0,.85.85h8.14a.81.81,0,0,0,.6-.25.79.79,0,0,0,.24-.6V66.49h4.2v-3.4H39.64Z" style="fill:#103770"/><rect id="rect55" x="68.47" y="50.6" width="4.19" height="17.98" style="fill:#fff"/><path d="M73,68.91H68.14V50.27H73Zm-4.18-.66h3.53V50.93H68.8Z" style="fill:#103770"/><path d="M66.88,68.52h-.21V53.06H61.93V68.52h-.25a.19.19,0,0,0-.18.18.23.23,0,0,0,.18.16H62a.19.19,0,0,0,.16-.16v-.07h.71a.32.32,0,0,0,.32.3h2.32a.29.29,0,0,0,.3-.3h.58v.07a.16.16,0,0,0,.16.16h.32a.17.17,0,0,0,.17-.16C67.05,68.52,67,68.52,66.88,68.52Z" style="fill:#fff"/><path d="M65.52,69.26H63.2a.63.63,0,0,1-.55-.31h-.23a.49.49,0,0,1-.38.24h-.36a.56.56,0,0,1-.49-.41l0,0v0a.5.5,0,0,1,.42-.48V52.73H67V68.2c.16,0,.38.11.38.5a.51.51,0,0,1-.49.49h-.33a.52.52,0,0,1-.42-.24h-.08A.62.62,0,0,1,65.52,69.26Zm1.36-.42h.05l-.05-.33Zm-4.62-.54h.94v.32l2.31,0v-.33l.82,0V53.39H62.26Z" style="fill:#103770"/><path d="M63.87,61.5a.43.43,0,0,1,.41-.45h0a.43.43,0,0,1,.45.43v.39a.44.44,0,0,1-.42.46h0a.43.43,0,0,1-.44-.43v-.4Z" style="fill:#103770"/><path d="M63.14,67.21l.34-4.39s0-.21.18-.21H64.8a.23.23,0,0,1,.21.21c.07.21.31,4.39.31,4.39s.07.28-.17.28-.25-.28-.25-.28l-.41-3.77h-.56l-.41,3.81a.21.21,0,0,1-.22.21.19.19,0,0,1-.25-.09.2.2,0,0,1,.09-.25Z" style="fill:#103770"/><polygon id="polygon61" points="79.52 60.89 79.52 67.68 78.51 68.41 75.33 68.41 74.46 67.68 74.46 60.89 79.52 60.89" style="fill:#fff"/><path d="M78.62,68.74H75.2l-1.06-.91V60.56h5.71v7.29Zm-3.17-.66h3l.78-.57V61.22h-4.4v6.31Z" style="fill:#103770"/><path id="path63" d="M77,61.76h0a.23.23,0,0,1-.24-.23V58.74A.23.23,0,0,1,77,58.5h0a.24.24,0,0,1,.24.22V61.5A.22.22,0,0,1,77,61.76Z" style="fill:#fff"/><path id="path67" d="M61.06,54.62H33.56a.37.37,0,0,1-.35-.35V29.51a.37.37,0,0,1,.35-.35h27.5a.37.37,0,0,1,.34.35V54.27a.33.33,0,0,1-.3.35Z" style="fill:#fff"/><circle id="circle71" cx="49.21" cy="31.28" r="1.35" style="fill:#10366a"/><circle id="circle73" cx="49.21" cy="31.28" r="0.87" style="fill:#fff"/><circle id="circle77" cx="59.5" cy="42.67" r="1.35" style="fill:#10366a"/><circle id="circle79" cx="59.5" cy="42.67" r="0.87" style="fill:#fff"/><circle id="circle83" cx="34.84" cy="47.97" r="1.35" style="fill:#10366a"/><circle id="circle85" cx="34.84" cy="47.97" r="0.87" style="fill:#fff"/><rect id="rect91" x="51.26" y="29.89" width="8.35" height="11.02" style="fill:#10366a"/><polygon id="polygon93" points="59.22 32.21 57.07 32.21 57.07 30.17 53.75 30.17 53.75 32.21 51.6 32.21 51.6 40.66 59.22 40.66 59.22 32.21" style="fill:#fff"/><rect id="rect95" x="35.15" y="32.86" width="13.16" height="13.06" style="fill:#10366a"/><rect id="rect97" x="38.58" y="48.28" width="8.55" height="4.92" style="fill:#10366a"/><rect id="rect99" x="53.65" y="45.93" width="4.81" height="4.71" style="fill:#10366a"/></svg>