<svg xmlns="http://www.w3.org/2000/svg" viewBox="0 0 96 96"><g id="backgroup-white"><rect x="0.01" width="96" height="96" style="fill:#fff"/></g><g id="board_gnome"><g id="g4141"><g id="g4158"><g id="g4145"><path id="path5" d="M14,23.24,79.21,10.89c4.18-.8,7.67,4.76,7.67,10.58V74.4c0,5.82-3.49,11.38-7.67,10.58L14,72.64c-4.18-.8-7.67-2.3-7.67-8.12V31.35C6.28,25.53,9.77,24,14,23.24Z" style="fill:#e6e6e6"/><path d="M80,85.13a4.45,4.45,0,0,1-.81-.08L13.94,72.71c-4.64-.88-7.73-2.61-7.73-8.19V31.35c0-5.58,3.09-7.3,7.73-8.18v0L79.19,10.82a4.73,4.73,0,0,1,4,1.16c2.27,1.88,3.8,5.69,3.8,9.49V74.4c0,3.8-1.53,7.61-3.8,9.49A4.92,4.92,0,0,1,80,85.13Zm0-74.25a4.13,4.13,0,0,0-.78.08L14,23.31c-4.57.86-7.62,2.56-7.62,8V64.52c0,5.48,3.05,7.18,7.62,8L79.22,84.91a4.63,4.63,0,0,0,3.85-1.12c2.24-1.86,3.74-5.63,3.74-9.39V21.47c0-3.76-1.5-7.53-3.74-9.38A4.79,4.79,0,0,0,80,10.88Z"/><path id="path7" d="M78.31,74.27V21.34c0-1.59-.78-2.82-1.92-2.64L11.13,28.58c-1.14.17-1.92,1.05-1.92,2.64V64.39c0,1.59.78,2.47,1.92,2.65l65.26,9.88C77.53,77.09,78.31,75.86,78.31,74.27Z"/><path d="M76.6,77h-.22L11.12,67.11c-1.26-.19-2-1.18-2-2.72V31.22c0-1.53.72-2.52,2-2.71l65.26-9.88a1.36,1.36,0,0,1,1.13.33,3.16,3.16,0,0,1,.87,2.38V74.27a3.15,3.15,0,0,1-.87,2.38A1.37,1.37,0,0,1,76.6,77Zm0-58.25-.2,0L11.14,28.65c-1.18.18-1.86,1.11-1.86,2.57V64.39c0,1.46.68,2.4,1.86,2.58L76.4,76.85a1.24,1.24,0,0,0,1-.3,3,3,0,0,0,.81-2.28V21.34a3,3,0,0,0-.81-2.27A1.23,1.23,0,0,0,76.6,18.75Z"/><path id="path4162" d="M87.07,20.24V75.81l2.17-1.23V22.71Z" style="fill-rule:evenodd"/><path d="M87,75.94V20.05l.12.14,2.19,2.49V74.62l0,0Zm.14-55.51V75.69l2-1.15c0-14.24,0-25.22,0-37.77v-14Z"/><path id="path7-6" d="M71.12,70.27v-45c0-1.35-.66-2.39-1.63-2.25L14,31.43a2,2,0,0,0-1.63,2.25V61.87A2,2,0,0,0,14,64.12l55.47,8.4c1,.15,1.63-.9,1.63-2.25Z" style="fill:#bbdefb"/><path d="M69.67,72.6h-.19L14,64.19a2.06,2.06,0,0,1-1.69-2.32V33.68A2.06,2.06,0,0,1,14,31.36L69.48,23a1.19,1.19,0,0,1,1,.29,2.7,2.7,0,0,1,.74,2v45a2.72,2.72,0,0,1-.74,2A1.22,1.22,0,0,1,69.67,72.6Zm0-49.51H69.5L14,31.5a1.94,1.94,0,0,0-1.57,2.18V61.87A1.93,1.93,0,0,0,14,64.05l55.47,8.4a1,1,0,0,0,.86-.25,2.57,2.57,0,0,0,.69-1.93v-45a2.56,2.56,0,0,0-.69-1.92A1,1,0,0,0,69.67,23.09Z"/></g></g></g><g id="text4173"><path id="path4147" d="M19.2,57.26v-7H14.49V47.33h7.57V58.56a11.78,11.78,0,0,1-3.69,2.2,12.18,12.18,0,0,1-4.3.74,9.43,9.43,0,0,1-7.83-3.57c-1.88-2.4-2.82-5.72-2.82-10s.94-7.6,2.82-10a9.42,9.42,0,0,1,7.83-3.59A12.35,12.35,0,0,1,18,35a11.69,11.69,0,0,1,3.48,1.86v3.76a11.53,11.53,0,0,0-3.41-2.5,8.85,8.85,0,0,0-3.79-.84A6.81,6.81,0,0,0,8.43,40c-1.31,1.78-2,4.45-2,8s.65,6.19,2,8a6.81,6.81,0,0,0,5.88,2.68,10.93,10.93,0,0,0,2.74-.31A6.57,6.57,0,0,0,19.2,57.26Z" style="fill:#b81c22"/><path d="M14.07,61.68A9.65,9.65,0,0,1,6.1,58c-1.9-2.42-2.86-5.81-2.86-10.1s1-7.69,2.86-10.09a9.61,9.61,0,0,1,8-3.66,12.73,12.73,0,0,1,4,.64,11.86,11.86,0,0,1,3.52,1.89l.07.05v4.3l-.3-.32A11.49,11.49,0,0,0,18,38.28a8.65,8.65,0,0,0-3.71-.82,6.7,6.7,0,0,0-5.75,2.6c-1.28,1.75-1.92,4.4-1.92,7.88s.64,6.12,1.92,7.87a6.7,6.7,0,0,0,5.75,2.6A10.44,10.44,0,0,0,17,58.1a6.55,6.55,0,0,0,2-.93V50.42H14.31V47.15h7.93V58.64l-.06,0a12.05,12.05,0,0,1-3.74,2.24A12.62,12.62,0,0,1,14.07,61.68Zm0-27.13a9.27,9.27,0,0,0-7.69,3.52C4.53,40.41,3.6,43.73,3.6,47.94s.93,7.53,2.78,9.88a9.31,9.31,0,0,0,7.69,3.5,12.34,12.34,0,0,0,4.24-.72,11.89,11.89,0,0,0,3.57-2.12v-11H14.67v2.55h4.71v7.29l-.07.06a7.2,7.2,0,0,1-2.22,1,11.15,11.15,0,0,1-2.77.32,7,7,0,0,1-6-2.75c-1.32-1.81-2-4.53-2-8.08s.67-6.28,2-8.09a7,7,0,0,1,6-2.75,9.06,9.06,0,0,1,3.86.86,11.38,11.38,0,0,1,3.15,2.23V37A11.5,11.5,0,0,0,18,35.17,12.32,12.32,0,0,0,14.07,34.55Z" style="fill:#ff0"/><path id="path4149" d="M22.57,34.86h3.89l9.46,21.88V34.86h2.8V61H34.83L25.37,39.13V61h-2.8Z" style="fill:#b81c22"/><path d="M38.9,61.19H34.72l0-.11L25.55,40V61.19H22.39V34.68h4.19l0,.11,9.12,21.08V34.68H38.9ZM35,60.83h3.59V35H36.1v21.7l-.34.07L26.34,35H22.75V60.83h2.44V39.13l.34-.07Z" style="fill:#ff0"/><path id="path4151" d="M49.2,37.24a5.72,5.72,0,0,0-5,2.87,14.4,14.4,0,0,0-1.84,7.83,14.36,14.36,0,0,0,1.84,7.82,5.72,5.72,0,0,0,5,2.87,5.64,5.64,0,0,0,5-2.87A14.36,14.36,0,0,0,56,47.94a14.4,14.4,0,0,0-1.84-7.83A5.64,5.64,0,0,0,49.2,37.24Zm0-2.87a8.42,8.42,0,0,1,7.17,3.7q2.68,3.68,2.69,9.87t-2.69,9.88a8.86,8.86,0,0,1-14.38,0q-2.68-3.68-2.69-9.88T42,38.07A8.48,8.48,0,0,1,49.2,34.37Z" style="fill:#b81c22"/><path d="M49.2,61.68a8.69,8.69,0,0,1-7.35-3.75c-1.81-2.47-2.73-5.83-2.73-10s.92-7.51,2.73-10a9,9,0,0,1,14.67,0c1.8,2.47,2.72,5.83,2.72,10s-.92,7.5-2.72,10A8.67,8.67,0,0,1,49.2,61.68Zm0-27.13a8.38,8.38,0,0,0-7.07,3.62c-1.76,2.41-2.65,5.7-2.65,9.77s.89,7.37,2.65,9.78a8.7,8.7,0,0,0,14.1,0C58,55.3,58.88,52,58.88,47.94s-.89-7.36-2.65-9.77A8.32,8.32,0,0,0,49.2,34.55Zm0,24.26a5.9,5.9,0,0,1-5.16-3,14.58,14.58,0,0,1-1.87-7.91A14.61,14.61,0,0,1,44,40a5.9,5.9,0,0,1,5.16-3,5.83,5.83,0,0,1,5.12,3,14.61,14.61,0,0,1,1.87,7.92,14.58,14.58,0,0,1-1.87,7.91A5.83,5.83,0,0,1,49.2,58.81Zm0-21.39a5.56,5.56,0,0,0-4.86,2.79,14.33,14.33,0,0,0-1.81,7.73,14.29,14.29,0,0,0,1.81,7.72,5.56,5.56,0,0,0,4.86,2.79A5.49,5.49,0,0,0,54,55.66a14.29,14.29,0,0,0,1.81-7.72A14.33,14.33,0,0,0,54,40.21,5.49,5.49,0,0,0,49.2,37.42Z" style="fill:#ff0"/><path id="path4153" d="M59.43,34.86h4.3l5.45,17.8,5.47-17.8H79V61H76.14v-23L70.63,56h-2.9l-5.5-17.93V61h-2.8Z" style="fill:#b81c22"/><path d="M79.13,61.19H76V39.24L70.77,56.16H67.6l0-.12-5.15-16.8V61.19H59.25V34.68h4.61l0,.13,5.28,17.24,5.34-17.37h4.61Zm-2.81-.36h2.45V35h-4L69.17,53.27,63.6,35h-4V60.83h2.44V38.05l.35,0,5.46,17.8H70.5L76,38l.35,0Z" style="fill:#ff0"/><path id="path4155" d="M79.38,34.86H92.87v3H82.26v7.74H92.43v3H82.26V58H93.13v3H79.38Z" style="fill:#b81c22"/><path d="M93.31,61.19H79.2V34.68H93.05V38H82.44V45.4H92.61v3.34H82.44v9.11H93.31Zm-13.76-.36H93V58.21H82.08V48.38H92.25V45.76H82.08v-8.1H92.69V35H79.55Z" style="fill:#ff0"/></g></g></svg>