<?xml version="1.0" encoding="utf-8"?>
<!-- Generator: Adobe Illustrator 25.1.0, SVG Export Plug-In . SVG Version: 6.00 Build 0)  -->
<svg version="1.1" id="圖層_1" xmlns="http://www.w3.org/2000/svg" xmlns:xlink="http://www.w3.org/1999/xlink" x="0px" y="0px"
	 viewBox="0 0 96 96" style="enable-background:new 0 0 96 96;" xml:space="preserve">
<style type="text/css">
	.st0{fill:#FFFFFF;}
	.st1{enable-background:new    ;}
	.st2{fill:none;stroke:#10366A;stroke-width:2.2902;stroke-linecap:round;stroke-linejoin:round;}
	.st3{fill:none;stroke:#10366A;stroke-width:0.5;stroke-linecap:round;stroke-linejoin:round;stroke-miterlimit:10;}
	.st4{fill:none;stroke:#10366A;stroke-width:0.7308;stroke-linecap:round;stroke-linejoin:round;stroke-miterlimit:10;}
</style>
<rect class="st0" width="96" height="96"/>
<g>
	<g class="st1">
		<path class="st2" d="M10.3,86.3l-3-14.6h1.5l1.7,9.5c0.2,1,0.3,2,0.5,3c0.3-1.6,0.5-2.5,0.5-2.7l2.1-9.8h1.8l1.6,7.4
			c0.4,1.8,0.7,3.5,0.9,5.2c0.1-0.9,0.3-2,0.6-3.2l1.8-9.4h1.5l-3.1,14.6h-1.4l-2.4-11.1c-0.2-0.9-0.3-1.5-0.4-1.7
			c-0.1,0.7-0.2,1.2-0.3,1.7l-2.4,11.1H10.3z"/>
		<path class="st2" d="M23.1,86.3V71.7h4.2c0.9,0,1.6,0.1,2.1,0.4s0.9,0.7,1.2,1.4c0.3,0.6,0.4,1.3,0.4,1.9c0,0.6-0.1,1.2-0.4,1.8
			s-0.7,1-1.2,1.3c0.7,0.3,1.2,0.7,1.6,1.3c0.4,0.6,0.5,1.4,0.5,2.2c0,0.7-0.1,1.3-0.3,1.9c-0.2,0.6-0.5,1-0.8,1.4
			c-0.3,0.3-0.7,0.6-1.2,0.7s-1.1,0.2-1.8,0.2H23.1z M24.6,77.8h2.4c0.7,0,1.1-0.1,1.4-0.2c0.4-0.1,0.7-0.4,0.9-0.7
			c0.2-0.3,0.3-0.8,0.3-1.3c0-0.5-0.1-0.9-0.3-1.3c-0.2-0.4-0.4-0.6-0.8-0.8s-0.9-0.2-1.7-0.2h-2.3V77.8z M24.6,84.5h2.8
			c0.5,0,0.8,0,1-0.1c0.3-0.1,0.6-0.2,0.9-0.4c0.2-0.2,0.4-0.5,0.6-0.8c0.1-0.4,0.2-0.8,0.2-1.2c0-0.5-0.1-1-0.3-1.4
			c-0.2-0.4-0.5-0.7-0.9-0.8c-0.4-0.2-0.9-0.2-1.6-0.2h-2.6V84.5z"/>
		<path class="st2" d="M33,79.9v-1.8h4.3v1.8H33z"/>
		<path class="st2" d="M39,86.3V71.7h8.1v1.7h-6.7v4.5h6.2v1.7h-6.2v5h6.9v1.7H39z"/>
		<path class="st2" d="M49.4,86.3V71.7h3.9c0.9,0,1.5,0.1,2,0.2c0.6,0.2,1.2,0.5,1.7,1c0.6,0.6,1,1.5,1.3,2.5s0.4,2.2,0.4,3.5
			c0,1.1-0.1,2.1-0.3,2.9c-0.2,0.9-0.5,1.6-0.8,2.1s-0.7,1-1,1.3c-0.4,0.3-0.8,0.6-1.3,0.7c-0.5,0.2-1.1,0.2-1.8,0.2H49.4z
			 M50.9,84.5h2.4c0.7,0,1.3-0.1,1.7-0.3c0.4-0.2,0.8-0.4,1-0.8c0.4-0.5,0.6-1.1,0.8-1.8s0.3-1.7,0.3-2.8c0-1.5-0.2-2.7-0.6-3.5
			c-0.4-0.8-0.9-1.4-1.4-1.6c-0.4-0.2-1-0.3-1.9-0.3h-2.4V84.5z"/>
		<path class="st2" d="M60.7,86.3V71.7H63L65.7,82c0.2,1,0.4,1.7,0.5,2.2c0.1-0.5,0.3-1.3,0.6-2.3l2.7-10.1h2v14.6h-1.4V74.1
			l-3.3,12.2h-1.3l-3.3-12.4v12.4H60.7z"/>
		<path class="st2" d="M73.2,79.9v-1.8h4.2v1.8H73.2z"/>
		<path class="st2" d="M84.4,80.6v-1.7l4.8,0v5.4c-0.7,0.8-1.5,1.3-2.3,1.7c-0.8,0.4-1.6,0.6-2.4,0.6c-1.1,0-2.1-0.3-3-0.9
			c-0.9-0.6-1.6-1.5-2-2.7c-0.5-1.2-0.7-2.5-0.7-3.9c0-1.4,0.2-2.7,0.7-4c0.5-1.2,1.1-2.1,2-2.7c0.9-0.6,1.9-0.9,3-0.9
			c0.8,0,1.6,0.2,2.2,0.5c0.7,0.3,1.2,0.8,1.5,1.4c0.4,0.6,0.7,1.4,0.9,2.4l-1.3,0.5c-0.2-0.7-0.4-1.3-0.6-1.7
			c-0.3-0.4-0.6-0.8-1.1-1c-0.5-0.3-1-0.4-1.6-0.4c-0.7,0-1.3,0.1-1.8,0.4c-0.5,0.3-0.9,0.6-1.2,1.1c-0.3,0.4-0.5,0.9-0.7,1.4
			c-0.3,0.9-0.4,1.9-0.4,2.9c0,1.3,0.2,2.4,0.5,3.3s0.8,1.5,1.5,1.9c0.7,0.4,1.4,0.6,2.1,0.6c0.6,0,1.3-0.2,1.9-0.5
			c0.6-0.3,1.1-0.7,1.4-1v-2.7H84.4z"/>
	</g>
	<g class="st1">
		<path class="st0" d="M10.3,86.3l-3-14.6h1.5l1.7,9.5c0.2,1,0.3,2,0.5,3c0.3-1.6,0.5-2.5,0.5-2.7l2.1-9.8h1.8l1.6,7.4
			c0.4,1.8,0.7,3.5,0.9,5.2c0.1-0.9,0.3-2,0.6-3.2l1.8-9.4h1.5l-3.1,14.6h-1.4l-2.4-11.1c-0.2-0.9-0.3-1.5-0.4-1.7
			c-0.1,0.7-0.2,1.2-0.3,1.7l-2.4,11.1H10.3z"/>
		<path class="st0" d="M23.1,86.3V71.7h4.2c0.9,0,1.6,0.1,2.1,0.4s0.9,0.7,1.2,1.4c0.3,0.6,0.4,1.3,0.4,1.9c0,0.6-0.1,1.2-0.4,1.8
			s-0.7,1-1.2,1.3c0.7,0.3,1.2,0.7,1.6,1.3c0.4,0.6,0.5,1.4,0.5,2.2c0,0.7-0.1,1.3-0.3,1.9c-0.2,0.6-0.5,1-0.8,1.4
			c-0.3,0.3-0.7,0.6-1.2,0.7s-1.1,0.2-1.8,0.2H23.1z M24.6,77.8h2.4c0.7,0,1.1-0.1,1.4-0.2c0.4-0.1,0.7-0.4,0.9-0.7
			c0.2-0.3,0.3-0.8,0.3-1.3c0-0.5-0.1-0.9-0.3-1.3c-0.2-0.4-0.4-0.6-0.8-0.8s-0.9-0.2-1.7-0.2h-2.3V77.8z M24.6,84.5h2.8
			c0.5,0,0.8,0,1-0.1c0.3-0.1,0.6-0.2,0.9-0.4c0.2-0.2,0.4-0.5,0.6-0.8c0.1-0.4,0.2-0.8,0.2-1.2c0-0.5-0.1-1-0.3-1.4
			c-0.2-0.4-0.5-0.7-0.9-0.8c-0.4-0.2-0.9-0.2-1.6-0.2h-2.6V84.5z"/>
		<path class="st0" d="M33,79.9v-1.8h4.3v1.8H33z"/>
		<path class="st0" d="M39,86.3V71.7h8.1v1.7h-6.7v4.5h6.2v1.7h-6.2v5h6.9v1.7H39z"/>
		<path class="st0" d="M49.4,86.3V71.7h3.9c0.9,0,1.5,0.1,2,0.2c0.6,0.2,1.2,0.5,1.7,1c0.6,0.6,1,1.5,1.3,2.5s0.4,2.2,0.4,3.5
			c0,1.1-0.1,2.1-0.3,2.9c-0.2,0.9-0.5,1.6-0.8,2.1s-0.7,1-1,1.3c-0.4,0.3-0.8,0.6-1.3,0.7c-0.5,0.2-1.1,0.2-1.8,0.2H49.4z
			 M50.9,84.5h2.4c0.7,0,1.3-0.1,1.7-0.3c0.4-0.2,0.8-0.4,1-0.8c0.4-0.5,0.6-1.1,0.8-1.8s0.3-1.7,0.3-2.8c0-1.5-0.2-2.7-0.6-3.5
			c-0.4-0.8-0.9-1.4-1.4-1.6c-0.4-0.2-1-0.3-1.9-0.3h-2.4V84.5z"/>
		<path class="st0" d="M60.7,86.3V71.7H63L65.7,82c0.2,1,0.4,1.7,0.5,2.2c0.1-0.5,0.3-1.3,0.6-2.3l2.7-10.1h2v14.6h-1.4V74.1
			l-3.3,12.2h-1.3l-3.3-12.4v12.4H60.7z"/>
		<path class="st0" d="M73.2,79.9v-1.8h4.2v1.8H73.2z"/>
		<path class="st0" d="M84.4,80.6v-1.7l4.8,0v5.4c-0.7,0.8-1.5,1.3-2.3,1.7c-0.8,0.4-1.6,0.6-2.4,0.6c-1.1,0-2.1-0.3-3-0.9
			c-0.9-0.6-1.6-1.5-2-2.7c-0.5-1.2-0.7-2.5-0.7-3.9c0-1.4,0.2-2.7,0.7-4c0.5-1.2,1.1-2.1,2-2.7c0.9-0.6,1.9-0.9,3-0.9
			c0.8,0,1.6,0.2,2.2,0.5c0.7,0.3,1.2,0.8,1.5,1.4c0.4,0.6,0.7,1.4,0.9,2.4l-1.3,0.5c-0.2-0.7-0.4-1.3-0.6-1.7
			c-0.3-0.4-0.6-0.8-1.1-1c-0.5-0.3-1-0.4-1.6-0.4c-0.7,0-1.3,0.1-1.8,0.4c-0.5,0.3-0.9,0.6-1.2,1.1c-0.3,0.4-0.5,0.9-0.7,1.4
			c-0.3,0.9-0.4,1.9-0.4,2.9c0,1.3,0.2,2.4,0.5,3.3s0.8,1.5,1.5,1.9c0.7,0.4,1.4,0.6,2.1,0.6c0.6,0,1.3-0.2,1.9-0.5
			c0.6-0.3,1.1-0.7,1.4-1v-2.7H84.4z"/>
	</g>
</g>
<g>
	<path class="st3" d="M18.7,60.9h-2.9c-1,0-1.8-0.8-1.8-1.8v-42c0-1,0.8-1.8,1.8-1.8H80c1,0,1.8,0.8,1.8,1.8v42c0,1-0.8,1.8-1.8,1.8
		h-2.1"/>
	<line class="st3" x1="26.1" y1="60.9" x2="23.7" y2="60.9"/>
	<line class="st3" x1="33.9" y1="60.9" x2="31.5" y2="60.9"/>
	<line class="st3" x1="44.3" y1="60.9" x2="42.3" y2="60.9"/>
	<line class="st3" x1="54.8" y1="60.9" x2="52.4" y2="60.9"/>
	<line class="st3" x1="60.6" y1="60.9" x2="59" y2="60.9"/>
	<line class="st3" x1="71.8" y1="60.9" x2="70.1" y2="60.9"/>
	<circle class="st3" cx="15.8" cy="17.3" r="0.9"/>
	<circle class="st3" cx="79.5" cy="17.3" r="0.9"/>
	<circle class="st3" cx="15.8" cy="58.7" r="0.9"/>
	<circle class="st3" cx="79.5" cy="58.7" r="0.9"/>
	<rect x="61.1" y="49.3" class="st3" width="8.6" height="12.1"/>
	<rect x="44.9" y="52.5" class="st3" width="6.7" height="8.9"/>
	<rect x="34.1" y="55.4" class="st3" width="7.8" height="6.1"/>
	<g id="LINE_410_">
		<line class="st3" x1="55.4" y1="21.3" x2="55.3" y2="21.4"/>
	</g>
	<g id="LINE_409_">
		<line class="st3" x1="54.7" y1="29.6" x2="54.7" y2="21.1"/>
	</g>
	<g id="LINE_408_">
		<line class="st3" x1="54.9" y1="29.5" x2="54.9" y2="22.8"/>
	</g>
	<g id="LINE_407_">
		<line class="st3" x1="55.2" y1="21.7" x2="55.2" y2="21.8"/>
	</g>
	<g id="LINE_406_">
		<line class="st3" x1="55.2" y1="21.9" x2="55.2" y2="21.9"/>
	</g>
	<g id="LINE_405_">
		<line class="st3" x1="55.2" y1="29.2" x2="55.2" y2="23.8"/>
	</g>
	<g id="LINE_404_">
		<line class="st3" x1="55.3" y1="21.4" x2="55.3" y2="22.3"/>
	</g>
	<g id="LINE_403_">
		<line class="st3" x1="56.2" y1="22.3" x2="56.2" y2="21.3"/>
	</g>
	<g id="LINE_402_">
		<line class="st3" x1="56.2" y1="21.7" x2="56.2" y2="21.7"/>
	</g>
	<g id="LINE_401_">
		<line class="st3" x1="56.2" y1="21.9" x2="56.2" y2="21.9"/>
	</g>
	<g id="LINE_400_">
		<line class="st3" x1="56.2" y1="21.9" x2="56.2" y2="21.7"/>
	</g>
	<g id="LINE_399_">
		<line class="st3" x1="56.5" y1="22.9" x2="56.5" y2="21.3"/>
	</g>
	<g id="LINE_398_">
		<line class="st3" x1="59.3" y1="22.9" x2="59.3" y2="21.3"/>
	</g>
	<g id="LINE_397_">
		<line class="st3" x1="60.6" y1="23.8" x2="60.6" y2="29.2"/>
	</g>
	<g id="LINE_396_">
		<line class="st3" x1="60.9" y1="29.5" x2="60.9" y2="22.8"/>
	</g>
	<g id="LINE_395_">
		<line class="st3" x1="61.1" y1="21.1" x2="61.1" y2="29.6"/>
	</g>
	<g id="LINE_394_">
		<line class="st3" x1="61.1" y1="29.6" x2="54.7" y2="29.6"/>
	</g>
	<g id="LINE_393_">
		<line class="st3" x1="54.9" y1="29.5" x2="60.9" y2="29.5"/>
	</g>
	<g id="LINE_392_">
		<line class="st3" x1="54.8" y1="29.4" x2="61" y2="29.4"/>
	</g>
	<g id="LINE_391_">
		<line class="st3" x1="60.6" y1="29.2" x2="55.2" y2="29.2"/>
	</g>
	<g id="LINE_390_">
		<line class="st3" x1="55.2" y1="23.8" x2="60.6" y2="23.8"/>
	</g>
	<g id="LINE_389_">
		<line class="st3" x1="54.8" y1="22.9" x2="56.5" y2="22.9"/>
	</g>
	<g id="LINE_388_">
		<line class="st3" x1="59.3" y1="22.9" x2="61" y2="22.9"/>
	</g>
	<g id="LINE_387_">
		<line class="st3" x1="55.3" y1="22.3" x2="56.2" y2="22.3"/>
	</g>
	<g id="LINE_386_">
		<line class="st3" x1="56.2" y1="21.9" x2="56.2" y2="21.9"/>
	</g>
	<g id="LINE_385_">
		<line class="st3" x1="55.2" y1="21.9" x2="55.3" y2="21.9"/>
	</g>
	<g id="LINE_384_">
		<line class="st3" x1="56.2" y1="21.9" x2="56.2" y2="21.9"/>
	</g>
	<g id="LINE_383_">
		<line class="st3" x1="56.2" y1="21.7" x2="56.2" y2="21.7"/>
	</g>
	<g id="LINE_382_">
		<line class="st3" x1="55.3" y1="21.7" x2="55.2" y2="21.7"/>
	</g>
	<g id="LINE_381_">
		<line class="st3" x1="56.2" y1="21.7" x2="56.2" y2="21.7"/>
	</g>
	<g id="LINE_380_">
		<line class="st3" x1="59.3" y1="21.4" x2="56.5" y2="21.4"/>
	</g>
	<g id="LINE_379_">
		<line class="st3" x1="56.2" y1="21.3" x2="55.4" y2="21.3"/>
	</g>
	<g id="LINE_378_">
		<line class="st3" x1="54.7" y1="21.1" x2="61.1" y2="21.1"/>
	</g>
	<g id="ARC_10_">
		<path class="st3" d="M55.2,21.9C55.2,21.9,55.2,21.8,55.2,21.9c0.1-0.1,0-0.1,0-0.1"/>
	</g>
	<g id="LINE_377_">
		<line class="st3" x1="54.8" y1="24.5" x2="54.8" y2="24.4"/>
	</g>
	<g id="LINE_376_">
		<line class="st3" x1="54.8" y1="26.7" x2="54.8" y2="26.7"/>
	</g>
	<g id="LINE_375_">
		<line class="st3" x1="54.8" y1="29" x2="54.8" y2="28.9"/>
	</g>
	<g id="LINE_374_">
		<line class="st3" x1="56.5" y1="29.5" x2="56.5" y2="29.5"/>
	</g>
	<g id="LINE_373_">
		<line class="st3" x1="61" y1="25" x2="61" y2="25"/>
	</g>
	<g id="LINE_372_">
		<line class="st3" x1="58.8" y1="29.5" x2="58.8" y2="29.5"/>
	</g>
	<g id="LINE_371_">
		<line class="st3" x1="61" y1="27.3" x2="61" y2="27.3"/>
	</g>
	<g id="LINE_370_">
		<line class="st3" x1="61" y1="29.5" x2="54.8" y2="29.5"/>
	</g>
	<g id="CIRCLE_30_">
		<path class="st3" d="M55.3,21.8c0-0.2,0.2-0.4,0.4-0.4s0.4,0.2,0.4,0.4c0,0.2-0.2,0.4-0.4,0.4S55.3,22,55.3,21.8L55.3,21.8z"/>
	</g>
	<g id="CIRCLE_29_">
		<path class="st3" d="M55.4,21.8c0-0.2,0.1-0.3,0.3-0.3s0.3,0.1,0.3,0.3c0,0.2-0.1,0.3-0.3,0.3S55.4,22,55.4,21.8L55.4,21.8z"/>
	</g>
	<g id="CIRCLE_28_">
		<path class="st3" d="M55.6,21.8c0-0.1,0.1-0.1,0.1-0.1s0.1,0.1,0.1,0.1c0,0.1-0.1,0.1-0.1,0.1S55.6,21.9,55.6,21.8L55.6,21.8z"/>
	</g>
	<rect x="55.4" y="50.8" class="st3" width="3.2" height="10.7"/>
	<rect x="26.5" y="56.8" class="st3" width="4.5" height="4.9"/>
	<rect x="19.2" y="57.3" class="st3" width="3.9" height="5"/>
	<rect x="19.2" y="63.3" class="st3" width="3.9" height="1.7"/>
	<rect x="18.4" y="62.3" class="st3" width="5.4" height="1"/>
	<polyline class="st3" points="26.1,29.6 26.1,20.7 64.4,20.7 64.4,29.6 	"/>
	<polygon class="st3" points="64.4,29.8 64.4,38.7 25.9,38.7 25.9,29.8 25.4,29.8 25.4,38.7 25.4,41.6 25.9,41.6 64.4,41.6 65,41.6 
		65,38.7 65,29.8 	"/>
	<circle class="st3" cx="27.2" cy="21.9" r="1.1"/>
	<circle class="st3" cx="27.2" cy="21.9" r="0.5"/>
	<circle class="st3" cx="26.1" cy="17.4" r="0.8"/>
	<circle class="st3" cx="38.2" cy="17.4" r="0.8"/>
	<circle class="st3" cx="56.5" cy="17.4" r="0.8"/>
	<circle class="st3" cx="67.4" cy="37.7" r="0.8"/>
	<circle class="st3" cx="68.4" cy="17.4" r="0.8"/>
	<circle class="st3" cx="63.2" cy="21.9" r="1.1"/>
	<circle class="st3" cx="63.2" cy="21.9" r="0.5"/>
	<rect x="38.2" y="23.8" class="st3" width="8.4" height="8.4"/>
	<rect x="40" y="26.1" class="st3" width="4.5" height="3.4"/>
	<rect x="28.9" y="24.2" class="st3" width="3.9" height="3.9"/>
	<rect x="48.5" y="23.8" class="st3" width="5.5" height="8.1"/>
	<rect x="28.5" y="33.5" class="st3" width="2.9" height="2.9"/>
	<circle class="st3" cx="63.4" cy="24" r="0.2"/>
	<circle class="st3" cx="63.4" cy="25" r="0.2"/>
	<circle class="st3" cx="63.4" cy="26" r="0.2"/>
	<circle class="st3" cx="63.4" cy="30.4" r="0.2"/>
	<circle class="st3" cx="63.4" cy="31.7" r="0.2"/>
	<circle class="st3" cx="63.4" cy="32.9" r="0.2"/>
	<circle class="st3" cx="63.4" cy="34.2" r="0.2"/>
	<rect x="27.8" y="16.1" class="st3" width="8.5" height="1.6"/>
	<rect x="58.2" y="16.1" class="st3" width="8.5" height="1.6"/>
	<polygon class="st3" points="72.2,54.6 72.2,60.9 73.1,60.9 73.1,62.1 76.3,62.1 76.3,60.9 77.3,60.9 77.3,54.6 	"/>
	<rect x="75.1" y="37.7" class="st3" width="2.6" height="7.5"/>
	<rect x="78.6" y="37.7" class="st3" width="2.6" height="7.5"/>
	<rect x="75.8" y="19.2" class="st3" width="3.2" height="17"/>
	<rect x="76.4" y="20.2" class="st3" width="2" height="15.3"/>
	<g>
		<rect x="75.1" y="21.2" class="st3" width="0.3" height="0.3"/>
		<rect x="75.1" y="21.9" class="st3" width="0.3" height="0.3"/>
		<rect x="75.1" y="22.7" class="st3" width="0.3" height="0.3"/>
		<rect x="75.1" y="23.5" class="st3" width="0.3" height="0.3"/>
		<rect x="75.1" y="24.3" class="st3" width="0.3" height="0.3"/>
		<rect x="75.1" y="25.1" class="st3" width="0.3" height="0.3"/>
		<rect x="75.1" y="25.9" class="st3" width="0.3" height="0.3"/>
		<rect x="75.1" y="26.6" class="st3" width="0.3" height="0.3"/>
		<rect x="75.1" y="27.4" class="st3" width="0.3" height="0.3"/>
		<rect x="75.1" y="28.2" class="st3" width="0.3" height="0.3"/>
		<rect x="75.1" y="29" class="st3" width="0.3" height="0.3"/>
		<rect x="75.1" y="29.8" class="st3" width="0.3" height="0.3"/>
		<rect x="75.1" y="30.6" class="st3" width="0.3" height="0.3"/>
		<rect x="75.1" y="31.3" class="st3" width="0.3" height="0.3"/>
		<rect x="75.1" y="32.1" class="st3" width="0.3" height="0.3"/>
		<rect x="75.1" y="32.9" class="st3" width="0.3" height="0.3"/>
		<rect x="75.1" y="33.7" class="st3" width="0.3" height="0.3"/>
		<rect x="75.1" y="34.5" class="st3" width="0.3" height="0.3"/>
	</g>
	<g>
		<rect x="79.4" y="21.2" class="st3" width="0.3" height="0.3"/>
		<rect x="79.4" y="21.9" class="st3" width="0.3" height="0.3"/>
		<rect x="79.4" y="22.7" class="st3" width="0.3" height="0.3"/>
		<rect x="79.4" y="23.5" class="st3" width="0.3" height="0.3"/>
		<rect x="79.4" y="24.3" class="st3" width="0.3" height="0.3"/>
		<rect x="79.4" y="25.1" class="st3" width="0.3" height="0.3"/>
		<rect x="79.4" y="25.9" class="st3" width="0.3" height="0.3"/>
		<rect x="79.4" y="26.6" class="st3" width="0.3" height="0.3"/>
		<rect x="79.4" y="27.4" class="st3" width="0.3" height="0.3"/>
		<rect x="79.4" y="28.2" class="st3" width="0.3" height="0.3"/>
		<rect x="79.4" y="29" class="st3" width="0.3" height="0.3"/>
		<rect x="79.4" y="29.8" class="st3" width="0.3" height="0.3"/>
		<rect x="79.4" y="30.6" class="st3" width="0.3" height="0.3"/>
		<rect x="79.4" y="31.3" class="st3" width="0.3" height="0.3"/>
		<rect x="79.4" y="32.1" class="st3" width="0.3" height="0.3"/>
		<rect x="79.4" y="32.9" class="st3" width="0.3" height="0.3"/>
		<rect x="79.4" y="33.7" class="st3" width="0.3" height="0.3"/>
		<rect x="79.4" y="34.5" class="st3" width="0.3" height="0.3"/>
	</g>
	<g>
		<rect x="76.2" y="38.3" class="st3" width="0.4" height="0.4"/>
		<rect x="76.2" y="39.5" class="st3" width="0.4" height="0.4"/>
		<rect x="76.2" y="40.7" class="st3" width="0.4" height="0.4"/>
		<rect x="76.2" y="41.9" class="st3" width="0.4" height="0.4"/>
		<rect x="76.2" y="43.1" class="st3" width="0.4" height="0.4"/>
		<rect x="76.2" y="44.3" class="st3" width="0.4" height="0.4"/>
	</g>
	<g>
		<rect x="79.7" y="38.3" class="st3" width="0.4" height="0.4"/>
		<rect x="79.7" y="39.5" class="st3" width="0.4" height="0.4"/>
		<rect x="79.7" y="40.7" class="st3" width="0.4" height="0.4"/>
		<rect x="79.7" y="41.9" class="st3" width="0.4" height="0.4"/>
		<rect x="79.7" y="43.1" class="st3" width="0.4" height="0.4"/>
		<rect x="79.7" y="44.3" class="st3" width="0.4" height="0.4"/>
	</g>
	<path class="st3" d="M22,34h-1.7c-0.4,0-0.7-0.3-0.7-0.7v-1.7c0-0.4,0.3-0.7,0.7-0.7H22c0.4,0,0.7,0.3,0.7,0.7v1.7
		C22.7,33.7,22.4,34,22,34z"/>
	<path class="st4" d="M17.2,55.3h-1.1c-0.6,0-1-0.5-1-1v-4.6c0-0.6,0.5-1,1-1h1.1c0.6,0,1,0.5,1,1v4.6
		C18.2,54.8,17.8,55.3,17.2,55.3z"/>
	<rect x="79.6" y="49.3" class="st3" width="1.6" height="2.3"/>
	<rect x="79.6" y="52" class="st3" width="1.6" height="2.3"/>
	
		<rect x="50.5" y="44.4" transform="matrix(0.7274 0.6862 -0.6862 0.7274 46.7831 -23.6643)" class="st3" width="5.4" height="5.4"/>
	<path class="st3" d="M17.1,20.4h-2.4c-0.2,0-0.4-0.2-0.4-0.4v-0.3c0-0.2,0.2-0.4,0.4-0.4h2.4c0.2,0,0.4,0.2,0.4,0.4V20
		C17.5,20.2,17.3,20.4,17.1,20.4z"/>
	<rect x="16.4" y="19.7" class="st3" width="0.2" height="0.2"/>
	<rect x="15.2" y="19.7" class="st3" width="0.2" height="0.2"/>
	<path class="st3" d="M17.1,21.8h-2.4c-0.2,0-0.4-0.2-0.4-0.4V21c0-0.2,0.2-0.4,0.4-0.4h2.4c0.2,0,0.4,0.2,0.4,0.4v0.3
		C17.5,21.6,17.3,21.8,17.1,21.8z"/>
	<rect x="16.4" y="21.1" class="st3" width="0.2" height="0.2"/>
	<rect x="15.2" y="21.1" class="st3" width="0.2" height="0.2"/>
	<path class="st3" d="M17.1,23.1h-2.4c-0.2,0-0.4-0.2-0.4-0.4v-0.3c0-0.2,0.2-0.4,0.4-0.4h2.4c0.2,0,0.4,0.2,0.4,0.4v0.3
		C17.5,23,17.3,23.1,17.1,23.1z"/>
	<rect x="16.4" y="22.5" class="st3" width="0.2" height="0.2"/>
	<rect x="15.2" y="22.5" class="st3" width="0.2" height="0.2"/>
	<path class="st3" d="M17.1,24.5h-2.4c-0.2,0-0.4-0.2-0.4-0.4v-0.3c0-0.2,0.2-0.4,0.4-0.4h2.4c0.2,0,0.4,0.2,0.4,0.4v0.3
		C17.5,24.3,17.3,24.5,17.1,24.5z"/>
	<rect x="16.4" y="23.8" class="st3" width="0.2" height="0.2"/>
	<rect x="15.2" y="23.8" class="st3" width="0.2" height="0.2"/>
	<path class="st3" d="M17.1,25.9h-2.4c-0.2,0-0.4-0.2-0.4-0.4v-0.3c0-0.2,0.2-0.4,0.4-0.4h2.4c0.2,0,0.4,0.2,0.4,0.4v0.3
		C17.5,25.7,17.3,25.9,17.1,25.9z"/>
	<rect x="16.4" y="25.2" class="st3" width="0.2" height="0.2"/>
	<rect x="15.2" y="25.2" class="st3" width="0.2" height="0.2"/>
	<path class="st3" d="M17.1,27.3h-2.4c-0.2,0-0.4-0.2-0.4-0.4v-0.3c0-0.2,0.2-0.4,0.4-0.4h2.4c0.2,0,0.4,0.2,0.4,0.4v0.3
		C17.5,27.1,17.3,27.3,17.1,27.3z"/>
	<rect x="16.4" y="26.6" class="st3" width="0.2" height="0.2"/>
	<rect x="15.2" y="26.6" class="st3" width="0.2" height="0.2"/>
	<path class="st3" d="M17.1,28.6h-2.4c-0.2,0-0.4-0.2-0.4-0.4v-0.3c0-0.2,0.2-0.4,0.4-0.4h2.4c0.2,0,0.4,0.2,0.4,0.4v0.3
		C17.5,28.4,17.3,28.6,17.1,28.6z"/>
	<rect x="16.4" y="28" class="st3" width="0.2" height="0.2"/>
	<rect x="15.2" y="28" class="st3" width="0.2" height="0.2"/>
	<path class="st3" d="M17.1,30h-2.4c-0.2,0-0.4-0.2-0.4-0.4v-0.3c0-0.2,0.2-0.4,0.4-0.4h2.4c0.2,0,0.4,0.2,0.4,0.4v0.3
		C17.5,29.8,17.3,30,17.1,30z"/>
	<rect x="16.4" y="29.3" class="st3" width="0.2" height="0.2"/>
	<rect x="15.2" y="29.3" class="st3" width="0.2" height="0.2"/>
	<path class="st3" d="M17.1,31.4h-2.4c-0.2,0-0.4-0.2-0.4-0.4v-0.3c0-0.2,0.2-0.4,0.4-0.4h2.4c0.2,0,0.4,0.2,0.4,0.4V31
		C17.5,31.2,17.3,31.4,17.1,31.4z"/>
	<rect x="16.4" y="30.7" class="st3" width="0.2" height="0.2"/>
	<rect x="15.2" y="30.7" class="st3" width="0.2" height="0.2"/>
	<path class="st3" d="M17.1,32.7h-2.4c-0.2,0-0.4-0.2-0.4-0.4V32c0-0.2,0.2-0.4,0.4-0.4h2.4c0.2,0,0.4,0.2,0.4,0.4v0.3
		C17.5,32.6,17.3,32.7,17.1,32.7z"/>
	<rect x="16.4" y="32.1" class="st3" width="0.2" height="0.2"/>
	<rect x="15.2" y="32.1" class="st3" width="0.2" height="0.2"/>
	<path class="st3" d="M17.1,34.1h-2.4c-0.2,0-0.4-0.2-0.4-0.4v-0.3c0-0.2,0.2-0.4,0.4-0.4h2.4c0.2,0,0.4,0.2,0.4,0.4v0.3
		C17.5,33.9,17.3,34.1,17.1,34.1z"/>
	<rect x="16.4" y="33.4" class="st3" width="0.2" height="0.2"/>
	<rect x="15.2" y="33.4" class="st3" width="0.2" height="0.2"/>
	<path class="st3" d="M17.1,35.5h-2.4c-0.2,0-0.4-0.2-0.4-0.4v-0.3c0-0.2,0.2-0.4,0.4-0.4h2.4c0.2,0,0.4,0.2,0.4,0.4v0.3
		C17.5,35.3,17.3,35.5,17.1,35.5z"/>
	<rect x="16.4" y="34.8" class="st3" width="0.2" height="0.2"/>
	<rect x="15.2" y="34.8" class="st3" width="0.2" height="0.2"/>
	<path class="st3" d="M17.1,36.9h-2.4c-0.2,0-0.4-0.2-0.4-0.4v-0.3c0-0.2,0.2-0.4,0.4-0.4h2.4c0.2,0,0.4,0.2,0.4,0.4v0.3
		C17.5,36.7,17.3,36.9,17.1,36.9z"/>
	<rect x="16.4" y="36.2" class="st3" width="0.2" height="0.2"/>
	<rect x="15.2" y="36.2" class="st3" width="0.2" height="0.2"/>
	<path class="st3" d="M17.1,38.2h-2.4c-0.2,0-0.4-0.2-0.4-0.4v-0.3c0-0.2,0.2-0.4,0.4-0.4h2.4c0.2,0,0.4,0.2,0.4,0.4v0.3
		C17.5,38,17.3,38.2,17.1,38.2z"/>
	<rect x="16.4" y="37.6" class="st3" width="0.2" height="0.2"/>
	<rect x="15.2" y="37.6" class="st3" width="0.2" height="0.2"/>
	<path class="st3" d="M17.1,39.6h-2.4c-0.2,0-0.4-0.2-0.4-0.4v-0.3c0-0.2,0.2-0.4,0.4-0.4h2.4c0.2,0,0.4,0.2,0.4,0.4v0.3
		C17.5,39.4,17.3,39.6,17.1,39.6z"/>
	<rect x="16.4" y="38.9" class="st3" width="0.2" height="0.2"/>
	<rect x="15.2" y="38.9" class="st3" width="0.2" height="0.2"/>
	<path class="st3" d="M17.1,41h-2.4c-0.2,0-0.4-0.2-0.4-0.4v-0.3c0-0.2,0.2-0.4,0.4-0.4h2.4c0.2,0,0.4,0.2,0.4,0.4v0.3
		C17.5,40.8,17.3,41,17.1,41z"/>
	<rect x="16.4" y="40.3" class="st3" width="0.2" height="0.2"/>
	<rect x="15.2" y="40.3" class="st3" width="0.2" height="0.2"/>
	<path class="st3" d="M17.1,42.3h-2.4c-0.2,0-0.4-0.2-0.4-0.4v-0.3c0-0.2,0.2-0.4,0.4-0.4h2.4c0.2,0,0.4,0.2,0.4,0.4v0.3
		C17.5,42.2,17.3,42.3,17.1,42.3z"/>
	<rect x="16.4" y="41.7" class="st3" width="0.2" height="0.2"/>
	<rect x="15.2" y="41.7" class="st3" width="0.2" height="0.2"/>
	<path class="st3" d="M17.1,43.7h-2.4c-0.2,0-0.4-0.2-0.4-0.4V43c0-0.2,0.2-0.4,0.4-0.4h2.4c0.2,0,0.4,0.2,0.4,0.4v0.3
		C17.5,43.5,17.3,43.7,17.1,43.7z"/>
	<rect x="16.4" y="43" class="st3" width="0.2" height="0.2"/>
	<rect x="15.2" y="43" class="st3" width="0.2" height="0.2"/>
	<path class="st3" d="M17.1,45.1h-2.4c-0.2,0-0.4-0.2-0.4-0.4v-0.3c0-0.2,0.2-0.4,0.4-0.4h2.4c0.2,0,0.4,0.2,0.4,0.4v0.3
		C17.5,44.9,17.3,45.1,17.1,45.1z"/>
	<rect x="16.4" y="44.4" class="st3" width="0.2" height="0.2"/>
	<rect x="15.2" y="44.4" class="st3" width="0.2" height="0.2"/>
	<path class="st3" d="M17.1,46.5h-2.4c-0.2,0-0.4-0.2-0.4-0.4v-0.3c0-0.2,0.2-0.4,0.4-0.4h2.4c0.2,0,0.4,0.2,0.4,0.4v0.3
		C17.5,46.3,17.3,46.5,17.1,46.5z"/>
	<rect x="16.4" y="45.8" class="st3" width="0.2" height="0.2"/>
	<rect x="15.2" y="45.8" class="st3" width="0.2" height="0.2"/>
</g>
</svg>
