<svg xmlns="http://www.w3.org/2000/svg" viewBox="0 0 96 96"><g id="backgroup-white"><rect x="0.01" width="96" height="96" style="fill:#fff"/></g><g id="board_hobbit"><g id="layer1"><g id="g5099"><path id="path11" d="M86.16,27.6H7.9C6.27,27.6,5,29.23,5,31.26V61c0,2,1.32,3.66,3,3.66H86.16c1.63,0,3-1.63,3-3.66V31.26C89.12,29.23,87.79,27.6,86.16,27.6Z" style="fill:#145f32"/><path id="path13" d="M90.34,44H79.41a.84.84,0,0,1-.85-.85v-5.9a.84.84,0,0,1,.85-.85H90.34a.83.83,0,0,1,.84.85v5.9A.83.83,0,0,1,90.34,44Z" style="fill:#192624"/><g id="g15"><circle id="circle17" cx="8.95" cy="31.09" r="2.37" style="fill:#ae7e20"/><circle id="circle19" cx="8.95" cy="31.09" r="1.49" style="fill:#fff"/></g><g id="g21"><circle id="circle23" cx="45.25" cy="31.09" r="2.37" style="fill:#ae7e20"/><circle id="circle25" cx="45.25" cy="31.09" r="1.49" style="fill:#fff"/></g><g id="g27"><circle id="circle29" cx="85.42" cy="31.09" r="2.37" style="fill:#ae7e20"/><circle id="circle31" cx="85.42" cy="31.09" r="1.49" style="fill:#fff"/></g><g id="g33"><circle id="circle35" cx="8.95" cy="61.39" r="2.37" style="fill:#ae7e20"/><circle id="circle37" cx="8.95" cy="61.39" r="1.49" style="fill:#fff"/></g><g id="g39"><circle id="circle41" cx="85.42" cy="61.39" r="2.37" style="fill:#ae7e20"/><circle id="circle43" cx="85.42" cy="61.39" r="1.49" style="fill:#fff"/></g><path id="path45" d="M69.88,49.28V66.54H82.53V49.28Zm1.87,15.6c0-.23,0-5.66,0-5.66s0-.61.54-.61.55,0,.55,0h.54s.44,0,.44.51V65s0,.61-.2.61-.24-.64-.24-.64L73.2,60.1h-.78l-.17,4.82s0,.78-.23.78-.27-.61-.27-.82Zm6.81,0c0-.23,0-5.66,0-5.66s0-.61.54-.61.55,0,.55,0h.54s.44,0,.44.51V65s0,.61-.2.61-.24-.64-.24-.64L80,60.1h-.78l-.17,4.82s0,.78-.23.78-.28-.61-.28-.82Z" style="fill:#cacaca"/><g id="g47"><path id="path49" d="M18,67.87h-.64A1.83,1.83,0,0,1,15.53,66V62.91a1.83,1.83,0,0,1,1.84-1.83H18a1.82,1.82,0,0,1,1.83,1.83V66A1.87,1.87,0,0,1,18,67.87Z" style="fill:#141414"/><rect id="rect51" x="14.45" y="58" width="6.48" height="7.6" style="fill:#141414"/><polygon id="polygon53" points="20.93 62.81 17.81 64.81 17.81 62.81 20.93 60.81 20.93 62.81" style="fill:#cacaca"/></g><path id="path55" d="M66.89,67.63h-.23V50.74H61.5V67.63h-.27a.21.21,0,0,0,0,.41h.34a.22.22,0,0,0,.2-.21v-.06h.78a.34.34,0,0,0,.34.34h2.58a.34.34,0,0,0,.34-.34h.61v.06a.22.22,0,0,0,.2.21H67a.23.23,0,0,0,.21-.21c-.07-.13-.14-.2-.28-.2ZM63.6,59.86a.47.47,0,0,1,.48-.47.46.46,0,0,1,.47.47v.41a.46.46,0,0,1-.47.47.47.47,0,0,1-.48-.47Zm-.81,6.31.37-4.82s0-.23.21-.23l1.25,0a.25.25,0,0,1,.24.24c.07.24.34,4.75.34,4.75s.07.31-.2.31-.28-.31-.28-.31l-.47-4.14H63.6l-.47,4.17s0,.28-.27.28-.07-.21-.07-.21Z" style="fill:#cacaca"/><g id="g57"><path id="path59" d="M59.16,64H29a.38.38,0,0,1-.38-.37V36.49a.38.38,0,0,1,.38-.38H59.16a.38.38,0,0,1,.37.38V63.63A.38.38,0,0,1,59.16,64Z" style="fill:#004727"/><g id="g61"><circle id="circle63" cx="46.17" cy="38.42" r="1.49" style="fill:#ae7e20"/><circle id="circle65" cx="46.17" cy="38.42" r="0.92" style="fill:#fff"/></g><g id="g67"><circle id="circle69" cx="57.46" cy="50.91" r="1.49" style="fill:#ae7e20"/><circle id="circle71" cx="57.46" cy="50.91" r="0.92" style="fill:#fff"/></g><g id="g73"><circle id="circle75" cx="30.46" cy="56.67" r="1.49" style="fill:#ae7e20"/><circle id="circle77" cx="30.46" cy="56.67" r="0.92" style="fill:#fff"/></g><g id="g79"><g id="g81"><rect id="rect83" x="48.41" y="36.9" width="9.13" height="12.08" style="fill:#145f32"/><polygon id="polygon85" points="57.13 48.67 57.13 39.41 54.78 39.41 54.78 37.2 51.15 37.2 51.15 39.41 48.81 39.41 48.81 48.67 57.13 48.67" style="fill:#cacaca"/></g><rect id="rect87" x="30.77" y="40.15" width="14.42" height="14.28" style="fill:#252726"/><rect id="rect89" x="34.53" y="57.01" width="9.36" height="5.39" style="fill:#252726"/><rect id="rect91" x="51.05" y="54.43" width="5.26" height="5.16" style="fill:#252726"/></g></g></g><g id="text4148"><path id="path4178" d="M2.08,33.64H4.8V45.28h9.91V33.64h2.73V62H14.71V48.51H4.8V62H2.08V33.64Z" style="fill:#b81c22"/><path d="M17.44,62.25H14.71a.23.23,0,0,1-.23-.22V48.73H5V62a.22.22,0,0,1-.23.22H2.07A.22.22,0,0,1,1.85,62V33.64a.23.23,0,0,1,.22-.23H4.8a.23.23,0,0,1,.23.23V45.05h9.45V33.64a.24.24,0,0,1,.23-.23h2.73a.23.23,0,0,1,.23.23V62A.22.22,0,0,1,17.44,62.25Zm-2.5-.45h2.27V33.87H14.94V45.28a.22.22,0,0,1-.23.22H4.8a.23.23,0,0,1-.23-.22V33.87H2.3V61.8H4.57V48.51a.23.23,0,0,1,.23-.23h9.91a.23.23,0,0,1,.23.23Z" style="fill:#ff0"/><path id="path4180" d="M28.32,36.25q-3,0-4.72,3.11a17.53,17.53,0,0,0-1.74,8.5,17.45,17.45,0,0,0,1.74,8.48q1.75,3.12,4.72,3.12c2,0,3.55-1,4.7-3.12a17.44,17.44,0,0,0,1.75-8.48A17.53,17.53,0,0,0,33,39.36c-1.15-2.07-2.71-3.11-4.7-3.11Zm0-3.12a7.72,7.72,0,0,1,6.78,4q2.53,4,2.54,10.72T35.1,58.58a7.76,7.76,0,0,1-13.58,0Q19,54.59,19,47.86t2.54-10.72a7.76,7.76,0,0,1,6.8-4Z" style="fill:#b81c22"/><path d="M28.32,62.8a8,8,0,0,1-7-4.09c-1.71-2.69-2.58-6.34-2.58-10.85S19.62,39.7,21.33,37a8,8,0,0,1,14,0c1.71,2.68,2.58,6.33,2.58,10.84S37,56,35.29,58.71A7.94,7.94,0,0,1,28.32,62.8Zm0-29.44a7.58,7.58,0,0,0-6.61,3.9c-1.66,2.61-2.5,6.18-2.5,10.6s.84,8,2.5,10.6a7.54,7.54,0,0,0,13.2,0c1.66-2.62,2.5-6.19,2.5-10.6s-.84-8-2.5-10.6A7.52,7.52,0,0,0,28.32,33.36Zm0,26.33c-2.05,0-3.71-1.09-4.92-3.24a17.78,17.78,0,0,1-1.77-8.59,17.87,17.87,0,0,1,1.77-8.61C24.61,37.11,26.27,36,28.32,36s3.71,1.09,4.9,3.23A17.75,17.75,0,0,1,35,47.86a17.67,17.67,0,0,1-1.77,8.59C32,58.6,30.38,59.69,28.32,59.69Zm0-23.22c-1.9,0-3.39,1-4.52,3a17.27,17.27,0,0,0-1.72,8.38,17.25,17.25,0,0,0,1.72,8.37c1.13,2,2.62,3,4.52,3s3.38-1,4.5-3a17.25,17.25,0,0,0,1.72-8.37,17.34,17.34,0,0,0-1.72-8.39C31.71,37.45,30.23,36.47,28.32,36.47Z" style="fill:#ff0"/><path id="path4182" d="M41.91,48.47v10.4h4.37a4,4,0,0,0,3.26-1.27,6.13,6.13,0,0,0,1.07-3.94,6,6,0,0,0-1.07-3.92,4,4,0,0,0-3.26-1.27Zm0-11.67v8.55h4a3.9,3.9,0,0,0,3-1,4.67,4.67,0,0,0,1-3.24,4.62,4.62,0,0,0-1-3.21,3.83,3.83,0,0,0-3-1.06Zm-2.73-3.16h7A6.23,6.23,0,0,1,51,35.47a7.37,7.37,0,0,1,1.68,5.19,8.44,8.44,0,0,1-.86,4.14,3.74,3.74,0,0,1-2.54,1.92,5.3,5.3,0,0,1,3.12,2.55,9.38,9.38,0,0,1,1.12,4.81A8.53,8.53,0,0,1,51.64,60,6.57,6.57,0,0,1,46.42,62H39.18V33.64Z" style="fill:#b81c22"/><path d="M46.42,62.25H39.18A.22.22,0,0,1,39,62V33.64a.23.23,0,0,1,.22-.23h7a6.44,6.44,0,0,1,5,1.9,7.64,7.64,0,0,1,1.75,5.35A8.75,8.75,0,0,1,52,44.91a4,4,0,0,1-2,1.83,5.59,5.59,0,0,1,2.61,2.42,9.71,9.71,0,0,1,1.15,4.92,8.82,8.82,0,0,1-1.9,6A6.85,6.85,0,0,1,46.42,62.25Zm-7-.45h7a6.39,6.39,0,0,0,5-2,8.34,8.34,0,0,0,1.78-5.72,9.18,9.18,0,0,0-1.09-4.7,5.08,5.08,0,0,0-3-2.44.24.24,0,0,1-.17-.23.23.23,0,0,1,.18-.21,3.51,3.51,0,0,0,2.39-1.81,8.22,8.22,0,0,0,.84-4,7.19,7.19,0,0,0-1.63-5,6.05,6.05,0,0,0-4.64-1.75H39.41Zm6.87-2.7H41.91a.23.23,0,0,1-.23-.23V48.47a.24.24,0,0,1,.23-.23h4.37a4.2,4.2,0,0,1,3.43,1.36,6.15,6.15,0,0,1,1.12,4.06,6.29,6.29,0,0,1-1.12,4.08A4.2,4.2,0,0,1,46.28,59.1Zm-4.14-.46h4.14a3.78,3.78,0,0,0,3.08-1.19,5.86,5.86,0,0,0,1-3.79,5.8,5.8,0,0,0-1-3.77,3.82,3.82,0,0,0-3.09-1.19H42.14ZM46,45.58h-4a.23.23,0,0,1-.23-.23V36.8a.23.23,0,0,1,.23-.23h4a4,4,0,0,1,3.13,1.14,4.78,4.78,0,0,1,1.05,3.36,4.83,4.83,0,0,1-1.05,3.39A4.09,4.09,0,0,1,46,45.58Zm-3.81-.46H46a3.65,3.65,0,0,0,2.8-1,4.43,4.43,0,0,0,.93-3.08,4.4,4.4,0,0,0-.93-3A3.62,3.62,0,0,0,46,37H42.14Z" style="fill:#ff0"/><path id="path4184" d="M58.14,48.47v10.4h4.38a4,4,0,0,0,3.25-1.27,6.13,6.13,0,0,0,1.07-3.94,6,6,0,0,0-1.07-3.92,4,4,0,0,0-3.25-1.27Zm0-11.67v8.55h4a3.9,3.9,0,0,0,3-1,4.62,4.62,0,0,0,1-3.24,4.57,4.57,0,0,0-1-3.21,3.83,3.83,0,0,0-3-1.06Zm-2.73-3.16h7a6.23,6.23,0,0,1,4.81,1.83,7.37,7.37,0,0,1,1.69,5.19A8.44,8.44,0,0,1,68,44.8a3.72,3.72,0,0,1-2.54,1.92,5.3,5.3,0,0,1,3.12,2.55,9.38,9.38,0,0,1,1.12,4.81A8.58,8.58,0,0,1,67.88,60,6.61,6.61,0,0,1,62.65,62H55.41V33.64Z" style="fill:#b81c22"/><path d="M62.65,62.25H55.41a.22.22,0,0,1-.22-.22V33.64a.23.23,0,0,1,.22-.23h7a6.48,6.48,0,0,1,5,1.9,7.67,7.67,0,0,1,1.74,5.35,8.72,8.72,0,0,1-.89,4.25,4,4,0,0,1-2,1.83,5.54,5.54,0,0,1,2.61,2.42,9.71,9.71,0,0,1,1.15,4.92,8.87,8.87,0,0,1-1.89,6A6.89,6.89,0,0,1,62.65,62.25Zm-7-.45h7a6.43,6.43,0,0,0,5.06-2,8.37,8.37,0,0,0,1.78-5.72,9.29,9.29,0,0,0-1.09-4.7,5.1,5.1,0,0,0-3-2.44.22.22,0,0,1-.16-.23.21.21,0,0,1,.17-.21,3.48,3.48,0,0,0,2.39-1.81,8.22,8.22,0,0,0,.84-4,7.19,7.19,0,0,0-1.63-5,6,6,0,0,0-4.64-1.75H55.64Zm6.88-2.7H58.14a.23.23,0,0,1-.23-.23V48.47a.24.24,0,0,1,.23-.23h4.38A4.22,4.22,0,0,1,66,49.6a6.21,6.21,0,0,1,1.11,4.06A6.35,6.35,0,0,1,66,57.74,4.22,4.22,0,0,1,62.52,59.1Zm-4.15-.46h4.15a3.76,3.76,0,0,0,3.07-1.19,5.86,5.86,0,0,0,1-3.79,5.8,5.8,0,0,0-1-3.77,3.81,3.81,0,0,0-3.08-1.19H58.37Zm3.81-13.06h-4a.23.23,0,0,1-.23-.23V36.8a.23.23,0,0,1,.23-.23h4a4.05,4.05,0,0,1,3.14,1.14,4.83,4.83,0,0,1,1,3.36,4.88,4.88,0,0,1-1,3.39A4.12,4.12,0,0,1,62.18,45.58Zm-3.81-.46h3.81a3.65,3.65,0,0,0,2.8-1,4.4,4.4,0,0,0,.93-3.08A4.35,4.35,0,0,0,65,38a3.62,3.62,0,0,0-2.8-1H58.37Z" style="fill:#ff0"/><path id="path4186" d="M71.65,33.64h2.72V62H71.65V33.64Z" style="fill:#b81c22"/><path d="M74.37,62.25H71.65a.22.22,0,0,1-.23-.22V33.64a.23.23,0,0,1,.23-.23h2.72a.23.23,0,0,1,.23.23V62A.22.22,0,0,1,74.37,62.25Zm-2.5-.45h2.28V33.87H71.87Z" style="fill:#ff0"/><path id="path4188" d="M77,33.64h17v3.23H86.9V62H84.16V36.87H77V33.64Z" style="fill:#b81c22"/><path d="M86.9,62.25H84.16a.22.22,0,0,1-.22-.22V37.1H77a.23.23,0,0,1-.23-.23V33.64a.23.23,0,0,1,.23-.23h17a.23.23,0,0,1,.22.23v3.23a.22.22,0,0,1-.22.23H87.13V62A.22.22,0,0,1,86.9,62.25Zm-2.51-.45h2.29V36.87a.22.22,0,0,1,.22-.22h6.93V33.87H77.23v2.78h6.93a.22.22,0,0,1,.23.22Z" style="fill:#ff0"/></g></g></g></svg>