<svg id="圖層_1" data-name="圖層 1" xmlns="http://www.w3.org/2000/svg" viewBox="0 0 96 96"><rect x="0.01" y="0.02" width="96" height="96" style="fill:#fff"/><g id="text4188"><g style="isolation:isolate"><path d="M20.33,89V77.5h1.52v4.7H27.8V77.5h1.52V89H27.8v-5.4H21.85V89Z" style="fill:#10366a"/><path d="M31.38,83.37a6.21,6.21,0,0,1,1.53-4.46,5.19,5.19,0,0,1,4-1.62,5.53,5.53,0,0,1,2.86.76,5,5,0,0,1,2,2.12,6.89,6.89,0,0,1,.66,3.07,6.76,6.76,0,0,1-.7,3.12,4.82,4.82,0,0,1-2,2.08,5.72,5.72,0,0,1-2.78.71A5.4,5.4,0,0,1,34,88.36,5,5,0,0,1,32,86.23,6.42,6.42,0,0,1,31.38,83.37Zm1.56,0a4.56,4.56,0,0,0,1.12,3.26,3.89,3.89,0,0,0,5.61,0,4.92,4.92,0,0,0,1.1-3.42,6,6,0,0,0-.47-2.44,3.72,3.72,0,0,0-1.38-1.62,3.79,3.79,0,0,0-2.05-.57,3.92,3.92,0,0,0-2.77,1.1A5,5,0,0,0,32.94,83.4Z" style="fill:#10366a"/><path d="M44.22,89V77.5h4.3a5.38,5.38,0,0,1,2.11.34,2.77,2.77,0,0,1,1.24,1.08,2.8,2.8,0,0,1,.45,1.51,2.63,2.63,0,0,1-.4,1.38,3,3,0,0,1-1.2,1,3,3,0,0,1,1.59,1,2.7,2.7,0,0,1,.56,1.73,3.3,3.3,0,0,1-.34,1.5,2.75,2.75,0,0,1-.84,1.06,3.52,3.52,0,0,1-1.25.57,7.52,7.52,0,0,1-1.85.19Zm1.52-6.64h2.48a5.45,5.45,0,0,0,1.44-.13,1.52,1.52,0,0,0,1.17-1.57,1.89,1.89,0,0,0-.28-1,1.37,1.37,0,0,0-.78-.59A6.39,6.39,0,0,0,48,78.85H45.74Zm0,5.29h2.85a6,6,0,0,0,1-.06,2.4,2.4,0,0,0,.88-.31,1.73,1.73,0,0,0,.58-.64,2,2,0,0,0,.22-1A1.87,1.87,0,0,0,51,84.52a1.72,1.72,0,0,0-.91-.67,5.53,5.53,0,0,0-1.67-.19H45.74Z" style="fill:#10366a"/><path d="M54.9,89V77.5h4.29a5.38,5.38,0,0,1,2.11.34,2.72,2.72,0,0,1,1.24,1.08A2.8,2.8,0,0,1,63,80.43a2.54,2.54,0,0,1-.4,1.38,2.89,2.89,0,0,1-1.2,1,3,3,0,0,1,1.6,1,2.75,2.75,0,0,1,.55,1.73,3.3,3.3,0,0,1-.34,1.5,2.75,2.75,0,0,1-.84,1.06,3.52,3.52,0,0,1-1.25.57,7.52,7.52,0,0,1-1.85.19Zm1.51-6.64h2.48a5.45,5.45,0,0,0,1.44-.13,1.52,1.52,0,0,0,1.17-1.57,1.81,1.81,0,0,0-.28-1,1.37,1.37,0,0,0-.78-.59,6.39,6.39,0,0,0-1.74-.16H56.41Zm0,5.29h2.85a5.91,5.91,0,0,0,1-.06,2.4,2.4,0,0,0,.88-.31,1.65,1.65,0,0,0,.58-.64,2,2,0,0,0,.22-1,1.93,1.93,0,0,0-.32-1.11,1.76,1.76,0,0,0-.91-.67,5.61,5.61,0,0,0-1.68-.19H56.41Z" style="fill:#10366a"/><path d="M65.89,89V77.5H67.4V89Z" style="fill:#10366a"/><path d="M73,89V78.85H69.22V77.5h9.07v1.35H74.5V89Z" style="fill:#10366a"/></g></g><path id="path11" d="M83,29.29H11.4c-1.5,0-2.66,1.49-2.66,3.35v27.2c0,1.83,1.21,3.35,2.75,3.35H83c1.49,0,2.74-1.49,2.74-3.35V32.64C85.7,30.78,84.48,29.29,83,29.29Z" style="fill:#10366a"/><path id="path13" d="M86.81,44.29h-10a.76.76,0,0,1-.77-.76h0v-5.4a.76.76,0,0,1,.76-.78h10a.76.76,0,0,1,.77.75v5.43a.76.76,0,0,1-.74.77Z" style="fill:#fff"/><path d="M76.8,44.74a1.22,1.22,0,0,1-1.21-1.2V38.12a1.22,1.22,0,0,1,1.2-1.22h10a1.12,1.12,0,0,1,.85.34,1.16,1.16,0,0,1,.36.85v5.43a1.16,1.16,0,0,1-.33.84,1.18,1.18,0,0,1-.84.38h-10Zm10-.89v0a.33.33,0,0,0,.23-.1.31.31,0,0,0,.09-.22V38.12a.34.34,0,0,0-.1-.25.36.36,0,0,0-.22-.09h-10a.33.33,0,0,0-.33.33v5.41a.33.33,0,0,0,.33.33h10Z" style="fill:#103770"/><circle id="circle17" cx="12.36" cy="32.48" r="2.17" style="fill:#fff"/><circle id="circle19" cx="12.36" cy="32.48" r="1.36" style="fill:#10366a"/><circle id="circle23" cx="45.56" cy="32.48" r="2.17" style="fill:#fff"/><circle id="circle25" cx="45.56" cy="32.48" r="1.36" style="fill:#10366a"/><circle id="circle29" cx="82.31" cy="32.48" r="2.17" style="fill:#fff"/><circle id="circle31" cx="82.31" cy="32.48" r="1.36" style="fill:#10366a"/><circle id="circle35" cx="12.36" cy="60.2" r="2.17" style="fill:#fff"/><circle id="circle37" cx="12.36" cy="60.2" r="1.36" style="fill:#10366a"/><circle id="circle41" cx="82.31" cy="60.2" r="2.17" style="fill:#fff"/><circle id="circle43" cx="82.31" cy="60.2" r="1.36" style="fill:#10366a"/><rect x="68.1" y="49.12" width="11.57" height="15.79" style="fill:#fff"/><path d="M80.11,65.36H67.65V48.68H80.11Zm-11.57-.89H79.22V49.57H68.54Z" style="fill:#103770"/><path d="M69.81,63.39V58.22s0-.56.49-.56h1a.41.41,0,0,1,.4.46V63.5s0,.56-.18.56-.22-.58-.22-.58L71.13,59h-.71l-.16,4.41s0,.71-.21.71S69.81,63.59,69.81,63.39Z" style="fill:#103770"/><path d="M76,63.39V58.22s0-.56.49-.56h1a.41.41,0,0,1,.4.46V63.5s0,.56-.18.56-.22-.58-.22-.58L77.35,59h-.71l-.16,4.41s0,.71-.21.71-.25-.55-.25-.75Z" style="fill:#103770"/><path d="M23.32,57.1H17.39v6.95h1v.41a1.67,1.67,0,0,0,1.67,1.67h.59a1.71,1.71,0,0,0,1.67-1.71v-.37h1Z" style="fill:#fff"/><path d="M20.05,66.57a2.12,2.12,0,0,1-2.12-2.07h-1V56.66h6.82V64.5h-1a2.16,2.16,0,0,1-2.11,2.07Zm-2.22-3h1v.81a1.24,1.24,0,0,0,1.23,1.27h.59a1.28,1.28,0,0,0,1.23-1.27v-.81h1V57.54h-5Z" style="fill:#103770"/><polygon id="polygon53" points="23.32 61.5 20.46 63.33 20.46 61.5 23.32 59.67 23.32 61.5" style="fill:#10366a"/><path d="M65.36,65.91h-.21V50.46H60.43V65.91h-.25a.19.19,0,0,0-.14.23.17.17,0,0,0,.14.14h.31a.2.2,0,0,0,.19-.19v0h.71a.31.31,0,0,0,.31.31h2.36a.31.31,0,0,0,.31-.31h.56v0a.19.19,0,0,0,.18.19h.35a.2.2,0,0,0,.19-.19.26.26,0,0,0-.25-.18Z" style="fill:#fff"/><path d="M64.06,66.79H61.7a.75.75,0,0,1-.61-.31H61a.62.62,0,0,1-.44.25h-.35a.68.68,0,0,1-.58-.5.65.65,0,0,1,.09-.47.57.57,0,0,1,.3-.25V50h5.6V65.49a.71.71,0,0,1,.45.39l.07.12,0,.13a.64.64,0,0,1-.59.6h-.39a.72.72,0,0,1-.46-.22A.76.76,0,0,1,64.06,66.79Zm-2.23-.88h2.1v-.32h.78V50.9H60.87V65.59h1Z" style="fill:#103770"/><path d="M62.35,58.8a.43.43,0,0,1,.43-.43h0a.43.43,0,0,1,.43.41v.4a.43.43,0,0,1-.41.43h0a.44.44,0,0,1-.44-.42h0Z" style="fill:#103770"/><path d="M61.61,64.57,62,60.16s0-.21.19-.21h1.14a.23.23,0,0,1,.22.22c.07.22.31,4.35.31,4.35s.07.28-.18.28-.25-.28-.25-.28L63,60.73h-.6l-.43,3.82a.24.24,0,0,1-.25.25c-.24,0-.06-.19-.06-.19Z" style="fill:#103770"/><path id="path59" d="M58.29,62.59H30.7a.35.35,0,0,1-.35-.34V37.42a.35.35,0,0,1,.35-.34H58.29a.34.34,0,0,1,.34.34V62.25A.36.36,0,0,1,58.29,62.59Z" style="fill:#fff"/><circle id="circle63" cx="46.41" cy="39.19" r="1.36" style="fill:#10366a"/><circle id="circle65" cx="46.41" cy="39.19" r="0.84" style="fill:#fff"/><circle id="circle69" cx="56.73" cy="50.61" r="1.36" style="fill:#10366a"/><circle id="circle71" cx="56.73" cy="50.61" r="0.84" style="fill:#fff"/><circle id="circle75" cx="32.03" cy="55.88" r="1.36" style="fill:#10366a"/><circle id="circle77" cx="32.03" cy="55.88" r="0.84" style="fill:#fff"/><rect id="rect83" x="48.45" y="37.8" width="8.35" height="11.05" style="fill:#10366a"/><polygon id="polygon85" points="56.43 48.56 56.43 40.09 54.28 40.09 54.28 38.07 50.96 38.07 50.96 40.09 48.82 40.09 48.82 48.56 56.43 48.56" style="fill:#fff"/><rect id="rect87" x="32.32" y="40.77" width="13.19" height="13.06" style="fill:#10366a"/><rect id="rect89" x="35.76" y="56.19" width="8.56" height="4.93" style="fill:#10366a"/><rect id="rect91" x="50.87" y="53.83" width="4.81" height="4.72" style="fill:#10366a"/></svg>