<svg xmlns="http://www.w3.org/2000/svg" viewBox="0 0 96 96"><g id="backgroup-white"><rect x="0.01" width="96" height="96" style="fill:#fff"/></g><g id="board_nymph"><g id="layer1"><g id="g5083"><g id="g11"><path id="path13" d="M88.6,13.32H7.22a3.33,3.33,0,0,0-3.08,3.55V73a3.36,3.36,0,0,0,3.08,3.55H88.6A3.33,3.33,0,0,0,91.68,73V16.87A3.33,3.33,0,0,0,88.6,13.32Z" style="fill:#146133"/><g id="g15"><circle id="circle17" cx="8.32" cy="16.95" r="2.45" style="fill:#b4801c"/><circle id="circle19" cx="8.32" cy="16.95" r="1.54" style="fill:#fff"/></g><g id="g21"><circle id="ellipse23" cx="87.83" cy="16.94" r="2.45" style="fill:#b4801c"/><circle id="ellipse25" cx="87.83" cy="16.94" r="1.54" style="fill:#fff"/></g><g id="g27"><circle id="circle29" cx="8.32" cy="72.97" r="2.45" style="fill:#b4801c"/><circle id="circle31" cx="8.32" cy="72.97" r="1.54" style="fill:#fff"/></g><g id="g33"><circle id="ellipse35" cx="87.86" cy="72.93" r="2.45" style="fill:#b4801c"/><circle id="ellipse37" cx="87.86" cy="72.93" r="1.54" style="fill:#fff"/></g></g><path id="path39" d="M11.87,60.38V78.33H25.05V60.38Zm2,16.22c0-.24,0-5.88,0-5.88s0-.63.56-.63.55,0,.55,0h.59s.47,0,.47.51v6.07s0,.63-.19.63-.24-.67-.24-.67l-.24-5.08h-.79l-.15,5s0,.82-.24.82S13.84,76.87,13.84,76.6Zm7.1,0c0-.24,0-5.88,0-5.88s0-.63.56-.63.55,0,.55,0h.55a.45.45,0,0,1,.48.51v6.07s0,.63-.2.63-.24-.67-.24-.67l-.24-5.08h-.74l-.16,5s0,.82-.24.82S20.94,76.87,20.94,76.6Z" style="fill:#cbcbcb"/><g id="g41"><path id="path43" d="M31.32,79.71h-.67a1.89,1.89,0,0,1-1.89-1.89V74.58a1.89,1.89,0,0,1,1.89-1.89h.63a1.89,1.89,0,0,1,1.89,1.89v3.24A1.81,1.81,0,0,1,31.32,79.71Z" style="fill:#151515"/><rect id="rect45" x="27.61" y="69.45" width="6.71" height="7.93" style="fill:#151515"/><polygon id="polygon47" points="34.36 72.37 34.36 74.47 31.12 76.56 31.12 74.47 34.36 72.37" style="fill:#cbcbcb"/></g><g id="g49"><path id="path51" d="M53.49,82.16H44.22a1.35,1.35,0,0,1-1.34-1.34v-3a1.35,1.35,0,0,1,1.34-1.34h9.27a1.35,1.35,0,0,1,1.34,1.34v3A1.33,1.33,0,0,1,53.49,82.16Z" style="fill:#cbcbcb"/><rect id="rect53" x="38.15" y="73.44" width="21.46" height="4.62" style="fill:#162449"/></g><rect id="rect55" x="71.36" y="59.59" width="4.77" height="20.48" style="fill:#cbcbcb"/><path id="path57" d="M69.55,80h-.24V62.39h-5.4V80h-.28a.21.21,0,0,0-.2.2.26.26,0,0,0,.2.19H64a.21.21,0,0,0,.19-.19v-.08H65a.36.36,0,0,0,.36.35H68a.35.35,0,0,0,.35-.35H69v.08a.2.2,0,0,0,.19.19h.36a.21.21,0,0,0,.2-.19C69.75,80,69.71,80,69.55,80Zm-3.43-8a.49.49,0,0,1,.51-.51.5.5,0,0,1,.51.51v.43a.5.5,0,0,1-.51.52.5.5,0,0,1-.51-.52Zm-.83,6.51.39-5s0-.24.2-.24l1.3,0a.26.26,0,0,1,.24.24c.08.24.35,5,.35,5s.08.32-.19.32-.28-.32-.28-.32l-.47-4.3h-.64l-.47,4.34s0,.24-.24.24A.2.2,0,0,1,65.29,78.41Z" style="fill:#cbcbcb"/><g id="g59"><polygon id="polygon61" points="83.95 71.31 83.95 79.04 82.8 79.87 79.17 79.87 78.19 79.04 78.19 71.31 83.95 71.31" style="fill:#151515"/><path id="path63" d="M81.07,72.3h0a.27.27,0,0,1-.28-.28V68.86a.27.27,0,0,1,.28-.27h0a.26.26,0,0,1,.27.27V72C81.38,72.14,81.27,72.3,81.07,72.3Z" style="fill:#cbcbcb"/></g><g id="g65"><path id="path67" d="M62.92,64.17H31.6a.43.43,0,0,1-.4-.4V35.57a.43.43,0,0,1,.4-.4H62.92a.42.42,0,0,1,.39.4v28.2A.37.37,0,0,1,62.92,64.17Z" style="fill:#054827"/><g id="g69"><circle id="circle71" cx="49.43" cy="37.58" r="1.54" style="fill:#b4801c"/><circle id="circle73" cx="49.43" cy="37.58" r="0.99" style="fill:#fff"/></g><g id="g75"><circle id="circle77" cx="61.15" cy="50.56" r="1.54" style="fill:#b4801c"/><circle id="circle79" cx="61.15" cy="50.56" r="0.99" style="fill:#fff"/></g><g id="g81"><circle id="circle83" cx="33.06" cy="56.59" r="1.54" style="fill:#b4801c"/><circle id="circle85" cx="33.06" cy="56.59" r="0.99" style="fill:#fff"/></g><g id="g87"><g id="g89"><rect id="rect91" x="51.76" y="36" width="9.51" height="12.55" style="fill:#146133"/><polygon id="polygon93" points="60.83 38.64 58.38 38.64 58.38 36.32 54.6 36.32 54.6 38.64 52.15 38.64 52.15 48.27 60.83 48.27 60.83 38.64" style="fill:#cbcbcb"/></g><rect id="rect95" x="33.41" y="39.39" width="14.99" height="14.87" style="fill:#262827"/><rect id="rect97" x="37.32" y="56.95" width="9.74" height="5.6" style="fill:#262827"/><rect id="rect99" x="54.48" y="54.27" width="5.48" height="5.37" style="fill:#262827"/></g></g></g><g id="text4148"><path id="path4182" d="M1.22,33.33H5.37l10.1,24.1V33.33h3V62.14H14.31L4.21,38v24.1h-3V33.33Z" style="fill:#b81c22"/><path d="M18.47,62.36H14.31a.23.23,0,0,1-.2-.13L4.43,39.13v23a.22.22,0,0,1-.22.22h-3A.22.22,0,0,1,1,62.14V33.33a.22.22,0,0,1,.22-.22H5.37a.21.21,0,0,1,.2.13l9.69,23.11v-23a.21.21,0,0,1,.21-.22h3a.21.21,0,0,1,.21.22V62.14A.21.21,0,0,1,18.47,62.36Zm-4-.43h3.79V33.55H15.69V57.44a.21.21,0,0,1-.17.21.23.23,0,0,1-.25-.13l-10-24H1.44V61.93H4V38a.23.23,0,0,1,.18-.22.24.24,0,0,1,.24.13Z" style="fill:#ff0"/><path id="path4184" d="M18.39,33.33H21.7L28,45.18l6.27-11.85H37.6l-8,15.09V62.14h-3.1V48.42Z" style="fill:#b81c22"/><path d="M29.55,62.36h-3.1a.22.22,0,0,1-.22-.22V48.48l-8-15a.2.2,0,0,1,0-.21.21.21,0,0,1,.19-.11H21.7a.24.24,0,0,1,.2.12L28,44.71,34.1,33.23a.22.22,0,0,1,.19-.12h3.32a.21.21,0,0,1,.18.11.22.22,0,0,1,0,.21l-8,15V62.14A.22.22,0,0,1,29.55,62.36Zm-2.88-.43h2.66V48.42a.36.36,0,0,1,0-.1l7.89-14.77H34.43L28.21,45.28a.21.21,0,0,1-.19.12h0a.22.22,0,0,1-.19-.12L21.57,33.55H18.76l7.88,14.77a.19.19,0,0,1,0,.1Z" style="fill:#ff0"/><path id="path4186" d="M37.55,33.33h4.59L48,52.94,53.8,33.33h4.59V62.14h-3V36.84L49.51,56.61h-3.1L40.54,36.84v25.3h-3V33.33Z" style="fill:#b81c22"/><path d="M58.39,62.36h-3a.22.22,0,0,1-.22-.22V38.34L49.72,56.67a.22.22,0,0,1-.21.15h-3.1a.23.23,0,0,1-.21-.15L40.76,38.34v23.8a.22.22,0,0,1-.22.22h-3a.22.22,0,0,1-.22-.22V33.33a.22.22,0,0,1,.22-.22h4.59a.21.21,0,0,1,.21.16L48,52.17l5.63-18.9a.21.21,0,0,1,.21-.16h4.59a.22.22,0,0,1,.22.22V62.14A.22.22,0,0,1,58.39,62.36Zm-2.78-.43h2.57V33.55H54L48.17,53a.24.24,0,0,1-.21.16h0a.22.22,0,0,1-.21-.16L42,33.55H37.77V61.93h2.55V36.84a.21.21,0,0,1,.19-.21.23.23,0,0,1,.24.15l5.83,19.61h2.77l5.83-19.61a.22.22,0,0,1,.43.06Z" style="fill:#ff0"/><path id="path4188" d="M64.53,36.53V47.36h3.88A4.08,4.08,0,0,0,71.73,46a6.07,6.07,0,0,0,1.18-4,6,6,0,0,0-1.18-4,4.08,4.08,0,0,0-3.32-1.41Zm-3.08-3.2h7a7.31,7.31,0,0,1,5.78,2.2q2,2.17,2,6.41t-2,6.44a7.34,7.34,0,0,1-5.78,2.18H64.53V62.14H61.45V33.33Z" style="fill:#b81c22"/><path d="M64.53,62.36H61.45a.22.22,0,0,1-.22-.22V33.33a.22.22,0,0,1,.22-.22h7a7.63,7.63,0,0,1,6,2.27c1.34,1.49,2,3.7,2,6.56s-.68,5.1-2,6.59a7.65,7.65,0,0,1-6,2.25H64.75V62.14A.22.22,0,0,1,64.53,62.36Zm-2.86-.43h2.64V50.56a.21.21,0,0,1,.22-.21h3.88A7.19,7.19,0,0,0,74,48.24c1.27-1.41,1.91-3.53,1.91-6.3S75.3,37.08,74,35.68a7.13,7.13,0,0,0-5.62-2.13H61.67Zm6.74-14.35H64.53a.22.22,0,0,1-.22-.22V36.53a.21.21,0,0,1,.22-.21h3.88A4.33,4.33,0,0,1,71.9,37.8a6.29,6.29,0,0,1,1.23,4.14,6.28,6.28,0,0,1-1.23,4.15A4.3,4.3,0,0,1,68.41,47.58Zm-3.66-.44h3.66a3.91,3.91,0,0,0,3.16-1.33,6,6,0,0,0,1.12-3.87,5.94,5.94,0,0,0-1.12-3.86,3.91,3.91,0,0,0-3.16-1.33H64.75Z" style="fill:#ff0"/><path id="path4190" d="M77.23,33.33h3.08V45.14H91.52V33.33H94.6V62.14H91.52V48.42H80.31V62.14H77.23V33.33Z" style="fill:#b81c22"/><path d="M94.6,62.36H91.52a.21.21,0,0,1-.22-.22V48.64H80.53v13.5a.21.21,0,0,1-.21.22H77.23a.22.22,0,0,1-.22-.22V33.33a.22.22,0,0,1,.22-.22h3.09a.21.21,0,0,1,.21.22V44.92H91.3V33.33a.22.22,0,0,1,.22-.22H94.6a.22.22,0,0,1,.22.22V62.14A.22.22,0,0,1,94.6,62.36Zm-2.87-.43h2.65V33.55H91.73V45.14a.21.21,0,0,1-.21.22H80.32a.22.22,0,0,1-.22-.22V33.55H77.45V61.93H80.1V48.42a.22.22,0,0,1,.22-.22h11.2a.21.21,0,0,1,.21.22Z" style="fill:#ff0"/></g></g></g></svg>