<svg xmlns="http://www.w3.org/2000/svg" viewBox="0 0 96 96"><g id="backgroup-white"><rect x="0.01" width="96" height="96" style="fill:#fff"/></g><g id="board_tep"><g id="g4141"><g id="g4158"><g id="g4145"><path id="path5" d="M13.79,23.31,79.18,10.93c4.2-.79,7.7,4.78,7.7,10.61v53c0,5.84-3.5,11.4-7.7,10.61L13.79,72.82C9.6,72,6.1,70.52,6.1,64.68V31.44C6.1,25.61,9.6,24.11,13.79,23.31Z" style="fill:#e6e6e6"/><path d="M80,85.34a4.45,4.45,0,0,1-.81-.08L13.78,72.89C9.12,72,6,70.27,6,64.68V31.44c0-5.59,3.09-7.32,7.75-8.2L79.17,10.86a4.78,4.78,0,0,1,4,1.17C85.42,13.91,87,17.74,87,21.54v53c0,3.81-1.53,7.63-3.81,9.52A4.94,4.94,0,0,1,80,85.34Zm-66.18-62c-4.58.87-7.63,2.57-7.63,8.06V64.68c0,5.5,3.05,7.2,7.63,8.07L79.2,85.12A4.61,4.61,0,0,0,83.05,84c2.25-1.86,3.75-5.64,3.75-9.41v-53c0-3.76-1.5-7.54-3.75-9.4A4.65,4.65,0,0,0,79.2,11Z"/><path id="path7" d="M78.28,74.45v-53c0-1.59-.78-2.82-1.92-2.65L11,28.66C9.82,28.84,9,29.72,9,31.31V64.55C9,66.14,9.82,67,11,67.21l65.4,9.9C77.5,77.28,78.28,76.05,78.28,74.45Z"/><path d="M76.57,77.19h-.23L11,67.27c-1.26-.19-2-1.18-2-2.72V31.31c0-1.53.72-2.53,2-2.72l65.39-9.9a1.38,1.38,0,0,1,1.14.33,3.15,3.15,0,0,1,.87,2.39v53a3.13,3.13,0,0,1-.87,2.39A1.37,1.37,0,0,1,76.57,77.19Zm0-58.37h-.2L11,28.73c-1.18.18-1.86,1.12-1.86,2.58V64.55C9.11,66,9.79,67,11,67.13L76.37,77a1.27,1.27,0,0,0,1-.3,3.06,3.06,0,0,0,.82-2.29v-53a3,3,0,0,0-.82-2.28A1.22,1.22,0,0,0,76.57,18.82Z"/><path id="path4162" d="M87.06,20.31V76l2.17-1.24c0-19.32,0-32.66,0-52Z" style="fill-rule:evenodd"/><path d="M87,76.12v-56l.13.14,2.19,2.5V38.07c0,12.09,0,22.86,0,36.69v0l0,0Zm.14-55.62V75.88l2-1.16c0-13.81,0-24.57,0-36.65V22.81Z"/><path id="path7-6" d="M71.08,70.45V25.36c0-1.35-.66-2.4-1.64-2.25L13.86,31.52c-1,.15-1.64.9-1.64,2.26V62c0,1.35.66,2.11,1.64,2.25L69.44,72.7c1,.15,1.64-.9,1.64-2.25Z" style="fill:#bbdefb"/><path d="M69.62,72.78h-.19L13.85,64.35A2.06,2.06,0,0,1,12.15,62V33.78a2.07,2.07,0,0,1,1.7-2.33L69.43,23a1.17,1.17,0,0,1,1,.28,2.72,2.72,0,0,1,.74,2V70.45a2.7,2.7,0,0,1-.74,2A1.18,1.18,0,0,1,69.62,72.78Zm0-49.62-.18,0L13.87,31.59c-1,.15-1.57.95-1.57,2.19V62c0,1.24.57,2,1.57,2.18l55.58,8.42a1,1,0,0,0,.87-.25A2.58,2.58,0,0,0,71,70.45V25.36a2.57,2.57,0,0,0-.69-1.93A1,1,0,0,0,69.63,23.16Z"/></g></g></g><g id="text4173"><path id="path4145" d="M36.73,35.2v2.93H28.42V60.92H24.93V38.13H16.59V35.2Z" style="fill:#b81c22"/><path d="M28.6,61.1H24.75V38.31H16.41V35h20.5v3.29H28.6Zm-3.49-.35h3.13V38h8.31V35.38H16.77V38h8.34Z" style="fill:#ff0"/><path id="path4147" d="M56.23,35.2V38H43.88v8.54h10v2.73h-10v8.78H56.23v2.83H40.38V35.2Z" style="fill:#b81c22"/><path d="M56.41,61.1H40.2V35H56.41v3.2H44.06V46.4h10v3.09h-10v8.42H56.41Zm-15.85-.35h15.5V58.27H43.71V49.13h10V46.76h-10v-8.9H56.06V35.38H40.56Z" style="fill:#ff0"/><path id="path4149" d="M65,51.3v9.62H61.57V35.2h7.59a13.75,13.75,0,0,1,4.24.58,8.09,8.09,0,0,1,3,1.59,6.54,6.54,0,0,1,1.76,2.52,8.79,8.79,0,0,1,.59,3.28,8.39,8.39,0,0,1-.63,3.29A7,7,0,0,1,76.27,49a8.55,8.55,0,0,1-3,1.69,12.9,12.9,0,0,1-4.11.59Zm0-2.76h4.13a7.72,7.72,0,0,0,2.62-.4,5.27,5.27,0,0,0,1.92-1.09,4.58,4.58,0,0,0,1.17-1.71,5.82,5.82,0,0,0,.4-2.17,4.91,4.91,0,0,0-1.53-3.84A6.6,6.6,0,0,0,69.16,38H65Z" style="fill:#b81c22"/><path d="M65.21,61.1H61.39V35h7.77a14.41,14.41,0,0,1,4.29.58,8.33,8.33,0,0,1,3.07,1.64,6.66,6.66,0,0,1,1.8,2.58,9,9,0,0,1,.61,3.35,8.71,8.71,0,0,1-.64,3.36,7.37,7.37,0,0,1-1.9,2.63,8.81,8.81,0,0,1-3.06,1.72,13.32,13.32,0,0,1-4.17.6h-4Zm-3.46-.35h3.11V51.12h4.3a13,13,0,0,0,4.06-.58,8.49,8.49,0,0,0,2.93-1.65A7,7,0,0,0,78,46.39a8.4,8.4,0,0,0,.61-3.22A8.71,8.71,0,0,0,78,40a6.25,6.25,0,0,0-1.71-2.44A7.88,7.88,0,0,0,73.35,36a13.78,13.78,0,0,0-4.19-.57H61.75Zm7.41-12h-4.3V37.77h4.3a6.76,6.76,0,0,1,4.7,1.43,5.11,5.11,0,0,1,1.58,4,6,6,0,0,1-.4,2.24,4.91,4.91,0,0,1-1.21,1.77,5.75,5.75,0,0,1-2,1.13A8.11,8.11,0,0,1,69.16,48.72Zm-4-.36h4A7.65,7.65,0,0,0,71.72,48a5.32,5.32,0,0,0,1.86-1,4.53,4.53,0,0,0,1.12-1.64,5.54,5.54,0,0,0,.39-2.11,4.78,4.78,0,0,0-1.47-3.71,6.49,6.49,0,0,0-4.46-1.33h-4Z" style="fill:#ff0"/></g></g></svg>