<?xml version="1.0" encoding="UTF-8" standalone="no"?>
<!-- Created with Inkscape (http://www.inkscape.org/) -->

<svg
   xmlns:dc="http://purl.org/dc/elements/1.1/"
   xmlns:cc="http://creativecommons.org/ns#"
   xmlns:rdf="http://www.w3.org/1999/02/22-rdf-syntax-ns#"
   xmlns:svg="http://www.w3.org/2000/svg"
   xmlns="http://www.w3.org/2000/svg"
   xmlns:sodipodi="http://sodipodi.sourceforge.net/DTD/sodipodi-0.dtd"
   xmlns:inkscape="http://www.inkscape.org/namespaces/inkscape"
   width="50"
   height="50"
   viewBox="0 0 49.999997 49.999997"
   id="svg4200"
   version="1.1"
   inkscape:version="0.91 r13725"
   sodipodi:docname="display_hdmi.svg">
  <defs
     id="defs4202" />
  <sodipodi:namedview
     id="base"
     pagecolor="#ffffff"
     bordercolor="#666666"
     borderopacity="1.0"
     inkscape:pageopacity="0.0"
     inkscape:pageshadow="2"
     inkscape:zoom="15.839192"
     inkscape:cx="-20.453005"
     inkscape:cy="29.493491"
     inkscape:document-units="px"
     inkscape:current-layer="g4507"
     showgrid="false"
     units="px"
     inkscape:window-width="1855"
     inkscape:window-height="1056"
     inkscape:window-x="65"
     inkscape:window-y="24"
     inkscape:window-maximized="1" />
  <metadata
     id="metadata4205">
    <rdf:RDF>
      <cc:Work
         rdf:about="">
        <dc:format>image/svg+xml</dc:format>
        <dc:type
           rdf:resource="http://purl.org/dc/dcmitype/StillImage" />
        <dc:title />
      </cc:Work>
    </rdf:RDF>
  </metadata>
  <g
     inkscape:label="Layer 1"
     inkscape:groupmode="layer"
     id="layer1"
     transform="translate(0,-1002.3622)">
    <g
       transform="translate(-5.5117295,7.5951664)"
       id="g4324">
      <rect
         style="opacity:1;fill:#ffffff;fill-opacity:1;stroke:#b81c22;stroke-width:0.45918643;stroke-linecap:butt;stroke-linejoin:miter;stroke-miterlimit:4;stroke-dasharray:none;stroke-dashoffset:0;stroke-opacity:1"
         id="rect4193"
         width="29.540808"
         height="5.540813"
         x="10.229589"
         y="1024.5918"
         ry="0.40142897"
         rx="0.64044952" />
      <g
         transform="matrix(0.59624551,0,0,0.59624551,25.316083,425.56898)"
         id="g4249">
        <path
           inkscape:connector-curvature="0"
           class="st5"
           d="m -0.53013408,1005.4044 -16.69999792,0 0,3.9 c 0,0 3.799999,2.4 3.999999,3.9 l 12.69999892,0 12.69999808,0 c 0.2,-1.5 4,-3.9 4,-3.9 l 0,-3.9 -16.69999808,0 z"
           id="path15-0"
           style="fill:#b3b3b3;stroke:#000000;stroke-width:0.58599991;stroke-miterlimit:4;stroke-dasharray:none;stroke-opacity:1" />
        <g
           id="g4236">
          <line
             style="stroke:#000000;stroke-width:1.89999974;stroke-miterlimit:4;stroke-dasharray:none;stroke-opacity:1"
             id="line17-3"
             y2="1009.3044"
             x2="10.969863"
             y1="1009.3044"
             x1="-12.030131"
             class="st6" />
          <g
             transform="translate(31.222096,0.04464285)"
             id="g4225">
            <path
               style="fill:none;fill-rule:evenodd;stroke:#ffff00;stroke-width:1px;stroke-linecap:butt;stroke-linejoin:miter;stroke-opacity:1"
               d="m -39.151785,1008.8042 1.294643,0 0,0"
               id="path4166"
               inkscape:connector-curvature="0" />
            <path
               style="fill:none;fill-rule:evenodd;stroke:#ffff00;stroke-width:1px;stroke-linecap:butt;stroke-linejoin:miter;stroke-opacity:1"
               d="m -37.463729,1008.8042 1.294643,0 0,0"
               id="path4166-0"
               inkscape:connector-curvature="0" />
            <path
               style="fill:none;fill-rule:evenodd;stroke:#ffff00;stroke-width:1px;stroke-linecap:butt;stroke-linejoin:miter;stroke-opacity:1"
               d="m -34.08761,1008.8042 1.294642,0 0,0"
               id="path4166-6"
               inkscape:connector-curvature="0" />
            <path
               style="fill:none;fill-rule:evenodd;stroke:#ffff00;stroke-width:1px;stroke-linecap:butt;stroke-linejoin:miter;stroke-opacity:1"
               d="m -35.775664,1008.8042 1.294642,0 0,0"
               id="path4166-1"
               inkscape:connector-curvature="0" />
            <path
               style="fill:none;fill-rule:evenodd;stroke:#ffff00;stroke-width:1px;stroke-linecap:butt;stroke-linejoin:miter;stroke-opacity:1"
               d="m -32.399549,1008.8042 1.294643,0 0,0"
               id="path4166-5"
               inkscape:connector-curvature="0" />
            <path
               style="fill:none;fill-rule:evenodd;stroke:#ffff00;stroke-width:1px;stroke-linecap:butt;stroke-linejoin:miter;stroke-opacity:1"
               d="m -30.711493,1008.8042 1.294643,0 0,0"
               id="path4166-9"
               inkscape:connector-curvature="0" />
            <path
               style="fill:none;fill-rule:evenodd;stroke:#ffff00;stroke-width:1px;stroke-linecap:butt;stroke-linejoin:miter;stroke-opacity:1"
               d="m -29.023436,1008.8042 1.294643,0 0,0"
               id="path4166-4"
               inkscape:connector-curvature="0" />
            <path
               style="fill:none;fill-rule:evenodd;stroke:#ffff00;stroke-width:1px;stroke-linecap:butt;stroke-linejoin:miter;stroke-opacity:1"
               d="m -27.335377,1008.8042 1.294643,0 0,0"
               id="path4166-90"
               inkscape:connector-curvature="0" />
            <path
               style="fill:none;fill-rule:evenodd;stroke:#ffff00;stroke-width:1px;stroke-linecap:butt;stroke-linejoin:miter;stroke-opacity:1"
               d="m -25.647318,1008.8042 1.294642,0 0,0"
               id="path4166-91"
               inkscape:connector-curvature="0" />
          </g>
        </g>
      </g>
    </g>
    <g
       transform="translate(4.1723255e-6,-4.5349834e-6)"
       id="g4520">
      <g
         id="g4512">
        <path
           id="path15"
           d="m 24.999993,1044.2687 18.450187,0 0,-1.1909 c 0,0 -4.198246,-0.7329 -4.419207,-1.191 l -14.03098,0 -14.03098,0 c -0.220962,0.4581 -4.4192074,1.191 -4.4192074,1.191 l 0,1.1909 18.4501874,0 z"
           class="st5"
           inkscape:connector-curvature="0"
           style="fill:#afafa5;stroke:#424444;stroke-width:0.38503903;stroke-miterlimit:10" />
        <g
           id="g4507">
          <rect
             rx="0.61391562"
             ry="0.97402591"
             y="1010.2632"
             x="2.4999928"
             height="30"
             width="45"
             id="rect4178"
             style="opacity:1;fill:#484b4c;fill-opacity:1;stroke:none;stroke-width:0.5;stroke-linecap:butt;stroke-linejoin:miter;stroke-miterlimit:4;stroke-dasharray:none;stroke-dashoffset:0;stroke-opacity:1" />
          <rect
             style="fill:#bbdefb;fill-opacity:1"
             x="5.737999"
             y="1011.8286"
             class="st1"
             width="38.523987"
             height="26.247826"
             id="rect9" />
          <line
             style="fill:none;stroke:#00ff00;stroke-width:0.33280689;stroke-miterlimit:10;stroke-opacity:1"
             class="st6"
             x1="44.057014"
             y1="1039.0986"
             x2="41.215446"
             y2="1039.0986"
             id="line17" />
        </g>
        <rect
           style="opacity:1;fill:#afafb3;fill-opacity:1;stroke:none;stroke-width:0.5;stroke-linecap:butt;stroke-linejoin:miter;stroke-miterlimit:4;stroke-dasharray:none;stroke-dashoffset:0;stroke-opacity:1"
           id="rect4162"
           width="13.573657"
           height="1.4348745"
           x="18.205273"
           y="1040.2649" />
      </g>
      <g
         id="g4173"
         style="stroke:#ffff00;stroke-opacity:1;stroke-width:0.19999998;stroke-miterlimit:4;stroke-dasharray:none;stroke-linejoin:round;stroke-linecap:round">
        <path
           d="m 6.7508087,1020.0051 1.4496011,0 0,4.3919 5.2673622,0 0,-4.3919 1.449601,0 0,10.7141 -1.449601,0 0,-5.1023 -5.2673622,0 0,5.1023 -1.4496011,0 0,-10.7141 z"
           style="font-style:normal;font-weight:normal;font-size:medium;line-height:125%;font-family:sans-serif;letter-spacing:0px;word-spacing:0px;fill:#b81c22;fill-opacity:1;stroke:#ffff00;stroke-width:0.19999998;stroke-linecap:round;stroke-linejoin:round;stroke-opacity:1;stroke-miterlimit:4;stroke-dasharray:none"
           id="path4160"
           inkscape:connector-curvature="0" />
        <path
           d="m 19.251823,1021.1964 0,8.3316 1.751004,0 q 2.217459,0 3.243661,-1.0047 1.033379,-1.0047 1.033379,-3.1719 0,-2.1529 -1.033379,-3.1504 -1.026202,-1.0046 -3.243661,-1.0046 l -1.751004,0 z m -1.449601,-1.1913 2.978141,0 q 3.114489,0 4.571267,1.2989 1.456777,1.2917 1.456777,4.0474 0,2.77 -1.463954,4.0689 -1.463953,1.2989 -4.56409,1.2989 l -2.978141,0 0,-10.7141 z"
           style="font-style:normal;font-weight:normal;font-size:medium;line-height:125%;font-family:sans-serif;letter-spacing:0px;word-spacing:0px;fill:#b81c22;fill-opacity:1;stroke:#ffff00;stroke-width:0.19999998;stroke-linecap:round;stroke-linejoin:round;stroke-opacity:1;stroke-miterlimit:4;stroke-dasharray:none"
           id="path4162"
           inkscape:connector-curvature="0" />
        <path
           d="m 29.11198,1020.0051 2.16005,0 2.734148,7.2911 2.748501,-7.2911 2.160049,0 0,10.7141 -1.41372,0 0,-9.408 -2.762853,7.3485 -1.456777,0 -2.762854,-7.3485 0,9.408 -1.406544,0 0,-10.7141 z"
           style="font-style:normal;font-weight:normal;font-size:medium;line-height:125%;font-family:sans-serif;letter-spacing:0px;word-spacing:0px;fill:#b81c22;fill-opacity:1;stroke:#ffff00;stroke-width:0.19999998;stroke-linecap:round;stroke-linejoin:round;stroke-opacity:1;stroke-miterlimit:4;stroke-dasharray:none"
           id="path4164"
           inkscape:connector-curvature="0" />
        <path
           d="m 41.799576,1020.0051 1.449601,0 0,10.7141 -1.449601,0 0,-10.7141 z"
           style="font-style:normal;font-weight:normal;font-size:medium;line-height:125%;font-family:sans-serif;letter-spacing:0px;word-spacing:0px;fill:#b81c22;fill-opacity:1;stroke:#ffff00;stroke-width:0.19999998;stroke-linecap:round;stroke-linejoin:round;stroke-opacity:1;stroke-miterlimit:4;stroke-dasharray:none"
           id="path4167"
           inkscape:connector-curvature="0" />
      </g>
    </g>
  </g>
</svg>
