<?xml version="1.0" encoding="UTF-8" standalone="no"?>
<!-- Created with Inkscape (http://www.inkscape.org/) -->

<svg
   xmlns:dc="http://purl.org/dc/elements/1.1/"
   xmlns:cc="http://creativecommons.org/ns#"
   xmlns:rdf="http://www.w3.org/1999/02/22-rdf-syntax-ns#"
   xmlns:svg="http://www.w3.org/2000/svg"
   xmlns="http://www.w3.org/2000/svg"
   xmlns:sodipodi="http://sodipodi.sourceforge.net/DTD/sodipodi-0.dtd"
   xmlns:inkscape="http://www.inkscape.org/namespaces/inkscape"
   width="50"
   height="50"
   viewBox="0 0 50.000001 50.000001"
   id="svg4335"
   version="1.1"
   inkscape:version="0.91 r13725"
   sodipodi:docname="display_vga.svg">
  <defs
     id="defs4337" />
  <sodipodi:namedview
     id="base"
     pagecolor="#ffffff"
     bordercolor="#666666"
     borderopacity="1.0"
     inkscape:pageopacity="0.0"
     inkscape:pageshadow="2"
     inkscape:zoom="11.2"
     inkscape:cx="-3.8377154"
     inkscape:cy="20.405919"
     inkscape:document-units="px"
     inkscape:current-layer="g4157"
     showgrid="false"
     units="px"
     inkscape:window-width="1855"
     inkscape:window-height="1056"
     inkscape:window-x="65"
     inkscape:window-y="24"
     inkscape:window-maximized="1" />
  <metadata
     id="metadata4340">
    <rdf:RDF>
      <cc:Work
         rdf:about="">
        <dc:format>image/svg+xml</dc:format>
        <dc:type
           rdf:resource="http://purl.org/dc/dcmitype/StillImage" />
        <dc:title />
      </cc:Work>
    </rdf:RDF>
  </metadata>
  <g
     inkscape:label="Layer 1"
     inkscape:groupmode="layer"
     id="layer1"
     transform="translate(0,-1002.3622)">
    <path
       inkscape:connector-curvature="0"
       d=""
       style="fill:#cccccc;fill-opacity:1;stroke:#000000;stroke-width:0.70701939;stroke-miterlimit:4;stroke-dasharray:none;stroke-opacity:1"
       id="path4233"
       ry="5.1076913"
       rx="28.307692"
       cy="86.829308"
       cx="54.122253" />
    <g
       id="g4272"
       transform="matrix(1.0032957,0,0,1.0032957,-0.40276174,-3.3119628)">
      <rect
         style="opacity:1;fill:#ffffff;fill-opacity:1;stroke:#b81c22;stroke-width:0.45767808;stroke-linecap:butt;stroke-linejoin:miter;stroke-miterlimit:4;stroke-dasharray:none;stroke-dashoffset:0;stroke-opacity:1"
         id="rect4193"
         width="29.443773"
         height="5.5226126"
         x="10.59743"
         y="1024.5272"
         ry="0.40011039"
         rx="0.63834578" />
      <g
         transform="matrix(0.32048213,0,0,0.32048213,17.323288,1023.0581)"
         id="g67">
        <path
           style="fill:#ffffff;stroke:#424444;stroke-width:0.18089999;stroke-miterlimit:10"
           inkscape:connector-curvature="0"
           id="path69"
           d="m 45.7,19.8 -41.5,0 C 3.6,19.8 3,19.3 3,18.6 L 3,7.8 C 3,7.2 3.5,6.6 4.2,6.6 l 41.5,0 c 0.6,0 1.2,0.5 1.2,1.2 l 0,10.8 c -0.1,0.7 -0.6,1.2 -1.2,1.2 z"
           class="st10" />
        <g
           id="g71">
          <path
             style="fill:#afafa5;stroke:#424444;stroke-width:0.66289997;stroke-miterlimit:10"
             inkscape:connector-curvature="0"
             id="path73"
             d="m 33.4,18.8 -17.5,0 c -1.8,0 -3.3,-1.5 -3.3,-3.3 l -0.5,-4.3 c 0,-1.8 1.5,-3.3 3.3,-3.3 l 18.6,0 c 1.8,0 3.3,1.5 3.3,3.3 l -0.5,4.3 c -0.1,1.8 -1.6,3.3 -3.4,3.3 z"
             class="st5" />
          <g
             id="g75">
            <circle
               style="fill:#ffd469"
               r="0.60000002"
               id="ellipse77"
               cy="15.2"
               cx="18.9"
               class="st4" />
            <circle
               style="fill:#ffd469"
               r="0.60000002"
               id="ellipse79"
               cy="15.2"
               cx="22.799999"
               class="st4" />
            <circle
               style="fill:#ffd469"
               r="0.60000002"
               id="ellipse81"
               cy="15.2"
               cx="26.6"
               class="st4" />
            <circle
               style="fill:#ffd469"
               r="0.60000002"
               id="ellipse83"
               cy="15.2"
               cx="30.4"
               class="st4" />
          </g>
          <g
             id="g85">
            <circle
               style="fill:#ffd469"
               r="0.60000002"
               id="ellipse87"
               cy="11.4"
               cx="17"
               class="st4" />
            <circle
               style="fill:#ffd469"
               r="0.60000002"
               id="ellipse89"
               cy="11.4"
               cx="20.799999"
               class="st4" />
            <circle
               style="fill:#ffd469"
               r="0.60000002"
               id="ellipse91"
               cy="11.4"
               cx="24.700001"
               class="st4" />
            <circle
               style="fill:#ffd469"
               r="0.60000002"
               id="ellipse93"
               cy="11.4"
               cx="28.5"
               class="st4" />
            <circle
               style="fill:#ffd469"
               r="0.60000002"
               id="ellipse95"
               cy="11.4"
               cx="32.400002"
               class="st4" />
          </g>
          <circle
             style="fill:#afafa5;stroke:#424444;stroke-width:0.66289997;stroke-miterlimit:10"
             r="1.3"
             id="ellipse97"
             cy="13.6"
             cx="8.8999996"
             class="st5" />
          <circle
             style="fill:#afafa5;stroke:#424444;stroke-width:0.66289997;stroke-miterlimit:10"
             r="1.3"
             id="ellipse99"
             cy="13.6"
             cx="40.400002"
             class="st5" />
        </g>
      </g>
    </g>
    <g
       id="g4266"
       transform="matrix(1.0032957,0,0,1.0032957,-0.56269695,-5.0523344)">
      <rect
         transform="matrix(0.99999564,0.0029516,0.03214615,0.99948318,0,0)"
         ry="2.802978"
         rx="16.38735"
         y="1045.837"
         x="-29.895111"
         height="5.6059561"
         width="43.328129"
         id="rect4969"
         style="fill:#fff6d5;fill-opacity:1;stroke:#000000;stroke-width:0.58525211;stroke-miterlimit:4;stroke-dasharray:none;stroke-opacity:1" />
      <rect
         ry="1.1382533"
         rx="4.6702824"
         y="1039.3671"
         x="16.169981"
         height="7.8602333"
         width="18.617491"
         id="rect4259"
         style="fill:#fff6d5;fill-opacity:1;stroke:#000000;stroke-width:0.5850718;stroke-miterlimit:4;stroke-dasharray:none;stroke-opacity:1" />
      <g
         transform="translate(-0.35418136,2)"
         id="g4241">
        <g
           id="g4157"
           transform="translate(-0.63863248,0)">
          <path
             sodipodi:nodetypes="scsssssss"
             inkscape:connector-curvature="0"
             id="rect4200"
             d="m 14.083226,1013.1225 c 22.339926,-10.687 22.799183,-10.8097 33.768299,0.7653 0.511373,0.1391 0.478303,4.1148 0.478303,4.5917 l 0,19.8018 c 0,0.477 -0.457816,0.6819 -0.956607,0.861 -11.980533,4.3014 -12.007144,4.2273 -41.8038157,0 -0.5247072,-0.074 -0.9566092,-0.384 -0.9566092,-0.861 l 0,-19.8018 c 0,-0.4769 8.9923569,-5.1283 9.4704299,-5.357 z"
             style="fill:#fff6d5;fill-opacity:1;stroke:#000000;stroke-width:0.5850718;stroke-miterlimit:4;stroke-dasharray:none;stroke-opacity:1" />
          <path
             inkscape:connector-curvature="0"
             id="path4226"
             d="m 34.11063,1005.2748 -0.04631,36.6992 1.93e-4,0.148"
             style="fill:#cccccc;fill-rule:evenodd;stroke:#000000;stroke-width:0.72469664px;stroke-linecap:butt;stroke-linejoin:miter;stroke-opacity:1" />
          <path
             sodipodi:nodetypes="scsssssss"
             inkscape:connector-curvature="0"
             id="rect4230"
             d="m 7.1590118,1020.3927 c 6.6229462,-4.0792 13.4059512,-6.6084 20.6607682,-8.8374 1.92674,-0.5493 1.341241,0.3258 1.341241,9.6984 l 0,13.2012 c 0,0.477 0.0041,0.6084 -0.0096,1.3344 -0.04245,2.2495 -0.298845,0.947 -21.9923955,-0.4735 -0.5295897,-0.035 -0.9566074,-0.3839 -0.9566074,-0.8609 l 0,-13.2012 c 0,-0.477 0.5053719,-0.583 0.9566074,-0.861 z"
             style="fill:#bbdefb;fill-opacity:1;stroke:#000000;stroke-width:0.58551073;stroke-opacity:1" />
        </g>
        <path
           style="fill:#00ff00;fill-opacity:1;stroke:#000000;stroke-width:0.26438206;stroke-linecap:round;stroke-miterlimit:4.80000019;stroke-dasharray:none;stroke-opacity:1"
           id="path4140"
           sodipodi:type="arc"
           sodipodi:cx="27.697367"
           sodipodi:cy="1039.4641"
           sodipodi:rx="0.74712348"
           sodipodi:ry="0.86598289"
           sodipodi:start="0.3818407"
           sodipodi:end="0.34927823"
           d="m 28.390683,1039.7868 a 0.74712348,0.86598289 0 0 1 -0.966063,0.4835 0.74712348,0.86598289 0 0 1 -0.42501,-1.1158 0.74712348,0.86598289 0 0 1 0.959143,-0.5016 0.74712348,0.86598289 0 0 1 0.440626,1.1076"
           sodipodi:open="true" />
        <g
           id="g4196"
           transform="matrix(0.9945219,0.10452847,-0.10452847,0.9945219,142.48987,18.799331)">
          <path
             sodipodi:open="true"
             d="m -18.052426,1027.5619 a 0.4805747,0.53552771 0 0 1 -0.621404,0.299 0.4805747,0.53552771 0 0 1 -0.27338,-0.69 0.4805747,0.53552771 0 0 1 0.616952,-0.3103 0.4805747,0.53552771 0 0 1 0.283425,0.685"
             sodipodi:end="0.34927823"
             sodipodi:start="0.3818407"
             sodipodi:ry="0.53552771"
             sodipodi:rx="0.4805747"
             sodipodi:cy="1027.3623"
             sodipodi:cx="-18.49839"
             sodipodi:type="arc"
             id="path4140-3"
             style="fill:#ffffff;fill-opacity:1;stroke:#000000;stroke-width:0.1667449;stroke-linecap:round;stroke-miterlimit:4.80000019;stroke-dasharray:none;stroke-opacity:1" />
          <path
             sodipodi:open="true"
             d="m -21.916265,1027.5619 a 0.4805747,0.53552771 0 0 1 -0.621403,0.299 0.4805747,0.53552771 0 0 1 -0.273381,-0.69 0.4805747,0.53552771 0 0 1 0.616953,-0.3103 0.4805747,0.53552771 0 0 1 0.283425,0.685"
             sodipodi:end="0.34927823"
             sodipodi:start="0.3818407"
             sodipodi:ry="0.53552771"
             sodipodi:rx="0.4805747"
             sodipodi:cy="1027.3623"
             sodipodi:cx="-22.362228"
             sodipodi:type="arc"
             id="path4140-3-6"
             style="fill:#ffffff;fill-opacity:1;stroke:#000000;stroke-width:0.1667449;stroke-linecap:round;stroke-miterlimit:4.80000019;stroke-dasharray:none;stroke-opacity:1" />
          <path
             sodipodi:open="true"
             d="m -23.848182,1027.5619 a 0.4805747,0.53552771 0 0 1 -0.621403,0.299 0.4805747,0.53552771 0 0 1 -0.273381,-0.69 0.4805747,0.53552771 0 0 1 0.616953,-0.3103 0.4805747,0.53552771 0 0 1 0.283425,0.685"
             sodipodi:end="0.34927823"
             sodipodi:start="0.3818407"
             sodipodi:ry="0.53552771"
             sodipodi:rx="0.4805747"
             sodipodi:cy="1027.3623"
             sodipodi:cx="-24.294146"
             sodipodi:type="arc"
             id="path4140-3-7"
             style="fill:#ffffff;fill-opacity:1;stroke:#000000;stroke-width:0.1667449;stroke-linecap:round;stroke-miterlimit:4.80000019;stroke-dasharray:none;stroke-opacity:1" />
          <path
             sodipodi:open="true"
             d="m -25.780101,1027.5619 a 0.4805747,0.53552771 0 0 1 -0.621404,0.299 0.4805747,0.53552771 0 0 1 -0.27338,-0.69 0.4805747,0.53552771 0 0 1 0.616953,-0.3103 0.4805747,0.53552771 0 0 1 0.283425,0.685"
             sodipodi:end="0.34927823"
             sodipodi:start="0.3818407"
             sodipodi:ry="0.53552771"
             sodipodi:rx="0.4805747"
             sodipodi:cy="1027.3623"
             sodipodi:cx="-26.226065"
             sodipodi:type="arc"
             id="path4140-3-5"
             style="fill:#ffffff;fill-opacity:1;stroke:#000000;stroke-width:0.1667449;stroke-linecap:round;stroke-miterlimit:4.80000019;stroke-dasharray:none;stroke-opacity:1" />
          <path
             sodipodi:open="true"
             d="m -27.71202,1027.5619 a 0.4805747,0.53552771 0 0 1 -0.621404,0.299 0.4805747,0.53552771 0 0 1 -0.27338,-0.69 0.4805747,0.53552771 0 0 1 0.616953,-0.3103 0.4805747,0.53552771 0 0 1 0.283425,0.685"
             sodipodi:end="0.34927823"
             sodipodi:start="0.3818407"
             sodipodi:ry="0.53552771"
             sodipodi:rx="0.4805747"
             sodipodi:cy="1027.3623"
             sodipodi:cx="-28.157984"
             sodipodi:type="arc"
             id="path4140-3-3"
             style="fill:#ffffff;fill-opacity:1;stroke:#000000;stroke-width:0.1667449;stroke-linecap:round;stroke-miterlimit:4.80000019;stroke-dasharray:none;stroke-opacity:1" />
          <path
             sodipodi:open="true"
             d="m -19.984345,1027.5619 a 0.4805747,0.53552771 0 0 1 -0.621404,0.299 0.4805747,0.53552771 0 0 1 -0.27338,-0.69 0.4805747,0.53552771 0 0 1 0.616952,-0.3103 0.4805747,0.53552771 0 0 1 0.283425,0.685"
             sodipodi:end="0.34927823"
             sodipodi:start="0.3818407"
             sodipodi:ry="0.53552771"
             sodipodi:rx="0.4805747"
             sodipodi:cy="1027.3623"
             sodipodi:cx="-20.430309"
             sodipodi:type="arc"
             id="path4140-3-56"
             style="fill:#ffffff;fill-opacity:1;stroke:#000000;stroke-width:0.1667449;stroke-linecap:round;stroke-miterlimit:4.80000019;stroke-dasharray:none;stroke-opacity:1" />
        </g>
        <g
           id="g4181"
           style="stroke:#ffff00;stroke-opacity:1;stroke-width:0.19934303;stroke-miterlimit:4;stroke-dasharray:none;stroke-linejoin:round;stroke-linecap:round">
          <path
             d="m 9.9323996,1034.5431 -5.6363744,-14.7634 2.0864474,0 4.6772014,12.4297 4.687091,-12.4297 2.076559,0 -5.626486,14.7634 -2.2644384,0 z"
             style="font-style:normal;font-weight:normal;font-size:medium;line-height:125%;font-family:sans-serif;letter-spacing:0px;word-spacing:0px;fill:#b81c22;fill-opacity:1;stroke:#ffff00;stroke-width:0.19934303;stroke-linecap:round;stroke-linejoin:round;stroke-opacity:1;stroke-miterlimit:4;stroke-dasharray:none"
             id="path4172"
             inkscape:connector-curvature="0" />
          <path
             d="m 30.035468,1032.4369 0,-3.9653 -3.263164,0 0,-1.6414 5.240839,0 0,6.3384 q -1.15694,0.8207 -2.551201,1.2459 -1.394261,0.4154 -2.976401,0.4154 -3.460932,0 -5.41883,-2.0173 -1.94801,-2.0271 -1.94801,-5.6363 0,-3.6192 1.94801,-5.6364 1.957898,-2.0271 5.41883,-2.0271 1.443703,0 2.73908,0.3559 1.305266,0.356 2.402875,1.0482 l 0,2.126 q -1.107498,-0.9394 -2.353433,-1.414 -1.245936,-0.4747 -2.62042,-0.4747 -2.709415,0 -4.074011,1.513 -1.354707,1.5129 -1.354707,4.5091 0,2.9862 1.354707,4.4992 1.364596,1.5129 4.074011,1.5129 1.058056,0 1.88868,-0.178 0.830624,-0.1879 1.493145,-0.5735 z"
             style="font-style:normal;font-weight:normal;font-size:medium;line-height:125%;font-family:sans-serif;letter-spacing:0px;word-spacing:0px;fill:#b81c22;fill-opacity:1;stroke:#ffff00;stroke-width:0.19934303;stroke-linecap:round;stroke-linejoin:round;stroke-opacity:1;stroke-miterlimit:4;stroke-dasharray:none"
             id="path4174"
             inkscape:connector-curvature="0" />
          <path
             d="m 40.606141,1021.7475 -2.709415,7.3471 5.428719,0 -2.719304,-7.3471 z m -1.127275,-1.9678 2.264439,0 5.626486,14.7634 -2.076559,0 -1.34482,-3.7873 -6.654877,0 -1.344819,3.7873 -2.106224,0 5.636374,-14.7634 z"
             style="font-style:normal;font-weight:normal;font-size:medium;line-height:125%;font-family:sans-serif;letter-spacing:0px;word-spacing:0px;fill:#b81c22;fill-opacity:1;stroke:#ffff00;stroke-width:0.19934303;stroke-linecap:round;stroke-linejoin:round;stroke-opacity:1;stroke-miterlimit:4;stroke-dasharray:none"
             id="path4176"
             inkscape:connector-curvature="0" />
        </g>
      </g>
    </g>
  </g>
</svg>
