<?xml version="1.0" encoding="UTF-8" standalone="no"?>
<!-- Created with Inkscape (http://www.inkscape.org/) -->
<svg xmlns:dc="http://purl.org/dc/elements/1.1/" xmlns:cc="http://creativecommons.org/ns#" xmlns:rdf="http://www.w3.org/1999/02/22-rdf-syntax-ns#" xmlns:svg="http://www.w3.org/2000/svg" xmlns="http://www.w3.org/2000/svg" xmlns:xlink="http://www.w3.org/1999/xlink" xmlns:sodipodi="http://sodipodi.sourceforge.net/DTD/sodipodi-0.dtd" xmlns:inkscape="http://www.inkscape.org/namespaces/inkscape" width="84.143517" height="94.101112" id="svg2" version="1.1" inkscape:version="0.48.3.1 r9886" sodipodi:docname="card.svg">
  <defs id="defs4">
    <linearGradient inkscape:collect="always" id="linearGradient3016">
      <stop style="stop-color:#000000;stop-opacity:1;" offset="0" id="stop3019"/>
      <stop style="stop-color:#000000;stop-opacity:0;" offset="1" id="stop3021"/>
    </linearGradient>
    <linearGradient id="linearGradient3009">
      <stop style="stop-color:#caa944;stop-opacity:1;" offset="0" id="stop3011"/>
      <stop id="stop3017" offset="0.5" style="stop-color:#cac544;stop-opacity:1;"/>
      <stop style="stop-color:#caa944;stop-opacity:1;" offset="1" id="stop3013"/>
    </linearGradient>
    <linearGradient inkscape:collect="always" id="linearGradient3790">
      <stop style="stop-color:#333f4b;stop-opacity:1;" offset="0" id="stop3792"/>
      <stop style="stop-color:#000000;stop-opacity:1" offset="1" id="stop3794"/>
    </linearGradient>
    <linearGradient inkscape:collect="always" id="linearGradient3014">
      <stop style="stop-color:#4d4d4d;stop-opacity:1;" offset="0" id="stop3016"/>
      <stop style="stop-color:#242d35;stop-opacity:1" offset="1" id="stop3018"/>
    </linearGradient>
    <linearGradient inkscape:collect="always" id="linearGradient2998">
      <stop style="stop-color:#53677b;stop-opacity:1;" offset="0" id="stop3000"/>
      <stop style="stop-color:#07090a;stop-opacity:1" offset="1" id="stop3002"/>
    </linearGradient>
    <linearGradient inkscape:collect="always" xlink:href="#linearGradient2998" id="linearGradient3004" x1="438.91129" y1="286.9191" x2="438.91129" y2="349.54855" gradientUnits="userSpaceOnUse"/>
    <linearGradient inkscape:collect="always" xlink:href="#linearGradient3014" id="linearGradient3020" x1="448.57455" y1="288.70358" x2="404.35544" y2="279.94318" gradientUnits="userSpaceOnUse"/>
    <linearGradient inkscape:collect="always" xlink:href="#linearGradient3790" id="linearGradient3796" x1="446.04727" y1="297.86746" x2="460.89523" y2="345.70212" gradientUnits="userSpaceOnUse"/>
    <linearGradient inkscape:collect="always" xlink:href="#linearGradient2998" id="linearGradient3893" x1="454.34045" y1="343.18503" x2="407.50949" y2="315.85037" gradientUnits="userSpaceOnUse" gradientTransform="translate(0.78660935,0)"/>
    <linearGradient inkscape:collect="always" xlink:href="#linearGradient2998" id="linearGradient3897" gradientUnits="userSpaceOnUse" x1="450.0141" y1="314.47379" x2="414.39233" y2="325.09302" gradientTransform="translate(1.1150645,0)"/>
    <linearGradient inkscape:collect="always" xlink:href="#linearGradient3009" id="linearGradient3015" x1="417.44995" y1="292.21344" x2="445.38531" y2="300.20905" gradientUnits="userSpaceOnUse"/>
    <linearGradient inkscape:collect="always" xlink:href="#linearGradient3016" id="linearGradient3023" x1="435.7959" y1="349.72128" x2="447.60587" y2="331.36615" gradientUnits="userSpaceOnUse"/>
    <filter inkscape:collect="always" id="filter3809" color-interpolation-filters="sRGB">
      <feGaussianBlur inkscape:collect="always" stdDeviation="0.64757276" id="feGaussianBlur3811"/>
    </filter>
    <filter inkscape:collect="always" id="filter3827" color-interpolation-filters="sRGB">
      <feGaussianBlur inkscape:collect="always" stdDeviation="0.24047568" id="feGaussianBlur3829"/>
    </filter>
    <linearGradient inkscape:collect="always" xlink:href="#linearGradient3016" id="linearGradient3035" gradientUnits="userSpaceOnUse" x1="435.7959" y1="349.72128" x2="447.60587" y2="331.36615"/>
    <linearGradient inkscape:collect="always" xlink:href="#linearGradient2998" id="linearGradient3037" gradientUnits="userSpaceOnUse" x1="438.91129" y1="286.9191" x2="438.91129" y2="349.54855"/>
    <linearGradient inkscape:collect="always" xlink:href="#linearGradient3014" id="linearGradient3039" gradientUnits="userSpaceOnUse" x1="448.57455" y1="288.70358" x2="404.35544" y2="279.94318"/>
    <linearGradient inkscape:collect="always" xlink:href="#linearGradient3790" id="linearGradient3041" gradientUnits="userSpaceOnUse" x1="446.04727" y1="297.86746" x2="460.89523" y2="345.70212"/>
    <linearGradient inkscape:collect="always" xlink:href="#linearGradient3009" id="linearGradient3043" gradientUnits="userSpaceOnUse" x1="417.44995" y1="292.21344" x2="445.38531" y2="300.20905"/>
    <linearGradient inkscape:collect="always" xlink:href="#linearGradient2998" id="linearGradient3045" gradientUnits="userSpaceOnUse" gradientTransform="translate(1.1150645,0)" x1="450.0141" y1="314.47379" x2="414.39233" y2="325.09302"/>
    <linearGradient inkscape:collect="always" xlink:href="#linearGradient2998" id="linearGradient3047" gradientUnits="userSpaceOnUse" gradientTransform="translate(0.78660935,0)" x1="454.34045" y1="343.18503" x2="407.50949" y2="315.85037"/>
  </defs>
  <sodipodi:namedview id="base" pagecolor="#ffffff" bordercolor="#666666" borderopacity="1.0" inkscape:pageopacity="0.0" inkscape:pageshadow="2" inkscape:zoom="1.2712791" inkscape:cx="53.246045" inkscape:cy="62.211842" inkscape:document-units="px" inkscape:current-layer="layer1" showgrid="false" showguides="true" inkscape:guide-bbox="true" inkscape:window-width="1366" inkscape:window-height="709" inkscape:window-x="0" inkscape:window-y="27" inkscape:window-maximized="1" fit-margin-left="10" fit-margin-top="10" fit-margin-right="10" fit-margin-bottom="10">
    <inkscape:grid type="xygrid" id="grid3006" empspacing="5" visible="true" enabled="true" snapvisiblegridlinesonly="true" originx="-396.43087px" originy="-685.3855px"/>
  </sodipodi:namedview>
  <metadata id="metadata7">
    <rdf:RDF>
      <cc:Work rdf:about="">
        <dc:format>image/svg+xml</dc:format>
        <dc:type rdf:resource="http://purl.org/dc/dcmitype/StillImage"/>
        <dc:title/>
      </cc:Work>
    </rdf:RDF>
  </metadata>
  <g inkscape:label="Ebene 1" inkscape:groupmode="layer" id="layer1" transform="translate(-396.43087,-272.87557)">
    <g id="g3022">
      <path inkscape:connector-curvature="0" id="path3013" d="m 407.98504,341.23898 47.55654,14.18353 c 0,0 15.01785,-9.45569 13.3492,-9.45569 -1.66865,0 -50.33762,-15.85218 -50.33762,-15.85218 z" style="fill:url(#linearGradient3035);stroke:none;filter:url(#filter3809)"/>
      <path sodipodi:nodetypes="ccccc" inkscape:connector-curvature="0" id="path3010" d="m 448.269,286.27843 6.68618,6.3912 0.73745,-0.83577 -6.24372,-5.94874 z" style="fill:#242d35;fill-opacity:1;stroke:none"/>
      <path sodipodi:nodetypes="cccccc" inkscape:connector-curvature="0" id="path2996" d="m 409.61686,341.71987 45.45686,12.87945 -0.25254,-62.12439 -6.31345,-6.06091 -40.91118,-3.03046 z" style="fill:url(#linearGradient3037);fill-opacity:1;stroke:none"/>
      <path sodipodi:nodetypes="ccccc" inkscape:connector-curvature="0" id="path3008" d="m 407.55357,283.40682 1.91072,-0.53125 40.08378,3.00806 -1.03476,0.58284 z" style="fill:url(#linearGradient3039);stroke:none"/>
      <path sodipodi:nodetypes="ccccc" inkscape:connector-curvature="0" id="path3012" d="m 454.80769,292.35007 0.90952,-0.5408 0.17207,62.19131 -1.03243,0.54079 z" style="fill:url(#linearGradient3041);fill-opacity:1;stroke:none"/>
      <path sodipodi:nodetypes="ccscssccccccccsccccsccccccccccccccccccccccccccccccccccccccccccccccccccccccccccccccccccccccccccssccccccccscccccccccccccccccccccccccccccccccccccccccccccccccccccccccccccccccccc" inkscape:connector-curvature="0" id="rect3798" d="m 416.05942,289.21227 0.27261,7.72628 c 0.73822,-0.0314 1.39504,-0.0625 2.01847,-0.0885 0.99283,-0.0414 2.35223,-0.0599 3.86624,0.0258 3.02802,0.17132 7.83106,0.90043 10.2097,2.70967 2.12452,1.61596 4.85266,1.81992 7.80843,1.93241 2.95577,0.11248 4.91621,0.007 4.91621,0.007 l 0.11447,0.77096 -0.18032,-10.72089 -4.54606,-0.3619 0.27594,7.90081 c 0.38531,0.0232 0.8491,0.0586 0.8491,0.0586 l -0.0346,0.79875 c 0,0 -1.96983,-0.0495 -4.34757,-0.41558 -2.37774,-0.36605 -5.17791,-1.02244 -6.92826,-2.33647 -0.31141,-0.23378 -0.68434,-0.44335 -1.08445,-0.62769 -0.006,-0.003 -0.0185,0.003 -0.0249,4.8e-4 -0.14346,0.0181 -0.29451,-0.0488 -0.37731,-0.16736 -0.009,-0.008 -0.0173,-0.0159 -0.0254,-0.0244 -1.47679,-0.58638 -3.336,-0.88723 -5.00771,-1.02646 -2.31738,-0.19301 -4.24117,-0.0685 -4.24117,-0.0685 l -0.002,-0.12466 c -0.20885,0.004 -0.40251,-0.18241 -0.40653,-0.39126 l -0.20181,-5.33336 -2.92269,-0.24334 z m 3.72191,0.30285 0.19513,4.98434 c 0.19172,-0.01 0.31765,-0.0342 0.79733,-0.0402 l -0.19332,-4.8846 -0.79923,-0.0595 z m 1.59846,0.11905 0.19227,4.83475 c 0.68333,0.007 1.45073,0.0326 2.32147,0.1052 0.0236,0.002 0.0511,-0.003 0.0748,-10e-4 l -0.16546,-4.7355 -2.4231,-0.20302 z m 3.22233,0.26254 0.16641,4.78536 c 0.26547,0.0296 0.53022,0.0458 0.79971,0.0844 l -0.16642,-4.78535 -0.79972,-0.0845 z m 1.59893,0.14397 0.16499,4.71057 c -10e-4,0.0425 -0.008,0.085 -0.0225,0.12513 0.002,2e-4 -0.002,0.0246 4.8e-4,0.0249 0.83341,0.15031 1.665,0.32665 2.43073,0.60192 l -0.20085,-5.28351 -2.37277,-0.17905 z m 3.17247,0.2635 0.20611,5.55775 c 0.34877,0.16179 0.67901,0.32757 0.98281,0.52987 l -0.2147,-6.00651 z m 1.89811,0.13825 0.19983,6.53054 c 3.8e-4,0.008 5.5e-4,0.0166 4.7e-4,0.0249 0.61275,0.34952 1.3525,0.63049 2.13681,0.88188 l -0.23856,-7.25307 -2.09852,-0.18429 z m 2.89775,0.24381 0.23665,7.15335 c 0.005,0.0995 -0.03,0.20022 -0.0944,0.27615 0.30716,0.085 0.61332,0.13411 0.92675,0.20672 -0.0186,-0.0473 -0.0284,-0.0983 -0.0278,-0.14911 l -0.2419,-7.42758 -0.79924,-0.0595 z m 1.59846,0.11904 0.23999,7.32787 c 0.006,0.12322 -0.0486,0.24806 -0.14338,0.32697 0.52234,0.10773 1.0514,0.21745 1.55195,0.29452 0.35211,0.0542 0.67169,0.0891 1.00011,0.13049 l -0.27547,-7.87587 -2.37324,-0.20398 z m 3.17247,0.2635 0.27642,7.92574 c 0.29335,0.0311 0.54684,0.0377 0.79923,0.0595 l -0.27642,-7.92573 z m -21.37234,6.59433 c -0.69209,0.0243 -0.77387,0.0494 -1.19574,0.0728 l 0.31805,8.79784 c 0.0372,1.47363 1.37117,1.5437 2.82523,1.6668 l -0.26242,-8.49962 c -0.004,-0.20886 0.18241,-0.40252 0.39127,-0.40654 0,0 0.4831,-0.0414 1.27101,-0.0492 0.78791,-0.008 1.88063,0.0168 3.06988,0.11582 2.3785,0.19809 5.18298,0.68761 6.94699,2.01188 1.51663,1.13858 4.25136,1.81077 6.57588,2.16863 2.3245,0.35787 4.24785,0.4175 4.24785,0.4175 l -0.0346,0.79875 c 0,0 -0.46404,-0.0396 -0.82416,-0.059 l 0.24397,6.23041 1.2499,0.15066 c 1.58679,0.20057 2.97562,0.36979 2.99424,-1.22952 l -0.11923,-7.52969 c 0,0 -2.0378,0.11137 -5.06579,-0.004 -3.02799,-0.11524 -5.87867,-0.28662 -8.26054,-2.09834 -2.12778,-1.61844 -6.82466,-2.37591 -9.78252,-2.54326 -1.47893,-0.0836 -3.21991,-0.0599 -4.58925,-0.0119 z m 3.28783,2.38121 c -0.47064,0.006 -0.62369,0.0313 -0.79732,0.0402 l 0.25669,8.20045 0.80019,0.10938 -0.25965,-8.35004 z m 0.79828,0.01 0.26146,8.44977 2.40008,0.30322 -0.26147,-8.44977 c 0.002,-0.061 0.0179,-0.12161 0.0466,-0.17547 -0.0576,-0.005 -0.11785,-0.0172 -0.175,-0.0216 -0.84758,-0.0706 -1.60418,-0.0989 -2.27159,-0.10615 z m 3.19643,0.21315 c 0.001,0.0166 0.001,0.0333 9.6e-4,0.0499 l 0.26395,8.57443 0.80018,0.10939 -0.25956,-8.35005 c -0.005,-0.0995 0.03,-0.20021 0.0944,-0.27615 -0.30484,-0.0483 -0.59753,-0.0716 -0.89991,-0.10748 z m 1.60085,0.24371 c 0.005,0.0329 0.005,0.0666 0.002,0.0997 l 0.26252,8.49962 2.12488,0.25861 -0.25002,-7.85141 c -0.0168,-0.15057 0.0484,-0.30775 0.16689,-0.40224 -0.70715,-0.26498 -1.49711,-0.44796 -2.30608,-0.6043 z m 3.0607,0.93902 c -0.007,0.0173 -0.0149,0.034 -0.0239,0.0504 l 0.2524,7.97607 0.97519,0.13098 -0.23952,-7.30293 c 4.7e-4,-0.08 0.025,-0.1599 0.0705,-0.22581 -0.0331,-0.0238 -0.0688,-0.0486 -0.10111,-0.0729 -0.27282,-0.20482 -0.59121,-0.38913 -0.93343,-0.55576 z m 1.76666,1.0885 0.23713,7.17828 2.40008,0.30322 -0.21995,-6.28076 c 0.002,-0.0611 0.0179,-0.12161 0.0465,-0.17548 -0.88912,-0.2693 -1.72546,-0.61312 -2.46378,-1.02526 z m 3.21601,1.23534 0.24588,6.33013 0.77525,0.10986 -0.21957,-6.25582 c -0.27007,-0.0602 -0.53316,-0.1143 -0.80161,-0.18417 z m 1.60276,0.34341 0.24349,6.20549 2.37514,0.3037 -0.21709,-6.13117 c -0.36916,-0.0449 -0.72562,-0.0915 -1.12524,-0.15304 -0.40915,-0.063 -0.84961,-0.14292 -1.27626,-0.22498 z m 3.2012,0.46247 0.21719,6.13117 0.82511,0.1089 -0.24253,-6.15561 c -0.24637,-0.02 -0.51319,-0.0555 -0.79972,-0.0845 z" style="fill:url(#linearGradient3043);fill-opacity:1;stroke:none"/>
      <path inkscape:connector-curvature="0" style="font-size:medium;font-style:normal;font-variant:normal;font-weight:normal;font-stretch:normal;text-indent:0;text-align:start;text-decoration:none;line-height:normal;letter-spacing:normal;word-spacing:normal;text-transform:none;direction:ltr;block-progression:tb;writing-mode:lr-tb;text-anchor:start;baseline-shift:baseline;color:#000000;fill:url(#linearGradient3045);fill-opacity:1;stroke:none;stroke-width:1.39999998;marker:none;visibility:visible;display:inline;overflow:visible;enable-background:accumulate;font-family:Sans;-inkscape-font-specification:Sans" d="m 415.11506,287.875 a 0.70006999,0.70006999 0 0 0 -0.5625,0.71875 l 1.28125,54.5625 1.40625,0.40625 -1.25,-54.25 29.25,2.625 0.71875,59.75 1.40625,0.40625 -0.71875,-60.78125 a 0.70006999,0.70006999 0 0 0 -0.65625,-0.6875 l -30.65625,-2.75 a 0.70006999,0.70006999 0 0 0 -0.21875,0 z" id="path3895"/>
      <path inkscape:connector-curvature="0" id="path3884" d="m 414.78661,287.875 a 0.70006999,0.70006999 0 0 0 -0.5625,0.71875 l 1.28125,54.5625 1.40625,0.40625 -1.25,-54.25 29.25,2.625 0.71875,59.75 1.40625,0.40625 -0.71875,-60.78125 a 0.70006999,0.70006999 0 0 0 -0.65625,-0.6875 l -30.65625,-2.75 a 0.70006999,0.70006999 0 0 0 -0.21875,0 z" style="font-size:medium;font-style:normal;font-variant:normal;font-weight:normal;font-stretch:normal;text-indent:0;text-align:start;text-decoration:none;line-height:normal;letter-spacing:normal;word-spacing:normal;text-transform:none;direction:ltr;block-progression:tb;writing-mode:lr-tb;text-anchor:start;baseline-shift:baseline;color:#000000;fill:url(#linearGradient3047);fill-opacity:1;stroke:none;stroke-width:1.39999998;marker:none;visibility:visible;display:inline;overflow:visible;enable-background:accumulate;font-family:Sans;-inkscape-font-specification:Sans"/>
      <path transform="matrix(0.86007407,0,0,0.76627448,2.9604901,94.425057)" d="m 514.22243,292.70908 c 0,4.22386 -2.67703,7.64798 -5.97933,7.64798 -3.30229,0 -5.97933,-3.42412 -5.97933,-7.64798 0,-4.22387 2.67704,-7.64799 5.97933,-7.64799 3.3023,0 5.97933,3.42412 5.97933,7.64799 z" sodipodi:ry="7.6479812" sodipodi:rx="5.9793305" sodipodi:cy="292.70908" sodipodi:cx="508.2431" id="path3901" style="fill:none;stroke:#646a71;stroke-width:1.37735248;stroke-opacity:1" sodipodi:type="arc"/>
      <path sodipodi:nodetypes="cccccc" inkscape:connector-curvature="0" id="path3007" d="m 416.85811,317.11927 16.74233,3.31359 0.17439,-6.45278 -14.64953,-2.26719 -2.0928,1.3952 z" style="fill:none;stroke:#646a71;stroke-width:0.8868404px;stroke-linecap:butt;stroke-linejoin:miter;stroke-opacity:1"/>
      <path d="m 416.875,290.0625 0.21875,6.0625 c 0.40931,-0.02 0.83388,-0.0464 1.21875,-0.0625 0.2821,-0.0118 0.75852,0.006 1.09375,0 a 0.77308851,0.77308851 0 0 1 -0.46875,-0.34375 0.77308851,0.77308851 0 0 1 0,-0.0312 c -0.28941,-0.20012 -0.51504,-0.47779 -0.53125,-0.875 -4.3e-4,-0.0106 2.1e-4,-0.0205 0,-0.0312 l -0.1875,-4.59375 -1.34375,-0.125 z m 5.3125,0.4375 0.125,3.21875 c 0.267,0.006 0.55045,0.0172 0.84375,0.0312 l -0.0937,-3.1875 -0.875,-0.0625 z m 4.8125,0.375 0.125,3.4375 c 0.28297,0.0561 0.55986,0.14814 0.84375,0.21875 L 427.8125,290.9375 427,290.875 z m 5.09375,0.40625 L 432.25,296.5 c 0.1583,0.0772 0.35518,0.14659 0.53125,0.21875 l -0.15625,-5.375 -0.53125,-0.0625 z m 4.5,0.375 0.1875,6.1875 c 0.24952,0.0462 0.50785,0.11897 0.75,0.15625 0.0207,0.003 0.0419,-0.003 0.0625,0 l -0.1875,-6.28125 -0.8125,-0.0625 z m 4.75,0.40625 0.21875,6.34375 c 0.0263,0.002 0.15625,0 0.15625,0 a 0.77308851,0.77308851 0 0 1 0.71875,0.8125 L 442.40625,300 a 0.77308851,0.77308851 0 0 1 -0.6875,0.75 c 1.25868,0.005 2.42469,0.0138 2.71875,0 l -0.125,-8.46875 -2.96875,-0.21875 z m -18.78125,4.0625 c 1.00054,0.0635 2.23834,0.27951 3.4375,0.46875 -0.76624,-0.14212 -1.46523,-0.37474 -2.21875,-0.4375 -0.66583,-0.0555 -0.65691,-0.0192 -1.21875,-0.0312 z m 6.03125,0.90625 -0.0312,0.0625 c 0.14948,0.04 0.28975,0.0818 0.4375,0.125 -0.15026,-0.0291 -0.27517,-0.0985 -0.40625,-0.1875 z m -11,1.40625 c -0.22568,0.008 -0.2836,0.0201 -0.40625,0.0312 l 0.28125,8.03125 c 0.0128,0.50627 0.0487,0.52081 0.375,0.65625 0.16025,0.0665 0.55698,0.0838 0.84375,0.125 l -0.21875,-7.5625 a 0.77308851,0.77308851 0 0 1 0,-0.0312 c -0.0135,-0.70328 0.49637,-1.16057 1.15625,-1.1875 0,0 0.0307,3e-5 0.0312,0 0.0228,-0.001 0.46925,-0.0235 1.25,-0.0312 -1.13299,-0.0283 -2.32706,-0.0658 -3.3125,-0.0312 z m 3.3125,0.0312 c 0.43706,-0.004 1.1057,0.0387 1.6875,0.0625 -0.14026,-0.0105 -0.33582,-0.055 -0.46875,-0.0625 -0.38815,-0.0219 -0.80192,0.0104 -1.21875,0 z m 13.21875,1.1875 c 1.71704,0.80417 3.80142,1.00413 6.15625,1.09375 0.79212,0.0301 0.68712,-0.004 1.3125,0 0,0 -2.00483,-0.063 -4.4375,-0.4375 -0.96514,-0.14858 -2.00656,-0.38763 -3.03125,-0.65625 z m -11.65625,1.21875 0.1875,6.9375 0.84375,0.0937 -0.1875,-7 c -0.29685,-0.0169 -0.56946,-0.0239 -0.84375,-0.0312 z m 4.8125,0.65625 0.1875,6.90625 0.5625,0.0625 -0.21875,-6.84375 c -0.17027,-0.0518 -0.35274,-0.0787 -0.53125,-0.125 z m 13.53125,1.5625 c 0.18599,0.011 0.96875,0.0937 0.96875,0.0937 a 0.77308851,0.77308851 0 0 1 0.75,0.8125 l -0.0312,0.78125 a 0.77308851,0.77308851 0 0 1 -0.78125,0.75 l 0.1875,4.71875 0.59375,0.0625 c 0.78965,0.0998 1.47783,0.17088 1.78125,0.0937 0.15171,-0.0386 0.18576,-0.0808 0.21875,-0.125 0.033,-0.0442 0.0904,-0.14762 0.0937,-0.4375 l -0.0937,-6.75 c -0.45409,0.0202 -1.68573,0.0449 -3.6875,0 z m -8.71875,0.625 0.1875,5.3125 0.8125,0.0937 -0.1875,-5.0625 c -0.28301,-0.10038 -0.54228,-0.22781 -0.8125,-0.34375 z m 4.8125,1.3125 0.1875,4.59375 0.8125,0.0937 -0.15625,-4.53125 c -0.16531,-0.0234 -0.32377,-0.0666 -0.5,-0.0937 -0.10905,-0.0168 -0.23033,-0.0442 -0.34375,-0.0625 z" id="path3817" style="opacity:0.5;fill:#ffd42a;fill-opacity:1;stroke:none;filter:url(#filter3827)" inkscape:original="M 416.0625 289.21875 L 416.34375 296.9375 C 417.08197 296.9061 417.72032 296.86975 418.34375 296.84375 C 419.33658 296.80235 420.70474 296.7893 422.21875 296.875 C 425.24677 297.04632 430.05886 297.78451 432.4375 299.59375 C 434.56202 301.20971 437.29423 301.41876 440.25 301.53125 C 443.20577 301.64373 445.15625 301.53125 445.15625 301.53125 L 445.25 302.28125 L 445.09375 291.5625 L 440.53125 291.21875 L 440.8125 299.125 C 441.19781 299.1482 441.65625 299.1875 441.65625 299.1875 L 441.625 299.96875 C 441.625 299.96875 439.65899 299.92858 437.28125 299.5625 C 434.90351 299.19645 432.0941 298.53278 430.34375 297.21875 C 430.03234 296.98497 429.68136 296.77809 429.28125 296.59375 C 429.27525 296.59075 429.2564 296.59627 429.25 296.59375 C 429.10654 296.61185 428.9578 296.55606 428.875 296.4375 C 428.866 296.4295 428.85185 296.41475 428.84375 296.40625 C 427.36696 295.81987 425.51546 295.51423 423.84375 295.375 C 421.52637 295.18199 419.59375 295.3125 419.59375 295.3125 L 419.59375 295.1875 C 419.3849 295.1915 419.19152 294.9901 419.1875 294.78125 L 418.96875 289.46875 L 416.0625 289.21875 z M 419.78125 289.5 L 419.96875 294.5 C 420.16047 294.49 420.30157 294.47475 420.78125 294.46875 L 420.59375 289.5625 L 419.78125 289.5 z M 421.375 289.625 L 421.5625 294.46875 C 422.24583 294.47575 423.03551 294.4899 423.90625 294.5625 C 423.92985 294.5645 423.94505 294.5605 423.96875 294.5625 L 423.8125 289.84375 L 421.375 289.625 z M 424.59375 289.90625 L 424.78125 294.6875 C 425.04672 294.7171 425.29301 294.74265 425.5625 294.78125 L 425.40625 289.96875 L 424.59375 289.90625 z M 426.1875 290.03125 L 426.375 294.75 C 426.374 294.7925 426.35825 294.83487 426.34375 294.875 C 426.34575 294.8752 426.34127 294.90595 426.34375 294.90625 C 427.17716 295.05656 428.01552 295.22473 428.78125 295.5 L 428.5625 290.21875 L 426.1875 290.03125 z M 429.375 290.3125 L 429.59375 295.875 C 429.94252 296.03679 430.2587 296.20395 430.5625 296.40625 L 430.34375 290.375 L 429.375 290.3125 z M 431.28125 290.4375 L 431.46875 296.96875 C 431.46913 296.97675 431.46883 296.9917 431.46875 297 C 432.0815 297.34952 432.80944 297.62361 433.59375 297.875 L 433.375 290.625 L 431.28125 290.4375 z M 434.15625 290.6875 L 434.40625 297.84375 C 434.41125 297.94325 434.3769 298.04907 434.3125 298.125 C 434.61966 298.21 434.93657 298.23989 435.25 298.3125 C 435.2314 298.2652 435.21815 298.23831 435.21875 298.1875 L 434.96875 290.75 L 434.15625 290.6875 z M 435.78125 290.8125 L 436 298.125 C 436.006 298.24822 435.96978 298.38984 435.875 298.46875 C 436.39734 298.57648 436.9057 298.67293 437.40625 298.75 C 437.75836 298.8042 438.07783 298.83361 438.40625 298.875 L 438.15625 291 L 435.78125 290.8125 z M 438.9375 291.0625 L 439.21875 299 C 439.5121 299.0311 439.77886 299.0407 440.03125 299.0625 L 439.75 291.125 L 438.9375 291.0625 z M 417.5625 297.65625 C 416.87041 297.68055 416.79687 297.7266 416.375 297.75 L 416.6875 306.53125 C 416.7247 308.00488 418.04594 308.0644 419.5 308.1875 L 419.25 299.6875 C 419.246 299.47864 419.44739 299.28527 419.65625 299.28125 C 419.65625 299.28125 420.11834 299.2578 420.90625 299.25 C 421.69416 299.242 422.81075 299.27598 424 299.375 C 426.3785 299.57309 429.17349 300.05073 430.9375 301.375 C 432.45413 302.51358 435.17548 303.17339 437.5 303.53125 C 439.8245 303.88912 441.75 303.96875 441.75 303.96875 L 441.71875 304.75 C 441.71875 304.75 441.26637 304.7069 440.90625 304.6875 L 441.15625 310.9375 L 442.40625 311.09375 C 443.99304 311.29432 445.35638 311.44306 445.375 309.84375 L 445.28125 302.3125 C 445.28125 302.3125 443.21549 302.42787 440.1875 302.3125 C 437.15951 302.19726 434.31937 302.03047 431.9375 300.21875 C 429.80972 298.60031 425.11411 297.85485 422.15625 297.6875 C 420.67732 297.6039 418.93184 297.60825 417.5625 297.65625 z M 420.84375 300.03125 C 420.37311 300.03725 420.23613 300.08485 420.0625 300.09375 L 420.3125 308.28125 L 421.125 308.40625 L 420.84375 300.03125 z M 421.65625 300.0625 L 421.90625 308.5 L 424.3125 308.8125 L 424.0625 300.34375 C 424.0645 300.28275 424.06505 300.24136 424.09375 300.1875 C 424.03615 300.1825 423.99465 300.16065 423.9375 300.15625 C 423.08992 300.08565 422.32366 300.06975 421.65625 300.0625 z M 424.84375 300.28125 C 424.84475 300.29785 424.84379 300.2959 424.84375 300.3125 L 425.125 308.90625 L 425.90625 309 L 425.65625 300.65625 C 425.65125 300.55675 425.6856 300.45094 425.75 300.375 C 425.44516 300.3267 425.14613 300.31713 424.84375 300.28125 z M 426.4375 300.5 C 426.4425 300.5329 426.47175 300.5919 426.46875 300.625 L 426.71875 309.125 L 428.84375 309.375 L 428.59375 301.53125 C 428.57695 301.38068 428.63151 301.21949 428.75 301.125 C 428.04285 300.86002 427.24647 300.65634 426.4375 300.5 z M 429.5 301.4375 C 429.493 301.4548 429.509 301.4836 429.5 301.5 L 429.75 309.46875 L 430.71875 309.59375 L 430.46875 302.3125 C 430.46922 302.2325 430.48575 302.15966 430.53125 302.09375 C 430.49815 302.06995 430.46981 302.0243 430.4375 302 C 430.16468 301.79518 429.84222 301.60413 429.5 301.4375 z M 431.28125 302.53125 L 431.53125 309.71875 L 433.90625 310.03125 L 433.6875 303.75 C 433.6895 303.6889 433.7214 303.61637 433.75 303.5625 C 432.86088 303.2932 432.01957 302.94339 431.28125 302.53125 z M 434.5 303.78125 L 434.75 310.09375 L 435.53125 310.21875 L 435.28125 303.96875 C 435.01118 303.90855 434.76845 303.85112 434.5 303.78125 z M 436.09375 304.125 L 436.34375 310.3125 L 438.71875 310.625 L 438.5 304.5 C 438.13084 304.4551 437.77462 304.40529 437.375 304.34375 C 436.96585 304.28075 436.5204 304.20706 436.09375 304.125 z M 439.3125 304.59375 L 439.53125 310.71875 L 440.34375 310.8125 L 440.09375 304.65625 C 439.84738 304.63625 439.59903 304.62275 439.3125 304.59375 z " inkscape:radius="-0.77301121" sodipodi:type="inkscape:offset"/>
    </g>
  </g>
</svg>