<?xml version="1.0" encoding="UTF-8" standalone="no"?>
<!-- Created with Inkscape (http://www.inkscape.org/) -->

<svg
   xmlns:osb="http://www.openswatchbook.org/uri/2009/osb"
   xmlns:dc="http://purl.org/dc/elements/1.1/"
   xmlns:cc="http://creativecommons.org/ns#"
   xmlns:rdf="http://www.w3.org/1999/02/22-rdf-syntax-ns#"
   xmlns:svg="http://www.w3.org/2000/svg"
   xmlns="http://www.w3.org/2000/svg"
   xmlns:sodipodi="http://sodipodi.sourceforge.net/DTD/sodipodi-0.dtd"
   xmlns:inkscape="http://www.inkscape.org/namespaces/inkscape"
   width="50"
   height="50"
   viewBox="0 0 50.000001 50.000001"
   id="svg2"
   version="1.1"
   inkscape:version="0.91 r13725"
   sodipodi:docname="no_dns.svg">
  <defs
     id="defs4">
    <linearGradient
       id="linearGradient5730"
       osb:paint="solid">
      <stop
         style="stop-color:#000000;stop-opacity:1;"
         offset="0"
         id="stop5732" />
    </linearGradient>
    <linearGradient
       id="linearGradient5703"
       osb:paint="solid">
      <stop
         style="stop-color:#000000;stop-opacity:1;"
         offset="0"
         id="stop5705" />
    </linearGradient>
    <linearGradient
       id="linearGradient5697"
       osb:paint="solid">
      <stop
         style="stop-color:#000000;stop-opacity:1;"
         offset="0"
         id="stop5699" />
    </linearGradient>
  </defs>
  <sodipodi:namedview
     id="base"
     pagecolor="#ffffff"
     bordercolor="#666666"
     borderopacity="1.0"
     inkscape:pageopacity="0.0"
     inkscape:pageshadow="2"
     inkscape:zoom="7.9195959"
     inkscape:cx="-8.7166893"
     inkscape:cy="24.61695"
     inkscape:document-units="px"
     inkscape:current-layer="layer1"
     showgrid="false"
     units="px"
     inkscape:window-width="1855"
     inkscape:window-height="1056"
     inkscape:window-x="65"
     inkscape:window-y="24"
     inkscape:window-maximized="1" />
  <metadata
     id="metadata7">
    <rdf:RDF>
      <cc:Work
         rdf:about="">
        <dc:format>image/svg+xml</dc:format>
        <dc:type
           rdf:resource="http://purl.org/dc/dcmitype/StillImage" />
        <dc:title />
      </cc:Work>
    </rdf:RDF>
  </metadata>
  <g
     inkscape:label="Layer 1"
     inkscape:groupmode="layer"
     id="layer1"
     transform="translate(0,-1002.3622)">
    <text
       xml:space="preserve"
       style="font-style:normal;font-weight:normal;font-size:17.5px;line-height:125%;font-family:sans-serif;text-align:start;letter-spacing:0px;word-spacing:0px;writing-mode:lr-tb;text-anchor:start;fill:#000000;fill-opacity:1;stroke:none;stroke-width:1px;stroke-linecap:butt;stroke-linejoin:miter;stroke-opacity:1"
       x="-29.673231"
       y="1017.2594"
       id="text5736"
       sodipodi:linespacing="125%"><tspan
         sodipodi:role="line"
         id="tspan5738"
         x="-29.673231"
         y="1017.2594" /></text>
    <g
       id="g5794"
       transform="translate(0.62652016,-0.31443574)">
      <ellipse
         ry="23.927988"
         rx="23.80172"
         cy="1027.6766"
         cx="24.37348"
         id="path5759"
         style="opacity:1;fill:none;fill-opacity:1;stroke:#103770;stroke-width:0.5;stroke-linecap:butt;stroke-linejoin:miter;stroke-miterlimit:3;stroke-dasharray:none;stroke-dashoffset:0;stroke-opacity:1" />
      <ellipse
         ry="23.961882"
         rx="12.534531"
         cy="1027.6766"
         cx="24.37348"
         id="path5761"
         style="opacity:1;fill:none;fill-opacity:1;stroke:#103770;stroke-width:0.5;stroke-linecap:butt;stroke-linejoin:miter;stroke-miterlimit:3;stroke-dasharray:none;stroke-dashoffset:0;stroke-opacity:1" />
      <ellipse
         ry="4.2300138"
         rx="19.319168"
         cy="1014.0396"
         cx="24.37348"
         id="path5763"
         style="opacity:1;fill:none;fill-opacity:1;stroke:#103770;stroke-width:0.5;stroke-linecap:butt;stroke-linejoin:miter;stroke-miterlimit:3;stroke-dasharray:none;stroke-dashoffset:0;stroke-opacity:1" />
      <ellipse
         ry="4.2300138"
         rx="19.319168"
         cy="1040.8717"
         cx="24.37348"
         id="path5763-1"
         style="opacity:1;fill:none;fill-opacity:1;stroke:#103770;stroke-width:0.5;stroke-linecap:butt;stroke-linejoin:miter;stroke-miterlimit:3;stroke-dasharray:none;stroke-dashoffset:0;stroke-opacity:1" />
    </g>
    <g
       style="font-style:normal;font-variant:normal;font-weight:bold;font-stretch:normal;font-size:20px;line-height:125%;font-family:Lato;-inkscape-font-specification:'Lato, Bold';text-align:start;letter-spacing:0px;word-spacing:0px;writing-mode:lr-tb;text-anchor:start;fill:#b81c22;fill-opacity:1;stroke:#ffff00;stroke-width:0.40000001;stroke-linecap:butt;stroke-linejoin:miter;stroke-miterlimit:4;stroke-dasharray:none;stroke-opacity:1"
       id="text5780">
      <path
         d="m 18.465937,1027.3622 q 0,1.59 -0.53,2.92 -0.53,1.33 -1.49,2.29 -0.96,0.96 -2.31,1.49 -1.35,0.53 -2.99,0.53 l -5.5199996,0 0,-14.46 5.5199996,0 q 1.64,0 2.99,0.54 1.35,0.53 2.31,1.49 0.96,0.95 1.49,2.28 0.53,1.33 0.53,2.92 z m -2.75,0 q 0,-1.19 -0.32,-2.13 -0.32,-0.95 -0.91,-1.6 -0.59,-0.66 -1.44,-1.01 -0.84,-0.35 -1.9,-0.35 l -2.8099996,0 0,10.18 2.8099996,0 q 1.06,0 1.9,-0.35 0.85,-0.35 1.44,-1 0.59,-0.66 0.91,-1.6 0.32,-0.95 0.32,-2.14 z"
         style=""
         id="path4737" />
      <path
         d="m 21.996875,1020.1322 q 0.18,0 0.3,0.02 0.12,0.01 0.21,0.06 0.1,0.04 0.19,0.13 0.09,0.08 0.2,0.22 l 7.59,9.67 q -0.04,-0.35 -0.06,-0.68 -0.01,-0.34 -0.01,-0.63 l 0,-8.79 2.37,0 0,14.46 -1.39,0 q -0.32,0 -0.53,-0.1 -0.21,-0.1 -0.41,-0.36 l -7.56,-9.63 q 0.03,0.32 0.04,0.64 0.02,0.31 0.02,0.57 l 0,8.88 -2.37,0 0,-14.46 1.41,0 0,0 z"
         style=""
         id="path4739" />
      <path
         d="m 43.454062,1022.7622 q -0.11,0.22 -0.26,0.31 -0.14,0.09 -0.34,0.09 -0.2,0 -0.45,-0.15 -0.25,-0.16 -0.59,-0.35 -0.34,-0.19 -0.8,-0.34 -0.45,-0.16 -1.07,-0.16 -0.56,0 -0.98,0.14 -0.41,0.13 -0.7,0.37 -0.28,0.24 -0.42,0.58 -0.14,0.33 -0.14,0.73 0,0.51 0.28,0.85 0.29,0.34 0.76,0.58 0.47,0.24 1.07,0.43 0.6,0.19 1.22,0.41 0.63,0.21 1.23,0.5 0.6,0.28 1.07,0.72 0.47,0.43 0.75,1.06 0.29,0.63 0.29,1.53 0,0.98 -0.34,1.84 -0.33,0.85 -0.98,1.49 -0.64,0.63 -1.57,1 -0.93,0.36 -2.13,0.36 -0.69,0 -1.36,-0.14 -0.67,-0.13 -1.29,-0.38 -0.61,-0.25 -1.15,-0.6 -0.53,-0.35 -0.95,-0.78 l 0.78,-1.29 q 0.11,-0.14 0.26,-0.23 0.16,-0.1 0.35,-0.1 0.25,0 0.54,0.21 0.29,0.2 0.68,0.45 0.4,0.25 0.93,0.46 0.54,0.2 1.29,0.2 1.15,0 1.78,-0.54 0.63,-0.55 0.63,-1.57 0,-0.57 -0.29,-0.93 -0.28,-0.36 -0.75,-0.6 -0.47,-0.25 -1.07,-0.42 -0.6,-0.17 -1.22,-0.37 -0.62,-0.2 -1.22,-0.48 -0.6,-0.28 -1.07,-0.73 -0.47,-0.45 -0.76,-1.12 -0.28,-0.68 -0.28,-1.67 0,-0.79 0.31,-1.54 0.32,-0.75 0.92,-1.33 0.61,-0.58 1.49,-0.93 0.88,-0.35 2.01,-0.35 1.28,0 2.36,0.4 1.08,0.4 1.84,1.12 l -0.66,1.27 z"
         style=""
         id="path4741" />
    </g>
  </g>
</svg>
