<svg xmlns="http://www.w3.org/2000/svg" viewBox="0 0 96 96"><g id="backgroup-white"><rect x="0.01" width="96" height="96" style="fill:#fff"/></g><g id="os_android"><g id="layer1"><g id="g4718"><path d="M32.29,4.08l4.14,7.15c-7.58,3.71-12.68,10.93-12.68,19.24H71.94c0-8.31-5.1-15.57-12.68-19.24l4.18-7.15a.39.39,0,0,0-.2-.58.44.44,0,0,0-.61.19L58.41,11A26.59,26.59,0,0,0,47.83,8.75,26,26,0,0,0,37.24,11L33,3.69s-.27-.38-.62-.19-.12.58-.12.58M36.43,18a2.26,2.26,0,1,1-2.28,2.28A2.29,2.29,0,0,1,36.43,18m23,0a2.26,2.26,0,1,1,0,4.52,2.26,2.26,0,1,1,0-4.52" style="fill:#a4c639"/><path d="M23.6,33.33V69.92c0,1.82,2.2,4.17,4,4.17H33.3V86.58a5.43,5.43,0,0,0,5.18,5.71,5.43,5.43,0,0,0,5.17-5.71V74.09H52V86.58a5.22,5.22,0,1,0,10.39,0V74.09h5.72c1.82,0,4-2.35,4-4.17V33.33Z" style="fill:#a4c639"/><path d="M15.56,32.52h0a5.49,5.49,0,0,1,5.22,5.72V60a5.47,5.47,0,0,1-5.22,5.72A5.44,5.44,0,0,1,10.38,60V38.24c0-3.13,2.36-5.72,5.18-5.72" style="fill:#a4c639"/><path d="M80.21,32.52h0a5.46,5.46,0,0,1,5.17,5.72V60A5.2,5.2,0,1,1,75,60V38.24a5.49,5.49,0,0,1,5.18-5.72" style="fill:#a4c639"/></g></g></g></svg>