<svg xmlns="http://www.w3.org/2000/svg" viewBox="0 0 96 96"><g id="backgroup-white"><rect x="0.01" width="96" height="96" style="fill:#fff"/></g><g id="ubuntu"><g id="layer1"><g id="g4733"><path d="M47.9,93C22.88,92.86,2.77,72.62,3,47.88A45,45,0,1,1,47.9,93ZM38.09,62.44A17.77,17.77,0,0,1,38,33.53c-1.46-2.43-2.92-5-4.47-7.46A26,26,0,0,0,22.8,40.79a1.8,1.8,0,0,0,.57,1.42,8.24,8.24,0,0,1,.08,11.47A2,2,0,0,0,23,55.87,27,27,0,0,0,29.85,67C31,68,32.17,68.93,33.5,70c1.59-2.64,3-5.11,4.59-7.59Zm-1.71,8.88c.13.21.21.25.25.33a25.52,25.52,0,0,0,17.88,1.82,1.64,1.64,0,0,0,.81-.85c1.54-4.74,5.44-7.09,10.26-6A1.76,1.76,0,0,0,67,66.26a25.2,25.2,0,0,0,7.26-15.54c.12-.93-.24-1.21-1.1-1.21-2.14,0-4.21.08-6.36-.08-1-.09-1.34.32-1.46,1.29A17.45,17.45,0,0,1,48.83,65.4a19.85,19.85,0,0,1-8.19-1.58c-1.54,2.56-2.92,5.07-4.26,7.5Zm4.14-39.13c.61-.24,1-.36,1.42-.57a17.4,17.4,0,0,1,23,12.05c.25.93.12,2.27.73,2.67s1.95.13,2.92.13h5.52a6.38,6.38,0,0,0,.12-.69A25.23,25.23,0,0,0,67,29.72c-.24-.33-1-.37-1.42-.33a8.42,8.42,0,0,1-10.26-5.88,1.77,1.77,0,0,0-1.18-1.09,24.4,24.4,0,0,0-9.85-.49,25.28,25.28,0,0,0-8,2.56C37.72,27.12,39.1,29.64,40.52,32.19ZM17.32,54.13a6,6,0,0,0,6.17-6,6.16,6.16,0,0,0-6.13-6.29A6.27,6.27,0,0,0,11.2,48a6.05,6.05,0,0,0,6.12,6.16Zm46-26.52a6.22,6.22,0,0,0,6.25-6,6.31,6.31,0,0,0-6.13-6.25,6.1,6.1,0,0,0-6.16,6.12,6,6,0,0,0,6,6.17Zm0,53.08a6.21,6.21,0,0,0,6.25-6.16,6.33,6.33,0,0,0-6.17-6.13,6.16,6.16,0,0,0-6.12,6.17A6,6,0,0,0,63.31,80.69Z" style="fill:#b1492b"/><path d="M38.09,62.44c-1.46,2.52-2.92,5-4.5,7.59-1.34-1.1-2.56-2-3.65-3A26.15,26.15,0,0,1,23,55.87a1.79,1.79,0,0,1,.49-2.19,8.2,8.2,0,0,0-.08-11.47c-.33-.37-.69-1.06-.57-1.42A25.8,25.8,0,0,1,33.63,26.07c1.54,2.51,3,5,4.46,7.46a17.73,17.73,0,0,0,0,28.91Z" style="fill:#fff"/><path d="M36.38,71.32c1.34-2.43,2.76-4.94,4.22-7.5a19.08,19.08,0,0,0,8.19,1.58A17.37,17.37,0,0,0,65.3,50.72c.12-1,.48-1.33,1.46-1.29,2.15.08,4.21.08,6.36.08.86,0,1.18.32,1.1,1.21A25.3,25.3,0,0,1,67,66.26a1.93,1.93,0,0,1-1.42.32c-4.83-1-8.72,1.3-10.26,6-.12.37-.49.81-.81.85a25.49,25.49,0,0,1-17.88-1.82,1,1,0,0,0-.21-.33Z" style="fill:#fff"/><path d="M40.52,32.19c-1.46-2.55-2.8-5.07-4.26-7.62a23.4,23.4,0,0,1,8-2.56,24.61,24.61,0,0,1,9.85.49,2,2,0,0,1,1.18,1.09,8.47,8.47,0,0,0,10.26,5.88A1.6,1.6,0,0,1,67,29.8a25.53,25.53,0,0,1,7.22,16.06c0,.12-.08.24-.12.69H68.54c-1,0-2.27.36-2.92-.12s-.48-1.79-.73-2.68a17.51,17.51,0,0,0-23-12C41.57,31.83,41.13,32,40.52,32.19Z" style="fill:#fff"/><path d="M17.32,54.13A6.1,6.1,0,0,1,11.2,48a6.27,6.27,0,0,1,6.16-6.17,6.14,6.14,0,0,1,6.13,6.29,6,6,0,0,1-6.17,6Z" style="fill:#fff"/><path d="M63.31,27.61a6,6,0,0,1-6-6.25,6.18,6.18,0,0,1,6.16-6.12,6.19,6.19,0,1,1-.12,12.37Z" style="fill:#fff"/><path d="M63.31,80.69a6,6,0,0,1-6-6.16,6.16,6.16,0,0,1,6.12-6.17,6.17,6.17,0,1,1-.08,12.33Z" style="fill:#fff"/></g></g></g></svg>