<svg xmlns="http://www.w3.org/2000/svg" viewBox="0 0 96 96"><g id="backgroup-white"><rect x="0.01" width="96" height="96" style="fill:#fff"/></g><g id="yocto"><g id="layer1"><g id="g4802"><path id="path11" d="M19.59,36.92l-2.5-1.41L12,45.76,6.63,35.51,4.09,36.92,10.5,49c0,.11-.18.43-.43.94s-.51,1-.8,1.48a11.54,11.54,0,0,1-1.45,2.1A8.63,8.63,0,0,1,6.3,54.88a7.05,7.05,0,0,1-1.63.8A12.61,12.61,0,0,1,3,56.11l1.16,2.43a8.86,8.86,0,0,0,1.44-.33,7,7,0,0,0,2.07-.91A9.63,9.63,0,0,0,10,55.39a14.14,14.14,0,0,0,2.21-3.33l7.42-15.14" style="fill:#243446"/><path id="path13" d="M36.49,44.42a8.3,8.3,0,0,0-.65-3.3,7.69,7.69,0,0,0-1.74-2.64,7.59,7.59,0,0,0-2.64-1.74,8.29,8.29,0,0,0-3.29-.65,8.48,8.48,0,0,0-3.3.65,7.33,7.33,0,0,0-2.64,1.74,8.49,8.49,0,0,0-1.77,9.23,7.78,7.78,0,0,0,1.77,2.61,8.22,8.22,0,0,0,2.64,1.77,9.07,9.07,0,0,0,6.59,0,8.12,8.12,0,0,0,2.64-1.77,7.86,7.86,0,0,0,1.74-2.61,8.22,8.22,0,0,0,.65-3.29m-3.18,0a6.42,6.42,0,0,1-.4,2.21,6.06,6.06,0,0,1-1.12,1.77,5.9,5.9,0,0,1-1.63,1.16,5.23,5.23,0,0,1-2,.4,5.4,5.4,0,0,1-2-.4,5.67,5.67,0,0,1-1.67-1.16,6.92,6.92,0,0,1-1.08-1.77,5.6,5.6,0,0,1-.4-2.21,6.38,6.38,0,0,1,.4-2.21,6.82,6.82,0,0,1,1.08-1.78,5.14,5.14,0,0,1,1.67-1.15,4.75,4.75,0,0,1,2-.44,4.6,4.6,0,0,1,2,.44,4.36,4.36,0,0,1,1.63,1.15,6,6,0,0,1,1.12,1.78,5.57,5.57,0,0,1,.4,2.21" style="fill:#243446"/><path id="path15" d="M81.13,44.42a8.48,8.48,0,0,0-.65-3.3,7.85,7.85,0,0,0-4.38-4.38,8.68,8.68,0,0,0-6.59,0,7.33,7.33,0,0,0-2.64,1.74,8.53,8.53,0,0,0-1.78,9.23,8,8,0,0,0,1.78,2.61,8.22,8.22,0,0,0,2.64,1.77,8.85,8.85,0,0,0,3.3.62,9,9,0,0,0,3.29-.62,8.22,8.22,0,0,0,2.64-1.77,7.86,7.86,0,0,0,1.74-2.61,8.4,8.4,0,0,0,.65-3.29m-3.15,0a6.19,6.19,0,0,1-.4,2.21,6.06,6.06,0,0,1-1.12,1.77,4.91,4.91,0,0,1-1.63,1.16,5.16,5.16,0,0,1-2,.4,5.44,5.44,0,0,1-2-.4,6,6,0,0,1-1.66-1.16,6.68,6.68,0,0,1-1.09-1.77,5.6,5.6,0,0,1-.4-2.21,6.38,6.38,0,0,1,.4-2.21,6.58,6.58,0,0,1,1.09-1.78,5,5,0,0,1,1.66-1.15,4.91,4.91,0,0,1,2-.44,4.54,4.54,0,0,1,2,.44,4.36,4.36,0,0,1,1.63,1.15,6,6,0,0,1,1.12,1.78,6.15,6.15,0,0,1,.4,2.21" style="fill:#243446"/><path id="path17" d="M93,44.38a1.74,1.74,0,1,1-1.74-1.74A1.77,1.77,0,0,1,93,44.38" style="fill:#0095d8"/><path id="path19" d="M58.76,31l-3,1.7v3.73H47.54c-5.91,0-9.45,2.86-9.45,8.11,0,8.14,8.47,9.67,14.51,6.77L51.34,48.8C46.56,50.9,41.27,50,41.27,44.45c0-3.58,1.89-5.54,6.19-5.54h8.26V48.8c0,4.38,5,4.45,8.11,2.68l-1.2-2.36c-2,1-3.91,1.16-3.91-.79V38.91h4.13V36.38H58.72V31Z" style="fill:#243446"/><path id="path21" d="M23.53,59.33v5.72h1.09V62.63c1.95.11,2.68-.55,2.68-1.74a1.67,1.67,0,0,0-1.88-1.56Zm1.09.91h.76a.7.7,0,0,1,.76.65c0,.65-.72.76-.72.76h-.8V60.24Z" style="fill:#243446"/><path id="path23" d="M45.51,62.19A2.61,2.61,0,0,0,45.26,61a2.87,2.87,0,0,0-.66-.94,3,3,0,0,0-1-.61,3.13,3.13,0,0,0-1.2-.22,3.07,3.07,0,0,0-1.19.22,3.3,3.3,0,0,0-1,.61,2.45,2.45,0,0,0-.65.94,3,3,0,0,0-.22,1.16,3,3,0,0,0,.22,1.16,3.37,3.37,0,0,0,.65.94,3,3,0,0,0,1,.62,3.39,3.39,0,0,0,1.19.21,3.32,3.32,0,0,0,1.2-.21,3.41,3.41,0,0,0,1-.62,2.51,2.51,0,0,0,.66-.94,3.26,3.26,0,0,0,.25-1.16m-1.12,0a1.93,1.93,0,0,1-.15.8,2.22,2.22,0,0,1-.4.61,2.15,2.15,0,0,1-.61.44,1.77,1.77,0,0,1-.76.14,1.64,1.64,0,0,1-.76-.14,1.75,1.75,0,0,1-.62-.44,2.22,2.22,0,0,1-.4-.61,2.1,2.1,0,0,1-.14-.8,1.81,1.81,0,0,1,.14-.76,2.8,2.8,0,0,1,.4-.61,1.61,1.61,0,0,1,.62-.4,1.72,1.72,0,0,1,.76-.15,1.67,1.67,0,0,1,.76.15,1.85,1.85,0,0,1,.61.4,1.58,1.58,0,0,1,.4.61,1.67,1.67,0,0,1,.15.76" style="fill:#243446"/><path id="path25" d="M50,59.33v4.35a.35.35,0,0,1-.32.36h-.33l0,1h.32a1.48,1.48,0,0,0,1.45-1.45V59.33Z" style="fill:#243446"/><polygon id="polygon27" points="56.7 62.59 58.83 62.59 58.83 61.69 56.7 61.69 56.7 60.24 59.23 60.24 59.23 59.33 55.61 59.33 55.61 65.02 59.27 65.02 59.23 64.08 56.7 64.08 56.7 62.59" style="fill:#243446"/><path id="path29" d="M68.1,59.77c-2.61-1.34-5.29-.08-5.29,2.39,0,2.71,3,3.62,5.33,2.35l-.37-.94c-2.39,1.23-3.83.07-3.83-1.41,0-1.89,1.84-2.5,3.69-1.49Z" style="fill:#243446"/><polygon id="polygon31" points="73.46 60.24 73.46 65.02 74.54 65.02 74.54 60.24 76.39 60.24 76.39 59.33 71.76 59.33 71.72 60.24 73.46 60.24" style="fill:#243446"/><path id="path33" d="M31.61,59.33v5.72h1.08V62.59h.73l1.26,2.46h1.23L34.39,62.3a1.43,1.43,0,0,0,.91-1.41c0-1.12-1-1.56-2.06-1.56Zm1.12.91h.76a.7.7,0,0,1,.76.65c0,.65-.72.76-.72.76h-.8V60.24Z" style="fill:#243446"/></g></g></g></svg>