<?xml version="1.0" encoding="UTF-8" standalone="no"?>
<!-- Created with Inkscape (http://www.inkscape.org/) -->

<svg
   xmlns:dc="http://purl.org/dc/elements/1.1/"
   xmlns:cc="http://creativecommons.org/ns#"
   xmlns:rdf="http://www.w3.org/1999/02/22-rdf-syntax-ns#"
   xmlns:svg="http://www.w3.org/2000/svg"
   xmlns="http://www.w3.org/2000/svg"
   xmlns:sodipodi="http://sodipodi.sourceforge.net/DTD/sodipodi-0.dtd"
   xmlns:inkscape="http://www.inkscape.org/namespaces/inkscape"
   width="50"
   height="50"
   viewBox="0 0 50.000001 50.000001"
   id="svg4736"
   version="1.1"
   inkscape:version="0.91 r13725"
   sodipodi:docname="pi_board.svg">
  <defs
     id="defs4738" />
  <sodipodi:namedview
     id="base"
     pagecolor="#ffffff"
     bordercolor="#666666"
     borderopacity="1.0"
     inkscape:pageopacity="0.0"
     inkscape:pageshadow="2"
     inkscape:zoom="0.7"
     inkscape:cx="-497.18599"
     inkscape:cy="510.68737"
     inkscape:document-units="px"
     inkscape:current-layer="layer1"
     showgrid="false"
     units="px"
     inkscape:window-width="1855"
     inkscape:window-height="1056"
     inkscape:window-x="65"
     inkscape:window-y="24"
     inkscape:window-maximized="1" />
  <metadata
     id="metadata4741">
    <rdf:RDF>
      <cc:Work
         rdf:about="">
        <dc:format>image/svg+xml</dc:format>
        <dc:type
           rdf:resource="http://purl.org/dc/dcmitype/StillImage" />
        <dc:title></dc:title>
      </cc:Work>
    </rdf:RDF>
  </metadata>
  <g
     inkscape:label="Layer 1"
     inkscape:groupmode="layer"
     id="layer1"
     transform="translate(0,-1002.3622)">
    <g
       id="g5482"
       transform="matrix(0.18618122,0,0,0.18618122,73.407117,960.16314)">
      <path
         class="st0"
         d="m -153.95,282.98363 -68.6,0 0,0 -90.3,0 0,0 -59.7,0 c -4.6,0 -8.3,3.7 -8.3,8.3 l 0,130.8 c 0,4.6 3.7,8.3 8.3,8.3 l 218.6,0 c 4.6,0 8.3,-3.7 8.3,-8.3 l 0,-130.9 c 0,-4.5 -3.7,-8.2 -8.3,-8.2 z"
         id="path11"
         inkscape:connector-curvature="0"
         style="fill:#146133" />
      <g
         id="g13"
         transform="translate(-412.45,207.58363)">
        <circle
           class="st1"
           cx="43.5"
           cy="86.199997"
           r="7"
           id="circle15"
           style="fill:#b4801c" />
        <circle
           class="st2"
           cx="43.5"
           cy="86.199997"
           r="4.4000001"
           id="circle17"
           style="fill:#ffffff" />
      </g>
      <g
         id="g19"
         transform="translate(-412.45,207.58363)">
        <circle
           class="st1"
           cx="209.39999"
           cy="86.199997"
           r="7"
           id="circle21"
           style="fill:#b4801c" />
        <circle
           class="st2"
           cx="209.39999"
           cy="86.199997"
           r="4.4000001"
           id="circle23"
           style="fill:#ffffff" />
      </g>
      <g
         id="g25"
         transform="translate(-412.45,207.58363)">
        <circle
           class="st1"
           cx="43.5"
           cy="209.60001"
           r="7"
           id="circle27"
           style="fill:#b4801c" />
        <circle
           class="st2"
           cx="43.5"
           cy="209.60001"
           r="4.4000001"
           id="circle29"
           style="fill:#ffffff" />
      </g>
      <g
         id="g31"
         transform="translate(-412.45,207.58363)">
        <circle
           class="st1"
           cx="209.39999"
           cy="209.60001"
           r="7"
           id="circle33"
           style="fill:#b4801c" />
        <circle
           class="st2"
           cx="209.39999"
           cy="209.60001"
           r="4.4000001"
           id="circle35"
           style="fill:#ffffff" />
      </g>
      <path
         class="st3"
         d="m -158.45,298.38363 -3.9,0 0,2.3 2.6,0 0,0.9 -2.6,0 0,1.4 2.6,0 0,0.9 -2.6,0 0,1.4 2.6,0 0,0.9 -2.6,0 0,1.4 2.6,0 0,0.9 -2.6,0 0,2.2 3.9,0 c 0.8,0 1.5,0.7 1.5,1.5 0,0.8 -0.7,1.5 -1.5,1.5 l -3.9,0 0,4.3 21,0 0,-2.8 2.2,0 0,-22.4 -2.2,0 0,-1.9 -21,0 0,4.4 3.9,0 c 0.8,0 1.5,0.7 1.5,1.5 0,0.9 -0.7,1.6 -1.5,1.6 z m 9.9,-3.9 1.9,0 c 0.8,0 1.5,0.7 1.5,1.5 0,0.8 -0.7,1.5 -1.5,1.5 l -1.9,0 c -0.8,0 -1.5,-0.7 -1.5,-1.5 0,-0.8 0.7,-1.5 1.5,-1.5 z m 0,17.7 1.9,0 c 0.8,0 1.5,0.7 1.5,1.5 0,0.8 -0.7,1.5 -1.5,1.5 l -1.9,0 c -0.8,0 -1.5,-0.7 -1.5,-1.5 0,-0.8 0.7,-1.5 1.5,-1.5 z"
         id="path37"
         inkscape:connector-curvature="0"
         style="fill:#cbcbcb" />
      <path
         class="st3"
         d="m -178.95,365.68363 0,1.8 33.2,0 0,1.6 1.2,1.2 1.9,-0.8 c 0.1,-1.7 -1.5,-2.3 -1.8,-2.4 l 0,-1.4 2.6,0 0,-31.6 -2.6,0 0,-1.5 c 0.3,-0.1 1.8,-0.7 1.8,-2.4 l -1.9,-0.8 -1.2,1.2 0,1.2 -33.2,0 0,2.2 0,0 0,31.7 0,0 z m 18.4,-29.3 14.3,0.3 c 0,0 1.5,0.2 1.5,1.6 0,1.3 0,3 0,3 l 0,3 c 0,0 0,1.2 -1.3,1.2 -1.2,0 -14.3,0 -14.3,0 0,0 -1.1,0.1 -1.1,-0.6 0,-0.7 0.7,-0.8 1.1,-0.8 0.4,0 11.5,-1 11.5,-1 0,0 1.1,-0.3 1.1,-1.4 0,-1 0,-1.2 0,-1.2 0,0 0.2,-1.8 -1.6,-1.8 -1.8,0 -11.3,-1.1 -11.3,-1.1 0,0 -0.9,0 -0.9,-0.7 0.1,-0.6 1,-0.5 1,-0.5 z m 0,17 14.3,0.3 c 0,0 1.5,0.2 1.5,1.6 0,1.3 0,3 0,3 l 0,3 c 0,0 0,1.2 -1.3,1.2 -1.2,0 -14.3,0 -14.3,0 0,0 -1.1,0.1 -1.1,-0.6 0,-0.7 0.7,-0.8 1.1,-0.8 0.4,0 11.5,-1 11.5,-1 0,0 1.1,-0.3 1.1,-1.4 0,-1 0,-1.2 0,-1.2 0,0 0.2,-1.8 -1.6,-1.8 -1.8,0 -11.3,-1.1 -11.3,-1.1 0,0 -0.9,0 -0.9,-0.7 0,-0.7 1,-0.5 1,-0.5 z"
         id="path39"
         inkscape:connector-curvature="0"
         style="fill:#cbcbcb" />
      <path
         class="st3"
         d="m -191.25,418.58363 50.9,0 0,-37.3 -50.9,0 0,37.3 0,0 z m 46,-5.5 c -0.7,0 -16.7,0.1 -16.7,0.1 0,0 -1.8,0 -1.8,-1.6 0,-1.6 0.1,-1.6 0.1,-1.6 l 0,-1.6 c 0,0 -0.1,-1.3 1.5,-1.3 1.6,0 17.2,0 17.2,0 0,0 1.8,-0.1 1.8,0.6 0,0.7 -1.9,0.7 -1.9,0.7 l -14.3,0.4 0,2.3 14.2,0.5 c 0,0 2.3,-0.1 2.3,0.7 -0.2,0.9 -1.7,0.8 -2.4,0.8 z m 0,-20.1 c -0.7,0 -16.7,0.1 -16.7,0.1 0,0 -1.8,0 -1.8,-1.6 0,-1.6 0.1,-1.6 0.1,-1.6 l 0,-1.6 c 0,0 -0.1,-1.3 1.5,-1.3 1.6,0 17.2,0 17.2,0 0,0 1.8,-0.1 1.8,0.6 0,0.7 -1.9,0.7 -1.9,0.7 l -14.3,0.4 0,2.3 14.2,0.5 c 0,0 2.3,-0.1 2.3,0.7 -0.2,0.8 -1.7,0.8 -2.4,0.8 z"
         id="path41"
         inkscape:connector-curvature="0"
         style="fill:#cbcbcb" />
      <path
         class="st4"
         d="m -218.85,304.78363 -134,0 c -1.6,0 -2.8,-1.3 -2.8,-2.8 l 0,-10.8 c 0,-1.6 1.3,-2.8 2.8,-2.8 l 134,0 c 1.6,0 2.8,1.3 2.8,2.8 l 0,10.7 c 0,1.6 -1.2,2.9 -2.8,2.9 z"
         id="path43"
         inkscape:connector-curvature="0"
         style="fill:#151515" />
      <g
         id="g45"
         transform="translate(-412.45,207.58363)">
        <g
           id="g47">
          <path
             class="st5"
             d="m 62.1,89 -2.7,0 c -0.8,0 -1.5,-0.7 -1.5,-1.5 l 0,-2.7 c 0,-0.8 0.7,-1.5 1.5,-1.5 l 2.7,0 c 0.8,0 1.5,0.7 1.5,1.5 l 0,2.7 C 63.7,88.3 63,89 62.1,89 Z"
             id="path49"
             inkscape:connector-curvature="0"
             style="fill:#b4801c;stroke:#151515;stroke-width:1.23150003;stroke-miterlimit:10" />
          <path
             class="st5"
             d="m 62.1,95.4 -2.7,0 c -0.8,0 -1.5,-0.7 -1.5,-1.5 l 0,-2.8 c 0,-0.8 0.7,-1.5 1.5,-1.5 l 2.7,0 c 0.8,0 1.5,0.7 1.5,1.5 l 0,2.7 c 0.1,0.9 -0.6,1.6 -1.5,1.6 z"
             id="path51"
             inkscape:connector-curvature="0"
             style="fill:#b4801c;stroke:#151515;stroke-width:1.23150003;stroke-miterlimit:10" />
        </g>
        <g
           id="g53">
          <path
             class="st5"
             d="m 69.5,89 -2.7,0 C 66,89 65.3,88.3 65.3,87.5 l 0,-2.7 c 0,-0.8 0.7,-1.5 1.5,-1.5 l 2.7,0 c 0.8,0 1.5,0.7 1.5,1.5 l 0,2.7 c 0,0.8 -0.7,1.5 -1.5,1.5 z"
             id="path55"
             inkscape:connector-curvature="0"
             style="fill:#b4801c;stroke:#151515;stroke-width:1.23150003;stroke-miterlimit:10" />
          <path
             class="st5"
             d="m 69.5,95.4 -2.7,0 c -0.8,0 -1.5,-0.7 -1.5,-1.5 l 0,-2.8 c 0,-0.8 0.7,-1.5 1.5,-1.5 l 2.7,0 c 0.8,0 1.5,0.7 1.5,1.5 l 0,2.7 c 0,0.9 -0.7,1.6 -1.5,1.6 z"
             id="path57"
             inkscape:connector-curvature="0"
             style="fill:#b4801c;stroke:#151515;stroke-width:1.23150003;stroke-miterlimit:10" />
        </g>
        <g
           id="g59">
          <path
             class="st5"
             d="m 76.8,89 -2.7,0 c -0.8,0 -1.5,-0.7 -1.5,-1.5 l 0,-2.7 c 0,-0.8 0.7,-1.5 1.5,-1.5 l 2.7,0 c 0.8,0 1.5,0.7 1.5,1.5 l 0,2.7 c 0,0.8 -0.7,1.5 -1.5,1.5 z"
             id="path61"
             inkscape:connector-curvature="0"
             style="fill:#b4801c;stroke:#151515;stroke-width:1.23150003;stroke-miterlimit:10" />
          <path
             class="st5"
             d="m 76.8,95.4 -2.7,0 c -0.8,0 -1.5,-0.7 -1.5,-1.5 l 0,-2.8 c 0,-0.8 0.7,-1.5 1.5,-1.5 l 2.7,0 c 0.8,0 1.5,0.7 1.5,1.5 l 0,2.7 c 0,0.9 -0.7,1.6 -1.5,1.6 z"
             id="path63"
             inkscape:connector-curvature="0"
             style="fill:#b4801c;stroke:#151515;stroke-width:1.23150003;stroke-miterlimit:10" />
        </g>
        <g
           id="g65">
          <path
             class="st5"
             d="m 84.1,89 -2.7,0 c -0.8,0 -1.5,-0.7 -1.5,-1.5 l 0,-2.7 c 0,-0.8 0.7,-1.5 1.5,-1.5 l 2.7,0 c 0.8,0 1.5,0.7 1.5,1.5 l 0,2.7 C 85.7,88.3 85,89 84.1,89 Z"
             id="path67"
             inkscape:connector-curvature="0"
             style="fill:#b4801c;stroke:#151515;stroke-width:1.23150003;stroke-miterlimit:10" />
          <path
             class="st5"
             d="m 84.1,95.4 -2.7,0 c -0.8,0 -1.5,-0.7 -1.5,-1.5 l 0,-2.8 c 0,-0.8 0.7,-1.5 1.5,-1.5 l 2.7,0 c 0.8,0 1.5,0.7 1.5,1.5 l 0,2.7 c 0.1,0.9 -0.6,1.6 -1.5,1.6 z"
             id="path69"
             inkscape:connector-curvature="0"
             style="fill:#b4801c;stroke:#151515;stroke-width:1.23150003;stroke-miterlimit:10" />
        </g>
        <g
           id="g71">
          <path
             class="st5"
             d="m 91.5,89 -2.7,0 C 88,89 87.3,88.3 87.3,87.5 l 0,-2.7 c 0,-0.8 0.7,-1.5 1.5,-1.5 l 2.7,0 c 0.8,0 1.5,0.7 1.5,1.5 l 0,2.7 c 0,0.8 -0.7,1.5 -1.5,1.5 z"
             id="path73"
             inkscape:connector-curvature="0"
             style="fill:#b4801c;stroke:#151515;stroke-width:1.23150003;stroke-miterlimit:10" />
          <path
             class="st5"
             d="m 91.5,95.4 -2.7,0 c -0.8,0 -1.5,-0.7 -1.5,-1.5 l 0,-2.8 c 0,-0.8 0.7,-1.5 1.5,-1.5 l 2.7,0 c 0.8,0 1.5,0.7 1.5,1.5 l 0,2.7 c 0,0.9 -0.7,1.6 -1.5,1.6 z"
             id="path75"
             inkscape:connector-curvature="0"
             style="fill:#b4801c;stroke:#151515;stroke-width:1.23150003;stroke-miterlimit:10" />
        </g>
        <g
           id="g77">
          <path
             class="st5"
             d="m 98.8,89 -2.7,0 c -0.8,0 -1.5,-0.7 -1.5,-1.5 l 0,-2.7 c 0,-0.8 0.7,-1.5 1.5,-1.5 l 2.7,0 c 0.8,0 1.5,0.7 1.5,1.5 l 0,2.7 c 0,0.8 -0.7,1.5 -1.5,1.5 z"
             id="path79"
             inkscape:connector-curvature="0"
             style="fill:#b4801c;stroke:#151515;stroke-width:1.23150003;stroke-miterlimit:10" />
          <path
             class="st5"
             d="m 98.8,95.4 -2.7,0 c -0.8,0 -1.5,-0.7 -1.5,-1.5 l 0,-2.8 c 0,-0.8 0.7,-1.5 1.5,-1.5 l 2.7,0 c 0.8,0 1.5,0.7 1.5,1.5 l 0,2.7 c 0,0.9 -0.7,1.6 -1.5,1.6 z"
             id="path81"
             inkscape:connector-curvature="0"
             style="fill:#b4801c;stroke:#151515;stroke-width:1.23150003;stroke-miterlimit:10" />
        </g>
        <g
           id="g83">
          <path
             class="st5"
             d="m 106.1,89 -2.7,0 c -0.8,0 -1.5,-0.7 -1.5,-1.5 l 0,-2.7 c 0,-0.8 0.7,-1.5 1.5,-1.5 l 2.7,0 c 0.8,0 1.5,0.7 1.5,1.5 l 0,2.7 c 0.1,0.8 -0.6,1.5 -1.5,1.5 z"
             id="path85"
             inkscape:connector-curvature="0"
             style="fill:#b4801c;stroke:#151515;stroke-width:1.23150003;stroke-miterlimit:10" />
          <path
             class="st5"
             d="m 106.1,95.4 -2.7,0 c -0.8,0 -1.5,-0.7 -1.5,-1.5 l 0,-2.8 c 0,-0.8 0.7,-1.5 1.5,-1.5 l 2.7,0 c 0.8,0 1.5,0.7 1.5,1.5 l 0,2.7 c 0.1,0.9 -0.6,1.6 -1.5,1.6 z"
             id="path87"
             inkscape:connector-curvature="0"
             style="fill:#b4801c;stroke:#151515;stroke-width:1.23150003;stroke-miterlimit:10" />
        </g>
        <g
           id="g89">
          <path
             class="st5"
             d="m 113.4,89 -2.7,0 c -0.8,0 -1.5,-0.7 -1.5,-1.5 l 0,-2.7 c 0,-0.8 0.7,-1.5 1.5,-1.5 l 2.7,0 c 0.8,0 1.5,0.7 1.5,1.5 l 0,2.7 c 0.1,0.8 -0.6,1.5 -1.5,1.5 z"
             id="path91"
             inkscape:connector-curvature="0"
             style="fill:#b4801c;stroke:#151515;stroke-width:1.23150003;stroke-miterlimit:10" />
          <path
             class="st5"
             d="m 113.4,95.4 -2.7,0 c -0.8,0 -1.5,-0.7 -1.5,-1.5 l 0,-2.8 c 0,-0.8 0.7,-1.5 1.5,-1.5 l 2.7,0 c 0.8,0 1.5,0.7 1.5,1.5 l 0,2.7 c 0.1,0.9 -0.6,1.6 -1.5,1.6 z"
             id="path93"
             inkscape:connector-curvature="0"
             style="fill:#b4801c;stroke:#151515;stroke-width:1.23150003;stroke-miterlimit:10" />
        </g>
        <g
           id="g95">
          <path
             class="st5"
             d="m 120.8,89 -2.8,0 c -0.8,0 -1.5,-0.7 -1.5,-1.5 l 0,-2.7 c 0,-0.8 0.7,-1.5 1.5,-1.5 l 2.7,0 c 0.8,0 1.5,0.7 1.5,1.5 l 0,2.7 c 0.1,0.8 -0.6,1.5 -1.4,1.5 z"
             id="path97"
             inkscape:connector-curvature="0"
             style="fill:#b4801c;stroke:#151515;stroke-width:1.23150003;stroke-miterlimit:10" />
          <path
             class="st5"
             d="m 120.8,95.4 -2.8,0 c -0.8,0 -1.5,-0.7 -1.5,-1.5 l 0,-2.8 c 0,-0.8 0.7,-1.5 1.5,-1.5 l 2.7,0 c 0.8,0 1.5,0.7 1.5,1.5 l 0,2.7 c 0.1,0.9 -0.6,1.6 -1.4,1.6 z"
             id="path99"
             inkscape:connector-curvature="0"
             style="fill:#b4801c;stroke:#151515;stroke-width:1.23150003;stroke-miterlimit:10" />
        </g>
        <g
           id="g101">
          <path
             class="st5"
             d="m 128.1,89 -2.7,0 c -0.8,0 -1.5,-0.7 -1.5,-1.5 l 0,-2.7 c 0,-0.8 0.7,-1.5 1.5,-1.5 l 2.7,0 c 0.8,0 1.5,0.7 1.5,1.5 l 0,2.7 c 0,0.8 -0.6,1.5 -1.5,1.5 z"
             id="path103"
             inkscape:connector-curvature="0"
             style="fill:#b4801c;stroke:#151515;stroke-width:1.23150003;stroke-miterlimit:10" />
          <path
             class="st5"
             d="m 128.1,95.4 -2.7,0 c -0.8,0 -1.5,-0.7 -1.5,-1.5 l 0,-2.8 c 0,-0.8 0.7,-1.5 1.5,-1.5 l 2.7,0 c 0.8,0 1.5,0.7 1.5,1.5 l 0,2.7 c 0,0.9 -0.6,1.6 -1.5,1.6 z"
             id="path105"
             inkscape:connector-curvature="0"
             style="fill:#b4801c;stroke:#151515;stroke-width:1.23150003;stroke-miterlimit:10" />
        </g>
        <g
           id="g107">
          <path
             class="st5"
             d="m 135.4,89 -2.7,0 c -0.8,0 -1.5,-0.7 -1.5,-1.5 l 0,-2.7 c 0,-0.8 0.7,-1.5 1.5,-1.5 l 2.7,0 c 0.8,0 1.5,0.7 1.5,1.5 l 0,2.7 c 0.1,0.8 -0.6,1.5 -1.5,1.5 z"
             id="path109"
             inkscape:connector-curvature="0"
             style="fill:#b4801c;stroke:#151515;stroke-width:1.23150003;stroke-miterlimit:10" />
          <path
             class="st5"
             d="m 135.4,95.4 -2.7,0 c -0.8,0 -1.5,-0.7 -1.5,-1.5 l 0,-2.8 c 0,-0.8 0.7,-1.5 1.5,-1.5 l 2.7,0 c 0.8,0 1.5,0.7 1.5,1.5 l 0,2.7 c 0.1,0.9 -0.6,1.6 -1.5,1.6 z"
             id="path111"
             inkscape:connector-curvature="0"
             style="fill:#b4801c;stroke:#151515;stroke-width:1.23150003;stroke-miterlimit:10" />
        </g>
        <g
           id="g113">
          <path
             class="st5"
             d="m 142.8,89 -2.8,0 c -0.8,0 -1.5,-0.7 -1.5,-1.5 l 0,-2.7 c 0,-0.8 0.7,-1.5 1.5,-1.5 l 2.7,0 c 0.8,0 1.5,0.7 1.5,1.5 l 0,2.7 c 0.1,0.8 -0.6,1.5 -1.4,1.5 z"
             id="path115"
             inkscape:connector-curvature="0"
             style="fill:#b4801c;stroke:#151515;stroke-width:1.23150003;stroke-miterlimit:10" />
          <path
             class="st5"
             d="m 142.8,95.4 -2.8,0 c -0.8,0 -1.5,-0.7 -1.5,-1.5 l 0,-2.8 c 0,-0.8 0.7,-1.5 1.5,-1.5 l 2.7,0 c 0.8,0 1.5,0.7 1.5,1.5 l 0,2.7 c 0.1,0.9 -0.6,1.6 -1.4,1.6 z"
             id="path117"
             inkscape:connector-curvature="0"
             style="fill:#b4801c;stroke:#151515;stroke-width:1.23150003;stroke-miterlimit:10" />
        </g>
        <g
           id="g119">
          <path
             class="st5"
             d="m 150.1,89 -2.7,0 c -0.8,0 -1.5,-0.7 -1.5,-1.5 l 0,-2.7 c 0,-0.8 0.7,-1.5 1.5,-1.5 l 2.7,0 c 0.8,0 1.5,0.7 1.5,1.5 l 0,2.7 c 0,0.8 -0.7,1.5 -1.5,1.5 z"
             id="path121"
             inkscape:connector-curvature="0"
             style="fill:#b4801c;stroke:#151515;stroke-width:1.23150003;stroke-miterlimit:10" />
          <path
             class="st5"
             d="m 150.1,95.4 -2.7,0 c -0.8,0 -1.5,-0.7 -1.5,-1.5 l 0,-2.8 c 0,-0.8 0.7,-1.5 1.5,-1.5 l 2.7,0 c 0.8,0 1.5,0.7 1.5,1.5 l 0,2.7 c 0,0.9 -0.7,1.6 -1.5,1.6 z"
             id="path123"
             inkscape:connector-curvature="0"
             style="fill:#b4801c;stroke:#151515;stroke-width:1.23150003;stroke-miterlimit:10" />
        </g>
        <g
           id="g125">
          <path
             class="st5"
             d="m 157.4,89 -2.7,0 c -0.8,0 -1.5,-0.7 -1.5,-1.5 l 0,-2.7 c 0,-0.8 0.7,-1.5 1.5,-1.5 l 2.7,0 c 0.8,0 1.5,0.7 1.5,1.5 l 0,2.7 c 0.1,0.8 -0.6,1.5 -1.5,1.5 z"
             id="path127"
             inkscape:connector-curvature="0"
             style="fill:#b4801c;stroke:#151515;stroke-width:1.23150003;stroke-miterlimit:10" />
          <path
             class="st5"
             d="m 157.4,95.4 -2.7,0 c -0.8,0 -1.5,-0.7 -1.5,-1.5 l 0,-2.8 c 0,-0.8 0.7,-1.5 1.5,-1.5 l 2.7,0 c 0.8,0 1.5,0.7 1.5,1.5 l 0,2.7 c 0.1,0.9 -0.6,1.6 -1.5,1.6 z"
             id="path129"
             inkscape:connector-curvature="0"
             style="fill:#b4801c;stroke:#151515;stroke-width:1.23150003;stroke-miterlimit:10" />
        </g>
        <g
           id="g131">
          <path
             class="st5"
             d="m 164.7,89 -2.7,0 c -0.8,0 -1.5,-0.7 -1.5,-1.5 l 0,-2.7 c 0,-0.8 0.7,-1.5 1.5,-1.5 l 2.7,0 c 0.8,0 1.5,0.7 1.5,1.5 l 0,2.7 c 0.1,0.8 -0.6,1.5 -1.5,1.5 z"
             id="path133"
             inkscape:connector-curvature="0"
             style="fill:#b4801c;stroke:#151515;stroke-width:1.23150003;stroke-miterlimit:10" />
          <path
             class="st5"
             d="m 164.7,95.4 -2.7,0 c -0.8,0 -1.5,-0.7 -1.5,-1.5 l 0,-2.8 c 0,-0.8 0.7,-1.5 1.5,-1.5 l 2.7,0 c 0.8,0 1.5,0.7 1.5,1.5 l 0,2.7 c 0.1,0.9 -0.6,1.6 -1.5,1.6 z"
             id="path135"
             inkscape:connector-curvature="0"
             style="fill:#b4801c;stroke:#151515;stroke-width:1.23150003;stroke-miterlimit:10" />
        </g>
        <g
           id="g137">
          <path
             class="st5"
             d="m 172.1,89 -2.7,0 c -0.8,0 -1.5,-0.7 -1.5,-1.5 l 0,-2.7 c 0,-0.8 0.7,-1.5 1.5,-1.5 l 2.7,0 c 0.8,0 1.5,0.7 1.5,1.5 l 0,2.7 c 0,0.8 -0.7,1.5 -1.5,1.5 z"
             id="path139"
             inkscape:connector-curvature="0"
             style="fill:#b4801c;stroke:#151515;stroke-width:1.23150003;stroke-miterlimit:10" />
          <path
             class="st5"
             d="m 172.1,95.4 -2.7,0 c -0.8,0 -1.5,-0.7 -1.5,-1.5 l 0,-2.8 c 0,-0.8 0.7,-1.5 1.5,-1.5 l 2.7,0 c 0.8,0 1.5,0.7 1.5,1.5 l 0,2.7 c 0,0.9 -0.7,1.6 -1.5,1.6 z"
             id="path141"
             inkscape:connector-curvature="0"
             style="fill:#b4801c;stroke:#151515;stroke-width:1.23150003;stroke-miterlimit:10" />
        </g>
        <g
           id="g143">
          <path
             class="st5"
             d="m 179.4,89 -2.7,0 c -0.8,0 -1.5,-0.7 -1.5,-1.5 l 0,-2.7 c 0,-0.8 0.7,-1.5 1.5,-1.5 l 2.7,0 c 0.8,0 1.5,0.7 1.5,1.5 l 0,2.7 c 0,0.8 -0.6,1.5 -1.5,1.5 z"
             id="path145"
             inkscape:connector-curvature="0"
             style="fill:#b4801c;stroke:#151515;stroke-width:1.23150003;stroke-miterlimit:10" />
          <path
             class="st5"
             d="m 179.4,95.4 -2.7,0 c -0.8,0 -1.5,-0.7 -1.5,-1.5 l 0,-2.8 c 0,-0.8 0.7,-1.5 1.5,-1.5 l 2.7,0 c 0.8,0 1.5,0.7 1.5,1.5 l 0,2.7 c 0,0.9 -0.6,1.6 -1.5,1.6 z"
             id="path147"
             inkscape:connector-curvature="0"
             style="fill:#b4801c;stroke:#151515;stroke-width:1.23150003;stroke-miterlimit:10" />
        </g>
        <g
           id="g149">
          <path
             class="st5"
             d="m 186.7,89 -2.7,0 c -0.8,0 -1.5,-0.7 -1.5,-1.5 l 0,-2.7 c 0,-0.8 0.7,-1.5 1.5,-1.5 l 2.7,0 c 0.8,0 1.5,0.7 1.5,1.5 l 0,2.7 c 0.1,0.8 -0.6,1.5 -1.5,1.5 z"
             id="path151"
             inkscape:connector-curvature="0"
             style="fill:#b4801c;stroke:#151515;stroke-width:1.23150003;stroke-miterlimit:10" />
          <path
             class="st5"
             d="m 186.7,95.4 -2.7,0 c -0.8,0 -1.5,-0.7 -1.5,-1.5 l 0,-2.8 c 0,-0.8 0.7,-1.5 1.5,-1.5 l 2.7,0 c 0.8,0 1.5,0.7 1.5,1.5 l 0,2.7 c 0.1,0.9 -0.6,1.6 -1.5,1.6 z"
             id="path153"
             inkscape:connector-curvature="0"
             style="fill:#b4801c;stroke:#151515;stroke-width:1.23150003;stroke-miterlimit:10" />
        </g>
        <g
           id="g155">
          <path
             class="st5"
             d="m 194.1,89 -2.7,0 c -0.8,0 -1.5,-0.7 -1.5,-1.5 l 0,-2.7 c 0,-0.8 0.7,-1.5 1.5,-1.5 l 2.7,0 c 0.8,0 1.5,0.7 1.5,1.5 l 0,2.7 c 0,0.8 -0.7,1.5 -1.5,1.5 z"
             id="path157"
             inkscape:connector-curvature="0"
             style="fill:#b4801c;stroke:#151515;stroke-width:1.23150003;stroke-miterlimit:10" />
          <path
             class="st5"
             d="m 194.1,95.4 -2.7,0 c -0.8,0 -1.5,-0.7 -1.5,-1.5 l 0,-2.8 c 0,-0.8 0.7,-1.5 1.5,-1.5 l 2.7,0 c 0.8,0 1.5,0.7 1.5,1.5 l 0,2.7 c 0,0.9 -0.7,1.6 -1.5,1.6 z"
             id="path159"
             inkscape:connector-curvature="0"
             style="fill:#b4801c;stroke:#151515;stroke-width:1.23150003;stroke-miterlimit:10" />
        </g>
      </g>
      <path
         class="st4"
         d="m -239.35,438.88363 -1.9,0 c -3,0 -5.4,-2.4 -5.4,-5.4 l 0,-9.2 c 0,-3 2.4,-5.4 5.4,-5.4 l 1.9,0 c 3,0 5.4,2.4 5.4,5.4 l 0,9.2 c -0.1,2.9 -2.5,5.4 -5.4,5.4 z"
         id="path161"
         inkscape:connector-curvature="0"
         style="fill:#151515" />
      <rect
         x="-249.85001"
         y="409.68362"
         class="st4"
         width="19.1"
         height="22.4"
         id="rect163"
         style="fill:#151515" />
      <polygon
         class="st3"
         points="181.7,210.5 181.7,216.4 172.5,222.3 172.5,216.4 "
         id="polygon165"
         style="fill:#cbcbcb"
         transform="translate(-412.45,207.58363)" />
      <path
         class="st3"
         d="m -316.95,432.48363 -23.7,0 c -0.6,0 -1.1,-0.5 -1.1,-1.1 l 0,-22.9 c 0,-0.6 0.5,-1.1 1.1,-1.1 l 23.7,0 c 0.6,0 1.1,0.5 1.1,1.1 l 0,22.9 c 0,0.6 -0.5,1.1 -1.1,1.1 z"
         id="path167"
         inkscape:connector-curvature="0"
         style="fill:#cbcbcb" />
      <g
         id="g169"
         transform="translate(-412.45,207.58363)">
        <path
           class="st6"
           d="m 132,186.6 -88.9,0 c -0.6,0 -1.1,-0.5 -1.1,-1.1 l 0,-80 c 0,-0.6 0.5,-1.1 1.1,-1.1 l 88.9,0 c 0.6,0 1.1,0.5 1.1,1.1 l 0,80 c 0,0.6 -0.5,1.1 -1.1,1.1 z"
           id="path171"
           inkscape:connector-curvature="0"
           style="fill:#054827" />
        <g
           id="g173">
          <circle
             class="st1"
             cx="93.699997"
             cy="111.2"
             r="4.4000001"
             id="circle175"
             style="fill:#b4801c" />
          <circle
             class="st2"
             cx="93.699997"
             cy="111.2"
             r="2.7"
             id="circle177"
             style="fill:#ffffff" />
        </g>
        <g
           id="g179">
          <circle
             class="st1"
             cx="127"
             cy="148.10001"
             r="4.4000001"
             id="circle181"
             style="fill:#b4801c" />
          <circle
             class="st2"
             cx="127"
             cy="148.10001"
             r="2.7"
             id="circle183"
             style="fill:#ffffff" />
        </g>
        <g
           id="g185">
          <circle
             class="st1"
             cx="47.400002"
             cy="165.10001"
             r="4.4000001"
             id="circle187"
             style="fill:#b4801c" />
          <circle
             class="st2"
             cx="47.400002"
             cy="165.10001"
             r="2.7"
             id="circle189"
             style="fill:#ffffff" />
        </g>
        <g
           id="g191">
          <g
             id="g193">
            <rect
               x="100.3"
               y="106.8"
               class="st0"
               width="26.9"
               height="35.599998"
               id="rect195"
               style="fill:#146133" />
            <polygon
               class="st3"
               points="126,114.2 119.1,114.2 119.1,107.6 108.4,107.6 108.4,114.2 101.5,114.2 101.5,141.5 126,141.5 "
               id="polygon197"
               style="fill:#cbcbcb" />
          </g>
          <rect
             x="48.299999"
             y="116.4"
             class="st7"
             width="42.5"
             height="42.099998"
             id="rect199"
             style="fill:#262827" />
          <rect
             x="59.400002"
             y="166.10001"
             class="st7"
             width="27.6"
             height="15.9"
             id="rect201"
             style="fill:#262827" />
          <rect
             x="108.1"
             y="158.5"
             class="st7"
             width="15.5"
             height="15.2"
             id="rect203"
             style="fill:#262827" />
        </g>
      </g>
    </g>
  </g>
</svg>
