<?xml version="1.0" encoding="UTF-8" standalone="no"?>
<!-- Generator: Adobe Illustrator 19.2.1, SVG Export Plug-In . SVG Version: 6.00 Build 0)  -->

<svg
   xmlns:dc="http://purl.org/dc/elements/1.1/"
   xmlns:cc="http://creativecommons.org/ns#"
   xmlns:rdf="http://www.w3.org/1999/02/22-rdf-syntax-ns#"
   xmlns:svg="http://www.w3.org/2000/svg"
   xmlns="http://www.w3.org/2000/svg"
   xmlns:sodipodi="http://sodipodi.sourceforge.net/DTD/sodipodi-0.dtd"
   xmlns:inkscape="http://www.inkscape.org/namespaces/inkscape"
   version="1.1"
   id="Ebene_1"
   x="0px"
   y="0px"
   viewBox="0 0 50 50"
   xml:space="preserve"
   inkscape:version="0.91 r13725"
   sodipodi:docname="board_gnome.svg"
   width="50"
   height="50"><metadata
     id="metadata13"><rdf:RDF><cc:Work
         rdf:about=""><dc:format>image/svg+xml</dc:format><dc:type
           rdf:resource="http://purl.org/dc/dcmitype/StillImage" /><dc:title></dc:title></cc:Work></rdf:RDF></metadata><defs
     id="defs11" /><sodipodi:namedview
     pagecolor="#ffffff"
     bordercolor="#666666"
     borderopacity="1"
     objecttolerance="10"
     gridtolerance="10"
     guidetolerance="10"
     inkscape:pageopacity="0"
     inkscape:pageshadow="2"
     inkscape:window-width="1855"
     inkscape:window-height="1056"
     id="namedview9"
     showgrid="false"
     inkscape:zoom="6.9532165"
     inkscape:cx="15.41039"
     inkscape:cy="23.657175"
     inkscape:window-x="65"
     inkscape:window-y="24"
     inkscape:window-maximized="1"
     inkscape:current-layer="Ebene_1" /><style
     type="text/css"
     id="style3">
	.st0{fill:#37474F;}
	.st1{fill:#BBDEFB;}
</style><g
     id="g4141"
     transform="matrix(1.0714286,0,0,1.0714286,-1.3720149,-62.123485)"><g
       id="g4158"
       style="stroke:#000000;stroke-width:0.09333333;stroke-miterlimit:4;stroke-dasharray:none;stroke-opacity:1"><g
         id="g4145"
         transform="matrix(1,0,0,1.3788878,-1.688889e-8,-23.480216)"
         style="stroke:#000000;stroke-width:0.07948264;stroke-miterlimit:4;stroke-dasharray:none;stroke-opacity:1"><path
           sodipodi:nodetypes="sssssssss"
           style="fill:#e6e6e6;stroke:#000000;stroke-width:0.07948264;stroke-miterlimit:4;stroke-dasharray:none;stroke-opacity:1"
           inkscape:connector-curvature="0"
           id="path5"
           d="M 7,66.667079 41,62 c 2.179562,-0.299182 4,1.8 4,4 l 0,20 c 0,2.2 -1.820431,4.29913 -4,4 L 7,85.333745 C 4.8204309,85.034615 3,84.466667 3,82.266667 L 3,69.733333 c 0,-2.2 1.8204381,-2.767072 4,-3.066254 z"
           class="st0" /><path
           sodipodi:nodetypes="sssssssss"
           style="fill:#000000;stroke:#000000;stroke-width:0.07948264;stroke-miterlimit:4;stroke-dasharray:none;stroke-opacity:1"
           inkscape:connector-curvature="0"
           id="path7"
           d="m 40.530001,85.951327 0,-20 c 0,-0.6 -0.403585,-1.065489 -1,-1 L 5.5300008,68.68466 c -0.5964153,0.06549 -1,0.4 -1,1 l 0,12.533334 c 0,0.6 0.4035847,0.934511 1,1 l 34.0000002,3.733333 c 0.596415,0.06549 1,-0.4 1,-1 z"
           class="st1" /><path
           sodipodi:nodetypes="ccccc"
           inkscape:connector-curvature="0"
           id="path4162"
           d="m 45.095703,65.53401 0,21.000002 1.129285,-0.466667 c 0.0047,-7.284962 0.002,-12.315029 0.002,-19.599999 z"
           style="color:#000000;font-style:normal;font-variant:normal;font-weight:normal;font-stretch:normal;font-size:medium;line-height:normal;font-family:sans-serif;text-indent:0;text-align:start;text-decoration:none;text-decoration-line:none;text-decoration-style:solid;text-decoration-color:#000000;letter-spacing:normal;word-spacing:normal;text-transform:none;direction:ltr;block-progression:tb;writing-mode:lr-tb;baseline-shift:baseline;text-anchor:start;white-space:normal;clip-rule:nonzero;display:inline;overflow:visible;visibility:visible;opacity:1;isolation:auto;mix-blend-mode:normal;color-interpolation:sRGB;color-interpolation-filters:linearRGB;solid-color:#000000;solid-opacity:1;fill:#000000;fill-opacity:1;fill-rule:evenodd;stroke:#000000;stroke-width:0.07948264;stroke-linecap:butt;stroke-linejoin:miter;stroke-miterlimit:4;stroke-dasharray:none;stroke-dashoffset:0;stroke-opacity:1;color-rendering:auto;image-rendering:auto;shape-rendering:auto;text-rendering:auto;enable-background:accumulate" /><path
           sodipodi:nodetypes="sssssssss"
           style="fill:#bbdefb;stroke:#000000;stroke-width:0.07948264;stroke-miterlimit:4;stroke-dasharray:none;stroke-opacity:1"
           inkscape:connector-curvature="0"
           id="path7-6"
           d="m 36.785677,84.439854 0,-17 c 0,-0.51 -0.343048,-0.905666 -0.85,-0.85 L 7.0356766,69.763187 c -0.506953,0.05567 -0.85,0.34 -0.85,0.85 l 0,10.653334 c 0,0.51 0.343047,0.794334 0.85,0.85 l 28.9000004,3.173333 c 0.506952,0.05567 0.85,-0.34 0.85,-0.85 z"
           class="st1" /><text
           xml:space="preserve"
           style="font-style:normal;font-weight:normal;font-size:15.8965292px;line-height:125%;font-family:sans-serif;letter-spacing:0px;word-spacing:0px;fill:#000000;fill-opacity:1;stroke:#000000;stroke-width:0.07948264;stroke-linecap:butt;stroke-linejoin:miter;stroke-miterlimit:4;stroke-dasharray:none;stroke-opacity:1"
           x="-36.937298"
           y="67.406281"
           id="text4165"
           sodipodi:linespacing="125%"
           transform="scale(1.1742605,0.85159977)"><tspan
             sodipodi:role="line"
             id="tspan4167"
             x="-36.937298"
             y="67.406281" /></text>
</g></g></g><g
     style="font-style:normal;font-weight:normal;font-size:20px;line-height:125%;font-family:sans-serif;text-align:start;letter-spacing:0px;word-spacing:0px;writing-mode:lr-tb;text-anchor:start;fill:#b81c22;fill-opacity:1;stroke:#ffff00;stroke-width:0.2;stroke-linecap:butt;stroke-linejoin:miter;stroke-miterlimit:4;stroke-dasharray:none;stroke-opacity:1"
     id="text4173"
     transform="matrix(0.81723666,0,0,1.0012612,4.6804199,-0.03152929)"><path
       d="m 5.3572363,30.200195 0,-3.916015 -3.2226563,0 0,-1.621094 5.1757813,0 0,6.259766 Q 6.1677831,31.733398 4.79083,32.15332 q -1.3769531,0.410157 -2.9394531,0.410157 -3.4179688,0 -5.3515625,-1.992188 -1.9238284,-2.001953 -1.9238284,-5.566406 0,-3.574219 1.9238284,-5.566406 1.9335937,-2.001954 5.3515625,-2.001954 1.4257812,0 2.7050781,0.351563 1.2890625,0.351562 2.3730469,1.035156 l 0,2.09961 q -1.09375,-0.927735 -2.3242188,-1.396485 -1.2304687,-0.46875 -2.5878906,-0.46875 -2.6757812,0 -4.0234375,1.494141 -1.3378906,1.49414 -1.3378906,4.453125 0,2.949219 1.3378906,4.443359 1.3476563,1.494141 4.0234375,1.494141 1.0449219,0 1.8652344,-0.175781 0.8203125,-0.185547 1.4746094,-0.566407 z"
       id="path4147"
       inkscape:connector-curvature="0" /><path
       d="m 7.6557612,17.709961 2.6562498,0 6.464844,12.197266 0,-12.197266 1.914063,0 0,14.580078 -2.65625,0 -6.4648438,-12.197265 0,12.197265 -1.914063,0 0,-14.580078 z"
       id="path4149"
       inkscape:connector-curvature="0" /><path
       d="m 25.844727,19.038086 q -2.148438,0 -3.417969,1.601562 -1.259766,1.601563 -1.259766,4.365235 0,2.753906 1.259766,4.355469 1.269531,1.601562 3.417969,1.601562 2.148437,0 3.398437,-1.601562 1.259766,-1.601563 1.259766,-4.355469 0,-2.763672 -1.259766,-4.365235 -1.25,-1.601562 -3.398437,-1.601562 z m 0,-1.601563 q 3.066406,0 4.902343,2.060547 1.835938,2.050782 1.835938,5.507813 0,3.447265 -1.835938,5.507812 -1.835937,2.050782 -4.902343,2.050782 -3.076172,0 -4.921875,-2.050782 -1.835938,-2.050781 -1.835938,-5.507812 0,-3.457031 1.835938,-5.507813 1.845703,-2.060547 4.921875,-2.060547 z"
       id="path4151"
       inkscape:connector-curvature="0" /><path
       d="m 32.833388,17.709961 2.939454,0 3.720703,9.921875 3.740234,-9.921875 2.939453,0 0,14.580078 -1.923828,0 0,-12.802734 -3.759766,10 -1.982421,0 -3.759766,-10 0,12.802734 -1.914063,0 0,-14.580078 z"
       id="path4153"
       inkscape:connector-curvature="0" /><path
       d="m 46.460937,17.709961 9.21875,0 0,1.660157 -7.246093,0 0,4.316406 6.943359,0 0,1.660156 -6.943359,0 0,5.283203 7.421875,0 0,1.660156 -9.394532,0 0,-14.580078 z"
       id="path4155"
       inkscape:connector-curvature="0" /></g></svg>