<?xml version="1.0" encoding="UTF-8" standalone="no"?>
<!-- Created with Inkscape (http://www.inkscape.org/) -->

<svg
   xmlns:dc="http://purl.org/dc/elements/1.1/"
   xmlns:cc="http://creativecommons.org/ns#"
   xmlns:rdf="http://www.w3.org/1999/02/22-rdf-syntax-ns#"
   xmlns:svg="http://www.w3.org/2000/svg"
   xmlns="http://www.w3.org/2000/svg"
   xmlns:sodipodi="http://sodipodi.sourceforge.net/DTD/sodipodi-0.dtd"
   xmlns:inkscape="http://www.inkscape.org/namespaces/inkscape"
   width="50"
   height="50"
   viewBox="0 0 50.000001 50.000001"
   id="svg4424"
   version="1.1"
   inkscape:version="0.91 r13725"
   sodipodi:docname="board_nymph.svg">
  <defs
     id="defs4426" />
  <sodipodi:namedview
     id="base"
     pagecolor="#ffffff"
     bordercolor="#666666"
     borderopacity="1.0"
     inkscape:pageopacity="0.0"
     inkscape:pageshadow="2"
     inkscape:zoom="0.35"
     inkscape:cx="-122.14286"
     inkscape:cy="520"
     inkscape:document-units="px"
     inkscape:current-layer="layer1"
     showgrid="false"
     units="px"
     inkscape:window-width="1855"
     inkscape:window-height="1056"
     inkscape:window-x="65"
     inkscape:window-y="24"
     inkscape:window-maximized="1" />
  <metadata
     id="metadata4429">
    <rdf:RDF>
      <cc:Work
         rdf:about="">
        <dc:format>image/svg+xml</dc:format>
        <dc:type
           rdf:resource="http://purl.org/dc/dcmitype/StillImage" />
        <dc:title></dc:title>
      </cc:Work>
    </rdf:RDF>
  </metadata>
  <g
     inkscape:label="Layer 1"
     inkscape:groupmode="layer"
     id="layer1"
     transform="translate(0,-1002.3622)">
    <g
       id="g5083"
       transform="matrix(0.20279405,0,0,0.20279405,-2.2323438,1028.9111)">
      <g
         id="g11"
         transform="translate(-16.464286,-159.1878)">
        <path
           class="st0"
           d="m 253.9,64.3 -64.8,0 0,0 -85.2,0 0,0 -56.3,0 c -4.3,0 -7.8,4 -7.8,9 l 0,142.2 c 0,4.9 3.5,9 7.8,9 l 206.3,0 c 4.3,0 7.8,-4 7.8,-9 l 0,-142.2 c 0,-5 -3.5,-9 -7.8,-9 z"
           id="path13"
           inkscape:connector-curvature="0"
           style="fill:#146133" />
        <g
           id="g15">
          <circle
             class="st1"
             cx="50.400002"
             cy="73.5"
             r="6.1999998"
             id="circle17"
             style="fill:#b4801c" />
          <circle
             class="st2"
             cx="50.400002"
             cy="73.5"
             r="3.9000001"
             id="circle19"
             style="fill:#ffffff" />
        </g>
        <g
           id="g21">
          <circle
             transform="matrix(0.2298,-0.9732,0.9732,0.2298,122.5022,301.8479)"
             class="st1"
             cx="252"
             cy="73.5"
             id="ellipse23"
             r="6.1999998"
             style="fill:#b4801c" />
          <circle
             transform="matrix(0.2298,-0.9732,0.9732,0.2298,122.5022,301.8479)"
             class="st2"
             cx="252"
             cy="73.5"
             id="ellipse25"
             r="3.9000001"
             style="fill:#ffffff" />
        </g>
        <g
           id="g27">
          <circle
             class="st1"
             cx="50.400002"
             cy="215.5"
             r="6.1999998"
             id="circle29"
             style="fill:#b4801c" />
          <circle
             class="st2"
             cx="50.400002"
             cy="215.5"
             r="3.9000001"
             id="circle31"
             style="fill:#ffffff" />
        </g>
        <g
           id="g33">
          <circle
             transform="matrix(0.1602,-0.9871,0.9871,0.1602,-1.084,429.6452)"
             class="st1"
             cx="252"
             cy="215.5"
             id="ellipse35"
             r="6.1999998"
             style="fill:#b4801c" />
          <circle
             transform="matrix(0.1602,-0.9871,0.9871,0.1602,-1.084,429.6451)"
             class="st2"
             cx="252"
             cy="215.5"
             id="ellipse37"
             r="3.9000001"
             style="fill:#ffffff" />
        </g>
      </g>
      <path
         class="st3"
         d="m 42.935714,24.412205 0,45.5 33.4,0 0,-45.5 -33.4,0 z m 5,41.1 c 0,-0.6 -0.1,-14.9 -0.1,-14.9 0,0 0,-1.6 1.4,-1.6 1.4,0 1.4,0.1 1.4,0.1 l 1.5,0 c 0,0 1.2,-0.1 1.2,1.3 0,1.4 0,15.4 0,15.4 0,0 0.1,1.6 -0.5,1.6 -0.6,0 -0.6,-1.7 -0.6,-1.7 l -0.6,-12.9 -2,0 -0.4,12.6 c 0,0 0.1,2.1 -0.6,2.1 -0.8,0 -0.7,-1.3 -0.7,-2 z m 18,0 c 0,-0.6 -0.1,-14.9 -0.1,-14.9 0,0 0,-1.6 1.4,-1.6 1.4,0 1.4,0.1 1.4,0.1 l 1.4,0 c 0,0 1.2,-0.1 1.2,1.3 0,1.4 0,15.4 0,15.4 0,0 0.1,1.6 -0.5,1.6 -0.6,0 -0.6,-1.7 -0.6,-1.7 l -0.6,-12.9 -1.9,0 -0.4,12.7 c 0,0 0.1,2.1 -0.6,2.1 -0.7,-0.1 -0.7,-1.4 -0.7,-2.1 z"
         id="path39"
         inkscape:connector-curvature="0"
         style="fill:#cbcbcb" />
      <g
         id="g41"
         transform="translate(-16.464286,-159.1878)">
        <path
           class="st4"
           d="m 108.7,232.6 -1.7,0 c -2.7,0 -4.8,-2.2 -4.8,-4.8 l 0,-8.2 c 0,-2.7 2.2,-4.8 4.8,-4.8 l 1.6,0 c 2.7,0 4.8,2.2 4.8,4.8 l 0,8.2 c 0.1,2.7 -2,4.8 -4.7,4.8 z"
           id="path43"
           inkscape:connector-curvature="0"
           style="fill:#151515" />
        <rect
           x="99.300003"
           y="206.60001"
           class="st4"
           width="17"
           height="20.1"
           id="rect45"
           style="fill:#151515" />
        <polygon
           class="st3"
           points="116.4,214 116.4,219.3 108.2,224.6 108.2,219.3 "
           id="polygon47"
           style="fill:#cbcbcb" />
      </g>
      <g
         id="g49"
         transform="translate(-16.464286,-159.1878)">
        <path
           class="st3"
           d="m 164.9,238.8 -23.5,0 c -1.9,0 -3.4,-1.6 -3.4,-3.4 l 0,-7.7 c 0,-1.9 1.6,-3.4 3.4,-3.4 l 23.5,0 c 1.9,0 3.4,1.6 3.4,3.4 l 0,7.7 c 0,1.9 -1.5,3.4 -3.4,3.4 z"
           id="path51"
           inkscape:connector-curvature="0"
           style="fill:#cbcbcb" />
        <rect
           x="126"
           y="216.7"
           class="st5"
           width="54.400002"
           height="11.7"
           id="rect53"
           style="fill:#162449" />
      </g>
      <rect
         x="193.7357"
         y="22.412209"
         class="st3"
         width="12.1"
         height="51.900002"
         id="rect55"
         style="fill:#cbcbcb" />
      <path
         class="st3"
         d="m 189.13571,74.012205 -0.6,0 0,-44.5 -13.7,0 0,44.5 -0.7,0 c -0.3,0 -0.5,0.3 -0.5,0.5 0,0.2 0.3,0.5 0.5,0.5 l 0.9,0 c 0.3,0 0.5,-0.3 0.5,-0.5 0,-0.1 0,-0.1 0,-0.2 l 2,0 0,0 c 0,0.5 0.4,0.9 0.9,0.9 l 6.8,0 c 0.5,0 0.9,-0.4 0.9,-0.9 l 0,0 1.6,0 c 0,0.1 0,0.1 0,0.2 0,0.3 0.3,0.5 0.5,0.5 l 0.9,0 c 0.3,0 0.5,-0.3 0.5,-0.5 0,-0.3 -0.1,-0.5 -0.5,-0.5 z m -8.7,-20.4 c 0,-0.7 0.5,-1.3 1.3,-1.3 0.7,0 1.3,0.5 1.3,1.3 l 0,1.1 c 0,0.7 -0.5,1.3 -1.3,1.3 -0.7,0 -1.3,-0.5 -1.3,-1.3 l 0,-1.1 z m -2.1,16.5 1,-12.6 c 0,0 0,-0.6 0.5,-0.6 0.5,0 3.3,-0.1 3.3,-0.1 0,0 0.5,0 0.6,0.6 0.2,0.6 0.9,12.6 0.9,12.6 0,0 0.2,0.8 -0.5,0.8 -0.6,0 -0.7,-0.8 -0.7,-0.8 l -1.2,-10.9 -1.6,0 -1.2,11 c 0,0 -0.1,0.6 -0.6,0.6 -0.6,-0.1 -0.5,-0.6 -0.5,-0.6 z"
         id="path57"
         inkscape:connector-curvature="0"
         style="fill:#cbcbcb" />
      <g
         id="g59"
         transform="translate(-16.464286,-159.1878)">
        <polygon
           class="st4"
           points="242.1,211.3 242.1,230.9 239.2,233 230,233 227.5,230.9 227.5,211.3 "
           id="polygon61"
           style="fill:#151515" />
        <path
           class="st3"
           d="m 234.8,213.8 0,0 c -0.5,0 -0.7,-0.4 -0.7,-0.7 l 0,-8 c 0,-0.5 0.4,-0.7 0.7,-0.7 l 0,0 c 0.5,0 0.7,0.4 0.7,0.7 l 0,8 c 0.1,0.3 -0.2,0.7 -0.7,0.7 z"
           id="path63"
           inkscape:connector-curvature="0"
           style="fill:#cbcbcb" />
      </g>
      <g
         id="g65"
         transform="translate(-16.464286,-159.1878)">
        <path
           class="st6"
           d="m 188.8,193.2 -79.4,0 c -0.5,0 -1,-0.5 -1,-1 l 0,-71.5 c 0,-0.5 0.5,-1 1,-1 l 79.4,0 c 0.5,0 1,0.5 1,1 l 0,71.5 c 0,0.6 -0.4,1 -1,1 z"
           id="path67"
           inkscape:connector-curvature="0"
           style="fill:#054827" />
        <g
           id="g69">
          <circle
             class="st1"
             cx="154.60001"
             cy="125.8"
             r="3.9000001"
             id="circle71"
             style="fill:#b4801c" />
          <circle
             class="st2"
             cx="154.60001"
             cy="125.8"
             r="2.5"
             id="circle73"
             style="fill:#ffffff" />
        </g>
        <g
           id="g75">
          <circle
             class="st1"
             cx="184.3"
             cy="158.7"
             r="3.9000001"
             id="circle77"
             style="fill:#b4801c" />
          <circle
             class="st2"
             cx="184.3"
             cy="158.7"
             r="2.5"
             id="circle79"
             style="fill:#ffffff" />
        </g>
        <g
           id="g81">
          <circle
             class="st1"
             cx="113.1"
             cy="174"
             r="3.9000001"
             id="circle83"
             style="fill:#b4801c" />
          <circle
             class="st2"
             cx="113.1"
             cy="174"
             r="2.5"
             id="circle85"
             style="fill:#ffffff" />
        </g>
        <g
           id="g87">
          <g
             id="g89">
            <rect
               x="160.5"
               y="121.8"
               class="st0"
               width="24.1"
               height="31.799999"
               id="rect91"
               style="fill:#146133" />
            <polygon
               class="st3"
               points="183.5,128.5 177.3,128.5 177.3,122.6 167.7,122.6 167.7,128.5 161.5,128.5 161.5,152.9 183.5,152.9 "
               id="polygon93"
               style="fill:#cbcbcb" />
          </g>
          <rect
             x="114"
             y="130.39999"
             class="st7"
             width="38"
             height="37.700001"
             id="rect95"
             style="fill:#262827" />
          <rect
             x="123.9"
             y="174.89999"
             class="st7"
             width="24.700001"
             height="14.2"
             id="rect97"
             style="fill:#262827" />
          <rect
             x="167.39999"
             y="168.10001"
             class="st7"
             width="13.9"
             height="13.6"
             id="rect99"
             style="fill:#262827" />
        </g>
      </g>
    </g>
  </g>
</svg>
