<?xml version="1.0" encoding="UTF-8" standalone="no"?>
<!-- Generator: Adobe Illustrator 19.2.1, SVG Export Plug-In . SVG Version: 6.00 Build 0)  -->

<svg
   xmlns:dc="http://purl.org/dc/elements/1.1/"
   xmlns:cc="http://creativecommons.org/ns#"
   xmlns:rdf="http://www.w3.org/1999/02/22-rdf-syntax-ns#"
   xmlns:svg="http://www.w3.org/2000/svg"
   xmlns="http://www.w3.org/2000/svg"
   xmlns:sodipodi="http://sodipodi.sourceforge.net/DTD/sodipodi-0.dtd"
   xmlns:inkscape="http://www.inkscape.org/namespaces/inkscape"
   version="1.1"
   id="Ebene_1"
   x="0px"
   y="0px"
   viewBox="0 0 50 50"
   xml:space="preserve"
   inkscape:version="0.91 r13725"
   sodipodi:docname="board_wizzard.svg"
   width="50"
   height="50"><metadata
     id="metadata13"><rdf:RDF><cc:Work
         rdf:about=""><dc:format>image/svg+xml</dc:format><dc:type
           rdf:resource="http://purl.org/dc/dcmitype/StillImage" /><dc:title /></cc:Work></rdf:RDF></metadata><defs
     id="defs11" /><sodipodi:namedview
     pagecolor="#ffffff"
     bordercolor="#666666"
     borderopacity="1"
     objecttolerance="10"
     gridtolerance="10"
     guidetolerance="10"
     inkscape:pageopacity="0"
     inkscape:pageshadow="2"
     inkscape:window-width="1855"
     inkscape:window-height="1056"
     id="namedview9"
     showgrid="false"
     inkscape:zoom="13.465274"
     inkscape:cx="17.205872"
     inkscape:cy="20.119902"
     inkscape:window-x="65"
     inkscape:window-y="24"
     inkscape:window-maximized="1"
     inkscape:current-layer="Ebene_1" /><style
     type="text/css"
     id="style3">
	.st0{fill:#37474F;}
	.st1{fill:#BBDEFB;}
</style><g
     id="g4141"
     transform="matrix(1.0714286,0,0,1.0714286,-1.5278457,-61.615015)"><g
       id="g4158"><g
         id="g4145"
         transform="matrix(1,0,0,1.3788878,0,-23.480216)"><path
           sodipodi:nodetypes="sssssssss"
           style="fill:#37474f"
           inkscape:connector-curvature="0"
           id="path5"
           d="M 7,66.667079 41,62 c 2.179562,-0.299182 4,1.8 4,4 l 0,20 c 0,2.2 -1.820431,4.29913 -4,4 L 7,85.333745 C 4.8204309,85.034615 3,84.466667 3,82.266667 L 3,69.733333 c 0,-2.2 1.8204381,-2.767072 4,-3.066254 z"
           class="st0" /><path
           sodipodi:nodetypes="sssssssss"
           style="fill:#bbdefb"
           inkscape:connector-curvature="0"
           id="path7"
           d="m 41.066923,86 0,-20 c 0,-0.6 -0.403585,-1.065489 -1,-1 L 6.0669225,68.733333 c -0.5964153,0.06549 -1,0.4 -1,1 l 0,12.533334 c 0,0.6 0.4035847,0.934511 1,1 L 40.066923,87 c 0.596415,0.06549 1,-0.4 1,-1 z"
           class="st1" /><path
           sodipodi:nodetypes="ccccc"
           inkscape:connector-curvature="0"
           id="path4162"
           d="m 45.095703,65.53401 0,21.000002 1.129285,-0.466667 c 0.0047,-7.284962 0.002,-12.315029 0.002,-19.599999 z"
           style="color:#000000;font-style:normal;font-variant:normal;font-weight:normal;font-stretch:normal;font-size:medium;line-height:normal;font-family:sans-serif;text-indent:0;text-align:start;text-decoration:none;text-decoration-line:none;text-decoration-style:solid;text-decoration-color:#000000;letter-spacing:normal;word-spacing:normal;text-transform:none;direction:ltr;block-progression:tb;writing-mode:lr-tb;baseline-shift:baseline;text-anchor:start;white-space:normal;clip-rule:nonzero;display:inline;overflow:visible;visibility:visible;opacity:1;isolation:auto;mix-blend-mode:normal;color-interpolation:sRGB;color-interpolation-filters:linearRGB;solid-color:#000000;solid-opacity:1;fill:#000000;fill-opacity:1;fill-rule:evenodd;stroke:none;stroke-width:0.93333334px;stroke-linecap:butt;stroke-linejoin:miter;stroke-miterlimit:4;stroke-dasharray:none;stroke-dashoffset:0;stroke-opacity:1;color-rendering:auto;image-rendering:auto;shape-rendering:auto;text-rendering:auto;enable-background:accumulate" /></g></g></g><text
     xml:space="preserve"
     style="font-style:normal;font-weight:normal;font-size:40px;line-height:125%;font-family:sans-serif;letter-spacing:0px;word-spacing:0px;fill:#000000;fill-opacity:1;stroke:none;stroke-width:1px;stroke-linecap:butt;stroke-linejoin:miter;stroke-opacity:1"
     x="-13.233367"
     y="36.55658"
     id="text4174"
     sodipodi:linespacing="125%"><tspan
       sodipodi:role="line"
       id="tspan4176"
       x="-13.233367"
       y="36.55658" /></text>
<g
     transform="matrix(0.7839981,0,0,1.2755133,-0.98891468,-9.3118253e-8)"
     style="font-style:normal;font-variant:normal;font-weight:normal;font-stretch:normal;font-size:13.76665306px;line-height:125%;font-family:Lato;-inkscape-font-specification:Lato;text-align:start;letter-spacing:0px;word-spacing:0px;writing-mode:lr-tb;text-anchor:start;fill:#b81c22;fill-opacity:1;stroke:#ffff00;stroke-width:0.15733318;stroke-linecap:butt;stroke-linejoin:miter;stroke-miterlimit:4;stroke-dasharray:none;stroke-opacity:1"
     id="text4149"><path
       d="m 5.3438997,14.668059 1.1082155,0 q 0.1789665,0 0.2959831,0.08948 0.1170165,0.08948 0.1583165,0.22715 l 2.0374646,6.855793 q 0.055067,0.18585 0.096367,0.399233 0.048183,0.213383 0.089483,0.447416 0.048183,-0.234033 0.096367,-0.447416 0.048183,-0.220267 0.1101332,-0.399233 l 2.3196814,-6.855793 q 0.0413,-0.117017 0.158316,-0.213383 0.1239,-0.10325 0.295983,-0.10325 l 0.385466,0 q 0.178967,0 0.289101,0.08948 0.117016,0.08948 0.165199,0.22715 l 2.305915,6.855793 q 0.1239,0.357933 0.220266,0.819116 0.0413,-0.22715 0.07572,-0.43365 0.03442,-0.2065 0.08948,-0.385466 l 2.044348,-6.855793 q 0.03442,-0.1239 0.151433,-0.220267 0.1239,-0.09637 0.295983,-0.09637 l 1.039382,0 -3.076847,9.863807 -1.197698,0 -2.498648,-7.523476 q -0.07572,-0.213383 -0.137667,-0.4956 -0.03442,0.137667 -0.06883,0.26845 -0.02753,0.1239 -0.06195,0.22715 l -2.5124138,7.523476 -1.1976988,0 -3.0768469,-9.863807 z"
       style="stroke-width:0.15733318"
       id="path4144"
       inkscape:connector-curvature="0" /><path
       d="m 20.759397,24.531856 -1.335366,0 0,-9.863807 1.335366,0 0,9.863807 z"
       style="stroke-width:0.15733318"
       id="path4146"
       inkscape:connector-curvature="0" /><path
       d="m 29.111843,14.668049 0,0.495599 q 0,0.234033 -0.14455,0.440533 l -5.582378,7.840109 5.630561,0 0,1.087566 -7.378926,0 0,-0.523133 q 0,-0.2065 0.130784,-0.39235 l 5.589261,-7.860759 -5.458478,0 0,-1.087565 7.213726,0 z"
       style="stroke-width:0.15733318"
       id="path4148"
       inkscape:connector-curvature="0" /><path
       d="m 36.945356,14.668049 0,0.495599 q 0,0.234033 -0.14455,0.440533 l -5.582378,7.840109 5.630561,0 0,1.087566 -7.378926,0 0,-0.523133 q 0,-0.2065 0.130783,-0.39235 l 5.589261,-7.860759 -5.458478,0 0,-1.087565 7.213727,0 z"
       style="stroke-width:0.15733318"
       id="path4150"
       inkscape:connector-curvature="0" /><path
       d="m 45.663375,24.531849 -1.032499,0 q -0.178966,0 -0.289099,-0.08948 -0.110134,-0.08948 -0.1652,-0.227149 l -0.922366,-2.381631 -4.425979,0 -0.922366,2.381631 q -0.04818,0.123899 -0.1652,0.220266 -0.117016,0.09637 -0.289099,0.09637 l -1.032499,0 3.944146,-9.863807 1.356015,0 3.944146,9.863807 z m -6.463443,-3.66193 3.682579,0 -1.548748,-4.01298 Q 41.18233,16.48524 41.03778,15.92769 q -0.07572,0.282217 -0.151433,0.523133 -0.06883,0.234033 -0.137667,0.413 l -1.548748,4.006096 z"
       style="stroke-width:0.15733318"
       id="path4152"
       inkscape:connector-curvature="0" /><path
       d="m 46.520125,20.415626 0,4.11623 -1.328482,0 0,-9.863807 2.787747,0 q 0.936133,0 1.617582,0.192733 0.681449,0.18585 1.121982,0.543783 0.447416,0.357933 0.6608,0.867299 0.213383,0.502483 0.213383,1.128865 0,0.523133 -0.1652,0.977433 -0.1652,0.454299 -0.481833,0.819115 -0.30975,0.357933 -0.764049,0.612617 -0.447417,0.254683 -1.018733,0.385466 0.2478,0.14455 0.440533,0.419883 l 2.877231,3.916613 -1.183932,0 q -0.364817,0 -0.5369,-0.282217 l -2.560597,-3.524263 q -0.117017,-0.1652 -0.254683,-0.234033 -0.137667,-0.07572 -0.413,-0.07572 l -1.011849,0 z m 0,-0.970549 1.397315,0 q 0.585083,0 1.025616,-0.137666 0.447416,-0.14455 0.743399,-0.399233 0.302867,-0.261567 0.4543,-0.6195 0.151433,-0.357933 0.151433,-0.791582 0,-0.881066 -0.585083,-1.328482 -0.578199,-0.447416 -1.727715,-0.447416 l -1.459265,0 0,3.723879 z"
       style="stroke-width:0.15733318"
       id="path4154"
       inkscape:connector-curvature="0" /><path
       d="m 60.982786,19.603394 q 0,1.108215 -0.351049,2.016814 -0.35105,0.9086 -0.991199,1.555632 -0.64015,0.647033 -1.534982,1.004966 -0.894833,0.35105 -1.982398,0.35105 l -3.689463,0 0,-9.863807 3.689463,0 q 1.087565,0 1.982398,0.357933 0.894832,0.351049 1.534982,1.004965 0.640149,0.647033 0.991199,1.555632 0.351049,0.908599 0.351049,2.016815 z m -1.369782,0 q 0,-0.908599 -0.247799,-1.624465 -0.2478,-0.715866 -0.7021,-1.211466 -0.454299,-0.495599 -1.101332,-0.757166 -0.647033,-0.261566 -1.438615,-0.261566 l -2.347214,0 0,7.702442 2.347214,0 q 0.791582,0 1.438615,-0.261566 0.647033,-0.261567 1.101332,-0.750283 0.4543,-0.495599 0.7021,-1.211465 0.247799,-0.715866 0.247799,-1.624465 z"
       style="stroke-width:0.15733318"
       id="path4156"
       inkscape:connector-curvature="0" /></g></svg>