<?xml version="1.0" encoding="UTF-8" standalone="no"?>
<!-- Generator: Adobe Illustrator 19.2.1, SVG Export Plug-In . SVG Version: 6.00 Build 0)  -->

<svg
   xmlns:dc="http://purl.org/dc/elements/1.1/"
   xmlns:cc="http://creativecommons.org/ns#"
   xmlns:rdf="http://www.w3.org/1999/02/22-rdf-syntax-ns#"
   xmlns:svg="http://www.w3.org/2000/svg"
   xmlns="http://www.w3.org/2000/svg"
   xmlns:sodipodi="http://sodipodi.sourceforge.net/DTD/sodipodi-0.dtd"
   xmlns:inkscape="http://www.inkscape.org/namespaces/inkscape"
   version="1.1"
   id="Ebene_1"
   x="0px"
   y="0px"
   viewBox="0 0 50 50"
   xml:space="preserve"
   inkscape:version="0.91 r13725"
   sodipodi:docname="board_fairy.svg"
   width="50"
   height="50"><metadata
     id="metadata13"><rdf:RDF><cc:Work
         rdf:about=""><dc:format>image/svg+xml</dc:format><dc:type
           rdf:resource="http://purl.org/dc/dcmitype/StillImage" /><dc:title /></cc:Work></rdf:RDF></metadata><defs
     id="defs11" /><sodipodi:namedview
     pagecolor="#ffffff"
     bordercolor="#666666"
     borderopacity="1"
     objecttolerance="10"
     gridtolerance="10"
     guidetolerance="10"
     inkscape:pageopacity="0"
     inkscape:pageshadow="2"
     inkscape:window-width="1855"
     inkscape:window-height="1056"
     id="namedview9"
     showgrid="false"
     inkscape:zoom="9.8333334"
     inkscape:cx="17.134624"
     inkscape:cy="29.31633"
     inkscape:window-x="65"
     inkscape:window-y="24"
     inkscape:window-maximized="1"
     inkscape:current-layer="Ebene_1" /><style
     type="text/css"
     id="style3">
	.st0{fill:#37474F;}
	.st1{fill:#BBDEFB;}
</style><g
     id="g4141"
     transform="matrix(1.0714286,0,0,1.0714286,-1.5278457,-61.615015)"><g
       id="g4158"><g
         id="g4145"
         transform="matrix(1,0,0,1.3788878,0,-23.480216)"><path
           sodipodi:nodetypes="sssssssss"
           style="fill:#37474f"
           inkscape:connector-curvature="0"
           id="path5"
           d="M 7,66.667079 41,62 c 2.179562,-0.299182 4,1.8 4,4 l 0,20 c 0,2.2 -1.820431,4.29913 -4,4 L 7,85.333745 C 4.8204309,85.034615 3,84.466667 3,82.266667 L 3,69.733333 c 0,-2.2 1.8204381,-2.767072 4,-3.066254 z"
           class="st0" /><path
           sodipodi:nodetypes="sssssssss"
           style="fill:#bbdefb"
           inkscape:connector-curvature="0"
           id="path7"
           d="m 41.066923,86 0,-20 c 0,-0.6 -0.403585,-1.065489 -1,-1 L 6.0669225,68.733333 c -0.5964153,0.06549 -1,0.4 -1,1 l 0,12.533334 c 0,0.6 0.4035847,0.934511 1,1 L 40.066923,87 c 0.596415,0.06549 1,-0.4 1,-1 z"
           class="st1" /><path
           sodipodi:nodetypes="ccccc"
           inkscape:connector-curvature="0"
           id="path4162"
           d="m 45.095703,65.53401 0,21.000002 1.129285,-0.466667 c 0.0047,-7.284962 0.002,-12.315029 0.002,-19.599999 z"
           style="color:#000000;font-style:normal;font-variant:normal;font-weight:normal;font-stretch:normal;font-size:medium;line-height:normal;font-family:sans-serif;text-indent:0;text-align:start;text-decoration:none;text-decoration-line:none;text-decoration-style:solid;text-decoration-color:#000000;letter-spacing:normal;word-spacing:normal;text-transform:none;direction:ltr;block-progression:tb;writing-mode:lr-tb;baseline-shift:baseline;text-anchor:start;white-space:normal;clip-rule:nonzero;display:inline;overflow:visible;visibility:visible;opacity:1;isolation:auto;mix-blend-mode:normal;color-interpolation:sRGB;color-interpolation-filters:linearRGB;solid-color:#000000;solid-opacity:1;fill:#000000;fill-opacity:1;fill-rule:evenodd;stroke:none;stroke-width:0.93333334px;stroke-linecap:butt;stroke-linejoin:miter;stroke-miterlimit:4;stroke-dasharray:none;stroke-dashoffset:0;stroke-opacity:1;color-rendering:auto;image-rendering:auto;shape-rendering:auto;text-rendering:auto;enable-background:accumulate" /></g></g></g><g
     transform="matrix(0.99956219,0,0,1.000438,-0.21795943,-20.457625)"
     style="font-style:normal;font-weight:normal;font-size:20.30885887px;line-height:125%;font-family:sans-serif;letter-spacing:0px;word-spacing:0px;fill:#b81c22;fill-opacity:1;stroke:none;stroke-width:1px;stroke-linecap:butt;stroke-linejoin:miter;stroke-opacity:1"
     id="text4148"><g
       id="g4149"
       transform="translate(-2.000876,-1.9991244)"
       style="stroke:#ffff00;stroke-width:0.2;stroke-miterlimit:4;stroke-dasharray:none"><path
         inkscape:connector-curvature="0"
         id="path4139"
         d="m 4.7007447,40.034229 8.5083013,0 0,1.685794 -6.5051814,0 0,4.363231 5.8705294,0 0,1.685794 -5.8705294,0 0,7.070418 -2.0031199,0 0,-14.805237 z"
         style="stroke:#ffff00;stroke-width:0.2;stroke-miterlimit:4;stroke-dasharray:none" /><path
         id="path4141"
         d="m 17.485274,42.007599 -2.717104,7.367911 5.444123,0 -2.727019,-7.367911 z m -1.130474,-1.97337 2.270864,0 5.642451,14.805237 -2.082451,0 -1.348635,-3.797995 -6.673761,0 -1.348635,3.797995 -2.112201,0 5.652368,-14.805237 z"
         inkscape:connector-curvature="0"
         style="stroke:#ffff00;stroke-width:0.2;stroke-miterlimit:4;stroke-dasharray:none" /><path
         inkscape:connector-curvature="0"
         id="path4143"
         d="m 24.419105,40.034229 2.003119,0 0,14.805237 -2.003119,0 0,-14.805237 z"
         style="stroke:#ffff00;stroke-width:0.2;stroke-miterlimit:4;stroke-dasharray:none" /><path
         inkscape:connector-curvature="0"
         id="path4145"
         d="m 35.428593,47.897962 q 0.644568,0.218161 1.249471,0.932144 0.614819,0.713984 1.229638,1.963455 l 2.032869,4.045905 -2.151866,0 -1.894039,-3.797995 q -0.733817,-1.487465 -1.427967,-1.97337 -0.684234,-0.485905 -1.874206,-0.485905 l -2.181616,0 0,6.25727 -2.00312,0 0,-14.805237 4.521895,0 q 2.538607,0 3.788078,1.061058 1.249471,1.061059 1.249471,3.203009 0,1.398217 -0.654485,2.320445 -0.644568,0.922229 -1.884123,1.279221 z m -5.017716,-6.217605 0,5.25571 2.518775,0 q 1.447799,0 2.181615,-0.664401 0.743733,-0.674317 0.743733,-1.97337 0,-1.299053 -0.743733,-1.953538 -0.733816,-0.664401 -2.181615,-0.664401 l -2.518775,0 z"
         style="stroke:#ffff00;stroke-width:0.2;stroke-miterlimit:4;stroke-dasharray:none" /><path
         inkscape:connector-curvature="0"
         id="path4147"
         d="m 37.186047,40.034229 2.151866,0 4.105404,6.088691 4.075655,-6.088691 2.151866,0 -5.235877,7.754652 0,7.050585 -2.013037,0 0,-7.050585 -5.235877,-7.754652 z"
         style="stroke:#ffff00;stroke-width:0.2;stroke-miterlimit:4;stroke-dasharray:none" /></g></g></svg>