<?xml version="1.0" encoding="UTF-8" standalone="no"?>
<!-- Generator: Adobe Illustrator 19.2.1, SVG Export Plug-In . SVG Version: 6.00 Build 0)  -->

<svg
   xmlns:dc="http://purl.org/dc/elements/1.1/"
   xmlns:cc="http://creativecommons.org/ns#"
   xmlns:rdf="http://www.w3.org/1999/02/22-rdf-syntax-ns#"
   xmlns:svg="http://www.w3.org/2000/svg"
   xmlns="http://www.w3.org/2000/svg"
   xmlns:sodipodi="http://sodipodi.sourceforge.net/DTD/sodipodi-0.dtd"
   xmlns:inkscape="http://www.inkscape.org/namespaces/inkscape"
   version="1.1"
   id="Ebene_1"
   x="0px"
   y="0px"
   viewBox="0 0 50 50"
   xml:space="preserve"
   inkscape:version="0.91 r13725"
   sodipodi:docname="board_toucan.svg"
   width="50"
   height="50"><metadata
     id="metadata13"><rdf:RDF><cc:Work
         rdf:about=""><dc:format>image/svg+xml</dc:format><dc:type
           rdf:resource="http://purl.org/dc/dcmitype/StillImage" /><dc:title /></cc:Work></rdf:RDF></metadata><defs
     id="defs11" /><sodipodi:namedview
     pagecolor="#ffffff"
     bordercolor="#666666"
     borderopacity="1"
     objecttolerance="10"
     gridtolerance="10"
     guidetolerance="10"
     inkscape:pageopacity="0"
     inkscape:pageshadow="2"
     inkscape:window-width="1855"
     inkscape:window-height="1056"
     id="namedview9"
     showgrid="false"
     inkscape:zoom="9.5213863"
     inkscape:cx="21.41569"
     inkscape:cy="26.298017"
     inkscape:window-x="65"
     inkscape:window-y="24"
     inkscape:window-maximized="1"
     inkscape:current-layer="text4148" /><style
     type="text/css"
     id="style3">
	.st0{fill:#37474F;}
	.st1{fill:#BBDEFB;}
</style><g
     id="g4141"
     transform="matrix(1.0714286,0,0,1.0714286,-1.5278457,-61.615015)"><g
       id="g4158"><g
         id="g4145"
         transform="matrix(1,0,0,1.3788878,0,-23.480216)"><path
           sodipodi:nodetypes="sssssssss"
           style="fill:#37474f"
           inkscape:connector-curvature="0"
           id="path5"
           d="M 7,66.667079 41,62 c 2.179562,-0.299182 4,1.8 4,4 l 0,20 c 0,2.2 -1.820431,4.29913 -4,4 L 7,85.333745 C 4.8204309,85.034615 3,84.466667 3,82.266667 L 3,69.733333 c 0,-2.2 1.8204381,-2.767072 4,-3.066254 z"
           class="st0" /><path
           sodipodi:nodetypes="sssssssss"
           style="fill:#bbdefb"
           inkscape:connector-curvature="0"
           id="path7"
           d="m 41.066923,86 0,-20 c 0,-0.6 -0.403585,-1.065489 -1,-1 L 6.0669225,68.733333 c -0.5964153,0.06549 -1,0.4 -1,1 l 0,12.533334 c 0,0.6 0.4035847,0.934511 1,1 L 40.066923,87 c 0.596415,0.06549 1,-0.4 1,-1 z"
           class="st1" /><path
           sodipodi:nodetypes="ccccc"
           inkscape:connector-curvature="0"
           id="path4162"
           d="m 45.095703,65.53401 0,21.000002 1.129285,-0.466667 c 0.0047,-7.284962 0.002,-12.315029 0.002,-19.599999 z"
           style="color:#000000;font-style:normal;font-variant:normal;font-weight:normal;font-stretch:normal;font-size:medium;line-height:normal;font-family:sans-serif;text-indent:0;text-align:start;text-decoration:none;text-decoration-line:none;text-decoration-style:solid;text-decoration-color:#000000;letter-spacing:normal;word-spacing:normal;text-transform:none;direction:ltr;block-progression:tb;writing-mode:lr-tb;baseline-shift:baseline;text-anchor:start;white-space:normal;clip-rule:nonzero;display:inline;overflow:visible;visibility:visible;opacity:1;isolation:auto;mix-blend-mode:normal;color-interpolation:sRGB;color-interpolation-filters:linearRGB;solid-color:#000000;solid-opacity:1;fill:#000000;fill-opacity:1;fill-rule:evenodd;stroke:none;stroke-width:0.93333334px;stroke-linecap:butt;stroke-linejoin:miter;stroke-miterlimit:4;stroke-dasharray:none;stroke-dashoffset:0;stroke-opacity:1;color-rendering:auto;image-rendering:auto;shape-rendering:auto;text-rendering:auto;enable-background:accumulate" /></g></g></g><g
     transform="scale(0.99956219,1.000438)"
     style="font-style:normal;font-variant:normal;font-weight:normal;font-stretch:normal;font-size:20.30885887px;line-height:125%;font-family:Lato;-inkscape-font-specification:Lato;letter-spacing:0px;word-spacing:0px;fill:#b81c22;fill-opacity:1;stroke:none;stroke-width:1px;stroke-linecap:butt;stroke-linejoin:miter;stroke-opacity:1"
     id="text4148"><g
       id="g4193"
       style="stroke:#ffff00;stroke-width:0.2;stroke-miterlimit:4;stroke-dasharray:none;stroke-opacity:1"
       transform="matrix(0.62956782,0,0,1.0028727,12.63329,5.2767635)"><path
         inkscape:connector-curvature="0"
         id="path4181"
         d="m -7.23175,12.3751 0,1.655172 -4.701501,0 0,12.896125 -1.969959,0 0,-12.896125 -4.72181,0 0,-1.655172 11.39327,0 z"
         style="stroke:#ffff00;stroke-width:0.2;stroke-miterlimit:4;stroke-dasharray:none;stroke-opacity:1" /><path
         inkscape:connector-curvature="0"
         id="path4183"
         d="m 5.3596058,19.655826 q 0,1.634863 -0.5178758,3.005711 -0.517876,1.360694 -1.4622379,2.345673 -0.9443619,0.98498 -2.2745922,1.533319 -1.3200758,0.538185 -2.9244757,0.538185 -1.6043998,0 -2.9244756,-0.538185 -1.3200756,-0.548339 -2.2644376,-1.533319 -0.944362,-0.984979 -1.462238,-2.345673 -0.517876,-1.370848 -0.517876,-3.005711 0,-1.634863 0.517876,-2.995557 0.517876,-1.370848 1.462238,-2.355827 0.944362,-0.995135 2.2644376,-1.543474 1.3200758,-0.548339 2.9244756,-0.548339 1.6043999,0 2.9244757,0.548339 1.3302303,0.548339 2.2745922,1.543474 0.9443619,0.984979 1.4622379,2.355827 0.5178758,1.360694 0.5178758,2.995557 z m -2.0207314,0 q 0,-1.340385 -0.3655595,-2.4066 -0.3655594,-1.066215 -1.0357518,-1.797334 -0.6701923,-0.741273 -1.6247087,-1.137296 -0.9545163,-0.396023 -2.1324302,-0.396023 -1.1677593,0 -2.1222757,0.396023 -0.9545164,0.396023 -1.6348632,1.137296 -0.6701923,0.731119 -1.0357513,1.797334 -0.36556,1.066215 -0.36556,2.4066 0,1.340385 0.36556,2.4066 0.365559,1.05606 1.0357513,1.797334 0.6803468,0.731119 1.6348632,1.127141 0.9545164,0.385869 2.1222757,0.385869 1.1779139,0 2.1324302,-0.385869 0.9545164,-0.396022 1.6247087,-1.127141 0.6701924,-0.741274 1.0357518,-1.797334 0.3655595,-1.066215 0.3655595,-2.4066 z"
         style="stroke:#ffff00;stroke-width:0.2;stroke-miterlimit:4;stroke-dasharray:none;stroke-opacity:1" /><path
         inkscape:connector-curvature="0"
         id="path4185"
         d="m 11.722489,25.362615 q 0.903744,0 1.614554,-0.304633 0.71081,-0.304633 1.198223,-0.852972 0.497567,-0.548339 0.751428,-1.309921 0.264015,-0.761582 0.264015,-1.675481 l 0,-8.844508 1.959805,0 0,8.844508 q 0,1.259149 -0.406177,2.335519 -0.396023,1.076369 -1.147451,1.868415 -0.741273,0.781891 -1.817643,1.228686 -1.076369,0.446795 -2.416754,0.446795 -1.340385,0 -2.4167542,-0.446795 Q 8.2293653,26.205433 7.4779375,25.423542 6.7265098,24.631496 6.3203326,23.555127 5.9243098,22.478757 5.9243098,21.219608 l 0,-8.844508 1.9598049,0 0,8.834354 q 0,0.913898 0.2538608,1.67548 0.2640151,0.761583 0.7514277,1.309922 0.4975671,0.548339 1.2083768,0.863126 0.720965,0.304633 1.624709,0.304633 z"
         style="stroke:#ffff00;stroke-width:0.2;stroke-miterlimit:4;stroke-dasharray:none;stroke-opacity:1" /><path
         id="path4187"
         style="stroke:#ffff00;stroke-width:0.2;stroke-miterlimit:4;stroke-dasharray:none;stroke-opacity:1"
         d="m 29.156557,23.920686 q 0.162471,0 0.294479,0.132008 l 0.771736,0.842817 q -0.893589,1.035752 -2.173048,1.614555 -1.269303,0.578802 -3.066637,0.578802 -1.573937,0 -2.853395,-0.538185 -1.279458,-0.548339 -2.183202,-1.523164 -0.903744,-0.98498 -1.401312,-2.355828 -0.497567,-1.370848 -0.497567,-3.015865 0,-1.645018 0.528031,-3.015866 0.538185,-1.370848 1.502855,-2.355827 0.964671,-0.98498 2.305056,-1.523165 1.350539,-0.548339 2.975248,-0.548339 1.604399,0 2.762004,0.497567 1.16776,0.497567 2.071504,1.350539 l -0.639729,0.903744 q -0.07108,0.101545 -0.162471,0.172626 -0.09139,0.06093 -0.264015,0.06093 -0.132008,0 -0.284324,-0.09139 -0.142162,-0.101544 -0.345251,-0.243706 -0.203088,-0.142162 -0.477258,-0.304633 -0.274169,-0.162471 -0.649883,-0.304633 -0.375714,-0.142162 -0.873281,-0.233551 -0.497567,-0.101545 -1.147451,-0.101545 -1.167759,0 -2.142584,0.406177 -0.964671,0.396023 -1.665327,1.137296 -0.700655,0.741274 -1.096678,1.807489 -0.385869,1.066215 -0.385869,2.386291 0,1.360693 0.385869,2.426908 0.396023,1.066216 1.066215,1.807489 0.680347,0.731119 1.6044,1.116987 0.924053,0.385868 1.990268,0.385868 0.649883,0 1.167759,-0.07108 0.517876,-0.08123 0.954517,-0.243706 0.446795,-0.162471 0.822508,-0.406177 0.385869,-0.253861 0.771737,-0.599111 0.172625,-0.152317 0.335096,-0.152317 z"
         inkscape:connector-curvature="0" /><path
         inkscape:connector-curvature="0"
         id="path4189"
         d="m 42.794456,26.926397 -1.523165,0 q -0.264015,0 -0.426486,-0.132007 -0.16247,-0.132008 -0.243706,-0.335096 l -1.360693,-3.513433 -6.529299,0 -1.360693,3.513433 q -0.07108,0.182779 -0.243706,0.324941 -0.172626,0.142162 -0.426486,0.142162 l -1.523165,0 5.818488,-14.551297 2.000423,0 5.818488,14.551297 z m -9.535009,-5.402156 5.432619,0 -2.284746,-5.920032 q -0.223398,-0.54834 -0.436641,-1.370848 -0.111698,0.416331 -0.223397,0.771736 -0.101544,0.345251 -0.203089,0.609266 l -2.284746,5.909878 z"
         style="stroke:#ffff00;stroke-width:0.2;stroke-miterlimit:4;stroke-dasharray:none;stroke-opacity:1" /><path
         inkscape:connector-curvature="0"
         id="path4191"
         d="m 43.640623,12.3751 q 0.264015,0 0.385869,0.07108 0.132007,0.06093 0.294478,0.264015 l 8.428177,10.966784 q -0.03046,-0.264015 -0.04062,-0.507722 -0.01016,-0.25386 -0.01016,-0.487412 l 0,-10.306746 1.726253,0 0,14.551297 -0.995134,0 q -0.233552,0 -0.396022,-0.08124 -0.152317,-0.08124 -0.304633,-0.27417 L 44.310816,15.614363 q 0.02031,0.253861 0.03046,0.497567 0.01015,0.243706 0.01015,0.446795 l 0,10.367672 -1.726253,0 0,-14.551297 1.015443,0 0,0 z"
         style="stroke:#ffff00;stroke-width:0.2;stroke-miterlimit:4;stroke-dasharray:none;stroke-opacity:1" /></g></g><text
     xml:space="preserve"
     style="font-style:normal;font-weight:normal;font-size:40px;line-height:125%;font-family:sans-serif;letter-spacing:0px;word-spacing:0px;fill:#000000;fill-opacity:1;stroke:none;stroke-width:1px;stroke-linecap:butt;stroke-linejoin:miter;stroke-opacity:1"
     x="-13.233367"
     y="36.55658"
     id="text4174"
     sodipodi:linespacing="125%"><tspan
       sodipodi:role="line"
       id="tspan4176"
       x="-13.233367"
       y="36.55658"></tspan></text>
</svg>