<?xml version="1.0" encoding="UTF-8" standalone="no"?>
<!-- Generator: Adobe Illustrator 19.2.1, SVG Export Plug-In . SVG Version: 6.00 Build 0)  -->

<svg
   xmlns:dc="http://purl.org/dc/elements/1.1/"
   xmlns:cc="http://creativecommons.org/ns#"
   xmlns:rdf="http://www.w3.org/1999/02/22-rdf-syntax-ns#"
   xmlns:svg="http://www.w3.org/2000/svg"
   xmlns="http://www.w3.org/2000/svg"
   xmlns:sodipodi="http://sodipodi.sourceforge.net/DTD/sodipodi-0.dtd"
   xmlns:inkscape="http://www.inkscape.org/namespaces/inkscape"
   version="1.1"
   id="Ebene_1"
   x="0px"
   y="0px"
   viewBox="0 0 50 50"
   xml:space="preserve"
   inkscape:version="0.91 r13725"
   sodipodi:docname="display_lvds.svg"
   width="50"
   height="50"><metadata
     id="metadata13"><rdf:RDF><cc:Work
         rdf:about=""><dc:format>image/svg+xml</dc:format><dc:type
           rdf:resource="http://purl.org/dc/dcmitype/StillImage" /><dc:title /></cc:Work></rdf:RDF></metadata><defs
     id="defs11" /><sodipodi:namedview
     pagecolor="#ffffff"
     bordercolor="#666666"
     borderopacity="1"
     objecttolerance="10"
     gridtolerance="10"
     guidetolerance="10"
     inkscape:pageopacity="0"
     inkscape:pageshadow="2"
     inkscape:window-width="1855"
     inkscape:window-height="1056"
     id="namedview9"
     showgrid="false"
     inkscape:zoom="13.906434"
     inkscape:cx="38.89353"
     inkscape:cy="16.709264"
     inkscape:window-x="65"
     inkscape:window-y="24"
     inkscape:window-maximized="1"
     inkscape:current-layer="Ebene_1" /><style
     type="text/css"
     id="style3">
	.st0{fill:#37474F;}
	.st1{fill:#BBDEFB;}
</style><g
     id="g4141"
     transform="matrix(1.0714286,0,0,1.0714286,1.3514053,-56.428574)"><path
       style="fill:#37474f"
       inkscape:connector-curvature="0"
       id="path5"
       d="m 7,62 34,0 c 2.2,0 4,1.8 4,4 l 0,20 c 0,2.2 -1.8,4 -4,4 L 7,90 C 4.8,90 3,88.2 3,86 L 3,66 c 0,-2.2 1.8,-4 4,-4 z"
       class="st0" /><path
       style="fill:#bbdefb"
       inkscape:connector-curvature="0"
       id="path7"
       d="m 42,86 0,-20 c 0,-0.6 -0.4,-1 -1,-1 L 7,65 c -0.6,0 -1,0.4 -1,1 l 0,20 c 0,0.6 0.4,1 1,1 l 34,0 c 0.6,0 1,-0.4 1,-1 z"
       class="st1" /></g><g
     id="g4196"><path
       d="m 9.5664244,19.645679 1.4496006,0 0,9.49417 5.217129,0 0,1.219961 -6.6667296,0 0,-10.714131 z"
       style="font-style:normal;font-weight:normal;font-size:medium;line-height:125%;font-family:sans-serif;letter-spacing:0px;word-spacing:0px;fill:#b81c22;fill-opacity:1;stroke:none;stroke-width:1px;stroke-linecap:butt;stroke-linejoin:miter;stroke-opacity:1"
       id="path4184"
       inkscape:connector-curvature="0" /><path
       d="m 18.902716,30.35981 -4.090458,-10.714131 1.514187,0 3.394363,9.020538 3.401539,-9.020538 1.507011,0 -4.083282,10.714131 -1.64336,0 z"
       style="font-style:normal;font-weight:normal;font-size:medium;line-height:125%;font-family:sans-serif;letter-spacing:0px;word-spacing:0px;fill:#b81c22;fill-opacity:1;stroke:none;stroke-width:1px;stroke-linecap:butt;stroke-linejoin:miter;stroke-opacity:1"
       id="path4186"
       inkscape:connector-curvature="0" /><path
       d="m 27.636204,20.836936 0,8.331618 1.751003,0 q 2.217459,0 3.243662,-1.004674 1.033379,-1.004674 1.033379,-3.1719 0,-2.152873 -1.033379,-3.15037 -1.026203,-1.004674 -3.243662,-1.004674 l -1.751003,0 z m -1.449601,-1.191257 2.97814,0 q 3.11449,0 4.571267,1.2989 1.456777,1.291724 1.456777,4.047401 0,2.77003 -1.463953,4.06893 -1.463954,1.2989 -4.564091,1.2989 l -2.97814,0 0,-10.714131 z"
       style="font-style:normal;font-weight:normal;font-size:medium;line-height:125%;font-family:sans-serif;letter-spacing:0px;word-spacing:0px;fill:#b81c22;fill-opacity:1;stroke:none;stroke-width:1px;stroke-linecap:butt;stroke-linejoin:miter;stroke-opacity:1"
       id="path4188"
       inkscape:connector-curvature="0" /><path
       d="m 43.919097,19.997315 0,1.41372 q -0.825268,-0.394693 -1.557245,-0.588452 -0.731976,-0.193758 -1.413719,-0.193758 -1.18408,0 -1.829942,0.459279 -0.638686,0.45928 -0.638686,1.306076 0,0.710448 0.423398,1.076437 0.430575,0.358812 1.621831,0.581275 l 0.875502,0.179407 q 1.621831,0.308578 2.389689,1.090788 0.775034,0.775035 0.775034,2.081111 0,1.557245 -1.047731,2.360984 -1.040556,0.803739 -3.05708,0.803739 -0.760682,0 -1.621831,-0.17223 -0.853973,-0.17223 -1.772532,-0.509513 l 0,-1.492659 q 0.882678,0.495161 1.729475,0.74633 0.846796,0.251168 1.664888,0.251168 1.24149,0 1.916057,-0.487984 0.674567,-0.487985 0.674567,-1.392192 0,-0.789386 -0.487985,-1.234313 -0.480808,-0.444927 -1.585949,-0.667391 l -0.882678,-0.17223 q -1.621831,-0.322931 -2.346632,-1.01185 -0.7248,-0.688919 -0.7248,-1.916057 0,-1.420896 0.997498,-2.238987 1.004674,-0.818092 2.762853,-0.818092 0.753506,0 1.535716,0.136348 0.78221,0.136349 1.600302,0.409046 z"
       style="font-style:normal;font-weight:normal;font-size:medium;line-height:125%;font-family:sans-serif;letter-spacing:0px;word-spacing:0px;fill:#b81c22;fill-opacity:1;stroke:none;stroke-width:1px;stroke-linecap:butt;stroke-linejoin:miter;stroke-opacity:1"
       id="path4190"
       inkscape:connector-curvature="0" /></g><g
     id="g4328"
     transform="translate(7.5000014,16)"><rect
       style="opacity:1;fill:#ffffff;fill-opacity:1;stroke:#b81c22;stroke-width:0.45918643;stroke-linecap:butt;stroke-linejoin:miter;stroke-miterlimit:4;stroke-dasharray:none;stroke-dashoffset:0;stroke-opacity:1"
       id="rect4193"
       width="29.540812"
       height="5.5408134"
       x="12.295286"
       y="22.229593"
       ry="2.7704067"
       rx="2.9953821" /><g
       transform="matrix(0.56078393,0,0,0.56078393,28.191445,10.980402)"
       id="g4583"><rect
         style="fill:#ffffff;stroke:#424444;stroke-width:0.5682438;stroke-miterlimit:10"
         x="-24.013721"
         y="21.081078"
         class="st7"
         width="44.012516"
         height="7.8378458"
         id="rect13" /><g
         id="g4541"
         transform="translate(31.348466,-9.9515709)"><circle
           style="fill:#ffd469"
           class="st4"
           cx="-52.347633"
           cy="33.343807"
           r="0.60291123"
           id="circle17" /><circle
           style="fill:#ffd469"
           class="st4"
           cx="-50.348507"
           cy="33.343807"
           r="0.60291123"
           id="circle19" /><circle
           style="fill:#ffd469"
           class="st4"
           cx="-48.34938"
           cy="33.343807"
           r="0.60291123"
           id="circle21" /><circle
           style="fill:#ffd469"
           class="st4"
           cx="-46.350254"
           cy="33.343807"
           r="0.60291123"
           id="circle23" /><circle
           style="fill:#ffd469"
           class="st4"
           cx="-44.351128"
           cy="33.343807"
           r="0.60291123"
           id="circle25" /><circle
           style="fill:#ffd469"
           class="st4"
           cx="-42.352001"
           cy="33.343807"
           r="0.60291123"
           id="circle27" /><circle
           style="fill:#ffd469"
           class="st4"
           cx="-40.352875"
           cy="33.343807"
           r="0.60291123"
           id="circle29" /><circle
           style="fill:#ffd469"
           class="st4"
           cx="-38.353745"
           cy="33.343807"
           r="0.60291123"
           id="circle31" /><circle
           style="fill:#ffd469"
           class="st4"
           cx="-36.354622"
           cy="33.343807"
           r="0.60291123"
           id="circle33" /><circle
           style="fill:#ffd469"
           class="st4"
           cx="-34.355492"
           cy="33.343807"
           r="0.60291123"
           id="circle35" /><circle
           style="fill:#ffd469"
           class="st4"
           cx="-32.356369"
           cy="33.343807"
           r="0.60291123"
           id="circle37" /><circle
           style="fill:#ffd469"
           class="st4"
           cx="-30.357241"
           cy="33.343807"
           r="0.60291123"
           id="circle39" /><circle
           style="fill:#ffd469"
           class="st4"
           cx="-28.358112"
           cy="33.343807"
           r="0.60291123"
           id="circle41" /><circle
           style="fill:#ffd469"
           class="st4"
           cx="-26.358986"
           cy="33.343807"
           r="0.60291123"
           id="circle43" /><circle
           style="fill:#ffd469"
           class="st4"
           cx="-24.359859"
           cy="33.343807"
           r="0.60291123"
           id="circle45" /><circle
           style="fill:#ffd469"
           class="st4"
           cx="-22.360733"
           cy="33.343807"
           r="0.60291123"
           id="circle47" /><circle
           style="fill:#ffd469"
           class="st4"
           cx="-20.361607"
           cy="33.343807"
           r="0.60291123"
           id="circle49" /><circle
           style="fill:#ffd469"
           class="st4"
           cx="-18.36248"
           cy="33.343807"
           r="0.60291123"
           id="circle51" /><circle
           style="fill:#ffd469"
           class="st4"
           cx="-16.363354"
           cy="33.343807"
           r="0.60291123"
           id="circle53" /><circle
           style="fill:#ffd469"
           class="st4"
           cx="-14.364227"
           cy="33.343807"
           r="0.60291123"
           id="circle55" /><circle
           style="fill:#ffd469"
           class="st4"
           cx="-52.347633"
           cy="36.559334"
           r="0.60291123"
           id="circle59" /><circle
           style="fill:#ffd469"
           class="st4"
           cx="-50.348507"
           cy="36.559334"
           r="0.60291123"
           id="circle61" /><circle
           style="fill:#ffd469"
           class="st4"
           cx="-48.34938"
           cy="36.559334"
           r="0.60291123"
           id="circle63" /><circle
           style="fill:#ffd469"
           class="st4"
           cx="-46.350254"
           cy="36.559334"
           r="0.60291123"
           id="circle65" /><circle
           style="fill:#ffd469"
           class="st4"
           cx="-44.351128"
           cy="36.559334"
           r="0.60291123"
           id="circle67" /><circle
           style="fill:#ffd469"
           class="st4"
           cx="-42.352001"
           cy="36.559334"
           r="0.60291123"
           id="circle69" /><circle
           style="fill:#ffd469"
           class="st4"
           cx="-40.352875"
           cy="36.559334"
           r="0.60291123"
           id="circle71" /><circle
           style="fill:#ffd469"
           class="st4"
           cx="-38.353745"
           cy="36.559334"
           r="0.60291123"
           id="circle73" /><circle
           style="fill:#ffd469"
           class="st4"
           cx="-36.354622"
           cy="36.559334"
           r="0.60291123"
           id="circle75" /><circle
           style="fill:#ffd469"
           class="st4"
           cx="-34.355492"
           cy="36.559334"
           r="0.60291123"
           id="circle77" /><circle
           style="fill:#ffd469"
           class="st4"
           cx="-32.356369"
           cy="36.559334"
           r="0.60291123"
           id="circle79" /><circle
           style="fill:#ffd469"
           class="st4"
           cx="-30.357241"
           cy="36.559334"
           r="0.60291123"
           id="circle81" /><circle
           style="fill:#ffd469"
           class="st4"
           cx="-28.358112"
           cy="36.559334"
           r="0.60291123"
           id="circle83" /><circle
           style="fill:#ffd469"
           class="st4"
           cx="-26.358986"
           cy="36.559334"
           r="0.60291123"
           id="circle85" /><circle
           style="fill:#ffd469"
           class="st4"
           cx="-24.359859"
           cy="36.559334"
           r="0.60291123"
           id="circle87" /><circle
           style="fill:#ffd469"
           class="st4"
           cx="-22.360733"
           cy="36.559334"
           r="0.60291123"
           id="circle89" /><circle
           style="fill:#ffd469"
           class="st4"
           cx="-20.361607"
           cy="36.559334"
           r="0.60291123"
           id="circle91" /><circle
           style="fill:#ffd469"
           class="st4"
           cx="-18.36248"
           cy="36.559334"
           r="0.60291123"
           id="circle93" /><circle
           style="fill:#ffd469"
           class="st4"
           cx="-16.363354"
           cy="36.559334"
           r="0.60291123"
           id="circle95" /><circle
           style="fill:#ffd469"
           class="st4"
           cx="-14.364227"
           cy="36.559334"
           r="0.60291123"
           id="circle97" /></g></g></g></svg>