<?xml version="1.0" encoding="UTF-8" standalone="no"?>
<!-- Generator: Adobe Illustrator 19.2.1, SVG Export Plug-In . SVG Version: 6.00 Build 0)  -->

<svg
   xmlns:dc="http://purl.org/dc/elements/1.1/"
   xmlns:cc="http://creativecommons.org/ns#"
   xmlns:rdf="http://www.w3.org/1999/02/22-rdf-syntax-ns#"
   xmlns:svg="http://www.w3.org/2000/svg"
   xmlns="http://www.w3.org/2000/svg"
   xmlns:sodipodi="http://sodipodi.sourceforge.net/DTD/sodipodi-0.dtd"
   xmlns:inkscape="http://www.inkscape.org/namespaces/inkscape"
   version="1.1"
   id="Ebene_1"
   x="0px"
   y="0px"
   viewBox="0 0 50 50"
   xml:space="preserve"
   inkscape:version="0.91 r13725"
   sodipodi:docname="display_dpi.svg"
   width="50"
   height="50"><metadata
     id="metadata13"><rdf:RDF><cc:Work
         rdf:about=""><dc:format>image/svg+xml</dc:format><dc:type
           rdf:resource="http://purl.org/dc/dcmitype/StillImage" /><dc:title /></cc:Work></rdf:RDF></metadata><defs
     id="defs11" /><sodipodi:namedview
     pagecolor="#ffffff"
     bordercolor="#666666"
     borderopacity="1"
     objecttolerance="10"
     gridtolerance="10"
     guidetolerance="10"
     inkscape:pageopacity="0"
     inkscape:pageshadow="2"
     inkscape:window-width="1855"
     inkscape:window-height="1056"
     id="namedview9"
     showgrid="false"
     inkscape:zoom="13.906433"
     inkscape:cx="3.6660579"
     inkscape:cy="14.37691"
     inkscape:window-x="65"
     inkscape:window-y="24"
     inkscape:window-maximized="1"
     inkscape:current-layer="g5408" /><style
     type="text/css"
     id="style3">
	.st0{fill:#37474F;}
	.st1{fill:#BBDEFB;}
</style><g
     id="g5408"
     transform="translate(-2.3076971e-7,-9.1829326)"><path
       style="fill:#37474f"
       inkscape:connector-curvature="0"
       id="path5"
       d="m 6.7857138,19.182932 36.4285722,0 c 2.357143,0 4.285715,1.928572 4.285715,4.285715 l 0,21.428572 c 0,2.357143 -1.928572,4.285714 -4.285715,4.285714 l -36.4285722,0 c -2.3571429,0 -4.2857144,-1.928571 -4.2857144,-4.285714 l 0,-21.428572 c 0,-2.357143 1.9285715,-4.285715 4.2857144,-4.285715 z"
       class="st0" /><path
       style="fill:#bbdefb"
       inkscape:connector-curvature="0"
       id="path7"
       d="m 44.285715,44.897219 0,-21.428572 c 0,-0.642858 -0.428572,-1.071429 -1.071429,-1.071429 l -36.4285722,0 c -0.6428572,0 -1.0714286,0.428571 -1.0714286,1.071429 l 0,21.428572 c 0,0.642857 0.4285714,1.071428 1.0714286,1.071428 l 36.4285722,0 c 0.642857,0 1.071429,-0.428571 1.071429,-1.071428 z"
       class="st1" /><g
       id="g4180"
       style="stroke:#ffff00;stroke-opacity:1;stroke-width:0.2;stroke-miterlimit:4;stroke-dasharray:none;stroke-linejoin:round;stroke-linecap:round"><path
         d="m 11.73567,26.413893 0,11.518241 2.420715,0 q 3.065578,0 4.484276,-1.388935 1.428619,-1.388936 1.428619,-4.385067 0,-2.976289 -1.428619,-4.355304 -1.418698,-1.388935 -4.484276,-1.388935 l -2.420715,0 z m -2.0040354,-1.64688 4.1172004,0 q 4.305699,0 6.319655,1.795695 2.013956,1.785774 2.013956,5.595424 0,3.829493 -2.023877,5.625187 -2.023877,1.795695 -6.309734,1.795695 l -4.1172004,0 0,-14.812001 z"
         style="font-style:normal;font-weight:normal;font-size:medium;line-height:125%;font-family:sans-serif;letter-spacing:0px;word-spacing:0px;fill:#b81c22;fill-opacity:1;stroke:#ffff00;stroke-width:0.2;stroke-linecap:round;stroke-linejoin:round;stroke-opacity:1;stroke-miterlimit:4;stroke-dasharray:none"
         id="path4169"
         inkscape:connector-curvature="0" /><path
         d="m 27.37111,26.413893 0,5.565662 2.519925,0 q 1.398857,0 2.162771,-0.724231 0.763914,-0.72423 0.763914,-2.06356 0,-1.32941 -0.763914,-2.05364 -0.763914,-0.724231 -2.162771,-0.724231 l -2.519925,0 z m -2.004035,-1.64688 4.52396,0 q 2.490163,0 3.760046,1.13099 1.279805,1.121069 1.279805,3.293761 0,2.192533 -1.279805,3.313602 -1.269883,1.121069 -3.760046,1.121069 l -2.519925,0 0,5.952579 -2.004035,0 0,-14.812001 z"
         style="font-style:normal;font-weight:normal;font-size:medium;line-height:125%;font-family:sans-serif;letter-spacing:0px;word-spacing:0px;fill:#b81c22;fill-opacity:1;stroke:#ffff00;stroke-width:0.2;stroke-linecap:round;stroke-linejoin:round;stroke-opacity:1;stroke-miterlimit:4;stroke-dasharray:none"
         id="path4171"
         inkscape:connector-curvature="0" /><path
         d="m 37.629389,24.767013 2.004035,0 0,14.812001 -2.004035,0 0,-14.812001 z"
         style="font-style:normal;font-weight:normal;font-size:medium;line-height:125%;font-family:sans-serif;letter-spacing:0px;word-spacing:0px;fill:#b81c22;fill-opacity:1;stroke:#ffff00;stroke-width:0.2;stroke-linecap:round;stroke-linejoin:round;stroke-opacity:1;stroke-miterlimit:4;stroke-dasharray:none"
         id="path4173"
         inkscape:connector-curvature="0" /></g><g
       id="g4265"
       transform="translate(6.8177993,16.000001)"><rect
         rx="3.0048549"
         ry="2.7704067"
         y="31.412525"
         x="10.911797"
         height="5.5408134"
         width="29.540812"
         id="rect4193"
         style="opacity:1;fill:#ffffff;fill-opacity:1;stroke:#b81c22;stroke-width:0.45918643;stroke-linecap:butt;stroke-linejoin:miter;stroke-miterlimit:4;stroke-dasharray:none;stroke-dashoffset:0;stroke-opacity:1" /><g
         transform="matrix(0.97780989,0,0,0.65824387,13.631923,8.2321289)"
         id="g4384"><rect
           style="fill:#6d6d6d;stroke:#424444;stroke-width:0.50192201;stroke-miterlimit:10"
           x="-0.20817044"
           y="37.111542"
           class="st3"
           width="25.063829"
           height="4.625514"
           id="rect13" /><g
           id="g4358"
           transform="translate(22.28581,-16.422629)"><rect
             style="fill:#ffd469"
             x="-19.697159"
             y="52.028191"
             class="st4"
             width="0.86056072"
             height="2.474112"
             id="rect17" /><rect
             style="fill:#ffd469"
             x="-18.005375"
             y="52.028191"
             class="st4"
             width="0.86056072"
             height="2.474112"
             id="rect19" /><rect
             style="fill:#ffd469"
             x="-16.313591"
             y="52.028191"
             class="st4"
             width="0.86056072"
             height="2.474112"
             id="rect21" /><rect
             style="fill:#ffd469"
             x="-14.621806"
             y="52.028191"
             class="st4"
             width="0.86056072"
             height="2.474112"
             id="rect23" /><rect
             style="fill:#ffd469"
             x="-12.930022"
             y="52.028191"
             class="st4"
             width="0.86056072"
             height="2.474112"
             id="rect25" /><rect
             style="fill:#ffd469"
             x="-11.238237"
             y="52.028191"
             class="st4"
             width="0.86056072"
             height="2.474112"
             id="rect27" /><rect
             style="fill:#ffd469"
             x="-9.5464535"
             y="52.028191"
             class="st4"
             width="0.86056072"
             height="2.474112"
             id="rect29" /><rect
             style="fill:#ffd469"
             x="-7.85467"
             y="52.028191"
             class="st4"
             width="0.86056072"
             height="2.474112"
             id="rect31" /><rect
             style="fill:#ffd469"
             x="-6.1628861"
             y="52.028191"
             class="st4"
             width="0.86056072"
             height="2.474112"
             id="rect33" /><rect
             style="fill:#ffd469"
             x="-4.4711022"
             y="52.028191"
             class="st4"
             width="0.86056072"
             height="2.474112"
             id="rect35" /><rect
             style="fill:#ffd469"
             x="-2.7793174"
             y="52.028191"
             class="st4"
             width="0.86056072"
             height="2.474112"
             id="rect37" /><rect
             style="fill:#ffd469"
             x="-1.0875337"
             y="52.028191"
             class="st4"
             width="0.86056072"
             height="2.474112"
             id="rect39" /><rect
             style="fill:#ffd469"
             x="-19.697159"
             y="57.191555"
             class="st4"
             width="0.86056072"
             height="2.474112"
             id="rect43" /><rect
             style="fill:#ffd469"
             x="-18.005375"
             y="57.191555"
             class="st4"
             width="0.86056072"
             height="2.474112"
             id="rect45" /><rect
             style="fill:#ffd469"
             x="-16.313591"
             y="57.191555"
             class="st4"
             width="0.86056072"
             height="2.474112"
             id="rect47" /><rect
             style="fill:#ffd469"
             x="-14.621806"
             y="57.191555"
             class="st4"
             width="0.86056072"
             height="2.474112"
             id="rect49" /><rect
             style="fill:#ffd469"
             x="-12.930022"
             y="57.191555"
             class="st4"
             width="0.86056072"
             height="2.474112"
             id="rect51" /><rect
             style="fill:#ffd469"
             x="-11.238237"
             y="57.191555"
             class="st4"
             width="0.86056072"
             height="2.474112"
             id="rect53" /><rect
             style="fill:#ffd469"
             x="-9.5464535"
             y="57.191555"
             class="st4"
             width="0.86056072"
             height="2.474112"
             id="rect55" /><rect
             style="fill:#ffd469"
             x="-7.85467"
             y="57.191555"
             class="st4"
             width="0.86056072"
             height="2.474112"
             id="rect57" /><rect
             style="fill:#ffd469"
             x="-6.1628861"
             y="57.191555"
             class="st4"
             width="0.86056072"
             height="2.474112"
             id="rect59" /><rect
             style="fill:#ffd469"
             x="-4.4711022"
             y="57.191555"
             class="st4"
             width="0.86056072"
             height="2.474112"
             id="rect61" /><rect
             style="fill:#ffd469"
             x="-2.7793174"
             y="57.191555"
             class="st4"
             width="0.86056072"
             height="2.474112"
             id="rect63" /><rect
             style="fill:#ffd469"
             x="-1.0875337"
             y="57.191555"
             class="st4"
             width="0.86056072"
             height="2.474112"
             id="rect65" /></g></g></g></g></svg>