<?xml version="1.0" encoding="UTF-8" standalone="no"?>
<!-- Generator: Adobe Illustrator 19.2.1, SVG Export Plug-In . SVG Version: 6.00 Build 0)  -->

<svg
   xmlns:dc="http://purl.org/dc/elements/1.1/"
   xmlns:cc="http://creativecommons.org/ns#"
   xmlns:rdf="http://www.w3.org/1999/02/22-rdf-syntax-ns#"
   xmlns:svg="http://www.w3.org/2000/svg"
   xmlns="http://www.w3.org/2000/svg"
   xmlns:sodipodi="http://sodipodi.sourceforge.net/DTD/sodipodi-0.dtd"
   xmlns:inkscape="http://www.inkscape.org/namespaces/inkscape"
   version="1.1"
   id="Ebene_1"
   x="0px"
   y="0px"
   viewBox="0 0 100 70"
   xml:space="preserve"
   inkscape:version="0.91 r13725"
   sodipodi:docname="display.svg"
   width="100"
   height="70"><metadata
     id="metadata13"><rdf:RDF><cc:Work
         rdf:about=""><dc:format>image/svg+xml</dc:format><dc:type
           rdf:resource="http://purl.org/dc/dcmitype/StillImage" /><dc:title></dc:title></cc:Work></rdf:RDF></metadata><defs
     id="defs11" /><sodipodi:namedview
     pagecolor="#ffffff"
     bordercolor="#666666"
     borderopacity="1"
     objecttolerance="10"
     gridtolerance="10"
     guidetolerance="10"
     inkscape:pageopacity="0"
     inkscape:pageshadow="2"
     inkscape:window-width="1855"
     inkscape:window-height="1056"
     id="namedview9"
     showgrid="false"
     inkscape:zoom="4.9166667"
     inkscape:cx="33.681078"
     inkscape:cy="40.192325"
     inkscape:window-x="65"
     inkscape:window-y="24"
     inkscape:window-maximized="1"
     inkscape:current-layer="Ebene_1" /><style
     type="text/css"
     id="style3">
	.st0{fill:#37474F;}
	.st1{fill:#BBDEFB;}
</style><g
     id="g4141"
     transform="matrix(2.25,0,0,2.25,-4,-136)"><path
       style="fill:#37474f"
       inkscape:connector-curvature="0"
       id="path5"
       d="m 7,62 34,0 c 2.2,0 4,1.8 4,4 l 0,20 c 0,2.2 -1.8,4 -4,4 L 7,90 C 4.8,90 3,88.2 3,86 L 3,66 c 0,-2.2 1.8,-4 4,-4 z"
       class="st0" /><path
       style="fill:#bbdefb"
       inkscape:connector-curvature="0"
       id="path7"
       d="m 42,86 0,-20 c 0,-0.6 -0.4,-1 -1,-1 L 7,65 c -0.6,0 -1,0.4 -1,1 l 0,20 c 0,0.6 0.4,1 1,1 l 34,0 c 0.6,0 1,-0.4 1,-1 z"
       class="st1" /></g></svg>