<?xml version="1.0" encoding="UTF-8" standalone="no"?>
<!-- Generator: Adobe Illustrator 19.2.1, SVG Export Plug-In . SVG Version: 6.00 Build 0)  -->

<svg
   xmlns:dc="http://purl.org/dc/elements/1.1/"
   xmlns:cc="http://creativecommons.org/ns#"
   xmlns:rdf="http://www.w3.org/1999/02/22-rdf-syntax-ns#"
   xmlns:svg="http://www.w3.org/2000/svg"
   xmlns="http://www.w3.org/2000/svg"
   xmlns:sodipodi="http://sodipodi.sourceforge.net/DTD/sodipodi-0.dtd"
   xmlns:inkscape="http://www.inkscape.org/namespaces/inkscape"
   version="1.1"
   id="Ebene_1"
   x="0px"
   y="0px"
   viewBox="0 0 50 50"
   xml:space="preserve"
   inkscape:version="0.91 r13725"
   sodipodi:docname="display_dsi.svg"
   width="50"
   height="50"><metadata
     id="metadata13"><rdf:RDF><cc:Work
         rdf:about=""><dc:format>image/svg+xml</dc:format><dc:type
           rdf:resource="http://purl.org/dc/dcmitype/StillImage" /><dc:title /></cc:Work></rdf:RDF></metadata><defs
     id="defs11" /><sodipodi:namedview
     pagecolor="#ffffff"
     bordercolor="#666666"
     borderopacity="1"
     objecttolerance="10"
     gridtolerance="10"
     guidetolerance="10"
     inkscape:pageopacity="0"
     inkscape:pageshadow="2"
     inkscape:window-width="1855"
     inkscape:window-height="1056"
     id="namedview9"
     showgrid="false"
     inkscape:zoom="19.666666"
     inkscape:cx="32.891329"
     inkscape:cy="19.442137"
     inkscape:window-x="65"
     inkscape:window-y="24"
     inkscape:window-maximized="1"
     inkscape:current-layer="g5408" /><style
     type="text/css"
     id="style3">
	.st0{fill:#37474F;}
	.st1{fill:#BBDEFB;}
</style><g
     id="g5408"
     transform="translate(-2.3076971e-7,-9.1829326)"><g
       transform="matrix(1.0714286,0,0,1.0714286,-0.7142864,-47.245641)"
       id="g4141"><path
         class="st0"
         d="m 7,62 34,0 c 2.2,0 4,1.8 4,4 l 0,20 c 0,2.2 -1.8,4 -4,4 L 7,90 C 4.8,90 3,88.2 3,86 L 3,66 c 0,-2.2 1.8,-4 4,-4 z"
         id="path5"
         inkscape:connector-curvature="0"
         style="fill:#37474f" /><path
         class="st1"
         d="m 42,86 0,-20 c 0,-0.6 -0.4,-1 -1,-1 L 7,65 c -0.6,0 -1,0.4 -1,1 l 0,20 c 0,0.6 0.4,1 1,1 l 34,0 c 0.6,0 1,-0.4 1,-1 z"
         id="path7"
         inkscape:connector-curvature="0"
         style="fill:#bbdefb" /></g><g
       id="g4178"><path
         d="m 11.73567,26.413893 0,11.518241 2.420715,0 q 3.065578,0 4.484276,-1.388935 1.428619,-1.388936 1.428619,-4.385067 0,-2.976289 -1.428619,-4.355304 -1.418698,-1.388935 -4.484276,-1.388935 l -2.420715,0 z m -2.0040354,-1.64688 4.1172004,0 q 4.305699,0 6.319655,1.795695 2.013956,1.785774 2.013956,5.595424 0,3.829493 -2.023877,5.625187 -2.023877,1.795695 -6.309734,1.795695 l -4.1172004,0 0,-14.812001 z"
         style="font-style:normal;font-weight:normal;font-size:medium;line-height:125%;font-family:sans-serif;letter-spacing:0px;word-spacing:0px;fill:#b81c22;fill-opacity:1;stroke:none;stroke-width:1px;stroke-linecap:butt;stroke-linejoin:miter;stroke-opacity:1"
         id="path4169"
         inkscape:connector-curvature="0" /><path
         d="m 34.246339,25.25314 0,1.954431 q -1.140911,-0.545654 -2.152849,-0.81352 -1.011939,-0.267866 -1.95443,-0.267866 -1.63696,0 -2.529846,0.634942 -0.882966,0.634942 -0.882966,1.805616 0,0.982175 0.585337,1.488144 0.595258,0.496049 2.242138,0.803599 l 1.210357,0.248024 q 2.242138,0.426601 3.303682,1.507986 1.071464,1.071465 1.071464,2.87708 0,2.15285 -1.448461,3.263998 -1.43854,1.111148 -4.226331,1.111148 -1.051622,0 -2.242138,-0.238103 -1.180595,-0.238104 -2.450478,-0.704389 l 0,-2.063561 q 1.220278,0.684547 2.390952,1.031781 1.170674,0.347234 2.301664,0.347234 1.716327,0 2.648898,-0.674626 0.93257,-0.674626 0.93257,-1.924667 0,-1.091306 -0.674625,-1.706406 -0.664705,-0.6151 -2.192534,-0.92265 l -1.220278,-0.238103 q -2.242138,-0.446444 -3.244156,-1.398856 -1.002017,-0.952413 -1.002017,-2.648898 0,-1.964351 1.379014,-3.095341 1.388935,-1.13099 3.819571,-1.13099 1.041702,0 2.123087,0.188498 1.081385,0.188499 2.212375,0.565495 z"
         style="font-style:normal;font-weight:normal;font-size:medium;line-height:125%;font-family:sans-serif;letter-spacing:0px;word-spacing:0px;fill:#b81c22;fill-opacity:1;stroke:none;stroke-width:1px;stroke-linecap:butt;stroke-linejoin:miter;stroke-opacity:1"
         id="path4171"
         inkscape:connector-curvature="0" /><path
         d="m 38.26433,24.767013 2.004035,0 0,14.812001 -2.004035,0 0,-14.812001 z"
         style="font-style:normal;font-weight:normal;font-size:medium;line-height:125%;font-family:sans-serif;letter-spacing:0px;word-spacing:0px;fill:#b81c22;fill-opacity:1;stroke:none;stroke-width:1px;stroke-linecap:butt;stroke-linejoin:miter;stroke-opacity:1"
         id="path4173"
         inkscape:connector-curvature="0" /></g><g
       id="g4265"
       transform="translate(7.9110181,16.000001)"><rect
         rx="2.9031613"
         ry="2.7658353"
         y="31.412525"
         x="9.8185778"
         height="5.5408134"
         width="29.540812"
         id="rect4193"
         style="opacity:1;fill:#ffffff;fill-opacity:1;stroke:#b81c22;stroke-width:0.45918643;stroke-linecap:butt;stroke-linejoin:miter;stroke-miterlimit:4;stroke-dasharray:none;stroke-dashoffset:0;stroke-opacity:1" /><g
         transform="matrix(0.97780989,0,0,0.65768955,12.538705,8.2539826)"
         id="g4384"><rect
           style="fill:#6d6d6d;stroke:#424444;stroke-width:0.50192201;stroke-miterlimit:10"
           x="-0.20817044"
           y="37.111542"
           class="st3"
           width="25.063829"
           height="4.625514"
           id="rect13" /><g
           id="g4358"
           transform="translate(22.28581,-16.422629)"><rect
             style="fill:#ffd469"
             x="-19.697159"
             y="52.028191"
             class="st4"
             width="0.86056072"
             height="2.474112"
             id="rect17" /><rect
             style="fill:#ffd469"
             x="-18.005375"
             y="52.028191"
             class="st4"
             width="0.86056072"
             height="2.474112"
             id="rect19" /><rect
             style="fill:#ffd469"
             x="-16.313591"
             y="52.028191"
             class="st4"
             width="0.86056072"
             height="2.474112"
             id="rect21" /><rect
             style="fill:#ffd469"
             x="-14.621806"
             y="52.028191"
             class="st4"
             width="0.86056072"
             height="2.474112"
             id="rect23" /><rect
             style="fill:#ffd469"
             x="-12.930022"
             y="52.028191"
             class="st4"
             width="0.86056072"
             height="2.474112"
             id="rect25" /><rect
             style="fill:#ffd469"
             x="-11.238237"
             y="52.028191"
             class="st4"
             width="0.86056072"
             height="2.474112"
             id="rect27" /><rect
             style="fill:#ffd469"
             x="-9.5464535"
             y="52.028191"
             class="st4"
             width="0.86056072"
             height="2.474112"
             id="rect29" /><rect
             style="fill:#ffd469"
             x="-7.85467"
             y="52.028191"
             class="st4"
             width="0.86056072"
             height="2.474112"
             id="rect31" /><rect
             style="fill:#ffd469"
             x="-6.1628861"
             y="52.028191"
             class="st4"
             width="0.86056072"
             height="2.474112"
             id="rect33" /><rect
             style="fill:#ffd469"
             x="-4.4711022"
             y="52.028191"
             class="st4"
             width="0.86056072"
             height="2.474112"
             id="rect35" /><rect
             style="fill:#ffd469"
             x="-2.7793174"
             y="52.028191"
             class="st4"
             width="0.86056072"
             height="2.474112"
             id="rect37" /><rect
             style="fill:#ffd469"
             x="-1.0875337"
             y="52.028191"
             class="st4"
             width="0.86056072"
             height="2.474112"
             id="rect39" /><rect
             style="fill:#ffd469"
             x="-19.697159"
             y="57.191555"
             class="st4"
             width="0.86056072"
             height="2.474112"
             id="rect43" /><rect
             style="fill:#ffd469"
             x="-18.005375"
             y="57.191555"
             class="st4"
             width="0.86056072"
             height="2.474112"
             id="rect45" /><rect
             style="fill:#ffd469"
             x="-16.313591"
             y="57.191555"
             class="st4"
             width="0.86056072"
             height="2.474112"
             id="rect47" /><rect
             style="fill:#ffd469"
             x="-14.621806"
             y="57.191555"
             class="st4"
             width="0.86056072"
             height="2.474112"
             id="rect49" /><rect
             style="fill:#ffd469"
             x="-12.930022"
             y="57.191555"
             class="st4"
             width="0.86056072"
             height="2.474112"
             id="rect51" /><rect
             style="fill:#ffd469"
             x="-11.238237"
             y="57.191555"
             class="st4"
             width="0.86056072"
             height="2.474112"
             id="rect53" /><rect
             style="fill:#ffd469"
             x="-9.5464535"
             y="57.191555"
             class="st4"
             width="0.86056072"
             height="2.474112"
             id="rect55" /><rect
             style="fill:#ffd469"
             x="-7.85467"
             y="57.191555"
             class="st4"
             width="0.86056072"
             height="2.474112"
             id="rect57" /><rect
             style="fill:#ffd469"
             x="-6.1628861"
             y="57.191555"
             class="st4"
             width="0.86056072"
             height="2.474112"
             id="rect59" /><rect
             style="fill:#ffd469"
             x="-4.4711022"
             y="57.191555"
             class="st4"
             width="0.86056072"
             height="2.474112"
             id="rect61" /><rect
             style="fill:#ffd469"
             x="-2.7793174"
             y="57.191555"
             class="st4"
             width="0.86056072"
             height="2.474112"
             id="rect63" /><rect
             style="fill:#ffd469"
             x="-1.0875337"
             y="57.191555"
             class="st4"
             width="0.86056072"
             height="2.474112"
             id="rect65" /></g></g></g></g></svg>