<?xml version="1.0" encoding="UTF-8" standalone="no"?>
<!-- Created with Inkscape (http://www.inkscape.org/) -->
<svg xmlns:dc="http://purl.org/dc/elements/1.1/" xmlns:cc="http://web.resource.org/cc/" xmlns:rdf="http://www.w3.org/1999/02/22-rdf-syntax-ns#" xmlns:svg="http://www.w3.org/2000/svg" xmlns="http://www.w3.org/2000/svg" xmlns:sodipodi="http://sodipodi.sourceforge.net/DTD/sodipodi-0.dtd" xmlns:inkscape="http://www.inkscape.org/namespaces/inkscape" sodipodi:docname="disketa2.svg" sodipodi:docbase="J:\INKSCAPE\kliparty\svg\14.Vypocetni technika" inkscape:version="0.44.1" sodipodi:version="0.32" id="svg2" height="509.57843" width="489.27731" version="1.0">
  <defs id="defs3"/>
  <sodipodi:namedview inkscape:window-y="0" inkscape:window-x="0" inkscape:window-height="693" inkscape:window-width="1016" inkscape:current-layer="layer1" inkscape:document-units="px" inkscape:cy="365.1395" inkscape:cx="487.83642" inkscape:zoom="0.50742986" inkscape:pageshadow="2" inkscape:pageopacity="0.0" borderopacity="1.0" bordercolor="#666666" pagecolor="#ffffff" id="base"/>
  <metadata id="metadata4">
    <rdf:RDF>
      <cc:Work rdf:about="">
        <dc:format>image/svg+xml</dc:format>
        <dc:type rdf:resource="http://purl.org/dc/dcmitype/StillImage"/>
        <dc:title>disketa</dc:title>
        <dc:creator>
          <cc:Agent>
            <dc:title>Kamil Bartos</dc:title>
          </cc:Agent>
        </dc:creator>
        <dc:publisher>
          <cc:Agent>
            <dc:title>ZS a MS Machovo nam.</dc:title>
          </cc:Agent>
        </dc:publisher>
        <dc:language>cz</dc:language>
        <dc:subject>
          <rdf:Bag>
            <rdf:li>disketa</rdf:li>
            <rdf:li>floppy diskette</rdf:li>
          </rdf:Bag>
        </dc:subject>
        <cc:license rdf:resource="http://web.resource.org/cc/PublicDomain"/>
      </cc:Work>
      <cc:License rdf:about="http://web.resource.org/cc/PublicDomain">
        <cc:permits rdf:resource="http://web.resource.org/cc/Reproduction"/>
        <cc:permits rdf:resource="http://web.resource.org/cc/Distribution"/>
        <cc:permits rdf:resource="http://web.resource.org/cc/DerivativeWorks"/>
      </cc:License>
    </rdf:RDF>
  </metadata>
  <g id="layer1" inkscape:groupmode="layer" inkscape:label="Layer 1" transform="translate(-159.3686,-280.6677)">
    <g transform="matrix(0.893689,-1.461379,1.5605,1.091973,-1200.275,470.2771)" id="g5987">
      <path id="path5216" d="M 406.73656,737.85154 L 406.73656,638.35154 L 506.73656,638.35154 L 606.73656,638.35154 L 606.73656,737.85154 L 606.73656,837.35154 L 506.73656,837.35154 L 406.73656,837.35154 L 406.73656,737.85154 z " style="fill:#fefefe"/>
      <path id="path5214" d="M 483.23656,806.84219 C 438.73776,788.12255 410.37715,775.66348 408.98656,774.22351 C 407.61395,772.80215 406.73656,770.6543 406.73656,768.7155 C 406.73656,765.77545 460.24668,642.44142 462.49981,640.18829 C 462.99996,639.68814 464.94534,639.03013 466.82287,638.72604 C 469.49641,638.29304 473.92249,639.6175 487.23656,644.83466 C 527.58817,660.64656 576.44787,680.68493 578.95454,682.4501 C 580.44943,683.50278 586.74943,686.4357 592.95454,688.96769 C 599.15965,691.49968 604.79906,694.02696 605.48656,694.58387 C 608.38915,696.93511 606.36377,705.48488 588.32407,767.03228 C 578.1972,801.58287 569.5788,830.75154 569.17207,831.85154 C 567.57764,836.16368 565.6223,837.35578 560.33157,837.24125 C 556.03255,837.1482 543.98804,832.39897 483.23656,806.84219 z " style="fill:#cacaca"/>
      <path id="path5212" d="M 484.23656,806.83756 C 444.63656,790.17416 411.24322,775.8164 410.02914,774.93143 C 404.73803,771.07465 404.68327,771.23671 433.03345,706.85154 C 447.56406,673.85154 460.32831,645.30244 461.39845,643.4091 C 464.37228,638.14766 467.62777,637.74224 477.23656,641.43672 C 495.03108,648.27852 503.0955,651.94198 503.48195,653.35931 C 503.77064,654.4181 503.63993,654.50174 503.03193,653.64727 C 502.46883,652.85587 500.74653,655.77008 498.00844,662.14727 C 488.14243,685.12581 484.74053,693.38777 484.85326,694.09639 C 484.91934,694.51172 484.88568,695.07654 484.77847,695.35154 C 484.02982,697.27183 484.05987,699.43332 484.84194,699.91667 C 485.35192,700.23186 485.46732,700.97817 485.09836,701.57515 C 484.68832,702.23861 484.89523,702.37151 485.63061,701.91702 C 486.55816,701.34376 486.53629,700.7931 485.53512,699.51251 C 484.3752,698.02887 484.42222,697.99709 485.97555,699.21485 C 486.93199,699.96467 487.49945,700.92618 487.23656,701.35154 C 486.97367,701.7769 487.42863,702.68102 488.24757,703.36068 C 489.06652,704.04034 489.73656,704.26123 489.73656,703.85154 C 489.73656,703.44185 490.36565,703.62875 491.13453,704.26686 C 492.77227,705.62607 497.0139,706.6093 496.30726,705.46593 C 496.04176,705.03635 496.54148,704.68487 497.41775,704.68487 C 498.29402,704.68487 499.23666,705.54791 499.5125,706.60274 C 499.89951,708.08268 500.2072,708.21588 500.85999,707.18607 C 501.50215,706.17302 501.70962,706.28732 501.72125,707.66056 C 501.72967,708.65552 502.1939,709.18692 502.75287,708.84146 C 503.31184,708.496 503.45046,707.68194 503.06091,707.03244 C 502.65743,706.3597 503.08072,706.44213 504.0446,707.22398 C 505.96191,708.77922 506.33351,709.83851 504.58205,708.75605 C 503.85012,708.30369 503.6997,708.48288 504.17108,709.24559 C 504.74973,710.18187 505.23873,710.17966 506.3762,709.23565 C 507.57072,708.24429 507.94068,708.41609 508.40086,710.17584 C 508.71056,711.3601 509.37012,712.07801 509.86656,711.77119 C 510.363,711.46438 510.45046,710.68194 510.06091,710.03244 C 509.67136,709.38295 510.18319,709.52654 511.1983,710.35154 C 512.21341,711.17654 513.30367,711.85154 513.6211,711.85154 C 513.93853,711.85154 514.20687,712.4878 514.21741,713.26545 C 514.22794,714.0431 514.79906,714.8681 515.48656,715.09879 C 516.17406,715.32947 516.73656,715.00415 516.73656,714.37586 C 516.73656,713.74756 516.29171,713.50844 515.74801,713.84446 C 515.15694,714.20976 515.02969,713.75123 515.43153,712.70404 C 515.84836,711.61782 516.25623,711.41056 516.50549,712.15833 C 516.72653,712.82145 517.31379,713.11283 517.81052,712.80583 C 518.30724,712.49884 518.47333,712.87394 518.1796,713.63939 C 517.88587,714.40484 518.34102,715.60831 519.19105,716.31377 C 520.48085,717.38421 520.73656,717.31822 520.73656,715.91497 C 520.73656,714.99016 520.29171,714.50844 519.74801,714.84446 C 519.17026,715.20154 519.02031,714.77567 519.38718,713.81963 C 519.88956,712.51046 520.18371,712.45017 520.86041,713.51769 C 521.53951,714.589 521.71592,714.5563 521.75668,713.35154 C 521.78912,712.39275 522.26441,712.67468 523.07396,714.1329 C 523.77056,715.38765 524.65071,716.10406 525.02985,715.72491 C 525.409,715.34577 525.248,714.46779 524.67208,713.77384 C 523.88757,712.82857 524.07785,712.58518 525.43075,712.80341 C 526.42395,712.96361 527.88544,712.58998 528.67852,711.97312 C 529.82904,711.07822 529.95097,711.15471 529.28181,712.35154 C 528.71326,713.36844 528.7728,713.52947 529.46669,712.85154 C 530.02964,712.30154 531.94567,708.02654 533.72453,703.35154 C 539.69672,687.65607 541.96384,681.86501 543.02233,679.60154 C 544.29059,676.8895 547.52899,676.67572 552.03622,679.0065 C 553.79641,679.91673 555.23656,680.56009 555.23656,680.4362 C 555.23656,680.31231 556.58656,680.73726 558.23656,681.38054 C 559.88656,682.02381 561.91156,682.67083 562.73656,682.81834 C 564.96139,683.21616 564.37791,689.48458 561.29067,698.35154 C 559.85446,702.47654 558.50374,706.52654 558.28908,707.35154 C 558.07442,708.17654 557.22826,710.42654 556.40871,712.35154 C 555.58917,714.27654 554.9093,716.07654 554.8979,716.35154 C 554.85148,717.4707 552.62721,723.02158 551.22971,725.50583 C 549.53441,728.51948 549.32303,729.72515 550.63178,728.9163 C 551.12414,728.612 551.76277,728.97746 552.05095,729.72843 C 552.4064,730.65473 554.05957,731.0273 557.1915,730.88693 C 562.39114,730.65388 564.10598,729.5673 562.74627,727.36725 C 562.01197,726.17913 561.65114,726.37114 560.8513,728.37561 C 560.11612,730.21804 559.84711,730.38868 559.79995,729.04252 C 559.76508,728.04756 559.27922,727.51616 558.72025,727.86162 C 558.16128,728.20709 557.93842,728.86914 558.22501,729.33285 C 558.84189,730.33098 556.76752,730.127 554.98656,729.0144 C 554.22778,728.54038 553.72461,728.74792 553.70615,729.54252 C 553.68779,730.33311 553.26371,730.14354 552.63538,729.06386 C 552.06318,728.08064 551.81633,726.73064 552.08684,726.06386 C 552.38733,725.32318 552.60938,725.47227 552.65761,726.44711 C 552.71298,727.56613 553.55791,727.9691 555.48656,727.7963 C 556.99906,727.6608 558.34906,727.44904 558.48656,727.32573 C 558.62406,727.20243 559.20297,727.04529 559.77303,726.97654 C 560.3431,726.90779 561.18047,726.25131 561.63387,725.51769 C 562.27941,724.47318 562.62287,724.58164 563.2172,726.01769 C 563.87868,727.61599 564.14156,727.4662 565.26381,724.85154 C 566.09673,722.91098 566.21385,721.44155 565.59545,720.69057 C 564.97142,719.93275 565.05722,719.2714 565.84251,718.78606 C 566.6559,718.28336 566.78354,718.46651 566.23656,719.35154 C 565.68958,720.23657 565.81722,720.41972 566.63061,719.91702 C 567.34932,719.47284 567.48747,718.70607 566.97377,718.01251 C 566.19305,716.95846 566.08969,715.14529 566.73656,713.85154 C 566.87406,713.57654 567.04281,712.93904 567.11156,712.43487 C 567.18031,711.93071 567.54029,711.21447 567.91152,710.84324 C 568.28276,710.47201 568.42969,710.99701 568.23804,712.00991 C 568.04639,713.02281 567.82072,713.85154 567.73656,713.85154 C 567.6524,713.85154 567.42673,714.68027 567.23508,715.69317 C 567.04343,716.70607 567.19036,717.23107 567.5616,716.85984 C 567.93283,716.48861 568.29281,715.77237 568.36156,715.26821 C 568.43031,714.76404 568.57724,714.23904 568.68807,714.10154 C 568.7989,713.96404 569.04841,713.00901 569.24254,711.97925 C 569.43666,710.94949 570.52473,707.94688 571.66047,705.30679 C 572.7962,702.6667 573.9195,699.45923 574.15669,698.17908 C 574.39388,696.89893 574.66372,695.85154 574.75635,695.85154 C 574.84897,695.85154 575.07282,693.65863 575.2538,690.9784 C 575.43477,688.29817 576.05672,685.63138 576.63591,685.05219 C 577.37333,684.31477 577.3266,683.5274 576.48,682.42533 C 575.38019,680.99365 575.45006,680.99363 577.25379,682.42514 C 578.34431,683.29062 585.08656,686.40826 592.23656,689.35323 C 599.38656,692.29821 605.56717,695.19008 605.97125,695.77963 C 606.37533,696.36918 606.71283,698.05606 606.72125,699.52825 C 606.74144,703.0576 569.05828,832.19087 567.15879,835.10154 C 563.85785,840.15971 561.58208,839.38402 484.23656,806.83756 z M 563.12957,822.76975 C 564.32474,819.6552 563.67855,818.65074 559.71599,817.46352 C 555.23714,816.12163 553.73656,816.58341 553.73656,819.3036 C 553.73656,820.47974 555.08174,821.69559 557.48656,822.69306 C 562.24687,824.66754 562.40052,824.66963 563.12957,822.76975 z M 543.95614,813.10154 C 545.30385,812.04985 556.77219,778.48335 557.12187,774.56699 C 557.19216,773.77971 537.05672,764.85752 505.10821,751.51928 L 452.97987,729.75613 L 445.85821,747.45923 C 441.9413,757.19594 438.73656,766.50505 438.73656,768.14615 C 438.73656,769.78725 439.52406,772.09646 440.48656,773.27773 C 442.88735,776.22419 533.97758,814.2369 538.79543,814.30283 C 540.75281,814.32962 543.07513,813.78904 543.95614,813.10154 z M 492.31292,785.53851 C 467.05492,774.71068 446.18217,765.2208 445.92904,764.4499 C 445.59893,763.44456 446.06619,763.20448 447.58162,763.60077 C 453.68752,765.1975 540.70844,803.03757 540.72137,804.10154 C 540.72973,804.78904 540.17406,805.32318 539.48656,805.28851 C 538.79906,805.25384 517.57092,796.36634 492.31292,785.53851 z M 495.37696,777.84727 C 470.15418,767.18739 449.25918,758.20749 448.94362,757.89194 C 448.62807,757.57639 448.78989,756.91402 449.30323,756.42002 C 450.5181,755.2509 543.68689,794.4098 543.71546,796.10154 C 543.72706,796.78904 543.17406,797.32394 542.48656,797.2902 C 541.79906,797.25647 520.59974,788.50715 495.37696,777.84727 z M 498.48656,770.01758 C 472.114,758.65672 451.73656,749.32774 451.73656,748.615 C 451.73656,747.9201 452.02781,747.35154 452.38379,747.35154 C 453.51221,747.35154 545.19301,786.57564 546.18656,787.48348 C 546.78656,788.03173 546.78656,788.68407 546.18656,789.25411 C 545.61115,789.8008 526.80269,782.21569 498.48656,770.01758 z M 500.95181,761.62152 C 473.96585,750.21633 454.83792,741.59959 455.07681,740.95577 C 455.30218,740.34845 456.10531,739.9918 456.86156,740.16322 C 461.93341,741.3129 549.73656,779.05 549.73656,780.08017 C 549.73656,780.77942 549.17406,781.31362 548.48656,781.26728 C 547.79906,781.22094 526.40842,772.38035 500.95181,761.62152 z M 427.52105,764.22033 C 427.93174,762.10475 420.7267,758.76187 419.59664,760.54369 C 418.23961,762.68339 418.57497,763.27537 421.98656,764.76246 C 425.75053,766.40314 427.12341,766.26867 427.52105,764.22033 z M 547.77858,724.18448 C 546.54089,723.18226 545.12511,722.61141 544.6324,722.91592 C 544.13969,723.22043 543.73656,722.99302 543.73656,722.41056 C 543.73656,721.8281 543.23146,721.35154 542.61412,721.35154 C 541.84652,721.35154 541.89157,721.83339 542.75662,722.87571 C 543.45234,723.714 543.73244,724.689 543.37906,725.04237 C 543.02569,725.39575 542.73656,725.13332 542.73656,724.45919 C 542.73656,723.78506 542.21703,723.55459 541.58205,723.94703 C 540.92702,724.35186 540.69685,724.22482 541.05002,723.65337 C 541.39238,723.09942 541.03212,721.79239 540.24944,720.74886 C 538.93067,718.99058 538.86419,719.06974 539.34228,721.82901 C 539.93364,725.24204 538.89983,724.79562 538.23656,721.35154 C 537.99606,720.1027 537.49865,718.80431 537.13121,718.46623 C 536.76378,718.12815 536.68466,719.07542 536.9554,720.57128 C 537.22613,722.06713 537.06265,723.05308 536.5921,722.76226 C 536.12155,722.47145 535.73656,721.33351 535.73656,720.23351 C 535.73656,719.13351 535.30621,718.49947 534.78023,718.82455 C 534.25425,719.14962 534.0717,720.18868 534.37457,721.13356 C 534.81362,722.50336 534.72219,722.56592 533.92341,721.44222 C 533.37242,720.6671 533.13564,719.47512 533.39725,718.79337 C 533.65886,718.11163 533.44848,717.29153 532.92973,716.97093 C 531.43154,716.04499 531.83662,721.1897 533.36156,722.45528 C 534.11781,723.08291 534.73656,723.30596 534.73656,722.95093 C 534.73656,722.59591 535.78498,722.99239 537.06639,723.832 C 538.34779,724.6716 539.69779,725.05698 540.06639,724.68838 C 540.43498,724.31979 540.73656,724.56976 540.73656,725.24389 C 540.73656,725.91802 541.15547,726.21068 541.66746,725.89424 C 542.17946,725.57781 542.88555,725.7836 543.23656,726.35154 C 543.58757,726.91948 544.29366,727.12527 544.80566,726.80884 C 545.31765,726.4924 545.73656,726.73662 545.73656,727.35154 C 545.73656,727.96646 546.16691,728.20361 546.69289,727.87853 C 547.21887,727.55346 547.40142,726.5144 547.09855,725.56952 C 546.6595,724.19972 546.75093,724.13717 547.54971,725.26086 C 548.1007,726.03598 548.33418,727.38598 548.06853,728.26086 C 547.76419,729.26319 548.03742,729.14049 548.80724,727.92912 C 549.84282,726.29954 549.68613,725.72912 547.77858,724.18448 z M 544.30085,725.05841 C 544.67638,724.07219 545.23554,723.51719 545.54343,723.82508 C 545.85132,724.13297 545.54407,724.93987 544.86065,725.61821 C 543.87303,726.59847 543.75817,726.48361 544.30085,725.05841 z M 530.22405,716.32734 C 529.47249,714.87398 528.17514,713.68487 527.34106,713.68487 C 526.50697,713.68487 526.02479,714.00888 526.26954,714.4049 C 526.51429,714.80091 526.08082,715.65087 525.30627,716.29368 C 524.20004,717.21178 523.65832,717.07522 522.78045,715.65699 C 521.73567,713.9691 521.68247,713.98177 521.96342,715.85154 C 522.12871,716.95154 522.93279,717.85154 523.75026,717.85154 C 524.56772,717.85154 525.60172,718.4235 526.04802,719.12257 C 526.49432,719.82164 527.25073,720.1518 527.72892,719.85626 C 528.20711,719.56072 528.91071,719.8243 529.29246,720.44199 C 530.73092,722.76947 531.59099,718.97072 530.22405,716.32734 z M 526.43153,717.99904 C 526.06005,717.03096 526.16774,716.49999 526.67233,716.81184 C 527.17441,717.12215 527.73175,716.70135 527.91088,715.87675 C 528.13145,714.86133 528.62071,715.20363 529.42689,716.93743 C 530.41339,719.05902 530.38723,719.30651 529.27413,718.38272 C 528.27573,717.55413 527.82488,717.58659 527.51733,718.50924 C 527.2481,719.31692 526.86887,719.13872 526.43153,717.99904 z M 513.13355,712.51821 C 513.41682,712.05987 513.01317,711.68487 512.23656,711.68487 C 511.45995,711.68487 511.0563,712.05987 511.33957,712.51821 C 511.99111,713.57242 512.48201,713.57242 513.13355,712.51821 z M 578.02259,686.36574 C 578.31269,685.25641 578.19633,684.56739 577.76401,684.83458 C 577.33169,685.10176 576.74062,686.22801 576.45053,687.33734 C 576.16043,688.44667 576.27679,689.13569 576.70911,688.8685 C 577.14143,688.60132 577.7325,687.47507 578.02259,686.36574 z M 563.73656,723.91056 C 563.73656,723.11802 564.14459,722.2174 564.6433,721.90918 C 565.14201,721.60096 565.31452,722.2494 565.02667,723.35016 C 564.41606,725.68515 563.73656,725.98031 563.73656,723.91056 z M 570.07927,704.11259 C 570.1661,702.64478 570.61897,701.83554 571.09018,702.30619 C 571.56164,702.77708 571.49122,703.96752 570.9329,704.96519 C 570.06336,706.51897 569.94398,706.39973 570.07927,704.11259 z M 491.30085,702.64467 C 490.75817,701.21947 490.87303,701.10461 491.86065,702.08487 C 492.54407,702.76321 492.85132,703.57011 492.54343,703.878 C 492.23554,704.18589 491.67638,703.63089 491.30085,702.64467 z M 488.81551,701.93487 C 488.77209,700.88071 489.00844,700.29008 489.34073,700.62237 C 489.67302,700.95466 489.70854,701.81717 489.41967,702.53904 C 489.10045,703.33677 488.86349,703.09982 488.81551,701.93487 z M 572.08906,698.83348 C 572.35473,697.19341 572.66239,695.62654 572.77275,695.35154 C 572.88311,695.07654 572.90896,694.48059 572.8302,694.02721 C 572.75145,693.57383 573.1555,693.49242 573.7281,693.84631 C 574.30069,694.20019 574.43736,695.02114 574.0318,695.67064 C 573.62624,696.32013 573.15873,697.72421 572.99288,698.79082 C 572.82703,699.85742 572.44714,700.97429 572.14868,701.27276 C 571.85021,701.57122 571.82339,700.47354 572.08906,698.83348 z M 500.73656,697.36691 C 500.73656,696.75123 499.359,695.76728 497.6753,695.18034 C 495.52128,694.42944 494.79042,693.65357 495.20917,692.56231 C 495.53649,691.70933 495.31603,690.70967 494.71926,690.34085 C 493.30723,689.46817 495.52862,684.35154 497.31952,684.35154 C 498.01359,684.35154 499.10125,682.77654 499.73656,680.85154 C 500.99663,677.03348 502.73656,676.16352 502.73656,679.35154 C 502.73656,680.46265 503.40323,681.35154 504.23656,681.35154 C 505.06156,681.35154 505.76702,681.91404 505.80424,682.60154 C 505.84146,683.28904 506.36023,682.83904 506.95705,681.60154 C 508.71686,677.95263 509.73656,679.00077 509.73656,684.45853 C 509.73656,688.53772 509.44112,689.45215 508.26859,689.0022 C 507.4612,688.69238 506.55466,688.83684 506.25406,689.32322 C 505.95346,689.8096 506.61405,690.49527 507.72204,690.84693 C 510.38893,691.69337 510.27934,693.96313 507.48656,695.72436 C 504.11414,697.85113 500.73656,698.67303 500.73656,697.36691 z M 518.13622,661.9236 C 515.58446,660.81275 513.73656,658.67741 513.73656,656.83956 C 513.73656,656.4675 518.0902,657.6774 520.98656,658.85438 C 521.94906,659.24551 522.73656,660.41737 522.73656,661.45853 C 522.73656,663.67719 522.27227,663.72413 518.13622,661.9236 z M 526.73656,662.35154 C 525.83527,661.76908 525.71193,661.37605 526.42754,661.36685 C 527.08258,661.35843 527.89664,661.80154 528.23656,662.35154 C 529.00386,663.59307 528.65768,663.59307 526.73656,662.35154 z " style="fill:#432eb1;fill-opacity:1"/>
      <path id="path5210" d="M 484.23656,806.83756 C 444.63656,790.17416 411.24322,775.8164 410.02914,774.93143 C 404.73803,771.07465 404.68327,771.23671 433.03345,706.85154 C 447.56406,673.85154 460.32831,645.30244 461.39845,643.4091 C 464.37228,638.14766 467.62777,637.74224 477.23656,641.43672 C 495.03108,648.27852 503.0955,651.94198 503.48195,653.35931 C 503.77064,654.4181 503.63993,654.50174 503.03193,653.64727 C 502.46883,652.85587 500.74653,655.77008 498.00844,662.14727 C 488.14243,685.12581 484.74053,693.38777 484.85326,694.09639 C 484.91934,694.51172 484.88568,695.07654 484.77847,695.35154 C 484.02982,697.27183 484.05987,699.43332 484.84194,699.91667 C 485.35192,700.23186 485.46732,700.97817 485.09836,701.57515 C 484.68832,702.23861 484.89523,702.37151 485.63061,701.91702 C 486.55816,701.34376 486.53629,700.7931 485.53512,699.51251 C 484.3752,698.02887 484.42222,697.99709 485.97555,699.21485 C 486.93199,699.96467 487.49945,700.92618 487.23656,701.35154 C 486.97367,701.7769 487.42863,702.68102 488.24757,703.36068 C 489.06652,704.04034 489.73656,704.26123 489.73656,703.85154 C 489.73656,703.44185 490.36565,703.62875 491.13453,704.26686 C 492.77227,705.62607 497.0139,706.6093 496.30726,705.46593 C 496.04176,705.03635 496.54148,704.68487 497.41775,704.68487 C 498.29402,704.68487 499.23666,705.54791 499.5125,706.60274 C 499.89951,708.08268 500.2072,708.21588 500.85999,707.18607 C 501.50215,706.17302 501.70962,706.28732 501.72125,707.66056 C 501.72967,708.65552 502.1939,709.18692 502.75287,708.84146 C 503.31184,708.496 503.45046,707.68194 503.06091,707.03244 C 502.65743,706.3597 503.08072,706.44213 504.0446,707.22398 C 505.96191,708.77922 506.33351,709.83851 504.58205,708.75605 C 503.85012,708.30369 503.6997,708.48288 504.17108,709.24559 C 504.74973,710.18187 505.23873,710.17966 506.3762,709.23565 C 507.57072,708.24429 507.94068,708.41609 508.40086,710.17584 C 508.71056,711.3601 509.37012,712.07801 509.86656,711.77119 C 510.363,711.46438 510.45046,710.68194 510.06091,710.03244 C 509.67136,709.38295 510.18319,709.52654 511.1983,710.35154 C 512.21341,711.17654 513.30367,711.85154 513.6211,711.85154 C 513.93853,711.85154 514.20687,712.4878 514.21741,713.26545 C 514.22794,714.0431 514.79906,714.8681 515.48656,715.09879 C 516.17406,715.32947 516.73656,715.00415 516.73656,714.37586 C 516.73656,713.74756 516.29171,713.50844 515.74801,713.84446 C 515.15694,714.20976 515.02969,713.75123 515.43153,712.70404 C 515.84836,711.61782 516.25623,711.41056 516.50549,712.15833 C 516.72653,712.82145 517.31379,713.11283 517.81052,712.80583 C 518.30724,712.49884 518.47333,712.87394 518.1796,713.63939 C 517.88587,714.40484 518.34102,715.60831 519.19105,716.31377 C 520.48085,717.38421 520.73656,717.31822 520.73656,715.91497 C 520.73656,714.99016 520.29171,714.50844 519.74801,714.84446 C 519.17026,715.20154 519.02031,714.77567 519.38718,713.81963 C 519.88956,712.51046 520.18371,712.45017 520.86041,713.51769 C 521.53951,714.589 521.71592,714.5563 521.75668,713.35154 C 521.78912,712.39275 522.26441,712.67468 523.07396,714.1329 C 523.77056,715.38765 524.65071,716.10406 525.02985,715.72491 C 525.409,715.34577 525.248,714.46779 524.67208,713.77384 C 523.88757,712.82857 524.07785,712.58518 525.43075,712.80341 C 526.42395,712.96361 527.88544,712.58998 528.67852,711.97312 C 529.82904,711.07822 529.95097,711.15471 529.28181,712.35154 C 528.71326,713.36844 528.7728,713.52947 529.46669,712.85154 C 530.02964,712.30154 531.94567,708.02654 533.72453,703.35154 C 539.69672,687.65607 541.96384,681.86501 543.02233,679.60154 C 544.29059,676.8895 547.52899,676.67572 552.03622,679.0065 C 553.79641,679.91673 555.23656,680.56009 555.23656,680.4362 C 555.23656,680.31231 556.58656,680.73726 558.23656,681.38054 C 559.88656,682.02381 561.91156,682.67083 562.73656,682.81834 C 564.96139,683.21616 564.37791,689.48458 561.29067,698.35154 C 559.85446,702.47654 558.50374,706.52654 558.28908,707.35154 C 558.07442,708.17654 557.22826,710.42654 556.40871,712.35154 C 555.58917,714.27654 554.9093,716.07654 554.8979,716.35154 C 554.85148,717.4707 552.62721,723.02158 551.22971,725.50583 C 549.53441,728.51948 549.32303,729.72515 550.63178,728.9163 C 551.12414,728.612 551.76277,728.97746 552.05095,729.72843 C 552.4064,730.65473 554.05957,731.0273 557.1915,730.88693 C 562.39114,730.65388 564.10598,729.5673 562.74627,727.36725 C 562.01197,726.17913 561.65114,726.37114 560.8513,728.37561 C 560.11612,730.21804 559.84711,730.38868 559.79995,729.04252 C 559.76508,728.04756 559.27922,727.51616 558.72025,727.86162 C 558.16128,728.20709 557.93842,728.86914 558.22501,729.33285 C 558.84189,730.33098 556.76752,730.127 554.98656,729.0144 C 554.22778,728.54038 553.72461,728.74792 553.70615,729.54252 C 553.68779,730.33311 553.26371,730.14354 552.63538,729.06386 C 552.06318,728.08064 551.81633,726.73064 552.08684,726.06386 C 552.38733,725.32318 552.60938,725.47227 552.65761,726.44711 C 552.71298,727.56613 553.55791,727.9691 555.48656,727.7963 C 556.99906,727.6608 558.34906,727.44904 558.48656,727.32573 C 558.62406,727.20243 559.20297,727.04529 559.77303,726.97654 C 560.3431,726.90779 561.18047,726.25131 561.63387,725.51769 C 562.27941,724.47318 562.62287,724.58164 563.2172,726.01769 C 563.87868,727.61599 564.14156,727.4662 565.26381,724.85154 C 566.09673,722.91098 566.21385,721.44155 565.59545,720.69057 C 564.97142,719.93275 565.05722,719.2714 565.84251,718.78606 C 566.6559,718.28336 566.78354,718.46651 566.23656,719.35154 C 565.68958,720.23657 565.81722,720.41972 566.63061,719.91702 C 567.34932,719.47284 567.48747,718.70607 566.97377,718.01251 C 566.19305,716.95846 566.08969,715.14529 566.73656,713.85154 C 566.87406,713.57654 567.04281,712.93904 567.11156,712.43487 C 567.18031,711.93071 567.54029,711.21447 567.91152,710.84324 C 568.28276,710.47201 568.42969,710.99701 568.23804,712.00991 C 568.04639,713.02281 567.82072,713.85154 567.73656,713.85154 C 567.6524,713.85154 567.42673,714.68027 567.23508,715.69317 C 567.04343,716.70607 567.19036,717.23107 567.5616,716.85984 C 567.93283,716.48861 568.29281,715.77237 568.36156,715.26821 C 568.43031,714.76404 568.57724,714.23904 568.68807,714.10154 C 568.7989,713.96404 569.04841,713.00901 569.24254,711.97925 C 569.43666,710.94949 570.52473,707.94688 571.66047,705.30679 C 572.7962,702.6667 573.9195,699.45923 574.15669,698.17908 C 574.39388,696.89893 574.66372,695.85154 574.75635,695.85154 C 574.84897,695.85154 575.07282,693.65863 575.2538,690.9784 C 575.43477,688.29817 576.05672,685.63138 576.63591,685.05219 C 577.37333,684.31477 577.3266,683.5274 576.48,682.42533 C 575.38019,680.99365 575.45006,680.99363 577.25379,682.42514 C 578.34431,683.29062 585.08656,686.40826 592.23656,689.35323 C 599.38656,692.29821 605.56717,695.19008 605.97125,695.77963 C 606.37533,696.36918 606.71283,698.05606 606.72125,699.52825 C 606.74144,703.0576 569.05828,832.19087 567.15879,835.10154 C 563.85785,840.15971 561.58208,839.38402 484.23656,806.83756 z M 563.12957,822.76975 C 564.32474,819.6552 563.67855,818.65074 559.71599,817.46352 C 555.23714,816.12163 553.73656,816.58341 553.73656,819.3036 C 553.73656,820.47974 555.08174,821.69559 557.48656,822.69306 C 562.24687,824.66754 562.40052,824.66963 563.12957,822.76975 z M 543.96744,813.10154 C 544.85466,812.41404 547.69722,805.10154 550.28422,796.85154 C 552.87122,788.60154 556.95632,776.58166 559.36221,770.1407 C 564.41311,756.61862 564.69479,754.0255 561.35078,751.83442 C 557.57658,749.36147 466.17253,711.35154 463.99992,711.35154 C 462.92556,711.35154 461.29824,712.17839 460.38366,713.18899 C 457.98203,715.84277 438.73656,764.77283 438.73656,768.22502 C 438.73656,769.82274 439.52406,772.09646 440.48656,773.27773 C 442.88735,776.22419 533.97758,814.2369 538.79543,814.30283 C 540.75281,814.32962 543.08021,813.78904 543.96744,813.10154 z M 427.52105,764.22033 C 427.93174,762.10475 420.7267,758.76187 419.59664,760.54369 C 418.23961,762.68339 418.57497,763.27537 421.98656,764.76246 C 425.75053,766.40314 427.12341,766.26867 427.52105,764.22033 z M 547.77858,724.18448 C 546.54089,723.18226 545.12511,722.61141 544.6324,722.91592 C 544.13969,723.22043 543.73656,722.99302 543.73656,722.41056 C 543.73656,721.8281 543.23146,721.35154 542.61412,721.35154 C 541.84652,721.35154 541.89157,721.83339 542.75662,722.87571 C 543.45234,723.714 543.73244,724.689 543.37906,725.04237 C 543.02569,725.39575 542.73656,725.13332 542.73656,724.45919 C 542.73656,723.78506 542.21703,723.55459 541.58205,723.94703 C 540.92702,724.35186 540.69685,724.22482 541.05002,723.65337 C 541.39238,723.09942 541.03212,721.79239 540.24944,720.74886 C 538.93067,718.99058 538.86419,719.06974 539.34228,721.82901 C 539.93364,725.24204 538.89983,724.79562 538.23656,721.35154 C 537.99606,720.1027 537.49865,718.80431 537.13121,718.46623 C 536.76378,718.12815 536.68466,719.07542 536.9554,720.57128 C 537.22613,722.06713 537.06265,723.05308 536.5921,722.76226 C 536.12155,722.47145 535.73656,721.33351 535.73656,720.23351 C 535.73656,719.13351 535.30621,718.49947 534.78023,718.82455 C 534.25425,719.14962 534.0717,720.18868 534.37457,721.13356 C 534.81362,722.50336 534.72219,722.56592 533.92341,721.44222 C 533.37242,720.6671 533.13564,719.47512 533.39725,718.79337 C 533.65886,718.11163 533.44848,717.29153 532.92973,716.97093 C 531.43154,716.04499 531.83662,721.1897 533.36156,722.45528 C 534.11781,723.08291 534.73656,723.30596 534.73656,722.95093 C 534.73656,722.59591 535.78498,722.99239 537.06639,723.832 C 538.34779,724.6716 539.69779,725.05698 540.06639,724.68838 C 540.43498,724.31979 540.73656,724.56976 540.73656,725.24389 C 540.73656,725.91802 541.15547,726.21068 541.66746,725.89424 C 542.17946,725.57781 542.88555,725.7836 543.23656,726.35154 C 543.58757,726.91948 544.29366,727.12527 544.80566,726.80884 C 545.31765,726.4924 545.73656,726.73662 545.73656,727.35154 C 545.73656,727.96646 546.16691,728.20361 546.69289,727.87853 C 547.21887,727.55346 547.40142,726.5144 547.09855,725.56952 C 546.6595,724.19972 546.75093,724.13717 547.54971,725.26086 C 548.1007,726.03598 548.33418,727.38598 548.06853,728.26086 C 547.76419,729.26319 548.03742,729.14049 548.80724,727.92912 C 549.84282,726.29954 549.68613,725.72912 547.77858,724.18448 z M 544.30085,725.05841 C 544.67638,724.07219 545.23554,723.51719 545.54343,723.82508 C 545.85132,724.13297 545.54407,724.93987 544.86065,725.61821 C 543.87303,726.59847 543.75817,726.48361 544.30085,725.05841 z M 530.22405,716.32734 C 529.47249,714.87398 528.17514,713.68487 527.34106,713.68487 C 526.50697,713.68487 526.02479,714.00888 526.26954,714.4049 C 526.51429,714.80091 526.08082,715.65087 525.30627,716.29368 C 524.20004,717.21178 523.65832,717.07522 522.78045,715.65699 C 521.73567,713.9691 521.68247,713.98177 521.96342,715.85154 C 522.12871,716.95154 522.93279,717.85154 523.75026,717.85154 C 524.56772,717.85154 525.60172,718.4235 526.04802,719.12257 C 526.49432,719.82164 527.25073,720.1518 527.72892,719.85626 C 528.20711,719.56072 528.91071,719.8243 529.29246,720.44199 C 530.73092,722.76947 531.59099,718.97072 530.22405,716.32734 z M 526.43153,717.99904 C 526.06005,717.03096 526.16774,716.49999 526.67233,716.81184 C 527.17441,717.12215 527.73175,716.70135 527.91088,715.87675 C 528.13145,714.86133 528.62071,715.20363 529.42689,716.93743 C 530.41339,719.05902 530.38723,719.30651 529.27413,718.38272 C 528.27573,717.55413 527.82488,717.58659 527.51733,718.50924 C 527.2481,719.31692 526.86887,719.13872 526.43153,717.99904 z M 513.13355,712.51821 C 513.41682,712.05987 513.01317,711.68487 512.23656,711.68487 C 511.45995,711.68487 511.0563,712.05987 511.33957,712.51821 C 511.99111,713.57242 512.48201,713.57242 513.13355,712.51821 z M 578.02259,686.36574 C 578.31269,685.25641 578.19633,684.56739 577.76401,684.83458 C 577.33169,685.10176 576.74062,686.22801 576.45053,687.33734 C 576.16043,688.44667 576.27679,689.13569 576.70911,688.8685 C 577.14143,688.60132 577.7325,687.47507 578.02259,686.36574 z M 563.73656,723.91056 C 563.73656,723.11802 564.14459,722.2174 564.6433,721.90918 C 565.14201,721.60096 565.31452,722.2494 565.02667,723.35016 C 564.41606,725.68515 563.73656,725.98031 563.73656,723.91056 z M 570.07927,704.11259 C 570.1661,702.64478 570.61897,701.83554 571.09018,702.30619 C 571.56164,702.77708 571.49122,703.96752 570.9329,704.96519 C 570.06336,706.51897 569.94398,706.39973 570.07927,704.11259 z M 491.30085,702.64467 C 490.75817,701.21947 490.87303,701.10461 491.86065,702.08487 C 492.54407,702.76321 492.85132,703.57011 492.54343,703.878 C 492.23554,704.18589 491.67638,703.63089 491.30085,702.64467 z M 488.81551,701.93487 C 488.77209,700.88071 489.00844,700.29008 489.34073,700.62237 C 489.67302,700.95466 489.70854,701.81717 489.41967,702.53904 C 489.10045,703.33677 488.86349,703.09982 488.81551,701.93487 z M 572.08906,698.83348 C 572.35473,697.19341 572.66239,695.62654 572.77275,695.35154 C 572.88311,695.07654 572.90896,694.48059 572.8302,694.02721 C 572.75145,693.57383 573.1555,693.49242 573.7281,693.84631 C 574.30069,694.20019 574.43736,695.02114 574.0318,695.67064 C 573.62624,696.32013 573.15873,697.72421 572.99288,698.79082 C 572.82703,699.85742 572.44714,700.97429 572.14868,701.27276 C 571.85021,701.57122 571.82339,700.47354 572.08906,698.83348 z M 500.73656,697.36691 C 500.73656,696.75123 499.359,695.76728 497.6753,695.18034 C 495.52128,694.42944 494.79042,693.65357 495.20917,692.56231 C 495.53649,691.70933 495.31603,690.70967 494.71926,690.34085 C 493.30723,689.46817 495.52862,684.35154 497.31952,684.35154 C 498.01359,684.35154 499.10125,682.77654 499.73656,680.85154 C 500.99663,677.03348 502.73656,676.16352 502.73656,679.35154 C 502.73656,680.46265 503.40323,681.35154 504.23656,681.35154 C 505.06156,681.35154 505.76702,681.91404 505.80424,682.60154 C 505.84146,683.28904 506.36023,682.83904 506.95705,681.60154 C 508.71686,677.95263 509.73656,679.00077 509.73656,684.45853 C 509.73656,688.53772 509.44112,689.45215 508.26859,689.0022 C 507.4612,688.69238 506.55466,688.83684 506.25406,689.32322 C 505.95346,689.8096 506.61405,690.49527 507.72204,690.84693 C 510.38893,691.69337 510.27934,693.96313 507.48656,695.72436 C 504.11414,697.85113 500.73656,698.67303 500.73656,697.36691 z M 518.13622,661.9236 C 515.58446,660.81275 513.73656,658.67741 513.73656,656.83956 C 513.73656,656.4675 518.0902,657.6774 520.98656,658.85438 C 521.94906,659.24551 522.73656,660.41737 522.73656,661.45853 C 522.73656,663.67719 522.27227,663.72413 518.13622,661.9236 z M 526.73656,662.35154 C 525.83527,661.76908 525.71193,661.37605 526.42754,661.36685 C 527.08258,661.35843 527.89664,661.80154 528.23656,662.35154 C 529.00386,663.59307 528.65768,663.59307 526.73656,662.35154 z " style="fill:#646464"/>
      <path id="path5208" d="M 483.84751,806.25796 C 443.48353,789.26049 409.87301,774.56553 409.15747,773.6025 C 406.00133,769.35472 406.44046,768.10258 429.39384,715.90037 C 441.86187,687.54471 452.19402,664.47566 452.35418,664.63582 C 452.51433,664.79598 443.13582,687.57029 431.51303,715.24541 C 415.06907,754.40023 410.60905,765.92851 411.41005,767.20767 C 412.6949,769.25954 560.80577,832.09425 563.94597,831.91967 C 565.20579,831.84963 566.79906,831.44159 567.48656,831.01292 C 569.40825,829.81469 568.97089,831.78391 566.66398,834.71668 C 565.05931,836.75669 563.76118,837.3302 560.91398,837.257 C 558.4935,837.19477 532.15231,826.59936 483.84751,806.25796 z M 559.04274,816.70798 C 556.13481,815.67785 555.0178,814.78221 555.39973,813.78693 C 556.09685,811.97027 557.89413,811.97271 562.25851,813.79626 C 564.70367,814.81792 565.54144,815.69643 565.1194,816.79626 C 564.41807,818.62389 564.45251,818.62439 559.04274,816.70798 z M 424.48656,760.63716 C 420.8888,759.19851 419.67256,757.12716 421.69254,755.87874 C 422.83418,755.17318 429.74319,757.90261 429.72125,759.05051 C 429.67232,761.60984 428.10618,762.08455 424.48656,760.63716 z M 543.73656,730.05205 C 536.86156,727.12479 517.55836,718.90716 500.84057,711.79065 C 470.2336,698.76173 464.73656,695.63144 464.73656,691.23123 C 464.73656,689.54148 482.7429,646.01186 483.935,644.81976 C 484.42622,644.32855 498.78781,650.1507 500.09891,651.37258 C 500.57321,651.81459 497.05756,661.43982 492.28635,672.76196 C 481.98557,697.20591 481.49378,699.22881 485.15229,702.1066 C 489.21631,705.30335 553.27594,732.35154 556.78296,732.35154 C 558.47976,732.35154 560.73846,731.88571 561.8023,731.31636 C 563.81351,730.23999 564.27048,730.96272 562.92154,733.08648 C 560.97664,736.14849 556.3278,735.41319 543.73656,730.05205 z M 540.38649,719.32854 C 536.06895,717.19616 532.069,715.29569 531.4977,715.10525 C 530.17372,714.66393 543.68123,679.31 545.43026,678.63884 C 546.64334,678.17333 559.6664,682.45408 562.6535,684.3002 C 564.72679,685.58157 552.41237,723.38286 549.95564,723.27856 C 549.01014,723.23842 544.70403,721.46091 540.38649,719.32854 z M 501.26945,697.16265 C 500.88446,696.23376 499.30576,695.19619 497.7612,694.85695 C 495.66147,694.39577 495.07377,693.77807 495.43186,692.40871 C 495.69528,691.40141 495.44125,690.28706 494.86735,689.93237 C 493.31484,688.97287 494.693,686.3186 497.24811,685.34715 C 498.76444,684.77064 499.70482,683.33426 500.16225,680.89596 C 500.5337,678.91596 501.27222,677.56456 501.8034,677.89285 C 502.33458,678.22114 502.54071,678.85942 502.26146,679.31125 C 501.98221,679.76309 502.85904,680.857 504.20996,681.74216 C 507.24722,683.73224 507.73656,683.74742 507.73656,681.85154 C 507.73656,681.02654 508.18656,680.35154 508.73656,680.35154 C 509.28656,680.35154 509.73656,682.15154 509.73656,684.35154 C 509.73656,687.68487 509.40323,688.35154 507.73656,688.35154 C 505.09507,688.35154 505.2007,689.74199 507.98656,691.64269 C 510.22386,693.16912 510.22527,693.18656 508.23656,694.73286 C 507.13656,695.58815 505.48656,696.30224 504.56989,696.31974 C 503.65323,696.33723 502.69312,696.91404 502.43632,697.60154 C 502.11424,698.4638 501.75229,698.32766 501.26945,697.16265 z M 463.24933,663.37221 C 462.91644,662.83357 463.11327,661.51617 463.68673,660.44465 C 464.26019,659.37312 464.51031,657.90133 464.24255,657.17398 C 463.97479,656.44664 465.30951,654.05154 467.20859,651.85154 L 470.66147,647.85154 L 470.69901,653.60154 C 470.72045,656.88522 470.29702,659.35154 469.71181,659.35154 C 469.1482,659.35154 468.25933,660.47654 467.73656,661.85154 C 466.77892,664.37033 464.37061,665.18647 463.24933,663.37221 z M 517.98656,661.32038 C 515.69045,660.39746 514.87434,658.35154 516.8023,658.35154 C 518.51212,658.35154 521.73656,660.33497 521.73656,661.38672 C 521.73656,662.53838 520.98365,662.52506 517.98656,661.32038 z " style="fill:#303030"/>
      <rect transform="matrix(0.923084,0.384598,-0.388431,0.921478,0,0)" ry="5.2672529" rx="1.3772626" y="407.96738" x="716.38635" height="55.64838" width="85.325539" id="rect5981" style="fill:#cacaca;fill-opacity:1;fill-rule:evenodd;stroke:black;stroke-width:0.25963831;stroke-linejoin:round;stroke-miterlimit:4;stroke-opacity:1"/>
      <path id="path5983" d="M 546.95127,675.41869 L 566.46036,682.38622 L 553.91881,722.79791 L 531.6227,713.04337 L 546.95127,675.41869 z " style="fill:black;fill-opacity:1;fill-rule:evenodd;stroke:black;stroke-width:1px;stroke-linecap:butt;stroke-linejoin:miter;stroke-opacity:1"/>
      <path transform="translate(-4.180519,-2.787013)" d="M 523.95843 688.30865 A 10.799675 12.193181 0 1 1  502.35908,688.30865 A 10.799675 12.193181 0 1 1  523.95843 688.30865 z" sodipodi:ry="12.193181" sodipodi:rx="10.799675" sodipodi:cy="688.30865" sodipodi:cx="513.15875" id="path5985" style="fill:black;fill-opacity:1;fill-rule:evenodd;stroke:black;stroke-width:0.29999998;stroke-linejoin:round;stroke-miterlimit:4;stroke-opacity:1" sodipodi:type="arc"/>
    </g>
  </g>
</svg>