<?xml version="1.0" encoding="UTF-8" standalone="no"?>
<!-- Created with Inkscape (http://www.inkscape.org/) -->

<svg
   xmlns:dc="http://purl.org/dc/elements/1.1/"
   xmlns:cc="http://creativecommons.org/ns#"
   xmlns:rdf="http://www.w3.org/1999/02/22-rdf-syntax-ns#"
   xmlns:svg="http://www.w3.org/2000/svg"
   xmlns="http://www.w3.org/2000/svg"
   xmlns:sodipodi="http://sodipodi.sourceforge.net/DTD/sodipodi-0.dtd"
   xmlns:inkscape="http://www.inkscape.org/namespaces/inkscape"
   width="50"
   height="50"
   viewBox="0 0 50.000001 50.000001"
   id="svg2"
   version="1.1"
   inkscape:version="0.91 r13725"
   sodipodi:docname="no_cpuform.svg">
  <defs
     id="defs4">
    <inkscape:perspective
       sodipodi:type="inkscape:persp3d"
       inkscape:vp_x="-9.3472975 : 68.489014 : 1"
       inkscape:vp_y="5913.7368 : 201.38274 : 0"
       inkscape:vp_z="-2.8297062 : -113.5145 : 1"
       inkscape:persp3d-origin="-55.369639 : -24.190931 : 1"
       id="perspective4136" />
    <inkscape:perspective
       sodipodi:type="inkscape:persp3d"
       inkscape:vp_x="16.139325 : -464.05781 : 1"
       inkscape:vp_y="1583.303 : 55.290159 : 0"
       inkscape:vp_z="17.8843 : -514.02733 : 1"
       inkscape:persp3d-origin="3.8176216 : -489.50333 : 1"
       id="perspective4136-0" />
  </defs>
  <sodipodi:namedview
     id="base"
     pagecolor="#ffffff"
     bordercolor="#666666"
     borderopacity="1.0"
     inkscape:pageopacity="0.0"
     inkscape:pageshadow="2"
     inkscape:zoom="8.0000002"
     inkscape:cx="59.426196"
     inkscape:cy="13.171501"
     inkscape:document-units="px"
     inkscape:current-layer="g4313"
     showgrid="false"
     units="px"
     inkscape:window-width="1855"
     inkscape:window-height="1056"
     inkscape:window-x="65"
     inkscape:window-y="24"
     inkscape:window-maximized="1" />
  <metadata
     id="metadata7">
    <rdf:RDF>
      <cc:Work
         rdf:about="">
        <dc:format>image/svg+xml</dc:format>
        <dc:type
           rdf:resource="http://purl.org/dc/dcmitype/StillImage" />
        <dc:title />
      </cc:Work>
    </rdf:RDF>
  </metadata>
  <g
     inkscape:label="Layer 1"
     inkscape:groupmode="layer"
     id="layer1"
     transform="translate(0,-1002.3622)">
    <g
       id="g4313"
       transform="translate(-4.331029,3.5355339)">
      <g
         id="g4169"
         transform="matrix(0.11081386,-0.05167335,0.05167335,0.11081386,11.653956,1028.9026)">
        <path
           style="clip-rule:evenodd;fill:#006600;fill-rule:evenodd"
           inkscape:connector-curvature="0"
           id="path3"
           d="m 241,-122 c 6.667,0 10,3.333 10,10 l 0,184 c 0,6.667 -3.333,10 -10,10 L 24.5,82 c -6.667,0 -10,-3.333 -10,-10 l 0,-184 c 0,-6.667 3.333,-10 10,-10 l 216.5,0 z" />
        <g
           transform="translate(0,-130)"
           id="g5">
          <path
             style="clip-rule:evenodd;fill:#c48400;fill-rule:evenodd"
             inkscape:connector-curvature="0"
             id="path7"
             d="m 230.7,12.7 c 2.166,-2.133 4.767,-3.2 7.8,-3.2 3.033,0 5.616,1.067 7.75,3.2 2.167,2.167 3.25,4.767 3.25,7.8 0,3.033 -1.083,5.617 -3.25,7.75 -2.134,2.167 -4.717,3.25 -7.75,3.25 -3.033,0 -5.634,-1.083 -7.8,-3.25 -2.134,-2.133 -3.2,-4.717 -3.2,-7.75 0,-3.033 1.066,-5.633 3.2,-7.8 z m 12.1,7.65 c 0,-1.2 -0.434,-2.233 -1.3,-3.1 -0.866,-0.867 -1.9,-1.3 -3.1,-1.3 -1.2,0 -2.233,0.433 -3.101,1.3 -0.866,0.867 -1.3,1.9 -1.3,3.1 0,1.2 0.434,2.233 1.3,3.1 0.867,0.867 1.9,1.3 3.101,1.3 1.199,0 2.233,-0.433 3.1,-1.3 0.867,-0.867 1.3,-1.9 1.3,-3.1 z m -15.3,178.9 c 0,-3.033 1.066,-5.634 3.2,-7.8 1.737,-1.711 3.754,-2.736 6.05,-3.075 0.566,-0.083 1.149,-0.125 1.75,-0.125 3.033,0 5.616,1.066 7.75,3.2 2.167,2.166 3.25,4.767 3.25,7.8 0,3.033 -1.083,5.616 -3.25,7.75 -2.134,2.167 -4.717,3.25 -7.75,3.25 -0.601,0 -1.184,-0.042 -1.75,-0.125 -2.296,-0.346 -4.313,-1.387 -6.05,-3.125 -2.134,-2.134 -3.2,-4.717 -3.2,-7.75 z m 14,-3.25 c -0.866,-0.866 -1.9,-1.3 -3.1,-1.3 -0.591,0 -1.141,0.108 -1.65,0.325 -0.526,0.209 -1.01,0.534 -1.45,0.975 -0.866,0.866 -1.3,1.9 -1.3,3.1 0,1.2 0.434,2.233 1.3,3.101 0.44,0.44 0.924,0.766 1.45,0.975 0.51,0.217 1.06,0.325 1.65,0.325 1.199,0 2.233,-0.434 3.1,-1.3 0.866,-0.867 1.3,-1.9 1.3,-3.101 0,-1.2 -0.434,-2.234 -1.3,-3.1 z M 37.7,20.5 c 0,3.033 -1.083,5.617 -3.25,7.75 -2.133,2.167 -4.717,3.25 -7.75,3.25 -3.034,0 -5.633,-1.083 -7.8,-3.25 -2.133,-2.133 -3.2,-4.717 -3.2,-7.75 0,-3.033 1.066,-5.633 3.2,-7.8 2.167,-2.133 4.767,-3.2 7.8,-3.2 3.033,0 5.617,1.067 7.75,3.2 2.167,2.167 3.25,4.767 3.25,7.8 z M 31,20.35 c 0,-1.2 -0.433,-2.233 -1.3,-3.1 -0.867,-0.867 -1.9,-1.3 -3.1,-1.3 -1.2,0 -2.233,0.433 -3.1,1.3 -0.867,0.867 -1.3,1.9 -1.3,3.1 0,1.2 0.433,2.233 1.3,3.1 0.867,0.867 1.9,1.3 3.1,1.3 1.2,0 2.233,-0.433 3.1,-1.3 0.867,-0.867 1.3,-1.9 1.3,-3.1 z m -11.6,171.6 c 2.167,-2.134 4.767,-3.2 7.8,-3.2 3.033,0 5.617,1.066 7.75,3.2 2.167,2.166 3.25,4.767 3.25,7.8 0,3.033 -1.083,5.616 -3.25,7.75 -2.133,2.167 -4.717,3.25 -7.75,3.25 -3.034,0 -5.633,-1.083 -7.8,-3.25 -2.133,-2.134 -3.2,-4.717 -3.2,-7.75 0,-3.033 1.067,-5.634 3.2,-7.8 z m 12.1,7.65 c 0,-1.199 -0.433,-2.233 -1.3,-3.1 -0.867,-0.867 -1.9,-1.3 -3.1,-1.3 -1.2,0 -2.233,0.434 -3.1,1.3 -0.867,0.866 -1.3,1.9 -1.3,3.1 0,1.2 0.433,2.233 1.3,3.101 0.867,0.866 1.9,1.3 3.1,1.3 1.2,0 2.233,-0.434 3.1,-1.3 0.867,-0.868 1.3,-1.901 1.3,-3.101 z" />
          <path
             style="clip-rule:evenodd;fill:#ffffff;fill-rule:evenodd"
             inkscape:connector-curvature="0"
             id="path9"
             d="m 242.8,20.35 c 0,1.2 -0.434,2.233 -1.3,3.1 -0.866,0.867 -1.9,1.3 -3.1,1.3 -1.2,0 -2.233,-0.433 -3.101,-1.3 -0.866,-0.867 -1.3,-1.9 -1.3,-3.1 0,-1.2 0.434,-2.233 1.3,-3.1 0.867,-0.867 1.9,-1.3 3.101,-1.3 1.199,0 2.233,0.433 3.1,1.3 0.867,0.867 1.3,1.9 1.3,3.1 z M 241.5,196 c 0.866,0.866 1.3,1.9 1.3,3.1 0,1.2 -0.434,2.233 -1.3,3.101 -0.866,0.866 -1.9,1.3 -3.1,1.3 -0.591,0 -1.141,-0.108 -1.65,-0.325 -0.526,-0.209 -1.01,-0.534 -1.45,-0.975 -0.866,-0.867 -1.3,-1.9 -1.3,-3.101 0,-1.199 0.434,-2.233 1.3,-3.1 0.44,-0.44 0.924,-0.766 1.45,-0.975 0.51,-0.217 1.06,-0.325 1.65,-0.325 1.2,0 2.234,0.434 3.1,1.3 z M 31,20.35 c 0,1.2 -0.433,2.233 -1.3,3.1 -0.867,0.867 -1.9,1.3 -3.1,1.3 -1.2,0 -2.233,-0.433 -3.1,-1.3 -0.867,-0.867 -1.3,-1.9 -1.3,-3.1 0,-1.2 0.433,-2.233 1.3,-3.1 0.867,-0.867 1.9,-1.3 3.1,-1.3 1.2,0 2.233,0.433 3.1,1.3 0.867,0.867 1.3,1.9 1.3,3.1 z m 0.5,179.25 c 0,1.2 -0.433,2.233 -1.3,3.101 -0.867,0.866 -1.9,1.3 -3.1,1.3 -1.2,0 -2.233,-0.434 -3.1,-1.3 -0.867,-0.867 -1.3,-1.9 -1.3,-3.101 0,-1.199 0.433,-2.233 1.3,-3.1 0.867,-0.867 1.9,-1.3 3.1,-1.3 1.2,0 2.233,0.434 3.1,1.3 0.867,0.866 1.3,1.9 1.3,3.1 z" />
        </g>
        <g
           transform="translate(0,-130)"
           id="g11">
          <path
             style="clip-rule:evenodd;fill:#333333;fill-rule:evenodd"
             inkscape:connector-curvature="0"
             id="path13"
             d="m 206.95,14.5 c 0.033,-1.5 0.783,-2.25 2.25,-2.25 l 4.8,0 c 1.467,0 2.217,0.75 2.25,2.25 0.033,-1.5 0.783,-2.25 2.25,-2.25 l 4.75,0 c 1.5,0 2.25,0.767 2.25,2.3 l 0,15.4 c 0,1.533 -0.75,2.3 -2.25,2.3 l -4.75,0 c -1.467,0 -2.217,-0.75 -2.25,-2.25 -0.033,1.5 -0.783,2.25 -2.25,2.25 l -4.8,0 c -1.467,0 -2.217,-0.75 -2.25,-2.25 -0.033,1.5 -0.783,2.25 -2.25,2.25 l -4.8,0 c -1.467,0 -2.217,-0.75 -2.25,-2.25 -0.034,1.5 -0.784,2.25 -2.25,2.25 l -4.75,0 c -1.467,0 -2.217,-0.75 -2.25,-2.25 -0.067,1.5 -0.817,2.25 -2.25,2.25 l -4.801,0 c -1.466,0 -2.216,-0.75 -2.25,-2.25 -0.033,1.5 -0.783,2.25 -2.25,2.25 l -4.8,0 c -1.467,0 -2.217,-0.75 -2.25,-2.25 -0.033,1.5 -0.783,2.25 -2.25,2.25 l -4.8,0 c -1.434,0 -2.184,-0.75 -2.25,-2.25 -0.033,1.5 -0.783,2.25 -2.25,2.25 l -4.75,0 c -1.467,0 -2.217,-0.75 -2.25,-2.25 -0.033,1.5 -0.783,2.25 -2.25,2.25 l -4.8,0 c -1.467,0 -2.217,-0.75 -2.25,-2.25 -0.034,1.5 -0.784,2.25 -2.25,2.25 l -4.8,0 c -1.467,0 -2.217,-0.75 -2.25,-2.25 -0.033,1.5 -0.783,2.25 -2.25,2.25 l -4.75,0 c -1.467,0 -2.217,-0.75 -2.25,-2.25 -0.066,1.5 -0.816,2.25 -2.25,2.25 l -4.8,0 c -1.467,0 -2.217,-0.75 -2.25,-2.25 -0.033,1.5 -0.783,2.25 -2.25,2.25 l -4.8,0 c -1.466,0 -2.216,-0.75 -2.25,-2.25 -0.033,1.5 -0.783,2.25 -2.25,2.25 l -4.749,0 c -1.466,0 -2.233,-0.75 -2.3,-2.25 -0.033,1.5 -0.783,2.25 -2.25,2.25 l -4.75,0 c -1.467,0 -2.217,-0.75 -2.25,-2.25 -0.033,1.5 -0.783,2.25 -2.25,2.25 l -4.8,0 c -1.467,0 -2.217,-0.75 -2.25,-2.25 -0.034,1.5 -0.784,2.25 -2.25,2.25 l -4.8,0 c -1.467,0 -2.217,-0.75 -2.25,-2.25 -0.033,1.5 -0.783,2.25 -2.25,2.25 l -4.75,0 c -1.467,0 -2.217,-0.75 -2.25,-2.25 -0.033,1.5 -0.783,2.25 -2.25,2.25 l -4.8,0 c -1.467,0 -2.217,-0.75 -2.25,-2.25 -0.033,1.5 -0.783,2.25 -2.25,2.25 l -4.8,0 c -1.5,0 -2.25,-0.767 -2.25,-2.3 l 0,-15.4 c 0,-1.533 0.75,-2.3 2.25,-2.3 l 4.8,0 c 1.467,0 2.217,0.75 2.25,2.25 0.033,-1.5 0.783,-2.25 2.25,-2.25 l 4.8,0 c 1.467,0 2.217,0.75 2.25,2.25 0.033,-1.5 0.783,-2.25 2.25,-2.25 l 4.75,0 c 1.467,0 2.217,0.75 2.25,2.25 0.033,-1.5 0.783,-2.25 2.25,-2.25 l 4.8,0 c 1.466,0 2.216,0.75 2.25,2.25 0.033,-1.5 0.783,-2.25 2.25,-2.25 l 4.8,0 c 1.467,0 2.217,0.75 2.25,2.25 0.033,-1.5 0.783,-2.25 2.25,-2.25 l 4.75,0 c 1.467,0 2.217,0.75 2.25,2.25 0.067,-1.5 0.833,-2.25 2.3,-2.25 l 4.75,0 c 1.467,0 2.217,0.75 2.25,2.25 0.034,-1.5 0.784,-2.25 2.25,-2.25 l 4.8,0 c 1.467,0 2.217,0.75 2.25,2.25 0.033,-1.5 0.783,-2.25 2.25,-2.25 l 4.8,0 c 1.434,0 2.184,0.75 2.25,2.25 0.033,-1.5 0.783,-2.25 2.25,-2.25 l 4.75,0 c 1.467,0 2.217,0.75 2.25,2.25 0.033,-1.5 0.783,-2.25 2.25,-2.25 l 4.8,0 c 1.466,0 2.216,0.75 2.25,2.25 0.033,-1.5 0.783,-2.25 2.25,-2.25 l 4.8,0 c 1.467,0 2.217,0.75 2.25,2.25 0.033,-1.5 0.783,-2.25 2.25,-2.25 l 4.75,0 c 1.467,0 2.217,0.75 2.25,2.25 0.066,-1.5 0.816,-2.25 2.25,-2.25 l 4.8,0 c 1.467,0 2.217,0.75 2.25,2.25 0.033,-1.5 0.783,-2.25 2.25,-2.25 l 4.8,0 c 1.467,0 2.217,0.75 2.25,2.25 0.034,-1.5 0.784,-2.25 2.25,-2.25 l 4.801,0 c 1.433,0 2.183,0.75 2.25,2.25 0.033,-1.5 0.783,-2.25 2.25,-2.25 l 4.75,0 c 1.466,0 2.216,0.75 2.25,2.25 0.033,-1.5 0.783,-2.25 2.25,-2.25 l 4.8,0 c 1.466,0 2.216,0.75 2.249,2.25 z m -6.85,2.4 0,2.4 c 0,0.8 0.367,1.2 1.101,1.2 l 2.35,0 c 0.767,0 1.15,-0.4 1.15,-1.2 l 0,-2.4 c 0,-0.767 -0.384,-1.15 -1.15,-1.15 l -2.35,0 c -0.734,0 -1.101,0.383 -1.101,1.15 z m -5.8,-1.15 -2.35,0 c -0.767,0 -1.15,0.383 -1.15,1.15 l 0,2.4 c 0,0.8 0.384,1.2 1.15,1.2 l 2.35,0 c 0.733,0 1.101,-0.4 1.101,-1.2 l 0,-2.4 C 195.4,16.133 195.033,15.75 194.3,15.75 Z m 1.1,9.6 c 0,-0.767 -0.367,-1.15 -1.101,-1.15 l -2.35,0 c -0.767,0 -1.15,0.383 -1.15,1.15 l 0,2.45 c 0,0.767 0.384,1.15 1.15,1.15 l 2.35,0 c 0.733,0 1.101,-0.383 1.101,-1.15 l 0,-2.45 z m 4.7,2.45 c 0,0.767 0.367,1.15 1.101,1.15 l 2.35,0 c 0.767,0 1.15,-0.383 1.15,-1.15 l 0,-2.45 c 0,-0.767 -0.384,-1.15 -1.15,-1.15 l -2.35,0 c -0.733,0 -1.101,0.383 -1.101,1.15 l 0,2.45 z m 10.4,-7.3 2.35,0 c 0.767,0 1.15,-0.4 1.15,-1.2 l 0,-2.4 c 0,-0.767 -0.384,-1.15 -1.15,-1.15 l -2.35,0 c -0.767,0 -1.15,0.383 -1.15,1.15 l 0,2.4 c 0,0.8 0.383,1.2 1.15,1.2 z m -1.15,7.3 c 0,0.767 0.384,1.15 1.15,1.15 l 2.35,0 c 0.767,0 1.15,-0.383 1.15,-1.15 l 0,-2.45 c 0,-0.767 -0.384,-1.15 -1.15,-1.15 l -2.35,0 c -0.767,0 -1.15,0.383 -1.15,1.15 l 0,2.45 z m 12.8,-12.05 -2.35,0 c -0.767,0 -1.149,0.383 -1.149,1.15 l 0,2.4 c 0,0.8 0.383,1.2 1.149,1.2 l 2.351,0 c 0.733,0 1.1,-0.4 1.1,-1.2 l 0,-2.4 c -0.001,-0.767 -0.367,-1.15 -1.101,-1.15 z m -3.5,12.05 c 0,0.767 0.383,1.15 1.149,1.15 l 2.351,0 c 0.733,0 1.1,-0.383 1.1,-1.15 l 0,-2.45 c 0,-0.767 -0.366,-1.15 -1.1,-1.15 l -2.35,0 c -0.767,0 -1.149,0.383 -1.149,1.15 l 0,2.45 z M 120,15.75 l -2.35,0 c -0.767,0 -1.15,0.383 -1.15,1.15 l 0,2.4 c 0,0.8 0.383,1.2 1.15,1.2 l 2.35,0 c 0.767,0 1.15,-0.4 1.15,-1.2 l 0,-2.4 c 0,-0.767 -0.383,-1.15 -1.15,-1.15 z m -3.5,12.05 c 0,0.767 0.383,1.15 1.15,1.15 l 2.35,0 c 0.767,0 1.15,-0.383 1.15,-1.15 l 0,-2.45 c 0,-0.767 -0.383,-1.15 -1.15,-1.15 l -2.35,0 c -0.767,0 -1.15,0.383 -1.15,1.15 l 0,2.45 z m 12.8,-12.05 -2.35,0 c -0.767,0 -1.15,0.383 -1.15,1.15 l 0,2.4 c 0,0.8 0.383,1.2 1.15,1.2 l 2.35,0 c 0.733,0 1.1,-0.4 1.1,-1.2 l 0,-2.4 c 0,-0.767 -0.367,-1.15 -1.1,-1.15 z m -3.5,12.05 c 0,0.767 0.383,1.15 1.15,1.15 l 2.35,0 c 0.733,0 1.1,-0.383 1.1,-1.15 l 0,-2.45 c 0,-0.767 -0.367,-1.15 -1.1,-1.15 l -2.35,0 c -0.767,0 -1.15,0.383 -1.15,1.15 l 0,2.45 z m 13.9,-10.9 c 0,-0.767 -0.367,-1.15 -1.1,-1.15 l -2.4,0 c -0.733,0 -1.1,0.383 -1.1,1.15 l 0,2.4 c 0,0.8 0.367,1.2 1.1,1.2 l 2.4,0 c 0.733,0 1.1,-0.4 1.1,-1.2 l 0,-2.4 z m -4.6,8.45 0,2.45 c 0,0.767 0.367,1.15 1.1,1.15 l 2.4,0 c 0.733,0 1.1,-0.383 1.1,-1.15 l 0,-2.45 c 0,-0.767 -0.367,-1.15 -1.1,-1.15 l -2.4,0 c -0.733,0 -1.1,0.383 -1.1,1.15 z M 149,16.9 c 0,-0.767 -0.384,-1.15 -1.15,-1.15 l -2.35,0 c -0.767,0 -1.15,0.383 -1.15,1.15 l 0,2.4 c 0,0.8 0.383,1.2 1.15,1.2 l 2.35,0 c 0.767,0 1.15,-0.4 1.15,-1.2 l 0,-2.4 z m -4.65,10.9 c 0,0.767 0.383,1.15 1.15,1.15 l 2.35,0 c 0.767,0 1.15,-0.383 1.15,-1.15 l 0,-2.45 c 0,-0.767 -0.384,-1.15 -1.15,-1.15 l -2.35,0 c -0.767,0 -1.15,0.383 -1.15,1.15 l 0,2.45 z m 18.6,-8.5 c 0,0.8 0.366,1.2 1.1,1.2 l 2.4,0 c 0.733,0 1.1,-0.4 1.1,-1.2 l 0,-2.4 c 0,-0.767 -0.366,-1.15 -1.1,-1.15 l -2.4,0 c -0.733,0 -1.1,0.383 -1.1,1.15 l 0,2.4 z m -9.3,-2.4 0,2.4 c 0,0.8 0.383,1.2 1.149,1.2 l 2.351,0 c 0.733,0 1.1,-0.4 1.1,-1.2 l 0,-2.4 c 0,-0.767 -0.366,-1.15 -1.1,-1.15 l -2.35,0 c -0.767,0 -1.15,0.383 -1.15,1.15 z m 0,8.45 0,2.45 c 0,0.767 0.383,1.15 1.149,1.15 l 2.351,0 c 0.733,0 1.1,-0.383 1.1,-1.15 l 0,-2.45 c 0,-0.767 -0.366,-1.15 -1.1,-1.15 l -2.35,0 c -0.767,0 -1.15,0.383 -1.15,1.15 z m 9.3,2.45 c 0,0.767 0.366,1.15 1.1,1.15 l 2.4,0 c 0.733,0 1.1,-0.383 1.1,-1.15 l 0,-2.45 c 0,-0.767 -0.366,-1.15 -1.1,-1.15 l -2.4,0 c -0.733,0 -1.1,0.383 -1.1,1.15 l 0,2.45 z m 9.3,-8.5 c 0,0.8 0.366,1.2 1.1,1.2 l 2.351,0 c 0.767,0 1.149,-0.4 1.149,-1.2 l 0,-2.4 c 0,-0.767 -0.383,-1.15 -1.149,-1.15 l -2.351,0 c -0.733,0 -1.1,0.383 -1.1,1.15 l 0,2.4 z m 0,8.5 c 0,0.767 0.366,1.15 1.1,1.15 l 2.351,0 c 0.767,0 1.149,-0.383 1.149,-1.15 l 0,-2.45 c 0,-0.767 -0.383,-1.15 -1.149,-1.15 l -2.351,0 c -0.733,0 -1.1,0.383 -1.1,1.15 l 0,2.45 z m 9.25,-10.9 0,2.4 c 0,0.8 0.384,1.2 1.15,1.2 l 2.35,0 c 0.767,0 1.15,-0.4 1.15,-1.2 l 0,-2.4 c 0,-0.767 -0.384,-1.15 -1.15,-1.15 l -2.35,0 c -0.766,0 -1.15,0.383 -1.15,1.15 z m 0,8.45 0,2.45 c 0,0.767 0.384,1.15 1.15,1.15 l 2.35,0 c 0.767,0 1.15,-0.383 1.15,-1.15 l 0,-2.45 c 0,-0.767 -0.384,-1.15 -1.15,-1.15 l -2.35,0 c -0.766,0 -1.15,0.383 -1.15,1.15 z M 51.5,19.3 c 0,0.8 0.383,1.2 1.15,1.2 l 2.35,0 c 0.767,0 1.15,-0.4 1.15,-1.2 l 0,-2.4 c 0,-0.767 -0.383,-1.15 -1.15,-1.15 l -2.35,0 c -0.767,0 -1.15,0.383 -1.15,1.15 l 0,2.4 z m -8.15,1.2 2.35,0 c 0.767,0 1.15,-0.4 1.15,-1.2 l 0,-2.4 c 0,-0.767 -0.383,-1.15 -1.15,-1.15 l -2.35,0 c -0.733,0 -1.1,0.383 -1.1,1.15 l 0,2.4 c 0,0.8 0.367,1.2 1.1,1.2 z m -1.1,4.85 0,2.45 c 0,0.767 0.367,1.15 1.1,1.15 l 2.35,0 c 0.767,0 1.15,-0.383 1.15,-1.15 l 0,-2.45 c 0,-0.767 -0.383,-1.15 -1.15,-1.15 l -2.35,0 c -0.733,0 -1.1,0.383 -1.1,1.15 z m 9.25,2.45 c 0,0.767 0.383,1.15 1.15,1.15 l 2.35,0 c 0.767,0 1.15,-0.383 1.15,-1.15 l 0,-2.45 C 56.15,24.583 55.767,24.2 55,24.2 l -2.35,0 c -0.767,0 -1.15,0.383 -1.15,1.15 l 0,2.45 z m 9.3,-10.9 0,2.4 c 0,0.8 0.383,1.2 1.15,1.2 l 2.35,0 c 0.733,0 1.1,-0.4 1.1,-1.2 l 0,-2.4 c 0,-0.767 -0.367,-1.15 -1.1,-1.15 l -2.35,0 c -0.767,0 -1.15,0.383 -1.15,1.15 z m 0,10.9 c 0,0.767 0.383,1.15 1.15,1.15 l 2.35,0 c 0.733,0 1.1,-0.383 1.1,-1.15 l 0,-2.45 c 0,-0.767 -0.367,-1.15 -1.1,-1.15 l -2.35,0 c -0.767,0 -1.15,0.383 -1.15,1.15 l 0,2.45 z m 9.3,-8.5 c 0,0.8 0.367,1.2 1.1,1.2 l 2.4,0 c 0.733,0 1.1,-0.4 1.1,-1.2 l 0,-2.4 c 0,-0.767 -0.367,-1.15 -1.1,-1.15 l -2.4,0 c -0.733,0 -1.1,0.383 -1.1,1.15 l 0,2.4 z m 0,8.5 c 0,0.767 0.367,1.15 1.1,1.15 l 2.4,0 c 0.733,0 1.1,-0.383 1.1,-1.15 l 0,-2.45 c 0,-0.767 -0.367,-1.15 -1.1,-1.15 l -2.4,0 c -0.733,0 -1.1,0.383 -1.1,1.15 l 0,2.45 z m 10.4,-7.3 2.35,0 c 0.767,0 1.15,-0.4 1.15,-1.2 l 0,-2.4 c 0,-0.767 -0.383,-1.15 -1.15,-1.15 l -2.35,0 c -0.767,0 -1.15,0.383 -1.15,1.15 l 0,2.4 c 0,0.8 0.383,1.2 1.15,1.2 z m -1.15,7.3 c 0,0.767 0.383,1.15 1.15,1.15 l 2.35,0 c 0.767,0 1.15,-0.383 1.15,-1.15 l 0,-2.45 C 84,24.583 83.617,24.2 82.85,24.2 l -2.35,0 c -0.767,0 -1.15,0.383 -1.15,1.15 l 0,2.45 z m 9.3,-10.9 0,2.4 c 0,0.8 0.383,1.2 1.15,1.2 l 2.35,0 c 0.733,0 1.1,-0.4 1.1,-1.2 l 0,-2.4 c 0,-0.767 -0.367,-1.15 -1.1,-1.15 l -2.35,0 c -0.767,0 -1.15,0.383 -1.15,1.15 z m 0,8.45 0,2.45 c 0,0.767 0.383,1.15 1.15,1.15 l 2.35,0 c 0.733,0 1.1,-0.383 1.1,-1.15 l 0,-2.45 c 0,-0.767 -0.367,-1.15 -1.1,-1.15 l -2.35,0 c -0.767,0 -1.15,0.383 -1.15,1.15 z m 13.9,-8.45 c 0,-0.767 -0.367,-1.15 -1.1,-1.15 l -2.4,0 c -0.733,0 -1.1,0.383 -1.1,1.15 l 0,2.4 c 0,0.8 0.367,1.2 1.1,1.2 l 2.4,0 c 0.733,0 1.1,-0.4 1.1,-1.2 l 0,-2.4 z m 0,8.45 c 0,-0.767 -0.367,-1.15 -1.1,-1.15 l -2.4,0 c -0.733,0 -1.1,0.383 -1.1,1.15 l 0,2.45 c 0,0.767 0.367,1.15 1.1,1.15 l 2.4,0 c 0.733,0 1.1,-0.383 1.1,-1.15 l 0,-2.45 z m 9.3,-6.05 0,-2.4 c 0,-0.767 -0.383,-1.15 -1.15,-1.15 l -2.35,0 c -0.733,0 -1.1,0.383 -1.1,1.15 l 0,2.4 c 0,0.8 0.367,1.2 1.1,1.2 l 2.35,0 c 0.767,0 1.15,-0.4 1.15,-1.2 z m -4.6,8.5 c 0,0.767 0.367,1.15 1.1,1.15 l 2.35,0 c 0.767,0 1.15,-0.383 1.15,-1.15 l 0,-2.45 c 0,-0.767 -0.383,-1.15 -1.15,-1.15 l -2.35,0 c -0.733,0 -1.1,0.383 -1.1,1.15 l 0,2.45 z m -8,55.4 c 1.033,-0.833 2.117,-1.9 3.25,-3.2 0.233,-0.267 0.45,-0.517 0.65,-0.75 l 42.35,0 0,46.25 -46.25,0 0,-42.3 z" />
          <path
             style="clip-rule:evenodd;fill:#cccccc;fill-rule:evenodd"
             inkscape:connector-curvature="0"
             id="path15"
             d="m 107.25,27.8 0,-2.45 c 0,-0.767 0.367,-1.15 1.1,-1.15 l 2.35,0 c 0.767,0 1.15,0.383 1.15,1.15 l 0,2.45 c 0,0.767 -0.383,1.15 -1.15,1.15 l -2.35,0 c -0.733,0 -1.1,-0.383 -1.1,-1.15 z m 4.6,-8.5 c 0,0.8 -0.383,1.2 -1.15,1.2 l -2.35,0 c -0.733,0 -1.1,-0.4 -1.1,-1.2 l 0,-2.4 c 0,-0.767 0.367,-1.15 1.1,-1.15 l 2.35,0 c 0.767,0 1.15,0.383 1.15,1.15 l 0,2.4 z m -9.3,6.05 0,2.45 c 0,0.767 -0.367,1.15 -1.1,1.15 l -2.4,0 c -0.733,0 -1.1,-0.383 -1.1,-1.15 l 0,-2.45 c 0,-0.767 0.367,-1.15 1.1,-1.15 l 2.4,0 c 0.733,0 1.1,0.383 1.1,1.15 z m 0,-8.45 0,2.4 c 0,0.8 -0.367,1.2 -1.1,1.2 l -2.4,0 c -0.733,0 -1.1,-0.4 -1.1,-1.2 l 0,-2.4 c 0,-0.767 0.367,-1.15 1.1,-1.15 l 2.4,0 c 0.733,0 1.1,0.383 1.1,1.15 z m -13.9,8.45 c 0,-0.767 0.383,-1.15 1.15,-1.15 l 2.35,0 c 0.733,0 1.1,0.383 1.1,1.15 l 0,2.45 c 0,0.767 -0.367,1.15 -1.1,1.15 l -2.35,0 c -0.767,0 -1.15,-0.383 -1.15,-1.15 l 0,-2.45 z m 0,-8.45 c 0,-0.767 0.383,-1.15 1.15,-1.15 l 2.35,0 c 0.733,0 1.1,0.383 1.1,1.15 l 0,2.4 c 0,0.8 -0.367,1.2 -1.1,1.2 l -2.35,0 c -0.767,0 -1.15,-0.4 -1.15,-1.2 l 0,-2.4 z m -9.3,10.9 0,-2.45 c 0,-0.767 0.383,-1.15 1.15,-1.15 l 2.35,0 c 0.767,0 1.15,0.383 1.15,1.15 l 0,2.45 c 0,0.767 -0.383,1.15 -1.15,1.15 l -2.35,0 c -0.767,0 -1.15,-0.383 -1.15,-1.15 z m 1.15,-7.3 c -0.767,0 -1.15,-0.4 -1.15,-1.2 l 0,-2.4 c 0,-0.767 0.383,-1.15 1.15,-1.15 l 2.35,0 c 0.767,0 1.15,0.383 1.15,1.15 l 0,2.4 c 0,0.8 -0.383,1.2 -1.15,1.2 l -2.35,0 z m -10.4,7.3 0,-2.45 c 0,-0.767 0.367,-1.15 1.1,-1.15 l 2.4,0 c 0.733,0 1.1,0.383 1.1,1.15 l 0,2.45 c 0,0.767 -0.367,1.15 -1.1,1.15 l -2.4,0 c -0.733,0 -1.1,-0.383 -1.1,-1.15 z m 0,-8.5 0,-2.4 c 0,-0.767 0.367,-1.15 1.1,-1.15 l 2.4,0 c 0.733,0 1.1,0.383 1.1,1.15 l 0,2.4 c 0,0.8 -0.367,1.2 -1.1,1.2 l -2.4,0 c -0.733,0 -1.1,-0.4 -1.1,-1.2 z m -9.3,8.5 0,-2.45 c 0,-0.767 0.383,-1.15 1.15,-1.15 l 2.35,0 c 0.733,0 1.1,0.383 1.1,1.15 l 0,2.45 c 0,0.767 -0.367,1.15 -1.1,1.15 l -2.35,0 c -0.767,0 -1.15,-0.383 -1.15,-1.15 z m 0,-10.9 c 0,-0.767 0.383,-1.15 1.15,-1.15 l 2.35,0 c 0.733,0 1.1,0.383 1.1,1.15 l 0,2.4 c 0,0.8 -0.367,1.2 -1.1,1.2 l -2.35,0 c -0.767,0 -1.15,-0.4 -1.15,-1.2 l 0,-2.4 z m -9.3,10.9 0,-2.45 c 0,-0.767 0.383,-1.15 1.15,-1.15 l 2.35,0 c 0.767,0 1.15,0.383 1.15,1.15 l 0,2.45 c 0,0.767 -0.383,1.15 -1.15,1.15 l -2.35,0 c -0.767,0 -1.15,-0.383 -1.15,-1.15 z m -9.25,-2.45 c 0,-0.767 0.367,-1.15 1.1,-1.15 l 2.35,0 c 0.767,0 1.15,0.383 1.15,1.15 l 0,2.45 c 0,0.767 -0.383,1.15 -1.15,1.15 l -2.35,0 c -0.733,0 -1.1,-0.383 -1.1,-1.15 l 0,-2.45 z m 1.1,-4.85 c -0.733,0 -1.1,-0.4 -1.1,-1.2 l 0,-2.4 c 0,-0.767 0.367,-1.15 1.1,-1.15 l 2.35,0 c 0.767,0 1.15,0.383 1.15,1.15 l 0,2.4 c 0,0.8 -0.383,1.2 -1.15,1.2 l -2.35,0 z m 8.15,-1.2 0,-2.4 c 0,-0.767 0.383,-1.15 1.15,-1.15 l 2.35,0 c 0.767,0 1.15,0.383 1.15,1.15 l 0,2.4 c 0,0.8 -0.383,1.2 -1.15,1.2 l -2.35,0 c -0.767,0 -1.15,-0.4 -1.15,-1.2 z m 130,6.05 c 0,-0.767 0.384,-1.15 1.15,-1.15 l 2.35,0 c 0.767,0 1.15,0.383 1.15,1.15 l 0,2.45 c 0,0.767 -0.384,1.15 -1.15,1.15 l -2.35,0 c -0.767,0 -1.15,-0.383 -1.15,-1.15 l 0,-2.45 z m 0,-8.45 c 0,-0.767 0.384,-1.15 1.15,-1.15 l 2.35,0 c 0.767,0 1.15,0.383 1.15,1.15 l 0,2.4 c 0,0.8 -0.384,1.2 -1.15,1.2 l -2.35,0 c -0.767,0 -1.15,-0.4 -1.15,-1.2 l 0,-2.4 z m -9.25,10.9 0,-2.45 c 0,-0.767 0.366,-1.15 1.1,-1.15 l 2.351,0 c 0.767,0 1.149,0.383 1.149,1.15 l 0,2.45 c 0,0.767 -0.383,1.15 -1.149,1.15 l -2.351,0 c -0.734,0 -1.1,-0.383 -1.1,-1.15 z m 0,-8.5 0,-2.4 c 0,-0.767 0.366,-1.15 1.1,-1.15 l 2.351,0 c 0.767,0 1.149,0.383 1.149,1.15 l 0,2.4 c 0,0.8 -0.383,1.2 -1.149,1.2 l -2.351,0 c -0.734,0 -1.1,-0.4 -1.1,-1.2 z m -9.3,8.5 0,-2.45 c 0,-0.767 0.366,-1.15 1.1,-1.15 l 2.4,0 c 0.733,0 1.1,0.383 1.1,1.15 l 0,2.45 c 0,0.767 -0.366,1.15 -1.1,1.15 l -2.4,0 c -0.734,0 -1.1,-0.383 -1.1,-1.15 z m -9.3,-2.45 c 0,-0.767 0.383,-1.15 1.149,-1.15 l 2.351,0 c 0.733,0 1.1,0.383 1.1,1.15 l 0,2.45 c 0,0.767 -0.366,1.15 -1.1,1.15 l -2.35,0 c -0.767,0 -1.149,-0.383 -1.149,-1.15 l 0,-2.45 z m 0,-8.45 c 0,-0.767 0.383,-1.15 1.149,-1.15 l 2.351,0 c 0.733,0 1.1,0.383 1.1,1.15 l 0,2.4 c 0,0.8 -0.366,1.2 -1.1,1.2 l -2.35,0 c -0.767,0 -1.149,-0.4 -1.149,-1.2 l 0,-2.4 z m 9.3,2.4 0,-2.4 c 0,-0.767 0.366,-1.15 1.1,-1.15 l 2.4,0 c 0.733,0 1.1,0.383 1.1,1.15 l 0,2.4 c 0,0.8 -0.366,1.2 -1.1,1.2 l -2.4,0 c -0.734,0 -1.1,-0.4 -1.1,-1.2 z m -18.6,8.5 0,-2.45 c 0,-0.767 0.383,-1.15 1.15,-1.15 l 2.35,0 c 0.767,0 1.15,0.383 1.15,1.15 l 0,2.45 c 0,0.767 -0.384,1.15 -1.15,1.15 l -2.35,0 c -0.767,0 -1.15,-0.383 -1.15,-1.15 z m 4.65,-10.9 0,2.4 c 0,0.8 -0.384,1.2 -1.15,1.2 l -2.35,0 c -0.767,0 -1.15,-0.4 -1.15,-1.2 l 0,-2.4 c 0,-0.767 0.383,-1.15 1.15,-1.15 l 2.35,0 c 0.766,0 1.15,0.383 1.15,1.15 z m -13.9,8.45 c 0,-0.767 0.367,-1.15 1.1,-1.15 l 2.4,0 c 0.733,0 1.1,0.383 1.1,1.15 l 0,2.45 c 0,0.767 -0.367,1.15 -1.1,1.15 l -2.4,0 c -0.733,0 -1.1,-0.383 -1.1,-1.15 l 0,-2.45 z m 4.6,-8.45 0,2.4 c 0,0.8 -0.367,1.2 -1.1,1.2 l -2.4,0 c -0.733,0 -1.1,-0.4 -1.1,-1.2 l 0,-2.4 c 0,-0.767 0.367,-1.15 1.1,-1.15 l 2.4,0 c 0.733,0 1.1,0.383 1.1,1.15 z m -13.9,10.9 0,-2.45 c 0,-0.767 0.383,-1.15 1.15,-1.15 l 2.35,0 c 0.733,0 1.1,0.383 1.1,1.15 l 0,2.45 c 0,0.767 -0.367,1.15 -1.1,1.15 l -2.35,0 c -0.767,0 -1.15,-0.383 -1.15,-1.15 z m 3.5,-12.05 c 0.733,0 1.1,0.383 1.1,1.15 l 0,2.4 c 0,0.8 -0.367,1.2 -1.1,1.2 l -2.35,0 c -0.767,0 -1.15,-0.4 -1.15,-1.2 l 0,-2.4 c 0,-0.767 0.383,-1.15 1.15,-1.15 l 2.35,0 z m -12.8,12.05 0,-2.45 c 0,-0.767 0.383,-1.15 1.15,-1.15 l 2.35,0 c 0.767,0 1.15,0.383 1.15,1.15 l 0,2.45 c 0,0.767 -0.383,1.15 -1.15,1.15 l -2.35,0 c -0.767,0 -1.15,-0.383 -1.15,-1.15 z M 120,15.75 c 0.767,0 1.15,0.383 1.15,1.15 l 0,2.4 c 0,0.8 -0.383,1.2 -1.15,1.2 l -2.35,0 c -0.767,0 -1.15,-0.4 -1.15,-1.2 l 0,-2.4 c 0,-0.767 0.383,-1.15 1.15,-1.15 l 2.35,0 z m 98.65,12.05 0,-2.45 c 0,-0.767 0.383,-1.15 1.149,-1.15 l 2.351,0 c 0.733,0 1.1,0.383 1.1,1.15 l 0,2.45 c 0,0.767 -0.366,1.15 -1.1,1.15 l -2.35,0 c -0.767,0 -1.15,-0.383 -1.15,-1.15 z m 3.5,-12.05 c 0.733,0 1.1,0.383 1.1,1.15 l 0,2.4 c 0,0.8 -0.366,1.2 -1.1,1.2 l -2.35,0 c -0.767,0 -1.149,-0.4 -1.149,-1.2 l 0,-2.4 c 0,-0.767 0.383,-1.15 1.149,-1.15 l 2.35,0 z m -12.8,12.05 0,-2.45 c 0,-0.767 0.384,-1.15 1.15,-1.15 l 2.35,0 c 0.767,0 1.15,0.383 1.15,1.15 l 0,2.45 c 0,0.767 -0.384,1.15 -1.15,1.15 l -2.35,0 c -0.767,0 -1.15,-0.383 -1.15,-1.15 z m 1.15,-7.3 c -0.767,0 -1.15,-0.4 -1.15,-1.2 l 0,-2.4 c 0,-0.767 0.384,-1.15 1.15,-1.15 l 2.35,0 c 0.767,0 1.15,0.383 1.15,1.15 l 0,2.4 c 0,0.8 -0.384,1.2 -1.15,1.2 l -2.35,0 z m -10.4,7.3 0,-2.45 c 0,-0.767 0.367,-1.15 1.101,-1.15 l 2.35,0 c 0.767,0 1.15,0.383 1.15,1.15 l 0,2.45 c 0,0.767 -0.384,1.15 -1.15,1.15 l -2.35,0 c -0.734,0 -1.101,-0.383 -1.101,-1.15 z m -4.7,-2.45 0,2.45 c 0,0.767 -0.367,1.15 -1.101,1.15 l -2.35,0 c -0.767,0 -1.15,-0.383 -1.15,-1.15 l 0,-2.45 c 0,-0.767 0.384,-1.15 1.15,-1.15 l 2.35,0 c 0.734,0 1.101,0.383 1.101,1.15 z m -1.1,-9.6 c 0.733,0 1.101,0.383 1.101,1.15 l 0,2.4 c 0,0.8 -0.367,1.2 -1.101,1.2 l -2.35,0 c -0.767,0 -1.15,-0.4 -1.15,-1.2 l 0,-2.4 c 0,-0.767 0.384,-1.15 1.15,-1.15 l 2.35,0 z m 5.8,1.15 c 0,-0.767 0.367,-1.15 1.101,-1.15 l 2.35,0 c 0.767,0 1.15,0.383 1.15,1.15 l 0,2.4 c 0,0.8 -0.384,1.2 -1.15,1.2 l -2.35,0 c -0.733,0 -1.101,-0.4 -1.101,-1.2 l 0,-2.4 z" />
        </g>
        <path
           style="clip-rule:evenodd;fill:#999999;fill-rule:evenodd"
           inkscape:connector-curvature="0"
           id="path17"
           d="m 106.65,-45.6 c 0,0.467 -0.183,0.867 -0.55,1.2 -0.333,0.367 -0.733,0.55 -1.2,0.55 -0.467,0 -0.883,-0.183 -1.25,-0.55 -0.333,-0.333 -0.5,-0.733 -0.5,-1.2 0,-0.467 0.167,-0.883 0.5,-1.25 0.367,-0.333 0.783,-0.5 1.25,-0.5 0.467,0 0.867,0.167 1.2,0.5 0.367,0.367 0.55,0.783 0.55,1.25 z" />
        <g
           transform="translate(0,-130)"
           id="g19">
          <path
             style="clip-rule:evenodd;fill:#999999;fill-rule:evenodd"
             inkscape:connector-curvature="0"
             id="path21"
             d="m 263.15,70.25 c 0.733,0 1.1,0.333 1.1,1 l 0,48.75 c 0,0.667 -0.366,1 -1.1,1 l -53.05,0 c -0.733,0 -1.1,-0.333 -1.1,-1 l 0,-48.75 c 0,-0.667 0.366,-1 1.1,-1 l 53.05,0 z M 62.25,196.4 c 1.333,0 2,0.666 2,2 l 0,16.75 c 0,1.333 -0.667,2 -2,2 l -21.5,0 c -1.333,0 -2,-0.667 -2,-2 l 0,-16.75 c 0,-1.334 0.667,-2 2,-2 l 21.5,0 z m 93.5,-21.9 c 0.667,0 1,0.333 1,1 l 0,43.25 c 0,0.667 -0.333,1 -1,1 l -52.5,0 c -0.667,0 -1,-0.333 -1,-1 l 0,-43.25 c 0,-0.667 0.333,-1 1,-1 l 52.5,0 z" />
          <path
             style="clip-rule:evenodd;fill:#333333;fill-rule:evenodd"
             inkscape:connector-curvature="0"
             id="path23"
             d="m 223,166.75 0,53.25 -2.75,0 0,6.5 -20.5,0 0,-6.5 -2.75,0 0,-53.25 26,0 z M 32.2,72.35 c 0.066,0 0.033,13.133 -0.1,39.4 -0.067,13.1 -0.15,26.217 -0.25,39.35 l -12.5,0.15 -0.5,-18.95 -10.65,0.1 -2,-2.25 -0.1,-34.6 2.1,-2.25 11.15,0 0.1,-21.2 12.75,0.25 z m 135.6,58.2 12.5,-0.149 0.5,18.949 2,-0.1 2,2.25 0.101,34.6 -2.101,2.25 -2.5,0 -0.1,21.2 -12.75,-0.25 c -0.066,0 -0.033,-13.133 0.1,-39.399 0.066,-13.101 0.15,-26.217 0.25,-39.351 z" />
          <path
             style="clip-rule:evenodd;fill:none;fill-rule:evenodd;stroke:#333333;stroke-width:0.1;stroke-linecap:round;stroke-linejoin:round;stroke-miterlimit:3"
             inkscape:connector-curvature="0"
             id="path25"
             d="m 32.2,72.35 -12.75,-0.25 -0.1,21.2 -11.15,0 -2.1,2.25 0.1,34.601 2,2.25 10.65,-0.101 0.5,18.95 12.5,-0.15 c 0.1,-13.133 0.183,-26.25 0.25,-39.35 0.133,-26.267 0.167,-39.4 0.1,-39.4 z"
             stroke-miterlimit="3" />
        </g>
        <g
           transform="translate(0,-130)"
           id="g27">
          <path
             style="clip-rule:evenodd;fill:#cccccc;fill-rule:evenodd"
             inkscape:connector-curvature="0"
             id="path29"
             d="m 260,90.95 -24,1.55 0,-3.65 18.75,-1.65 0,-4.85 -18.25,-1.15 0,-3.95 23.5,1.75 0,11.95 z m -24.2,20.85 18.75,-1.65 0,-4.85 -18.25,-1.15 0,-3.95 23.5,1.75 0,11.95 -24,1.55 0,-3.65 z M 17.85,70.75 l 11.1,0 0,10.25 -4.75,0 0,63.1 4.65,-0.1 0,9 -10.75,0 0,-15.9 -4.15,-3.1 0.15,-42 3.75,-3.15 0,-18.1 z m 164.15,58.3 0,15.9 4.15,3.1 -0.15,42 -3.75,3.15 0,18.1 -11.1,0 0,-10.25 4.75,0 0,-63.1 -4.65,0.1 0,-9 10.75,0 z" />
          <path
             style="clip-rule:evenodd;fill:#666666;fill-rule:evenodd"
             inkscape:connector-curvature="0"
             id="path31"
             d="m 220.5,171.95 0,10.399 -2.6,0 0,-10.399 2.6,0 z m -18.35,0 0,10.399 -2.601,0 0,-10.399 2.601,0 z m -4.55,32.9 5.5,-0.05 3.4,-12.85 7.75,0 3.25,13.05 4.95,0 -0.101,10.9 -24.75,-0.051 0,-10.999 z m -151.4,-6.75 0,2.101 -6,0 0,-2.101 6,0 z m 10.4,0 6,0 0,2.101 -6,0 0,-2.101 z" />
          <path
             style="clip-rule:evenodd;fill:#999999;fill-rule:evenodd"
             inkscape:connector-curvature="0"
             id="path33"
             d="m 38.85,87.35 -10.5,0 0,-2 10.5,0 0,2 z m 0,3.8 -10.5,0 0,-2 10.5,0 0,2 z m 0,7.45 -10.5,0 0,-2 10.5,0 0,2 z m 0,-3.8 -10.5,0 0,-2 10.5,0 0,2 z m 0,14.9 -10.5,0 0,-2 10.5,0 0,2 z m 0,-3.65 -10.5,0 0,-2 10.5,0 0,2 z m 0,18.5 -10.5,0 0,-2 10.5,0 0,2 z m 0,-11.05 -10.5,0 0,-2 10.5,0 0,2 z m 0,3.6 -10.5,0 0,-2 10.5,0 0,2 z m 0,3.8 -10.5,0 0,-2 10.5,0 0,2 z m 0,-18.65 -10.5,0 0,-2 10.5,0 0,2 z m -10.5,27.8 10.5,0 0,2 -10.5,0 0,-2 z m 0,3.8 10.5,0 0,2 -10.5,0 0,-2 z m 0,3.65 10.5,0 0,2 -10.5,0 0,-2 z m 132.9,8.7 10.5,0 0,2 -10.5,0 0,-2 z m 0,-3.65 10.5,0 0,2 -10.5,0 0,-2 z m 10.5,7.45 0,2 -10.5,0 0,-2 10.5,0 z m 0,9.5 -10.5,0 0,-2 10.5,0 0,2 z m 0,-3.8 -10.5,0 0,-2 10.5,0 0,2 z m 0,7.45 -10.5,0 0,-2 10.5,0 0,2 z m -10.5,9.2 10.5,0 0,2 -10.5,0 0,-2 z m 0,-3.8 10.5,0 0,2 -10.5,0 0,-2 z m 0,-3.6 10.5,0 0,2 -10.5,0 0,-2 z m 10.5,11.05 0,2 -10.5,0 0,-2 10.5,0 z m 0,9.45 -10.5,0 0,-2 10.5,0 0,2 z m 0,-3.65 -10.5,0 0,-2 10.5,0 0,2 z m -10.5,12.9 10.5,0 0,2 -10.5,0 0,-2 z m 0,-3.8 10.5,0 0,2 -10.5,0 0,-2 z m 0,-3.65 10.5,0 0,2 -10.5,0 0,-2 z m -122.4,-58.9 -10.5,0 0,-2 10.5,0 0,2 z" />
          <path
             style="clip-rule:evenodd;fill:none;fill-rule:evenodd;stroke:#666666;stroke-width:2;stroke-linecap:round;stroke-linejoin:round;stroke-miterlimit:3"
             inkscape:connector-curvature="0"
             id="path35"
             d="m 107.95,193.2 0,12.149 1.5,1.851 3.5,0 1.4,-2.101 0,-11.899 m 30.8,0 0,12.149 1.5,1.851 3.5,0 1.399,-2.101 0,-11.899"
             stroke-miterlimit="3" />
        </g>
      </g>
      <g
         id="g169"
         transform="matrix(0.16873749,0.07868358,-0.07868358,0.16873749,36.006523,1002.3866)">
        <path
           class="st6"
           d="m 132,186.6 -88.9,0 c -0.6,0 -1.1,-0.5 -1.1,-1.1 l 0,-80 c 0,-0.6 0.5,-1.1 1.1,-1.1 l 88.9,0 c 0.6,0 1.1,0.5 1.1,1.1 l 0,80 c 0,0.6 -0.5,1.1 -1.1,1.1 z"
           id="path171"
           inkscape:connector-curvature="0"
           style="fill:#054827" />
        <g
           id="g173">
          <circle
             class="st1"
             cx="93.699997"
             cy="111.2"
             r="4.4000001"
             id="circle175"
             style="fill:#b4801c" />
          <circle
             class="st2"
             cx="93.699997"
             cy="111.2"
             r="2.7"
             id="circle177"
             style="fill:#ffffff" />
        </g>
        <g
           id="g179">
          <circle
             class="st1"
             cx="127"
             cy="148.10001"
             r="4.4000001"
             id="circle181"
             style="fill:#b4801c" />
          <circle
             class="st2"
             cx="127"
             cy="148.10001"
             r="2.7"
             id="circle183"
             style="fill:#ffffff" />
        </g>
        <g
           id="g185">
          <circle
             class="st1"
             cx="47.400002"
             cy="165.10001"
             r="4.4000001"
             id="circle187"
             style="fill:#b4801c" />
          <circle
             class="st2"
             cx="47.400002"
             cy="165.10001"
             r="2.7"
             id="circle189"
             style="fill:#ffffff" />
        </g>
        <g
           id="g191">
          <g
             id="g193">
            <rect
               x="100.3"
               y="106.8"
               class="st0"
               width="26.9"
               height="35.599998"
               id="rect195"
               style="fill:#146133" />
            <polygon
               class="st3"
               points="126,114.2 119.1,114.2 119.1,107.6 108.4,107.6 108.4,114.2 101.5,114.2 101.5,141.5 126,141.5 "
               id="polygon197"
               style="fill:#cbcbcb" />
          </g>
          <rect
             x="48.299999"
             y="116.4"
             class="st7"
             width="42.5"
             height="42.099998"
             id="rect199"
             style="fill:#262827" />
          <rect
             x="59.400002"
             y="166.10001"
             class="st7"
             width="27.6"
             height="15.9"
             id="rect201"
             style="fill:#262827" />
          <rect
             x="108.1"
             y="158.5"
             class="st7"
             width="15.5"
             height="15.2"
             id="rect203"
             style="fill:#262827" />
        </g>
      </g>
    </g>
  </g>
</svg>
