<?xml version="1.0" encoding="UTF-8" standalone="no"?>
<!-- Created with Inkscape (http://www.inkscape.org/) -->

<svg
   xmlns:osb="http://www.openswatchbook.org/uri/2009/osb"
   xmlns:dc="http://purl.org/dc/elements/1.1/"
   xmlns:cc="http://creativecommons.org/ns#"
   xmlns:rdf="http://www.w3.org/1999/02/22-rdf-syntax-ns#"
   xmlns:svg="http://www.w3.org/2000/svg"
   xmlns="http://www.w3.org/2000/svg"
   xmlns:xlink="http://www.w3.org/1999/xlink"
   xmlns:sodipodi="http://sodipodi.sourceforge.net/DTD/sodipodi-0.dtd"
   xmlns:inkscape="http://www.inkscape.org/namespaces/inkscape"
   width="50"
   height="50"
   viewBox="0 0 50.000001 50.000001"
   id="svg2"
   version="1.1"
   inkscape:version="0.91 r13725"
   sodipodi:docname="no_ip.svg">
  <defs
     id="defs4">
    <linearGradient
       id="linearGradient5730"
       osb:paint="solid">
      <stop
         style="stop-color:#000000;stop-opacity:1;"
         offset="0"
         id="stop5732" />
    </linearGradient>
    <linearGradient
       id="linearGradient5703"
       osb:paint="solid">
      <stop
         style="stop-color:#000000;stop-opacity:1;"
         offset="0"
         id="stop5705" />
    </linearGradient>
    <linearGradient
       id="linearGradient5697"
       osb:paint="solid">
      <stop
         style="stop-color:#000000;stop-opacity:1;"
         offset="0"
         id="stop5699" />
    </linearGradient>
    <linearGradient
       inkscape:collect="always"
       xlink:href="#linearGradient5697"
       id="linearGradient5701"
       x1="-713.00995"
       y1="769.93829"
       x2="-653.04999"
       y2="769.93829"
       gradientUnits="userSpaceOnUse" />
    <linearGradient
       inkscape:collect="always"
       xlink:href="#linearGradient5730"
       id="linearGradient5734"
       x1="-706.97909"
       y1="769.44823"
       x2="-656.24823"
       y2="769.44823"
       gradientUnits="userSpaceOnUse" />
  </defs>
  <sodipodi:namedview
     id="base"
     pagecolor="#ffffff"
     bordercolor="#666666"
     borderopacity="1.0"
     inkscape:pageopacity="0.0"
     inkscape:pageshadow="2"
     inkscape:zoom="7.9195959"
     inkscape:cx="5.8587017"
     inkscape:cy="32.180348"
     inkscape:document-units="px"
     inkscape:current-layer="layer1"
     showgrid="false"
     units="px"
     inkscape:window-width="1855"
     inkscape:window-height="1056"
     inkscape:window-x="65"
     inkscape:window-y="24"
     inkscape:window-maximized="1" />
  <metadata
     id="metadata7">
    <rdf:RDF>
      <cc:Work
         rdf:about="">
        <dc:format>image/svg+xml</dc:format>
        <dc:type
           rdf:resource="http://purl.org/dc/dcmitype/StillImage" />
        <dc:title />
      </cc:Work>
    </rdf:RDF>
  </metadata>
  <g
     inkscape:label="Layer 1"
     inkscape:groupmode="layer"
     id="layer1"
     transform="translate(0,-1002.3622)">
    <g
       transform="matrix(0.73198057,-0.6813255,0.6813255,0.73198057,0.02598139,0.21938207)"
       style="font-style:normal;font-variant:normal;font-weight:bold;font-stretch:normal;font-size:12.5px;line-height:100%;font-family:Lato;-inkscape-font-specification:'Lato, Bold';text-align:center;letter-spacing:0px;word-spacing:0px;writing-mode:lr-tb;text-anchor:middle;fill:#b81c22;fill-opacity:1;stroke:#103770;stroke-width:0.5;stroke-linecap:butt;stroke-linejoin:miter;stroke-miterlimit:3;stroke-dasharray:none;stroke-opacity:1"
       id="text4256">
      <path
         d="m -712.03988,771.73907 1.83125,0 0,-5.26875 q 0,-0.30625 0.0187,-0.64375 l -1.3,1.0875 q -0.0813,0.0687 -0.16875,0.0937 -0.0812,0.025 -0.1625,0.025 -0.125,0 -0.23125,-0.05 -0.1,-0.0562 -0.15,-0.125 l -0.4875,-0.66875 2.75625,-2.34375 1.26875,0 0,7.89375 1.625,0 0,1.15625 -5,0 0,-1.15625 z"
         style="font-style:normal;font-variant:normal;font-weight:bold;font-stretch:normal;font-size:12.5px;line-height:100%;font-family:Lato;-inkscape-font-specification:'Lato, Bold';text-align:center;writing-mode:lr-tb;text-anchor:middle;fill:#b81c22;fill-opacity:1;stroke:#103770;stroke-width:0.5;stroke-linecap:butt;stroke-linejoin:miter;stroke-miterlimit:3;stroke-dasharray:none;stroke-opacity:1"
         id="path4154"
         inkscape:connector-curvature="0" />
      <path
         d="m -702.70765,763.75782 q 0.625,0 1.14375,0.1875 0.51875,0.18125 0.8875,0.51875 0.36875,0.3375 0.575,0.8125 0.20625,0.475 0.20625,1.05625 0,0.5 -0.15,0.925 -0.14375,0.425 -0.39375,0.8125 -0.24375,0.3875 -0.575,0.75 -0.33125,0.3625 -0.69375,0.7375 l -2.0375,2.08125 q 0.3,-0.0875 0.5875,-0.13125 0.2875,-0.05 0.55,-0.05 l 2.31875,0 q 0.25,0 0.39375,0.14375 0.15,0.1375 0.15,0.36875 l 0,0.925 -6.2,0 0,-0.5125 q 0,-0.15625 0.0625,-0.325 0.0688,-0.16875 0.2125,-0.3125 l 2.74375,-2.75 q 0.34375,-0.35 0.6125,-0.66875 0.275,-0.31875 0.45625,-0.63125 0.1875,-0.3125 0.28125,-0.63125 0.1,-0.325 0.1,-0.68125 0,-0.325 -0.0937,-0.56875 -0.0937,-0.25 -0.26875,-0.41875 -0.175,-0.16875 -0.41875,-0.25 -0.2375,-0.0875 -0.5375,-0.0875 -0.55625,0 -0.91875,0.28125 -0.35625,0.28125 -0.5,0.75625 -0.0688,0.2375 -0.20625,0.34375 -0.1375,0.1 -0.35,0.1 -0.0937,0 -0.20625,-0.0188 l -0.8125,-0.14375 q 0.0937,-0.65 0.3625,-1.1375 0.26875,-0.49375 0.66875,-0.81875 0.40625,-0.33125 0.925,-0.49375 0.525,-0.16875 1.125,-0.16875 z"
         style="font-style:normal;font-variant:normal;font-weight:bold;font-stretch:normal;font-size:12.5px;line-height:100%;font-family:Lato;-inkscape-font-specification:'Lato, Bold';text-align:center;writing-mode:lr-tb;text-anchor:middle;fill:#b81c22;fill-opacity:1;stroke:#103770;stroke-width:0.5;stroke-linecap:butt;stroke-linejoin:miter;stroke-miterlimit:3;stroke-dasharray:none;stroke-opacity:1"
         id="path4156"
         inkscape:connector-curvature="0" />
      <path
         d="m -692.36918,763.85782 0,0.66875 q 0,0.3 -0.0688,0.4875 -0.0625,0.18125 -0.125,0.30625 l -3.41875,7.05 q -0.10625,0.21875 -0.3,0.375 -0.19375,0.15 -0.525,0.15 l -1.11875,0 3.5,-6.90625 q 0.21875,-0.425 0.4875,-0.73125 l -4.325,0 q -0.14375,0 -0.25,-0.10625 -0.10625,-0.10625 -0.10625,-0.25 l 0,-1.04375 6.25,0 z"
         style="font-style:normal;font-variant:normal;font-weight:bold;font-stretch:normal;font-size:12.5px;line-height:100%;font-family:Lato;-inkscape-font-specification:'Lato, Bold';text-align:center;writing-mode:lr-tb;text-anchor:middle;fill:#b81c22;fill-opacity:1;stroke:#103770;stroke-width:0.5;stroke-linecap:butt;stroke-linejoin:miter;stroke-miterlimit:3;stroke-dasharray:none;stroke-opacity:1"
         id="path4158"
         inkscape:connector-curvature="0" />
      <path
         d="m -691.51195,772.04532 q 0,-0.19375 0.0687,-0.36875 0.075,-0.175 0.2,-0.3 0.13125,-0.125 0.30625,-0.2 0.175,-0.075 0.375,-0.075 0.19375,0 0.36875,0.075 0.175,0.075 0.3,0.2 0.125,0.125 0.2,0.3 0.075,0.175 0.075,0.36875 0,0.2 -0.075,0.375 -0.075,0.16875 -0.2,0.29375 -0.125,0.125 -0.3,0.19375 -0.175,0.075 -0.36875,0.075 -0.2,0 -0.375,-0.075 -0.175,-0.0688 -0.30625,-0.19375 -0.125,-0.125 -0.2,-0.29375 -0.0687,-0.175 -0.0687,-0.375 z"
         style="font-style:normal;font-variant:normal;font-weight:bold;font-stretch:normal;font-size:12.5px;line-height:100%;font-family:Lato;-inkscape-font-specification:'Lato, Bold';text-align:center;writing-mode:lr-tb;text-anchor:middle;fill:#b81c22;fill-opacity:1;stroke:#103770;stroke-width:0.5;stroke-linecap:butt;stroke-linejoin:miter;stroke-miterlimit:3;stroke-dasharray:none;stroke-opacity:1"
         id="path4160"
         inkscape:connector-curvature="0" />
      <path
         d="m -682.22308,768.37657 q 0,1.18125 -0.25625,2.05625 -0.25,0.86875 -0.7,1.4375 -0.44375,0.56875 -1.05625,0.85 -0.60625,0.275 -1.3125,0.275 -0.70625,0 -1.3125,-0.275 -0.6,-0.28125 -1.04375,-0.85 -0.44375,-0.56875 -0.69375,-1.4375 -0.25,-0.875 -0.25,-2.05625 0,-1.1875 0.25,-2.05625 0.25,-0.86875 0.69375,-1.4375 0.44375,-0.56875 1.04375,-0.84375 0.60625,-0.28125 1.3125,-0.28125 0.70625,0 1.3125,0.28125 0.6125,0.275 1.05625,0.84375 0.45,0.56875 0.7,1.4375 0.25625,0.86875 0.25625,2.05625 z m -1.59375,0 q 0,-0.98125 -0.14375,-1.625 -0.14375,-0.64375 -0.3875,-1.025 -0.2375,-0.38125 -0.55,-0.53125 -0.3125,-0.15625 -0.65,-0.15625 -0.33125,0 -0.64375,0.15625 -0.30625,0.15 -0.54375,0.53125 -0.2375,0.38125 -0.38125,1.025 -0.1375,0.64375 -0.1375,1.625 0,0.98125 0.1375,1.625 0.14375,0.64375 0.38125,1.025 0.2375,0.38125 0.54375,0.5375 0.3125,0.15 0.64375,0.15 0.3375,0 0.65,-0.15 0.3125,-0.15625 0.55,-0.5375 0.24375,-0.38125 0.3875,-1.025 0.14375,-0.64375 0.14375,-1.625 z"
         style="font-style:normal;font-variant:normal;font-weight:bold;font-stretch:normal;font-size:12.5px;line-height:100%;font-family:Lato;-inkscape-font-specification:'Lato, Bold';text-align:center;writing-mode:lr-tb;text-anchor:middle;fill:#b81c22;fill-opacity:1;stroke:#103770;stroke-width:0.5;stroke-linecap:butt;stroke-linejoin:miter;stroke-miterlimit:3;stroke-dasharray:none;stroke-opacity:1"
         id="path4162"
         inkscape:connector-curvature="0" />
      <path
         d="m -681.45336,772.04532 q 0,-0.19375 0.0688,-0.36875 0.075,-0.175 0.2,-0.3 0.13125,-0.125 0.30625,-0.2 0.175,-0.075 0.375,-0.075 0.19375,0 0.36875,0.075 0.175,0.075 0.3,0.2 0.125,0.125 0.2,0.3 0.075,0.175 0.075,0.36875 0,0.2 -0.075,0.375 -0.075,0.16875 -0.2,0.29375 -0.125,0.125 -0.3,0.19375 -0.175,0.075 -0.36875,0.075 -0.2,0 -0.375,-0.075 -0.175,-0.0688 -0.30625,-0.19375 -0.125,-0.125 -0.2,-0.29375 -0.0688,-0.175 -0.0688,-0.375 z"
         style="font-style:normal;font-variant:normal;font-weight:bold;font-stretch:normal;font-size:12.5px;line-height:100%;font-family:Lato;-inkscape-font-specification:'Lato, Bold';text-align:center;writing-mode:lr-tb;text-anchor:middle;fill:#b81c22;fill-opacity:1;stroke:#103770;stroke-width:0.5;stroke-linecap:butt;stroke-linejoin:miter;stroke-miterlimit:3;stroke-dasharray:none;stroke-opacity:1"
         id="path4164"
         inkscape:connector-curvature="0" />
      <path
         d="m -672.16449,768.37657 q 0,1.18125 -0.25625,2.05625 -0.25,0.86875 -0.7,1.4375 -0.44375,0.56875 -1.05625,0.85 -0.60625,0.275 -1.3125,0.275 -0.70625,0 -1.3125,-0.275 -0.6,-0.28125 -1.04375,-0.85 -0.44375,-0.56875 -0.69375,-1.4375 -0.25,-0.875 -0.25,-2.05625 0,-1.1875 0.25,-2.05625 0.25,-0.86875 0.69375,-1.4375 0.44375,-0.56875 1.04375,-0.84375 0.60625,-0.28125 1.3125,-0.28125 0.70625,0 1.3125,0.28125 0.6125,0.275 1.05625,0.84375 0.45,0.56875 0.7,1.4375 0.25625,0.86875 0.25625,2.05625 z m -1.59375,0 q 0,-0.98125 -0.14375,-1.625 -0.14375,-0.64375 -0.3875,-1.025 -0.2375,-0.38125 -0.55,-0.53125 -0.3125,-0.15625 -0.65,-0.15625 -0.33125,0 -0.64375,0.15625 -0.30625,0.15 -0.54375,0.53125 -0.2375,0.38125 -0.38125,1.025 -0.1375,0.64375 -0.1375,1.625 0,0.98125 0.1375,1.625 0.14375,0.64375 0.38125,1.025 0.2375,0.38125 0.54375,0.5375 0.3125,0.15 0.64375,0.15 0.3375,0 0.65,-0.15 0.3125,-0.15625 0.55,-0.5375 0.24375,-0.38125 0.3875,-1.025 0.14375,-0.64375 0.14375,-1.625 z"
         style="font-style:normal;font-variant:normal;font-weight:bold;font-stretch:normal;font-size:12.5px;line-height:100%;font-family:Lato;-inkscape-font-specification:'Lato, Bold';text-align:center;writing-mode:lr-tb;text-anchor:middle;fill:#b81c22;fill-opacity:1;stroke:#103770;stroke-width:0.5;stroke-linecap:butt;stroke-linejoin:miter;stroke-miterlimit:3;stroke-dasharray:none;stroke-opacity:1"
         id="path4166"
         inkscape:connector-curvature="0" />
      <path
         d="m -671.39476,772.04532 q 0,-0.19375 0.0688,-0.36875 0.075,-0.175 0.2,-0.3 0.13125,-0.125 0.30625,-0.2 0.175,-0.075 0.375,-0.075 0.19375,0 0.36875,0.075 0.175,0.075 0.3,0.2 0.125,0.125 0.2,0.3 0.075,0.175 0.075,0.36875 0,0.2 -0.075,0.375 -0.075,0.16875 -0.2,0.29375 -0.125,0.125 -0.3,0.19375 -0.175,0.075 -0.36875,0.075 -0.2,0 -0.375,-0.075 -0.175,-0.0688 -0.30625,-0.19375 -0.125,-0.125 -0.2,-0.29375 -0.0688,-0.175 -0.0688,-0.375 z"
         style="font-style:normal;font-variant:normal;font-weight:bold;font-stretch:normal;font-size:12.5px;line-height:100%;font-family:Lato;-inkscape-font-specification:'Lato, Bold';text-align:center;writing-mode:lr-tb;text-anchor:middle;fill:#b81c22;fill-opacity:1;stroke:#103770;stroke-width:0.5;stroke-linecap:butt;stroke-linejoin:miter;stroke-miterlimit:3;stroke-dasharray:none;stroke-opacity:1"
         id="path4168"
         inkscape:connector-curvature="0" />
      <path
         d="m -667.36215,771.73907 1.83125,0 0,-5.26875 q 0,-0.30625 0.0187,-0.64375 l -1.3,1.0875 q -0.0813,0.0687 -0.16875,0.0937 -0.0812,0.025 -0.1625,0.025 -0.125,0 -0.23125,-0.05 -0.1,-0.0562 -0.15,-0.125 l -0.4875,-0.66875 2.75625,-2.34375 1.26875,0 0,7.89375 1.625,0 0,1.15625 -5,0 0,-1.15625 z"
         style="font-style:normal;font-variant:normal;font-weight:bold;font-stretch:normal;font-size:12.5px;line-height:100%;font-family:Lato;-inkscape-font-specification:'Lato, Bold';text-align:center;writing-mode:lr-tb;text-anchor:middle;fill:#b81c22;fill-opacity:1;stroke:#103770;stroke-width:0.5;stroke-linecap:butt;stroke-linejoin:miter;stroke-miterlimit:3;stroke-dasharray:none;stroke-opacity:1"
         id="path4170"
         inkscape:connector-curvature="0" />
      <path
         d="m -660.42992,772.91407 q -0.0562,0.14375 -0.14375,0.25 -0.0875,0.10625 -0.2,0.175 -0.1125,0.075 -0.2375,0.1125 -0.125,0.0375 -0.24375,0.0375 l -0.65,0 3.65,-9.3375 q 0.10625,-0.2625 0.30625,-0.4 0.2,-0.14375 0.48125,-0.14375 l 0.65625,0 -3.61875,9.30625 z"
         style="font-style:normal;font-variant:normal;font-weight:bold;font-stretch:normal;font-size:12.5px;line-height:100%;font-family:Lato;-inkscape-font-specification:'Lato, Bold';text-align:center;writing-mode:lr-tb;text-anchor:middle;fill:#b81c22;fill-opacity:1;stroke:#103770;stroke-width:0.5;stroke-linecap:butt;stroke-linejoin:miter;stroke-miterlimit:3;stroke-dasharray:none;stroke-opacity:1"
         id="path4172"
         inkscape:connector-curvature="0" />
      <path
         d="m -653.33344,772.99532 q -0.7,0 -1.28125,-0.1875 -0.575,-0.1875 -0.9875,-0.53125 -0.4125,-0.34375 -0.64375,-0.83125 -0.225,-0.4875 -0.225,-1.0875 0,-0.8 0.39375,-1.35 0.39375,-0.55625 1.225,-0.825 -0.6625,-0.275 -0.99375,-0.78125 -0.325,-0.50625 -0.325,-1.21875 0,-0.5125 0.20625,-0.95625 0.2125,-0.44375 0.5875,-0.76875 0.375,-0.33125 0.89375,-0.5125 0.525,-0.1875 1.15,-0.1875 0.625,0 1.14375,0.1875 0.525,0.18125 0.9,0.5125 0.375,0.325 0.58125,0.76875 0.2125,0.44375 0.2125,0.95625 0,0.7125 -0.33125,1.21875 -0.33125,0.50625 -0.9875,0.78125 0.83125,0.26875 1.225,0.825 0.39375,0.55 0.39375,1.35 0,0.6 -0.23125,1.0875 -0.225,0.4875 -0.6375,0.83125 -0.4125,0.34375 -0.99375,0.53125 -0.575,0.1875 -1.275,0.1875 z m 0,-1.20625 q 0.38125,0 0.66875,-0.10625 0.2875,-0.1125 0.48125,-0.30625 0.2,-0.19375 0.3,-0.4625 0.1,-0.26875 0.1,-0.58125 0,-0.74375 -0.4125,-1.125 -0.4125,-0.38125 -1.1375,-0.38125 -0.725,0 -1.1375,0.38125 -0.4125,0.38125 -0.4125,1.125 0,0.3125 0.1,0.58125 0.1,0.26875 0.29375,0.4625 0.2,0.19375 0.4875,0.30625 0.2875,0.10625 0.66875,0.10625 z m 0,-4.175 q 0.375,0 0.63125,-0.11875 0.25625,-0.11875 0.4125,-0.3125 0.15625,-0.2 0.21875,-0.45 0.0687,-0.25625 0.0687,-0.525 0,-0.25625 -0.0812,-0.4875 -0.0812,-0.23125 -0.24375,-0.40625 -0.1625,-0.18125 -0.4125,-0.2875 -0.25,-0.10625 -0.59375,-0.10625 -0.34375,0 -0.59375,0.10625 -0.25,0.10625 -0.41875,0.2875 -0.1625,0.175 -0.24375,0.40625 -0.075,0.23125 -0.075,0.4875 0,0.26875 0.0625,0.525 0.0687,0.25 0.225,0.45 0.15625,0.19375 0.4125,0.3125 0.25625,0.11875 0.63125,0.11875 z"
         style="font-style:normal;font-variant:normal;font-weight:bold;font-stretch:normal;font-size:12.5px;line-height:100%;font-family:Lato;-inkscape-font-specification:'Lato, Bold';text-align:center;writing-mode:lr-tb;text-anchor:middle;fill:#b81c22;fill-opacity:1;stroke:#103770;stroke-width:0.5;stroke-linecap:butt;stroke-linejoin:miter;stroke-miterlimit:3;stroke-dasharray:none;stroke-opacity:1"
         id="path4174"
         inkscape:connector-curvature="0" />
    </g>
    <text
       xml:space="preserve"
       style="font-style:normal;font-weight:normal;font-size:17.5px;line-height:125%;font-family:sans-serif;text-align:start;letter-spacing:0px;word-spacing:0px;writing-mode:lr-tb;text-anchor:start;fill:#000000;fill-opacity:1;stroke:none;stroke-width:1px;stroke-linecap:butt;stroke-linejoin:miter;stroke-opacity:1"
       x="-29.673231"
       y="1017.2594"
       id="text5736"
       sodipodi:linespacing="125%"><tspan
         sodipodi:role="line"
         id="tspan5738"
         x="-29.673231"
         y="1017.2594" /></text>
  </g>
</svg>
