<?xml version="1.0" encoding="utf-8"?>
<!-- Generator: Adobe Illustrator 22.1.0, SVG Export Plug-In . SVG Version: 6.00 Build 0)  -->
<svg version="1.1" id="圖層_1" xmlns="http://www.w3.org/2000/svg" xmlns:xlink="http://www.w3.org/1999/xlink" x="0px" y="0px"
	 viewBox="0 0 300 300" style="enable-background:new 0 0 300 300;" xml:space="preserve">
<style type="text/css">
	.st0{fill:#A4C639;}
</style>
<g id="XMLID_11_">
	<path id="XMLID_15_" class="st0" d="M110.4,36.9l10.7,18.5c-19.6,9.6-32.8,28.3-32.8,49.8h62.3H213c0-21.5-13.2-40.3-32.8-49.8
		L191,36.9c0,0,0.6-1-0.5-1.5c-1-0.6-1.6,0.5-1.6,0.5L178,54.7c-8.3-3.6-17.6-5.7-27.4-5.7c-9.8,0-19.1,2-27.4,5.7l-10.9-18.8
		c0,0-0.7-1-1.6-0.5C110,35.8,110.4,36.9,110.4,36.9 M121.1,72.9c3.3,0,5.9,2.7,5.9,5.9s-2.7,5.8-5.9,5.8s-5.9-2.6-5.9-5.8
		S117.8,72.9,121.1,72.9 M180.5,72.9c3.3,0,5.9,2.7,5.9,5.9s-2.7,5.8-5.9,5.8c-3.3,0-5.9-2.6-5.9-5.8
		C174.5,75.6,177.2,72.9,180.5,72.9"/>
	<path id="XMLID_4_" class="st0" d="M87.9,112.6v94.7c0,4.7,5.7,10.8,10.3,10.8H113v32.3c0,8.2,5.9,14.8,13.4,14.8
		s13.4-6.6,13.4-14.8v-32.3h21.6v32.3c0,8.2,5.9,14.8,13.4,14.8c7.5,0,13.5-6.6,13.5-14.8v-32.3h14.8c4.7,0,10.3-6.1,10.3-10.8
		v-94.7L87.9,112.6z"/>
	<path id="XMLID_3_" class="st0" d="M67.1,110.5L67.1,110.5c7.5,0,13.5,6.7,13.5,14.8v56.2c0,8.2-6,14.8-13.5,14.8
		c-7.5,0-13.4-6.6-13.4-14.8v-56.2C53.8,117.2,59.8,110.5,67.1,110.5"/>
	<path id="XMLID_2_" class="st0" d="M234.4,110.5L234.4,110.5c7.5,0,13.4,6.7,13.4,14.8v56.2c0,8.2-6,14.8-13.4,14.8
		c-7.5,0-13.4-6.6-13.4-14.8v-56.2C221,117.2,227,110.5,234.4,110.5"/>
</g>
</svg>
