<?xml version="1.0" encoding="UTF-8" standalone="no"?>
<!-- Generator: Adobe Illustrator 19.0.0, SVG Export Plug-In . SVG Version: 6.00 Build 0)  -->

<svg
   xmlns:dc="http://purl.org/dc/elements/1.1/"
   xmlns:cc="http://creativecommons.org/ns#"
   xmlns:rdf="http://www.w3.org/1999/02/22-rdf-syntax-ns#"
   xmlns:svg="http://www.w3.org/2000/svg"
   xmlns="http://www.w3.org/2000/svg"
   xmlns:sodipodi="http://sodipodi.sourceforge.net/DTD/sodipodi-0.dtd"
   xmlns:inkscape="http://www.inkscape.org/namespaces/inkscape"
   version="1.1"
   id="Layer_1"
   x="0px"
   y="0px"
   viewBox="0 0 32.147462 32.147462"
   xml:space="preserve"
   width="50"
   height="50"
   inkscape:version="0.91 r13725"
   sodipodi:docname="os_rescue.svg"><metadata
     id="metadata51"><rdf:RDF><cc:Work
         rdf:about=""><dc:format>image/svg+xml</dc:format><dc:type
           rdf:resource="http://purl.org/dc/dcmitype/StillImage" /><dc:title /></cc:Work></rdf:RDF></metadata><defs
     id="defs49" /><sodipodi:namedview
     pagecolor="#ffffff"
     bordercolor="#666666"
     borderopacity="1"
     objecttolerance="10"
     gridtolerance="10"
     guidetolerance="10"
     inkscape:pageopacity="0"
     inkscape:pageshadow="2"
     inkscape:window-width="1855"
     inkscape:window-height="1056"
     id="namedview47"
     showgrid="false"
     inkscape:zoom="14.75"
     inkscape:cx="13.356108"
     inkscape:cy="23.260615"
     inkscape:window-x="65"
     inkscape:window-y="24"
     inkscape:window-maximized="1"
     inkscape:current-layer="Layer_1" /><g
     id="g4154"><path
       style="fill:#007f00;fill-opacity:1;fill-rule:evenodd"
       inkscape:connector-curvature="0"
       id="path11"
       d="m 28.304861,5.4143876 -24.4627878,0 c -1.2338928,0 -2.2347003,1.0002802 -2.2347003,2.2347003 l 0,16.8492851 c 0,1.233892 1.0003681,2.2347 2.2347003,2.2347 l 24.4633148,0 c 1.233893,0 2.2347,-1.000368 2.2347,-2.2347 l 0,-16.8498124 C 30.539561,6.4146678 29.539281,5.4143876 28.304861,5.4143876 Z M 16.073511,22.329326 c -3.455058,0 -6.2558601,-2.800802 -6.2558601,-6.25586 0,-3.455058 2.8008021,-6.2558596 6.2558601,-6.2558596 3.455058,0 6.25586,2.8008016 6.25586,6.2558596 0,3.455058 -2.800802,6.25586 -6.25586,6.25586 z" /><polygon
       transform="matrix(0.08789036,0,0,0.08789036,1.6073729,0.0438472)"
       style="fill:#007f00;fill-opacity:1;fill-rule:evenodd"
       id="polygon13"
       points="149.335,222.656 179.85,222.656 179.85,197.64 204.867,197.64 204.867,167.124 179.85,167.124 179.85,142.108 149.335,142.108 149.335,167.124 124.319,167.124 124.319,197.64 149.335,197.64 " /></g><g
     id="g17"
     transform="translate(0,-297.04254)" /><g
     id="g19"
     transform="translate(0,-297.04254)" /><g
     id="g21"
     transform="translate(0,-297.04254)" /><g
     id="g23"
     transform="translate(0,-297.04254)" /><g
     id="g25"
     transform="translate(0,-297.04254)" /><g
     id="g27"
     transform="translate(0,-297.04254)" /><g
     id="g29"
     transform="translate(0,-297.04254)" /><g
     id="g31"
     transform="translate(0,-297.04254)" /><g
     id="g33"
     transform="translate(0,-297.04254)" /><g
     id="g35"
     transform="translate(0,-297.04254)" /><g
     id="g37"
     transform="translate(0,-297.04254)" /><g
     id="g39"
     transform="translate(0,-297.04254)" /><g
     id="g41"
     transform="translate(0,-297.04254)" /><g
     id="g43"
     transform="translate(0,-297.04254)" /><g
     id="g45"
     transform="translate(0,-297.04254)" /></svg>