<?xml version="1.0" encoding="UTF-8" standalone="no"?>
<!-- Generator: Adobe Illustrator 19.0.0, SVG Export Plug-In . SVG Version: 6.00 Build 0)  -->

<svg
   xmlns:dc="http://purl.org/dc/elements/1.1/"
   xmlns:cc="http://creativecommons.org/ns#"
   xmlns:rdf="http://www.w3.org/1999/02/22-rdf-syntax-ns#"
   xmlns:svg="http://www.w3.org/2000/svg"
   xmlns="http://www.w3.org/2000/svg"
   xmlns:sodipodi="http://sodipodi.sourceforge.net/DTD/sodipodi-0.dtd"
   xmlns:inkscape="http://www.inkscape.org/namespaces/inkscape"
   version="1.1"
   id="Layer_1"
   x="0px"
   y="0px"
   viewBox="0 0 192.88477 192.88477"
   xml:space="preserve"
   width="300"
   height="300"
   inkscape:version="0.91 r13725"
   sodipodi:docname="os_rescue.svg"><metadata
     id="metadata51"><rdf:RDF><cc:Work
         rdf:about=""><dc:format>image/svg+xml</dc:format><dc:type
           rdf:resource="http://purl.org/dc/dcmitype/StillImage" /><dc:title></dc:title></cc:Work></rdf:RDF></metadata><defs
     id="defs49" /><sodipodi:namedview
     pagecolor="#ffffff"
     bordercolor="#666666"
     borderopacity="1"
     objecttolerance="10"
     gridtolerance="10"
     guidetolerance="10"
     inkscape:pageopacity="0"
     inkscape:pageshadow="2"
     inkscape:window-width="1855"
     inkscape:window-height="1056"
     id="namedview47"
     showgrid="false"
     inkscape:zoom="0.4609375"
     inkscape:cx="-274.44068"
     inkscape:cy="256"
     inkscape:window-x="65"
     inkscape:window-y="24"
     inkscape:window-maximized="1"
     inkscape:current-layer="Layer_1" /><g
     id="g4190"
     transform="matrix(0.29296786,0,0,0.29296786,48.221192,48.221339)"><rect
       style="fill:#6ab023"
       id="rect7"
       height="9.2110004"
       width="50.816002"
       y="311.672"
       x="32.910999" /><path
       style="fill:#6ab023"
       inkscape:connector-curvature="0"
       id="path9"
       d="m 127.34,34.496 c 0,-5.094 4.147,-9.242 9.242,-9.242 l 53.212,0 c 5.094,0 9.242,4.147 9.242,9.242 l 0,15.165 16.947,0 0,-15.165 c 0,-14.444 -11.75,-26.189 -26.189,-26.189 l -53.212,0 c -14.443,0 -26.189,11.745 -26.189,26.189 l 0,15.165 16.947,0 0,-15.165 z" /><path
       style="fill:#6ab023"
       inkscape:connector-curvature="0"
       id="path11"
       d="m 303.759,61.105 -278.333,0 C 11.387,61.105 0,72.486 0,86.531 l 0,191.708 c 0,14.039 11.382,25.426 25.426,25.426 l 278.339,0 c 14.039,0 25.426,-11.382 25.426,-25.426 l 0,-191.714 C 329.185,72.486 317.804,61.105 303.759,61.105 Z M 164.593,253.56 c -39.311,0 -71.178,-31.867 -71.178,-71.178 0,-39.311 31.867,-71.178 71.178,-71.178 39.311,0 71.178,31.867 71.178,71.178 0,39.311 -31.867,71.178 -71.178,71.178 z" /><polygon
       style="fill:#ff0000;fill-opacity:1"
       id="polygon13"
       points="149.335,142.108 149.335,167.124 124.319,167.124 124.319,197.64 149.335,197.64 149.335,222.656 179.85,222.656 179.85,197.64 204.867,197.64 204.867,167.124 179.85,167.124 179.85,142.108 " /><rect
       style="fill:#6ab023"
       id="rect15"
       height="9.2110004"
       width="50.816002"
       y="311.672"
       x="237.36301" /></g><g
     id="g17"
     transform="translate(0,-136.30523)" /><g
     id="g19"
     transform="translate(0,-136.30523)" /><g
     id="g21"
     transform="translate(0,-136.30523)" /><g
     id="g23"
     transform="translate(0,-136.30523)" /><g
     id="g25"
     transform="translate(0,-136.30523)" /><g
     id="g27"
     transform="translate(0,-136.30523)" /><g
     id="g29"
     transform="translate(0,-136.30523)" /><g
     id="g31"
     transform="translate(0,-136.30523)" /><g
     id="g33"
     transform="translate(0,-136.30523)" /><g
     id="g35"
     transform="translate(0,-136.30523)" /><g
     id="g37"
     transform="translate(0,-136.30523)" /><g
     id="g39"
     transform="translate(0,-136.30523)" /><g
     id="g41"
     transform="translate(0,-136.30523)" /><g
     id="g43"
     transform="translate(0,-136.30523)" /><g
     id="g45"
     transform="translate(0,-136.30523)" /></svg>