<?xml version="1.0" encoding="utf-8"?>
<!-- Generator: Adobe Illustrator 22.1.0, SVG Export Plug-In . SVG Version: 6.00 Build 0)  -->
<svg version="1.1" id="圖層_1" xmlns="http://www.w3.org/2000/svg" xmlns:xlink="http://www.w3.org/1999/xlink" x="0px" y="0px"
	 viewBox="0 0 300 300" style="enable-background:new 0 0 300 300;" xml:space="preserve">
<style type="text/css">
	.st0{fill:#B1492B;}
	.st1{fill:#FFFFFF;}
</style>
<g id="XMLID_613_">
	<path id="XMLID_1449_" class="st0" d="M150.7,261C89,260.6,39.4,210.7,40,149.7C40.6,87,90.2,38.2,153,39
		c61,0.9,110.3,50.8,108.9,113.4C260.7,214,210.4,261.3,150.7,261z M126.5,185.6c-22.6-16-26.4-52-0.2-71.3c-3.6-6-7.2-12.2-11-18.4
		c-13.3,9.3-22.3,21.1-26.5,36.3c-0.3,0.9,0.5,2.6,1.4,3.5c7.7,8.4,7.8,20.2,0.2,28.3c-1.7,1.8-1.8,3.3-1.2,5.4
		c3.5,10.5,9,19.7,17,27.4c2.7,2.6,5.7,4.8,9,7.5C119.1,197.8,122.7,191.7,126.5,185.6z M122.3,207.5c0.3,0.5,0.5,0.6,0.6,0.8
		c14.2,6.9,28.9,8.3,44.1,4.5c0.8-0.2,1.7-1.4,2-2.1c3.8-11.7,13.4-17.5,25.3-14.9c1.1,0.2,2.7,0,3.5-0.8
		c10.4-10.7,16.4-23.3,17.9-38.3c0.3-2.3-0.6-3-2.7-3c-5.3,0-10.4,0.2-15.7-0.2c-2.4-0.2-3.3,0.8-3.6,3.2
		c-2.9,20-20.5,35.5-40.7,36.2c-6.9,0.2-13.6-1.2-20.2-3.9C129,195.3,125.6,201.5,122.3,207.5z M132.5,111c1.5-0.6,2.4-0.9,3.5-1.4
		c24-8.9,50.5,5,56.6,29.7c0.6,2.3,0.3,5.6,1.8,6.6c1.7,1.2,4.8,0.3,7.2,0.3c4.5,0,9,0,13.6,0c0.2-1.1,0.3-1.4,0.3-1.7
		c-1.1-15.4-7.2-28.5-17.8-39.6c-0.6-0.8-2.4-0.9-3.5-0.8c-11.6,2.6-21.7-3.3-25.3-14.5c-0.3-1.2-1.7-2.4-2.9-2.7
		c-8-2.1-16.1-2.4-24.3-1.2c-6.8,1.1-13.3,2.9-19.7,6.3C125.6,98.5,129,104.7,132.5,111z M75.3,165.1c8.6,0,15.2-6.5,15.2-14.9
		c0-8.6-6.6-15.5-15.1-15.5c-8.1,0-15.2,6.9-15.2,15.2C60,158.3,66.8,165.1,75.3,165.1z M188.7,99.7c8.4,0,15.2-6.6,15.4-14.9
		c0.2-8.1-6.8-15.2-15.1-15.4c-8.4,0-15.2,6.6-15.2,15.1C173.6,92.8,180.2,99.7,188.7,99.7z M188.7,230.6c8.4,0,15.5-6.8,15.4-15.2
		c-0.2-8.1-7.1-15.2-15.2-15.1c-8.3,0-15.1,6.8-15.1,15.2C173.6,223.8,180.2,230.6,188.7,230.6z"/>
	<path id="XMLID_1447_" class="st1" d="M126.5,185.6c-3.6,6.2-7.2,12.2-11.1,18.7c-3.3-2.7-6.3-4.8-9-7.5c-8-7.7-13.7-16.9-17-27.4
		c-0.8-2.1-0.6-3.6,1.2-5.4c7.7-8.1,7.5-19.9-0.2-28.3c-0.8-0.9-1.7-2.6-1.4-3.5c4.2-15.2,13.1-27,26.5-36.3
		c3.8,6.2,7.4,12.4,11,18.4C100.1,133.6,103.9,169.6,126.5,185.6z"/>
	<path id="XMLID_1445_" class="st1" d="M122.3,207.5c3.3-6,6.8-12.2,10.4-18.5c6.6,2.7,13.3,4.2,20.2,3.9
		c20.2-0.6,37.8-16.1,40.7-36.2c0.3-2.6,1.2-3.3,3.6-3.2c5.3,0.2,10.4,0.2,15.7,0.2c2.1,0,2.9,0.8,2.7,3
		c-1.5,14.9-7.5,27.6-17.9,38.3c-0.8,0.8-2.4,0.9-3.5,0.8c-11.9-2.6-21.5,3.2-25.3,14.9c-0.3,0.9-1.2,2-2,2.1
		c-15.2,3.8-30,2.4-44.1-4.5C122.7,208.1,122.6,207.8,122.3,207.5z"/>
	<path id="XMLID_1415_" class="st1" d="M132.5,111c-3.6-6.3-6.9-12.5-10.5-18.8c6.3-3.5,13-5.3,19.7-6.3c8.1-1.2,16.3-0.9,24.3,1.2
		c1.2,0.3,2.6,1.7,2.9,2.7c3.6,11.1,13.7,17,25.3,14.5c1.1-0.3,2.7,0,3.5,0.8c10.5,11.1,16.7,24.3,17.8,39.6c0,0.3-0.2,0.6-0.3,1.7
		c-4.4,0-8.9,0-13.6,0c-2.4,0-5.6,0.9-7.2-0.3c-1.5-1.1-1.2-4.4-1.8-6.6c-6.2-24.6-32.7-38.4-56.6-29.7
		C135.1,110.1,134,110.4,132.5,111z"/>
	<path id="XMLID_1414_" class="st1" d="M75.3,165.1c-8.4,0-15.2-6.8-15.1-15.2c0-8.3,7.1-15.2,15.2-15.2c8.4,0,15.2,6.8,15.1,15.5
		C90.5,158.6,83.8,165.1,75.3,165.1z"/>
	<path id="XMLID_1413_" class="st1" d="M188.7,99.7c-8.4,0-15.1-6.8-14.9-15.4c0.2-8.4,6.8-15.1,15.2-15.1c8.3,0,15.2,7.2,15.1,15.4
		C203.9,93.1,197.1,99.7,188.7,99.7z"/>
	<path id="XMLID_1412_" class="st1" d="M188.7,230.6c-8.4,0-15.1-6.8-14.9-15.2c0-8.4,6.8-15.2,15.1-15.2c8.1,0,15.2,6.9,15.2,15.1
		C204.2,223.8,197.1,230.6,188.7,230.6z"/>
</g>
</svg>
