<?xml version="1.0" encoding="UTF-8" standalone="no"?>
<!-- Created with Inkscape (http://www.inkscape.org/) -->

<svg
   xmlns:dc="http://purl.org/dc/elements/1.1/"
   xmlns:cc="http://creativecommons.org/ns#"
   xmlns:rdf="http://www.w3.org/1999/02/22-rdf-syntax-ns#"
   xmlns:svg="http://www.w3.org/2000/svg"
   xmlns="http://www.w3.org/2000/svg"
   xmlns:sodipodi="http://sodipodi.sourceforge.net/DTD/sodipodi-0.dtd"
   xmlns:inkscape="http://www.inkscape.org/namespaces/inkscape"
   width="50"
   height="50"
   viewBox="0 0 50.000001 50.000001"
   id="svg2"
   version="1.1"
   inkscape:version="0.91 r13725"
   sodipodi:docname="stop.svg">
  <defs
     id="defs4" />
  <sodipodi:namedview
     id="base"
     pagecolor="#ffffff"
     bordercolor="#666666"
     borderopacity="1.0"
     inkscape:pageopacity="0.0"
     inkscape:pageshadow="2"
     inkscape:zoom="9.19"
     inkscape:cx="-2.4275674"
     inkscape:cy="16.918046"
     inkscape:document-units="px"
     inkscape:current-layer="layer1"
     showgrid="false"
     units="px"
     inkscape:window-width="1855"
     inkscape:window-height="1056"
     inkscape:window-x="65"
     inkscape:window-y="24"
     inkscape:window-maximized="1" />
  <metadata
     id="metadata7">
    <rdf:RDF>
      <cc:Work
         rdf:about="">
        <dc:format>image/svg+xml</dc:format>
        <dc:type
           rdf:resource="http://purl.org/dc/dcmitype/StillImage" />
        <dc:title />
      </cc:Work>
    </rdf:RDF>
  </metadata>
  <g
     inkscape:label="Layer 1"
     inkscape:groupmode="layer"
     id="layer1"
     transform="translate(0,-1002.3622)">
    <path
       style="color:#000000;font-style:normal;font-variant:normal;font-weight:normal;font-stretch:normal;font-size:medium;line-height:normal;font-family:sans-serif;text-indent:0;text-align:start;text-decoration:none;text-decoration-line:none;text-decoration-style:solid;text-decoration-color:#000000;letter-spacing:normal;word-spacing:normal;text-transform:none;direction:ltr;block-progression:tb;writing-mode:lr-tb;baseline-shift:baseline;text-anchor:start;white-space:normal;clip-rule:nonzero;display:inline;overflow:visible;visibility:visible;opacity:1;isolation:auto;mix-blend-mode:normal;color-interpolation:sRGB;color-interpolation-filters:linearRGB;solid-color:#000000;solid-opacity:1;fill:#b81c22;fill-opacity:1;fill-rule:nonzero;stroke:#000000;stroke-width:1;stroke-linecap:round;stroke-linejoin:round;stroke-miterlimit:4;stroke-dasharray:none;stroke-dashoffset:0;stroke-opacity:1;color-rendering:auto;image-rendering:auto;shape-rendering:auto;text-rendering:auto;enable-background:accumulate"
       d="m 25,1004.8613 c -12.39935,0 -22.5000145,10.1007 -22.5,22.5 7.3e-6,6.0488 2.426351,11.5418 6.3222656,15.586 a 2.2846396,2.2846396 0 0 0 0.2675782,0.3242 2.2846396,2.2846396 0 0 0 0.3808593,0.3144 c 4.0392609,3.8659 9.5069529,6.2754 15.5292969,6.2754 12.39935,0 22.500014,-10.1007 22.5,-22.5 -7e-6,-6.0487 -2.426314,-11.5399 -6.322266,-15.584 a 2.2846396,2.2846396 0 0 0 -0.267578,-0.3242 2.2846396,2.2846396 0 0 0 -0.378906,-0.3125 C 36.491777,1007.2734 31.023356,1004.8613 25,1004.8613 Z m 0,4.5703 c 4.137571,0 7.881945,1.4477 10.910156,3.7911 l -25.050781,25.0488 c -2.3426481,-3.028 -3.7910107,-6.7732 -3.7910156,-10.9102 C 7.0683477,1017.4312 15.069846,1009.4316 25,1009.4316 Z m 14.140625,7.0215 c 2.342629,3.0279 3.791011,6.7713 3.791016,10.9082 1.1e-5,9.9301 -8.001487,17.9317 -17.931641,17.9317 -4.137547,0 -7.881927,-1.4477 -10.910156,-3.791 l 25.050781,-25.0489 z"
       id="path4160"
       inkscape:connector-curvature="0" />
  </g>
</svg>
