<?xml version="1.0" encoding="UTF-8" standalone="no"?>
<!-- Created with Inkscape (http://www.inkscape.org/) -->

<svg
   xmlns:dc="http://purl.org/dc/elements/1.1/"
   xmlns:cc="http://creativecommons.org/ns#"
   xmlns:rdf="http://www.w3.org/1999/02/22-rdf-syntax-ns#"
   xmlns:svg="http://www.w3.org/2000/svg"
   xmlns="http://www.w3.org/2000/svg"
   xmlns:xlink="http://www.w3.org/1999/xlink"
   xmlns:sodipodi="http://sodipodi.sourceforge.net/DTD/sodipodi-0.dtd"
   xmlns:inkscape="http://www.inkscape.org/namespaces/inkscape"
   width="100"
   height="100"
   id="svg2"
   version="1.1"
   inkscape:version="0.91 r13725"
   sodipodi:docname="storage_emmc.svg">
  <defs
     id="defs4">
    <linearGradient
       id="linearGradient3978">
      <stop
         style="stop-color:#000000;stop-opacity:1;"
         offset="0"
         id="stop3980" />
      <stop
         id="stop3986"
         offset="0.07594936"
         style="stop-color:#444444;stop-opacity:1;" />
      <stop
         style="stop-color:#444444;stop-opacity:1;"
         offset="1"
         id="stop3982" />
    </linearGradient>
    <clipPath
       clipPathUnits="userSpaceOnUse"
       id="clipPath3">
      <path
         d="m 163.1756,129.244 152.8444,0 0,142.9091 -152.8444,0 0,-142.9091 z"
         id="path29"
         inkscape:connector-curvature="0" />
    </clipPath>
    <linearGradient
       xml:id="svg1.linearGradient4979"
       id="svg1.linearGradient4979">
      <stop
         id="svg1.stop4981"
         style="stop-color:#000000;stop-opacity:1;"
         offset="0"
         xml:id="svg1.stop4981" />
      <stop
         id="svg1.stop4983"
         style="stop-color:#606060;stop-opacity:1;"
         offset="1"
         xml:id="svg1.stop4983" />
    </linearGradient>
    <linearGradient
       inkscape:collect="always"
       xlink:href="#linearGradient3978"
       id="linearGradient3026"
       gradientUnits="userSpaceOnUse"
       x1="184.64568"
       y1="184.875"
       x2="275.35434"
       y2="184.875"
       gradientTransform="matrix(1.0000037,0,0,1,-0.35501845,0.35432927)" />
    <linearGradient
       inkscape:collect="always"
       xlink:href="#linearGradient3978"
       id="linearGradient3814"
       gradientUnits="userSpaceOnUse"
       gradientTransform="matrix(1.0000037,0,0,1,-0.35501845,0.35432927)"
       x1="184.64568"
       y1="184.875"
       x2="275.35434"
       y2="184.875" />
  </defs>
  <sodipodi:namedview
     id="base"
     pagecolor="#ffffff"
     bordercolor="#666666"
     borderopacity="1.0"
     inkscape:pageopacity="0.0"
     inkscape:pageshadow="2"
     inkscape:zoom="2.9238866"
     inkscape:cx="-102.09878"
     inkscape:cy="122.26665"
     inkscape:document-units="px"
     inkscape:current-layer="g3796"
     showgrid="true"
     inkscape:window-width="1855"
     inkscape:window-height="1056"
     inkscape:window-x="65"
     inkscape:window-y="24"
     inkscape:window-maximized="1"
     fit-margin-top="0"
     fit-margin-left="0"
     fit-margin-right="0"
     fit-margin-bottom="0">
    <inkscape:grid
       type="xygrid"
       id="grid3122"
       empspacing="5"
       dotted="true"
       visible="true"
       enabled="true"
       snapvisiblegridlinesonly="false"
       spacingx="1px"
       spacingy="1px" />
  </sodipodi:namedview>
  <metadata
     id="metadata7">
    <rdf:RDF>
      <cc:Work
         rdf:about="">
        <dc:format>image/svg+xml</dc:format>
        <dc:type
           rdf:resource="http://purl.org/dc/dcmitype/StillImage" />
        <dc:title />
      </cc:Work>
    </rdf:RDF>
  </metadata>
  <g
     inkscape:label="Layer 1"
     inkscape:groupmode="layer"
     id="layer1"
     transform="translate(-184.64567,-117.72933)">
    <g
       id="g3796"
       transform="translate(5,-9.93285)">
      <g
         id="g4162"
         transform="matrix(0,1,-1,0,414.875,-51.983655)">
        <path
           inkscape:connector-curvature="0"
           style="fill:url(#linearGradient3814);fill-opacity:1;stroke:#000000;stroke-width:0.80000001;stroke-linecap:butt;stroke-linejoin:miter;stroke-miterlimit:0;stroke-dasharray:none;stroke-dashoffset:0;stroke-opacity:1"
           d="m 190.64569,152.72933 c -3.32401,0 -6.00002,2.676 -6.00002,6 l 0,53 c 0,3.324 2.67601,6 6.00002,6 l 2.00001,0 1.28125,0 20.71883,0 5.00002,-5 7.00002,0 0,5 8.00003,0 8.00003,-8 10.00004,0 7.00002,0 9.00004,0 c 3.32401,0 6.00002,-2.676 6.00002,-6 l 0,-45 c 0,-3.324 -2.67601,-6 -6.00002,-6 l -9.00004,0 -7.00002,0 -58.71897,0 -1.28125,0 -2.00001,0 z"
           id="rect3120" />
        <path
           style="fill:#ffffff;fill-opacity:1;stroke:none"
           d="m 266.6003,180.66218 -6.00002,-4 0,8 z"
           id="path3899"
           inkscape:connector-curvature="0" />
        <g
           id="g3962"
           transform="matrix(0,-1,1.0000037,0,26.565351,479.56843)"
           style="fill:#ffffff;fill-opacity:1">
          <path
             d="m 281.11523,191.13817 c 0.58985,-1.18216 1.14844,-1.77325 1.67579,-1.77325 0.60155,0 1.04296,0.39519 1.32421,1.18553 0.23828,-0.36477 0.50195,-0.63835 0.79102,-0.82076 0.28906,-0.18237 0.60156,-0.27356 0.9375,-0.27358 0.76562,2e-5 1.28515,0.65864 1.55859,1.9759 0.0547,0.27021 0.13867,1.18555 0.25196,2.746 0.10936,1.09434 0.24999,2.91825 0.42187,5.47172 0.0156,0.38505 -0.0605,0.70254 -0.22851,0.95248 -0.16798,0.24994 -0.36525,0.37492 -0.5918,0.37492 -0.44923,0 -0.7129,-0.38505 -0.79102,-1.15514 -0.0703,-0.69579 -0.14258,-1.67867 -0.21679,-2.94866 -0.0781,-1.39156 -0.14259,-2.37782 -0.19336,-2.95879 -0.10548,-1.20916 -0.24024,-1.81376 -0.4043,-1.81376 -0.0899,0 -0.29493,0.1553 -0.61523,0.46611 -0.32032,0.31074 -0.5547,0.57758 -0.70313,0.80049 0,0.77009 0.0527,1.87796 0.1582,3.32356 0.10937,1.47939 0.16406,2.58726 0.16407,3.32357 -10e-6,0.38504 -0.0762,0.70592 -0.22852,0.96262 -0.15235,0.2567 -0.34571,0.38504 -0.58008,0.38505 -0.23438,-1e-5 -0.42774,-0.12831 -0.58008,-0.38505 -0.15234,-0.2567 -0.22851,-0.57758 -0.22851,-0.96262 0,-0.77009 -0.0479,-1.90329 -0.14356,-3.39956 -0.0957,-1.49627 -0.14355,-2.62947 -0.14355,-3.39956 0,-0.43233 -0.0215,-0.77685 -0.0645,-1.03355 -0.45313,0.4526 -0.90821,1.20581 -1.36524,2.25961 -0.0195,0.0472 -0.0527,0.11829 -0.0996,0.2128 -0.0156,1.36455 -0.0234,2.43525 -0.0234,3.2121 -1e-5,0.18915 -0.004,0.44416 -0.0117,0.76502 -0.008,0.32088 -0.0117,0.55901 -0.0117,0.71437 0,0.36479 -0.0859,0.65188 -0.25781,0.8613 -0.15626,0.1959 -0.34962,0.29385 -0.58008,0.29385 -0.33203,0 -0.55664,-0.24994 -0.67383,-0.74984 -0.082,-0.33776 -0.12305,-0.87479 -0.12305,-1.61112 l 0,-3.7694 c 0,-0.33775 -0.008,-0.83258 -0.0234,-1.48446 -0.0156,-0.65187 -0.0234,-1.14668 -0.0234,-1.48446 0,-0.6012 0.0625,-1.14499 0.1875,-1.63138 0.15234,-0.60797 0.36718,-0.91195 0.64453,-0.91195 0.21875,0 0.41406,0.14699 0.58594,0.44077 0.17187,0.29387 0.25781,0.61642 0.25781,0.96769 0,-0.14181 -0.0176,0.14855 -0.0527,0.87143 z"
             style="font-style:normal;font-variant:normal;font-weight:bold;font-stretch:normal;font-size:12px;line-height:125%;font-family:'Comic Sans MS';-inkscape-font-specification:'Comic Sans MS Bold';text-align:start;letter-spacing:0px;word-spacing:0px;writing-mode:lr-tb;text-anchor:start;fill:#ffffff;fill-opacity:1;stroke:none"
             id="path3942"
             inkscape:connector-curvature="0" />
          <path
             d="m 290.26172,190.55853 c -0.25,1e-5 -0.4668,-0.0579 -0.65039,-0.17379 -0.1836,-0.11586 -0.27539,-0.25732 -0.27539,-0.42438 0,-0.16705 0.0918,-0.30851 0.27539,-0.42438 0.18359,-0.11586 0.40039,-0.17379 0.65039,-0.1738 0.25,1e-5 0.46582,0.058 0.64746,0.1738 0.18164,0.11587 0.27246,0.25733 0.27246,0.42438 0,0.16706 -0.0908,0.30852 -0.27246,0.42438 -0.18164,0.11587 -0.39746,0.1738 -0.64746,0.17379 z m 0.49805,2.96261 c -10e-6,0.15358 0.007,0.40013 0.0205,0.73963 0.0137,0.33951 0.0205,0.58605 0.0205,0.73964 0,0.15628 -0.0762,0.28494 -0.22851,0.38599 -0.15235,0.10104 -0.34571,0.15156 -0.58008,0.15156 -0.23438,0 -0.42774,-0.0505 -0.58008,-0.15156 -0.15235,-0.10105 -0.22852,-0.22971 -0.22852,-0.38599 0,-0.15359 -0.007,-0.40013 -0.0205,-0.73964 -0.0137,-0.3395 -0.0205,-0.58605 -0.0205,-0.73963 0,-0.23982 0.0195,-0.54025 0.0586,-0.90131 0.0391,-0.36107 0.0586,-0.6615 0.0586,-0.90132 -10e-6,-0.15627 0.0762,-0.28493 0.22851,-0.38598 0.15234,-0.10104 0.3457,-0.15156 0.58008,-0.15156 0.23437,0 0.42773,0.0506 0.58008,0.15156 0.15234,0.10105 0.22851,0.22971 0.22851,0.38598 0,0.23982 -0.0195,0.54025 -0.0586,0.90132 -0.0391,0.36106 -0.0586,0.66149 -0.0586,0.90131 z"
             style="font-style:normal;font-variant:normal;font-weight:bold;font-stretch:normal;font-size:12px;line-height:125%;font-family:'Comic Sans MS';-inkscape-font-specification:'Comic Sans MS Bold';text-align:start;letter-spacing:0px;word-spacing:0px;writing-mode:lr-tb;text-anchor:start;fill:#ffffff;fill-opacity:1;stroke:none"
             id="path3944"
             inkscape:connector-curvature="0" />
          <path
             d="m 294.99609,195.73132 c -0.85937,0 -1.58008,-0.24414 -2.16211,-0.73242 -0.61328,-0.51562 -0.91992,-1.19531 -0.91992,-2.03906 0,-0.77734 0.27539,-1.58008 0.82617,-2.4082 0.625,-0.94531 1.35156,-1.41797 2.17969,-1.41797 0.40625,0 0.88086,0.10938 1.42383,0.32812 0.66015,0.26954 0.99023,0.58009 0.99023,0.93164 0,0.19141 -0.0664,0.36134 -0.19921,0.50977 -0.14063,0.16016 -0.32228,0.24024 -0.54493,0.24023 -0.16797,1e-5 -0.37012,-0.0908 -0.60644,-0.27246 -0.23633,-0.18163 -0.59083,-0.27245 -1.06348,-0.27246 -0.30078,1e-5 -0.62695,0.29493 -0.97851,0.88477 -0.33594,0.57031 -0.50391,1.0625 -0.50391,1.47656 0,0.41016 0.14844,0.73242 0.44531,0.9668 0.28125,0.22265 0.65234,0.33398 1.11328,0.33398 0.26172,0 0.58203,-0.0996 0.96094,-0.29883 0.3789,-0.19922 0.61914,-0.29882 0.7207,-0.29883 0.21094,1e-5 0.3916,0.0762 0.542,0.22852 0.15038,0.15234 0.22558,0.32617 0.22558,0.52148 0,0.30469 -0.33203,0.60938 -0.99609,0.91407 -0.59376,0.26953 -1.07813,0.40429 -1.45313,0.40429 z"
             style="font-style:normal;font-variant:normal;font-weight:bold;font-stretch:normal;font-size:12px;line-height:125%;font-family:'Comic Sans MS';-inkscape-font-specification:'Comic Sans MS Bold';text-align:start;letter-spacing:0px;word-spacing:0px;writing-mode:lr-tb;text-anchor:start;fill:#ffffff;fill-opacity:1;stroke:none"
             id="path3946"
             inkscape:connector-curvature="0" />
          <path
             d="m 303.375,191.13757 c -0.0352,0.59766 -0.30665,0.89649 -0.81445,0.89649 -0.49219,0 -0.73829,-0.25391 -0.73828,-0.76172 l -0.0293,-0.5918 c -0.87891,0.14063 -1.50782,0.5918 -1.88672,1.35352 l 0.006,2.94726 c 0,0.22266 -0.0762,0.40723 -0.22852,0.55371 -0.15234,0.14649 -0.3457,0.21973 -0.58007,0.21973 -0.24219,0 -0.42969,-0.0781 -0.5625,-0.23437 -0.125,-0.14063 -0.1875,-0.32032 -0.1875,-0.53907 l 0,-3.83789 c 0,-0.12109 0.004,-0.30175 0.0117,-0.54199 0.008,-0.24023 0.0117,-0.42089 0.0117,-0.54199 0,-0.21875 0.0654,-0.40136 0.19629,-0.54785 0.13086,-0.14648 0.31738,-0.21972 0.55957,-0.21973 0.43359,1e-5 0.69141,0.22266 0.77344,0.66797 0.6914,-0.51562 1.45898,-0.77343 2.30273,-0.77344 0.78125,1e-5 1.17187,0.51954 1.17188,1.5586 -10e-6,0.19922 -0.002,0.33008 -0.006,0.39257 z"
             style="font-style:normal;font-variant:normal;font-weight:bold;font-stretch:normal;font-size:12px;line-height:125%;font-family:'Comic Sans MS';-inkscape-font-specification:'Comic Sans MS Bold';text-align:start;letter-spacing:0px;word-spacing:0px;writing-mode:lr-tb;text-anchor:start;fill:#ffffff;fill-opacity:1;stroke:none"
             id="path3948"
             inkscape:connector-curvature="0" />
          <path
             d="m 306.64453,195.70789 c -0.72266,0 -1.34375,-0.24805 -1.86328,-0.74414 -0.57031,-0.54297 -0.86914,-1.26758 -0.89648,-2.17383 -0.0274,-0.86328 0.20898,-1.63281 0.70898,-2.3086 0.59375,-0.79687 1.41992,-1.1953 2.47852,-1.19531 0.78124,1e-5 1.40233,0.31251 1.86328,0.9375 0.41405,0.56251 0.62108,1.25977 0.62109,2.0918 -1e-5,0.90625 -0.24219,1.67969 -0.72656,2.32031 -0.54298,0.71484 -1.27149,1.07227 -2.18555,1.07227 z m 0.35156,-4.875 c -0.48047,-0.004 -0.85937,0.21484 -1.13672,0.65625 -0.23437,0.37109 -0.35156,0.80469 -0.35156,1.30078 0,0.46875 0.13281,0.82812 0.39844,1.07812 0.21094,0.19922 0.45703,0.29883 0.73828,0.29883 0.33984,0 0.63476,-0.11523 0.88477,-0.3457 0.28515,-0.26953 0.43749,-0.63477 0.45703,-1.09571 0.0508,-1.2578 -0.2793,-1.88866 -0.99024,-1.89257 z"
             style="font-style:normal;font-variant:normal;font-weight:bold;font-stretch:normal;font-size:12px;line-height:125%;font-family:'Comic Sans MS';-inkscape-font-specification:'Comic Sans MS Bold';text-align:start;letter-spacing:0px;word-spacing:0px;writing-mode:lr-tb;text-anchor:start;fill:#ffffff;fill-opacity:1;stroke:none"
             id="path3950"
             inkscape:connector-curvature="0" />
          <g
             id="text3905"
             style="font-style:oblique;font-variant:normal;font-weight:bold;font-stretch:normal;font-size:12px;line-height:125%;font-family:Tahoma;-inkscape-font-specification:'Tahoma Bold Oblique';letter-spacing:0px;word-spacing:0px;fill:#ffffff;fill-opacity:1;stroke:none">
            <path
               id="path3953"
               d="m 293.54382,205.52039 c -0.66797,0 -1.23297,-0.0645 -1.695,-0.19336 -0.46204,-0.12891 -0.87726,-0.28907 -1.24567,-0.48047 l 0.70459,-2.07422 0.19922,0 c 0.31152,0.37109 0.69708,0.65625 1.15668,0.85547 0.45959,0.19922 0.93743,0.29883 1.43353,0.29883 0.12499,0 0.29467,-0.0137 0.50903,-0.041 0.21435,-0.0273 0.39404,-0.0703 0.53906,-0.12891 0.1748,-0.0664 0.3352,-0.15917 0.4812,-0.27832 0.146,-0.11914 0.2522,-0.27636 0.31861,-0.47168 0.0742,-0.21874 0.0486,-0.39648 -0.0767,-0.5332 -0.12537,-0.13671 -0.29658,-0.23632 -0.51361,-0.29883 -0.27027,-0.0781 -0.56239,-0.15234 -0.87635,-0.22265 -0.31397,-0.0703 -0.60022,-0.15625 -0.85876,-0.25782 -0.59473,-0.23827 -0.97022,-0.55859 -1.12647,-0.96093 -0.15625,-0.40234 -0.13147,-0.90625 0.0743,-1.51172 0.27735,-0.8164 0.84766,-1.47753 1.71094,-1.9834 0.86328,-0.50585 1.8125,-0.75878 2.84766,-0.75879 0.51952,1e-5 1.01824,0.0527 1.49615,0.1582 0.4779,0.10548 0.88946,0.24806 1.23468,0.42774 l -0.67712,1.99219 -0.19336,0 c -0.22999,-0.27734 -0.54585,-0.51172 -0.94757,-0.70313 -0.40174,-0.1914 -0.8487,-0.2871 -1.34088,-0.28711 -0.19141,1e-5 -0.36793,0.0137 -0.52954,0.041 -0.16163,0.0273 -0.33973,0.0801 -0.5343,0.1582 -0.15797,0.0625 -0.30769,0.15528 -0.44916,0.27832 -0.14149,0.12305 -0.23811,0.26075 -0.28986,0.41309 -0.0757,0.22266 -0.0566,0.39942 0.0571,0.53027 0.11376,0.13086 0.37927,0.24903 0.79651,0.35449 0.2705,0.0664 0.53088,0.13087 0.78113,0.19336 0.25023,0.0625 0.51098,0.14844 0.78222,0.25781 0.53125,0.21876 0.88159,0.5127 1.05103,0.88184 0.16942,0.36914 0.15124,0.85645 -0.0546,1.46191 -0.29468,0.86719 -0.87244,1.56446 -1.73327,2.0918 -0.86085,0.52734 -1.87135,0.79102 -3.0315,0.79102 z"
               inkscape:connector-curvature="0"
               style="fill:#ffffff;fill-opacity:1" />
            <path
               id="path3955"
               d="m 307.76855,201.00867 c -0.27613,0.8125 -0.70112,1.54004 -1.27496,2.18261 -0.57386,0.64258 -1.19062,1.13575 -1.85028,1.4795 -0.55274,0.29297 -1.10999,0.48144 -1.67175,0.56543 -0.56177,0.084 -1.14344,0.12597 -1.745,0.12597 l -2.73047,0 2.96485,-8.72461 2.70703,0 c 0.61327,1e-5 1.17425,0.0391 1.68292,0.11719 0.50866,0.0781 0.94622,0.26759 1.31268,0.56836 0.44946,0.3672 0.73437,0.86231 0.85474,1.48535 0.12035,0.62305 0.0371,1.35645 -0.24976,2.2002 z m -2.24414,-0.0176 c 0.19531,-0.57421 0.26367,-1.06543 0.20508,-1.47363 -0.0586,-0.4082 -0.25379,-0.72754 -0.58557,-0.95801 -0.24122,-0.16406 -0.52222,-0.2539 -0.84302,-0.26953 -0.3208,-0.0156 -0.70777,-0.0234 -1.16089,-0.0234 l -0.041,0 -1.85596,5.46094 0.041,0 c 0.49218,0 0.91021,-0.009 1.25409,-0.0264 0.34386,-0.0176 0.70061,-0.12207 1.07025,-0.31348 0.43652,-0.22656 0.81621,-0.53906 1.1391,-0.9375 0.32287,-0.39843 0.58184,-0.88476 0.77691,-1.45898 z"
               inkscape:connector-curvature="0"
               style="fill:#ffffff;fill-opacity:1" />
          </g>
        </g>
        <g
           transform="matrix(0,-1,1.0000037,0,-0.40068846,0.29999928)"
           style="font-style:normal;font-variant:normal;font-weight:normal;font-stretch:normal;font-size:12px;line-height:125%;font-family:'Comic Sans MS';-inkscape-font-specification:'Comic Sans MS';letter-spacing:0px;word-spacing:0px;fill:#ffffff;fill-opacity:1;stroke:none"
           id="text3972">
          <path
             inkscape:connector-curvature="0"
             d="m -192.25568,213 -7.47851,0 0.56439,-1.66113 c 0.80379,-0.5013 1.53338,-0.97526 2.18878,-1.42188 0.65539,-0.44661 1.24271,-0.87044 1.76196,-1.27148 0.67476,-0.52409 1.19116,-0.98437 1.5492,-1.38086 0.35802,-0.39648 0.60825,-0.80436 0.75067,-1.22363 0.16121,-0.47396 0.14348,-0.8374 -0.0532,-1.09034 -0.19668,-0.25292 -0.54795,-0.37938 -1.0538,-0.37939 -0.25978,1e-5 -0.51555,0.0319 -0.76734,0.0957 -0.25179,0.0638 -0.51313,0.14584 -0.78399,0.2461 -0.26804,0.10482 -0.50266,0.21192 -0.70389,0.32128 -0.20124,0.10939 -0.35227,0.19142 -0.4531,0.2461 l -0.19824,0 0.75494,-2.22168 c 0.33382,-0.13671 0.83042,-0.27685 1.48981,-0.42041 0.65938,-0.14355 1.27162,-0.21532 1.83673,-0.21533 1.20768,1e-5 2.03119,0.26889 2.47055,0.80664 0.43934,0.53777 0.49325,1.29428 0.16172,2.26953 -0.20424,0.60157 -0.54561,1.1906 -1.02411,1.76709 -0.47853,0.5765 -1.15828,1.19515 -2.03925,1.85596 -0.54802,0.4056 -1.06947,0.76676 -1.56436,1.08349 -0.4949,0.31674 -0.85144,0.54118 -1.06961,0.67334 l 4.31348,0 z"
             style="font-style:oblique;font-weight:bold;font-size:14px;font-family:Tahoma;-inkscape-font-specification:'Tahoma Bold Oblique';fill:#ffffff"
             id="path3989" />
          <path
             inkscape:connector-curvature="0"
             d="m -182.09833,212.41895 c -0.50843,0.18229 -1.14873,0.36002 -1.9209,0.5332 -0.77218,0.17318 -1.50462,0.25976 -2.19732,0.25976 -1.59962,0 -2.71765,-0.46142 -3.3541,-1.38427 -0.63645,-0.92285 -0.66672,-2.23193 -0.0908,-3.92725 0.54232,-1.59504 1.45192,-2.87336 2.72882,-3.83496 1.27689,-0.96158 2.74021,-1.44237 4.38996,-1.44238 0.8522,1e-5 1.51742,0.0809 1.99566,0.24267 0.47822,0.1618 0.95489,0.38169 1.43,0.65967 l -0.81049,2.38574 -0.23242,0 c -0.0906,-0.0957 -0.22111,-0.23127 -0.39157,-0.40674 -0.17049,-0.17544 -0.3443,-0.32469 -0.52146,-0.44775 -0.20566,-0.14582 -0.45809,-0.27115 -0.75729,-0.37598 -0.29923,-0.10481 -0.63568,-0.15721 -1.00937,-0.15722 -0.43751,1e-5 -0.85956,0.0684 -1.26614,0.20508 -0.40661,0.13672 -0.79917,0.34636 -1.17771,0.6289 -0.36174,0.27345 -0.6925,0.6198 -0.99228,1.03906 -0.29979,0.41928 -0.5441,0.90691 -0.73294,1.46289 -0.40418,1.18946 -0.40382,2.06674 0.001,2.63184 0.40488,0.56511 1.12458,0.84766 2.15909,0.84766 0.0911,0 0.19902,-0.002 0.32364,-0.007 0.1246,-0.005 0.23405,-0.0114 0.32834,-0.0205 l 0.67846,-1.99609 -1.97558,0 0.64813,-1.90723 4.4502,0 z"
             style="font-style:oblique;font-weight:bold;font-size:14px;font-family:Tahoma;-inkscape-font-specification:'Tahoma Bold Oblique';fill:#ffffff"
             id="path3991" />
          <path
             inkscape:connector-curvature="0"
             d="m -171.15314,209.88281 c -0.17205,0.50586 -0.41885,0.9502 -0.74041,1.33301 -0.32159,0.38281 -0.68674,0.69955 -1.09546,0.9502 -0.48479,0.30078 -0.97791,0.51497 -1.47934,0.64257 -0.50145,0.12761 -1.10537,0.19141 -1.81174,0.19141 l -4.07422,0 3.45899,-10.17871 3.5957,0 c 0.74739,1e-5 1.30402,0.0285 1.66989,0.0855 0.36585,0.057 0.68636,0.1766 0.96152,0.35888 0.29792,0.19598 0.48114,0.45802 0.54965,0.78614 0.0685,0.32813 0.03,0.70639 -0.11557,1.13476 -0.16892,0.49676 -0.44335,0.93881 -0.8233,1.32618 -0.37998,0.38737 -0.81961,0.6722 -1.31891,0.85449 l -0.0188,0.0547 c 0.58389,0.13217 0.99569,0.40219 1.23538,0.81006 0.23968,0.40789 0.24188,0.95818 0.007,1.65088 z m -1.85296,-4.18359 c 0.0558,-0.16406 0.071,-0.33268 0.0455,-0.50586 -0.0255,-0.17317 -0.11387,-0.2985 -0.26511,-0.37598 -0.14385,-0.0729 -0.3297,-0.11278 -0.55755,-0.11963 -0.22788,-0.007 -0.56967,-0.0102 -1.02539,-0.0103 l -0.17774,0 -0.73187,2.15332 0.32129,0 c 0.43749,1e-5 0.74554,-0.005 0.92413,-0.0137 0.17858,-0.009 0.37597,-0.057 0.59216,-0.14356 0.23754,-0.0957 0.42375,-0.22785 0.55863,-0.39648 0.13486,-0.16861 0.24017,-0.36458 0.31595,-0.58789 z m -0.76264,4.13574 c 0.10681,-0.31445 0.1266,-0.56054 0.0594,-0.73828 -0.0672,-0.17773 -0.21292,-0.31217 -0.43707,-0.40332 -0.13502,-0.0592 -0.33689,-0.0923 -0.60562,-0.0991 -0.26875,-0.007 -0.63098,-0.0103 -1.08671,-0.0103 l -0.47167,0 -0.86689,2.54981 0.13672,0 c 0.66536,0 1.12721,-0.005 1.38556,-0.0137 0.25834,-0.009 0.53904,-0.0706 0.8421,-0.18457 0.2666,-0.10026 0.48634,-0.24723 0.65924,-0.44092 0.17289,-0.19368 0.3012,-0.41357 0.38495,-0.65967 z"
             style="font-style:oblique;font-weight:bold;font-size:14px;font-family:Tahoma;-inkscape-font-specification:'Tahoma Bold Oblique';fill:#ffffff"
             id="path3993" />
        </g>
        <path
           style="fill:none;stroke:#000000;stroke-width:0.70866144;stroke-linecap:butt;stroke-linejoin:miter;stroke-miterlimit:0;stroke-dasharray:none;stroke-dashoffset:0;stroke-opacity:1"
           d="m 191.60002,152.66218 c 3.00001,10 3.00001,55 0,65"
           id="path3976"
           inkscape:connector-curvature="0"
           sodipodi:nodetypes="cc" />
      </g>
    </g>
  </g>
</svg>
