<svg id="圖層_1" data-name="圖層 1" xmlns="http://www.w3.org/2000/svg" viewBox="0 0 96 96"><rect width="96" height="96" fill="#fff"/><rect x="13.5" y="22.5" width="70" height="50" rx="3.68" fill="#10366a"/><rect x="28.5" y="17.5" width="40" height="60" transform="translate(96 -1) rotate(90)" fill="#fff"/><path d="M53.48,19.66V5.92h4.74a11.62,11.62,0,0,1,2.44.19,4.62,4.62,0,0,1,2,1A5.58,5.58,0,0,1,64.3,9.45a9.17,9.17,0,0,1,.54,3.26,9.76,9.76,0,0,1-.36,2.78,7,7,0,0,1-.94,2,4.89,4.89,0,0,1-1.25,1.24,4.8,4.8,0,0,1-1.64.69,9.18,9.18,0,0,1-2.21.24ZM55.3,18h2.94a7.08,7.08,0,0,0,2.13-.26,3.07,3.07,0,0,0,1.23-.71,4.33,4.33,0,0,0,1-1.74A8.53,8.53,0,0,0,63,12.68a6.41,6.41,0,0,0-.71-3.31,3.53,3.53,0,0,0-1.72-1.55,7,7,0,0,0-2.35-.28H55.3Z" fill="#10366a"/><path d="M66.73,15.24l1.71-.15A3.71,3.71,0,0,0,69,16.78a3.06,3.06,0,0,0,1.38,1.07,5.13,5.13,0,0,0,2.11.41A5,5,0,0,0,74.34,18a2.49,2.49,0,0,0,1.18-.85,2,2,0,0,0,.39-1.17,1.78,1.78,0,0,0-.37-1.13A2.78,2.78,0,0,0,74.3,14a21.55,21.55,0,0,0-2.45-.67,12.9,12.9,0,0,1-2.65-.86,3.73,3.73,0,0,1-1.47-1.28,3.15,3.15,0,0,1-.48-1.71,3.56,3.56,0,0,1,.59-2,3.68,3.68,0,0,1,1.73-1.37,6.54,6.54,0,0,1,2.52-.47,7,7,0,0,1,2.69.49,3.9,3.9,0,0,1,1.8,1.45,4.14,4.14,0,0,1,.67,2.17l-1.74.13a2.79,2.79,0,0,0-1-2,3.73,3.73,0,0,0-2.4-.67,3.84,3.84,0,0,0-2.4.61A1.83,1.83,0,0,0,69,9.35a1.57,1.57,0,0,0,.54,1.22,7.47,7.47,0,0,0,2.74,1,17.78,17.78,0,0,1,3,.87,4.2,4.2,0,0,1,1.77,1.4,3.45,3.45,0,0,1,.58,2A3.69,3.69,0,0,1,77,17.84a4.11,4.11,0,0,1-1.81,1.51,6.24,6.24,0,0,1-2.65.54,7.93,7.93,0,0,1-3.12-.54,4.38,4.38,0,0,1-2-1.64A4.58,4.58,0,0,1,66.73,15.24Z" fill="#10366a"/><path d="M80.46,19.66V5.92h1.82V19.66Z" fill="#10366a"/><path d="M41.77,51.65l1.85-.16a3.26,3.26,0,0,0,1,2,2.6,2.6,0,0,0,1.8.68,2.81,2.81,0,0,0,2.15-1,3.63,3.63,0,0,0,.88-2.54,3.27,3.27,0,0,0-.85-2.37,2.94,2.94,0,0,0-2.21-.87,3,3,0,0,0-1.53.39,2.9,2.9,0,0,0-1.08,1l-1.65-.22,1.39-7.35h7.12V43H44.88l-.77,3.85a4.63,4.63,0,0,1,2.7-.9A4.26,4.26,0,0,1,50,47.21a4.53,4.53,0,0,1,1.29,3.34,5.27,5.27,0,0,1-1.13,3.36,4.56,4.56,0,0,1-3.76,1.73,4.64,4.64,0,0,1-3.19-1.09A4.3,4.3,0,0,1,41.77,51.65Z" fill="#10366a"/><rect x="52.88" y="39.81" width="1.71" height="2.56" fill="#10366a"/><rect x="56.3" y="39.81" width="1.71" height="2.56" fill="#10366a"/></svg>