<svg id="圖層_1" data-name="圖層 1" xmlns="http://www.w3.org/2000/svg" viewBox="0 0 96 96"><rect x="0.01" y="0.02" width="96" height="96" style="fill:#fff"/><path id="path5" d="M16.74,25.34,77.27,13.9c3.88-.73,7.12,4.42,7.12,9.82V72.8c0,5.4-3.24,10.55-7.12,9.82L16.74,71.16c-3.88-.77-7.12-2.13-7.12-7.53V32.87C9.62,27.47,12.86,26.08,16.74,25.34Z" style="fill:#10366a"/><path id="path7" d="M77.39,72.8V23.72c0-1.48-.72-2.62-1.78-2.46L15.08,30.43a2.17,2.17,0,0,0-1.78,2.45V63.63a2.18,2.18,0,0,0,1.78,2.46l60.53,9.17C76.67,75.41,77.39,74.27,77.39,72.8Z" style="fill:#fff"/><path id="path4162" d="M84.56,22.56V74.1l2-1.15V24.84Z" style="fill:#fff;stroke:#10366a;stroke-miterlimit:10;stroke-width:0.75px;fill-rule:evenodd"/><path id="path4181" d="M22.81,37v2.68H18.05V60.5h-2V39.7H11.28V37Z" style="fill:#10366a"/><path d="M18.21,60.66H15.9V39.86H11.12v-3H23v3H18.21Zm-2-.34H17.9V39.54h4.76V37.19H11.44v2.35h4.78Z" style="fill:#fff"/><path id="path4183" d="M35.55,48.78A20.84,20.84,0,0,1,35,53.63a12.83,12.83,0,0,1-1.48,3.78,7.63,7.63,0,0,1-2.25,2.48,5.51,5.51,0,0,1-5.92,0,7.76,7.76,0,0,1-2.29-2.48,13.2,13.2,0,0,1-1.52-3.78A20.84,20.84,0,0,1,21,48.78,20.09,20.09,0,0,1,21.56,44,13.21,13.21,0,0,1,23,40.15a7.54,7.54,0,0,1,2.3-2.5,5.35,5.35,0,0,1,5.92,0,7.51,7.51,0,0,1,2.29,2.5A13,13,0,0,1,35,44,20.09,20.09,0,0,1,35.55,48.78Zm-2,0a18,18,0,0,0-.38-3.88,9.74,9.74,0,0,0-1-2.91,5.3,5.3,0,0,0-1.65-1.78,3.91,3.91,0,0,0-4.3,0A5.3,5.3,0,0,0,24.49,42a10.37,10.37,0,0,0-1.06,2.91,21.09,21.09,0,0,0,0,7.76,10.3,10.3,0,0,0,1.06,2.9,5.41,5.41,0,0,0,1.65,1.78,4,4,0,0,0,4.3,0,5.41,5.41,0,0,0,1.65-1.78,10,10,0,0,0,1-2.9A18.7,18.7,0,0,0,33.51,48.78Z" style="fill:#10366a"/><path d="M28.28,60.91a5.46,5.46,0,0,1-3-.89,7.76,7.76,0,0,1-2.34-2.53,13.46,13.46,0,0,1-1.5-3.83,22.94,22.94,0,0,1,0-9.76,13.17,13.17,0,0,1,1.5-3.83,7.52,7.52,0,0,1,2.34-2.55,5.58,5.58,0,0,1,6.1,0,7.76,7.76,0,0,1,2.35,2.55,13.88,13.88,0,0,1,1.5,3.83,22.28,22.28,0,0,1,.57,4.88,21.65,21.65,0,0,1-.53,4.88,13.46,13.46,0,0,1-1.5,3.83A7.76,7.76,0,0,1,31.29,60,5.44,5.44,0,0,1,28.28,60.91Zm0-24a5,5,0,0,0-2.86.89,7.27,7.27,0,0,0-2.24,2.44A13.38,13.38,0,0,0,21.71,44a21.46,21.46,0,0,0-.52,4.8,21.67,21.67,0,0,0,.52,4.81,12.9,12.9,0,0,0,1.47,3.73,7.34,7.34,0,0,0,2.24,2.43,5.32,5.32,0,0,0,5.74,0,7.44,7.44,0,0,0,2.25-2.42,13.45,13.45,0,0,0,1.45-3.78,22.46,22.46,0,0,0,0-9.61,13.41,13.41,0,0,0-1.46-3.75,7.2,7.2,0,0,0-2.25-2.44A5.14,5.14,0,0,0,28.28,36.93Zm0,21.23a4,4,0,0,1-2.23-.65,5.54,5.54,0,0,1-1.7-1.87,10.09,10.09,0,0,1-1.09-3,20.62,20.62,0,0,1,0-7.83,9.74,9.74,0,0,1,1.06-3A5.57,5.57,0,0,1,26,40a4.11,4.11,0,0,1,4.47,0,5.57,5.57,0,0,1,1.7,1.88,11.07,11.07,0,0,1,1.06,3,20.9,20.9,0,0,1,0,7.83,11.07,11.07,0,0,1-1.06,3,5.55,5.55,0,0,1-1.7,1.87A4.11,4.11,0,0,1,28.28,58.16Zm0-18.48a3.58,3.58,0,0,0-2.05.62,5.19,5.19,0,0,0-1.61,1.78,10.08,10.08,0,0,0-1,2.86,20.35,20.35,0,0,0,0,7.7,10.12,10.12,0,0,0,1,2.85,5.19,5.19,0,0,0,1.61,1.78,3.84,3.84,0,0,0,4.12,0,5,5,0,0,0,1.59-1.78,10.17,10.17,0,0,0,1-2.85,20.22,20.22,0,0,0,0-7.7,9.54,9.54,0,0,0-1-2.86,5,5,0,0,0-1.59-1.78A3.62,3.62,0,0,0,28.28,39.68Z" style="fill:#fff"/><path id="path4185" d="M42,58a2.87,2.87,0,0,0,1.63-.5,3.9,3.9,0,0,0,1.21-1.37A7.5,7.5,0,0,0,45.58,54a13.39,13.39,0,0,0,.27-2.68V37h2V51.32a16.44,16.44,0,0,1-.41,3.77,10.86,10.86,0,0,1-1.16,3,6.12,6.12,0,0,1-1.84,2,4.53,4.53,0,0,1-4.9,0,6.12,6.12,0,0,1-1.84-2,10.3,10.3,0,0,1-1.17-3,16.43,16.43,0,0,1-.4-3.77V37h2V51.32A12.69,12.69,0,0,0,38.35,54a7.27,7.27,0,0,0,.76,2.12,4,4,0,0,0,1.22,1.39A2.94,2.94,0,0,0,42,58Z" style="fill:#10366a"/><path d="M42,60.94a4.57,4.57,0,0,1-2.54-.74,6.38,6.38,0,0,1-1.93-2,11,11,0,0,1-1.18-3.06A16.76,16.76,0,0,1,36,51.3V36.87h2.31V51.28A12.68,12.68,0,0,0,38.51,54,8,8,0,0,0,39.25,56a4.1,4.1,0,0,0,1.18,1.34,2.67,2.67,0,0,0,1.58.45,2.62,2.62,0,0,0,1.53-.46A3.94,3.94,0,0,0,44.69,56,8,8,0,0,0,45.43,54a12.69,12.69,0,0,0,.26-2.68V36.87H48V51.3a16.22,16.22,0,0,1-.42,3.8,10.73,10.73,0,0,1-1.18,3.06,6.23,6.23,0,0,1-1.88,2A4.57,4.57,0,0,1,42,60.94ZM36.3,37.19V51.3A17.33,17.33,0,0,0,36.65,55a10.64,10.64,0,0,0,1.15,3,6,6,0,0,0,1.79,1.93,4.36,4.36,0,0,0,4.71,0A6,6,0,0,0,46.09,58a10.21,10.21,0,0,0,1.14-3,16.15,16.15,0,0,0,.41-3.73V37.19H46V51.3a13.56,13.56,0,0,1-.28,2.77A7.32,7.32,0,0,1,45,56.24a4.05,4.05,0,0,1-1.26,1.41,3.16,3.16,0,0,1-3.49,0,4.68,4.68,0,0,1-1.28-1.45A8,8,0,0,1,38.17,54a13.25,13.25,0,0,1-.26-2.74V37.19Z" style="fill:#fff"/><path id="path4187" d="M59.62,55.65a.4.4,0,0,1,.31.22l.77,1.36a7.53,7.53,0,0,1-2.19,2.6,5.13,5.13,0,0,1-3.11.9,5,5,0,0,1-2.88-.9,7.31,7.31,0,0,1-2.21-2.45,13.62,13.62,0,0,1-1.42-3.8,22,22,0,0,1-.51-4.86,21,21,0,0,1,.54-4.87,13.06,13.06,0,0,1,1.53-3.8,7.41,7.41,0,0,1,2.33-2.46,5.35,5.35,0,0,1,3-.89,4.79,4.79,0,0,1,2.8.8,8,8,0,0,1,2.1,2.29L60,41.24a1.28,1.28,0,0,1-.16.28.34.34,0,0,1-.27.1.44.44,0,0,1-.29-.14l-.36-.4c-.15-.17-.31-.33-.48-.49a3.17,3.17,0,0,0-.65-.49,3.64,3.64,0,0,0-.89-.37,3.55,3.55,0,0,0-1.16-.17,3.73,3.73,0,0,0-2.17.66,5.29,5.29,0,0,0-1.69,1.83A10.13,10.13,0,0,0,50.8,45a17.72,17.72,0,0,0-.39,3.85,18.39,18.39,0,0,0,.39,3.91,10.92,10.92,0,0,0,1.08,2.92,5.35,5.35,0,0,0,1.63,1.78,3.59,3.59,0,0,0,2,.62,5.91,5.91,0,0,0,1.18-.12,3.4,3.4,0,0,0,1-.39,4.33,4.33,0,0,0,.83-.65,10.34,10.34,0,0,0,.78-1C59.4,55.74,59.52,55.65,59.62,55.65Z" style="fill:#10366a"/><path d="M55.4,60.93a5.23,5.23,0,0,1-3-.89,7.45,7.45,0,0,1-2.26-2.51,13.92,13.92,0,0,1-1.44-3.84,22.46,22.46,0,0,1-.47-4.91,21.21,21.21,0,0,1,.54-4.9A13.68,13.68,0,0,1,50.34,40a7.62,7.62,0,0,1,2.38-2.51,5.49,5.49,0,0,1,3.1-.89,4.92,4.92,0,0,1,2.88.83,8.12,8.12,0,0,1,2.15,2.22v.15l-.65,1.46a1.45,1.45,0,0,1-.18.32.54.54,0,0,1-.76,0l0,0-.35-.4-.48-.48a2.92,2.92,0,0,0-.63-.48,3.25,3.25,0,0,0-.84-.35,3.54,3.54,0,0,0-1.12-.17,3.7,3.7,0,0,0-2.08.64,5.35,5.35,0,0,0-1.63,1.78A10,10,0,0,0,50.94,45a16.83,16.83,0,0,0-.4,3.81,17.36,17.36,0,0,0,.4,3.87A10.49,10.49,0,0,0,52,55.53a5.09,5.09,0,0,0,1.57,1.79,3.47,3.47,0,0,0,1.92.59,6.31,6.31,0,0,0,1.15-.11,3.07,3.07,0,0,0,.89-.38,4,4,0,0,0,.8-.62,9,9,0,0,0,.77-1c.3-.42.66-.4.89,0l.83,1.45v.08a7.87,7.87,0,0,1-2.25,2.68A5.33,5.33,0,0,1,55.4,60.93Zm.38-24a5.25,5.25,0,0,0-2.92.89,7.5,7.5,0,0,0-2.28,2.41A13.09,13.09,0,0,0,49.08,44a20.76,20.76,0,0,0-.54,4.84,22.35,22.35,0,0,0,.5,4.82,13.46,13.46,0,0,0,1.41,3.76,7.2,7.2,0,0,0,2.16,2.4,5.23,5.23,0,0,0,5.8-.06,7.32,7.32,0,0,0,2.11-2.48L59.78,56a.18.18,0,0,0-.16-.14c-.06,0-.09,0-.2.18a8.45,8.45,0,0,1-.8,1,3.69,3.69,0,0,1-.89.68,3.89,3.89,0,0,1-1,.41,6.23,6.23,0,0,1-1.22.12,3.68,3.68,0,0,1-2.1-.66,5.49,5.49,0,0,1-1.68-1.84,11.28,11.28,0,0,1-1.09-3,19.6,19.6,0,0,1,0-7.83,10.86,10.86,0,0,1,1.21-3,5.57,5.57,0,0,1,1.73-1.88,4,4,0,0,1,2.26-.69,4.29,4.29,0,0,1,2.13.56,4.23,4.23,0,0,1,.68.52c.18.17.35.34.49.5l.35.39a.24.24,0,0,0,.17.09.2.2,0,0,0,.15,0,1.09,1.09,0,0,0,.14-.23l.56-1.4a7.54,7.54,0,0,0-2-2.06A4.66,4.66,0,0,0,55.78,36.93Z" style="fill:#fff"/><path id="path4189" d="M73.43,60.5H71.88a.51.51,0,0,1-.41-.18,1.44,1.44,0,0,1-.25-.53l-1.39-5.72H63.22l-1.37,5.67a1.44,1.44,0,0,1-.25.53.5.5,0,0,1-.43.22H59.62L65.52,37h2Zm-9.65-8.71h5.5L67,42.24c-.15-.59-.3-1.33-.45-2.21-.07.45-.14.89-.22,1.25s-.14.7-.21,1Z" style="fill:#10366a"/><path d="M73.63,60.66H71.85a.65.65,0,0,1-.56-.27,1.36,1.36,0,0,1-.27-.6l-1.33-5.55H63.35L62,59.79a1.66,1.66,0,0,1-.27.59.69.69,0,0,1-.56.28H59.38l.06-.19,5.92-23.6h2.26V37ZM63.1,53.92H70v.13l1.39,5.67a1.17,1.17,0,0,0,.21.47.35.35,0,0,0,.31.15h1.4L67.41,37.19H65.62L59.87,60.32H61.2a.37.37,0,0,0,.31-.16,1.35,1.35,0,0,0,.22-.47Zm6.38-2H63.57l0-.2,2.31-9.53c.07-.29.14-.62.2-1s.16-.79.24-1.24h.31c.15.9.29,1.62.44,2.2ZM64,51.63h5.09L66.8,42.28c-.09-.38-.18-.81-.28-1.32a.65.65,0,0,1-.07.35c-.07.35-.13.69-.2,1Z" style="fill:#fff"/><path id="path4191" d="M74.29,37a.54.54,0,0,1,.38.12,1.25,1.25,0,0,1,.3.42L83.5,55.26V37h1.79V60.5h-1.1a.61.61,0,0,1-.4-.12,1.42,1.42,0,0,1-.32-.45L75,42.26V60.5h-1.7V37Z" style="fill:#10366a"/><path d="M85.35,60.66H84.19a.75.75,0,0,1-.5-.16,1.64,1.64,0,0,1-.36-.5L75.15,43h0V60.66H73.09V36.87h1.2a.7.7,0,0,1,.5.16,1.43,1.43,0,0,1,.33.47l8.17,17h0V36.87h2.07ZM75.11,42.19l8.52,17.67a1.14,1.14,0,0,0,.25.39.44.44,0,0,0,.31.09h.89V37.19H83.65V54.44a4.46,4.46,0,0,0,0,.81l-.32.08L74.82,37.65a.91.91,0,0,0-.24-.37.39.39,0,0,0-.29-.09h-.9V60.32h1.43v-18Z" style="fill:#fff"/></svg>