<?xml version="1.0" encoding="UTF-8" standalone="no"?>
<!-- Created with Inkscape (http://www.inkscape.org/) -->

<svg
   xmlns:dc="http://purl.org/dc/elements/1.1/"
   xmlns:cc="http://creativecommons.org/ns#"
   xmlns:rdf="http://www.w3.org/1999/02/22-rdf-syntax-ns#"
   xmlns:svg="http://www.w3.org/2000/svg"
   xmlns="http://www.w3.org/2000/svg"
   xmlns:sodipodi="http://sodipodi.sourceforge.net/DTD/sodipodi-0.dtd"
   xmlns:inkscape="http://www.inkscape.org/namespaces/inkscape"
   width="50"
   height="50"
   viewBox="0 0 50.000001 50.000001"
   id="svg4304"
   version="1.1"
   inkscape:version="0.91 r13725"
   sodipodi:docname="board_dwarf.svg">
  <defs
     id="defs4306" />
  <sodipodi:namedview
     id="base"
     pagecolor="#ffffff"
     bordercolor="#666666"
     borderopacity="1.0"
     inkscape:pageopacity="0.0"
     inkscape:pageshadow="2"
     inkscape:zoom="11.2"
     inkscape:cx="12.062359"
     inkscape:cy="19.071955"
     inkscape:document-units="px"
     inkscape:current-layer="layer1"
     showgrid="false"
     units="px"
     inkscape:window-width="1855"
     inkscape:window-height="1056"
     inkscape:window-x="65"
     inkscape:window-y="24"
     inkscape:window-maximized="1" />
  <metadata
     id="metadata4309">
    <rdf:RDF>
      <cc:Work
         rdf:about="">
        <dc:format>image/svg+xml</dc:format>
        <dc:type
           rdf:resource="http://purl.org/dc/dcmitype/StillImage" />
        <dc:title />
      </cc:Work>
    </rdf:RDF>
  </metadata>
  <g
     inkscape:label="Layer 1"
     inkscape:groupmode="layer"
     id="layer1"
     transform="translate(0,-1002.3622)">
    <g
       id="g4906"
       transform="matrix(0.2,0,0,0.2,-201.28572,1078.604)">
      <path
         class="st0"
         d="m 1231.7286,-370.55922 -95.9,0 0,5.3 c 1.6,1.3 2.7,3.2 2.7,5.5 0,3.9 -3.1,7 -7,7 -3.9,0 -7,-3.1 -7,-7 0,-2.2 1.1,-4.2 2.7,-5.5 l 0,-5.3 -95.3,0 c -4.2,0 -7.6,3.4 -7.6,7.6 l 0,203.5 c 0,4.2 3.4,7.6 7.6,7.6 l 199.8,0 c 4.2,0 7.6,-3.4 7.6,-7.6 l 0,-203.6 c -0.1,-4.1 -3.4,-7.5 -7.6,-7.5 z"
         id="path11"
         inkscape:connector-curvature="0"
         style="fill:#145f32" />
      <g
         id="g13"
         transform="translate(979.72857,-407.75922)">
        <circle
           class="st1"
           cx="56.599998"
           cy="48"
           r="7"
           id="circle15"
           style="fill:#ae7e20" />
        <circle
           class="st2"
           cx="56.599998"
           cy="48"
           r="4.4000001"
           id="circle17"
           style="fill:#ffffff" />
      </g>
      <g
         id="g19"
         transform="translate(979.72857,-407.75922)">
        <circle
           class="st1"
           cx="247"
           cy="48"
           r="7"
           id="circle21"
           style="fill:#ae7e20" />
        <circle
           class="st2"
           cx="247"
           cy="48"
           r="4.4000001"
           id="circle23"
           style="fill:#ffffff" />
      </g>
      <g
         id="g25"
         transform="translate(979.72857,-407.75922)">
        <circle
           class="st1"
           cx="56.599998"
           cy="244.3"
           r="7"
           id="circle27"
           style="fill:#ae7e20" />
        <circle
           class="st2"
           cx="56.599998"
           cy="244.3"
           r="4.4000001"
           id="circle29"
           style="fill:#ffffff" />
      </g>
      <g
         id="g31"
         transform="translate(979.72857,-407.75922)">
        <circle
           class="st1"
           cx="247"
           cy="244.3"
           r="7"
           id="circle33"
           style="fill:#ae7e20" />
        <circle
           class="st2"
           cx="247"
           cy="244.3"
           r="4.4000001"
           id="circle35"
           style="fill:#ffffff" />
      </g>
      <path
         class="st1"
         d="m 1124.4286,-359.75922 c 0,3.9 3.1,7 7,7 3.9,0 7,-3.1 7,-7 0,-2.2 -1.1,-4.2 -2.7,-5.5 l 0,5.5 c 0,2.4 -2,4.4 -4.4,4.4 -2.4,0 -4.4,-2 -4.4,-4.4 l 0,-5.5 c -1.4,1.3 -2.5,3.2 -2.5,5.5 z"
         id="path37"
         inkscape:connector-curvature="0"
         style="fill:#ae7e20" />
      <path
         class="st3"
         d="m 1039.0286,-323.15922 3.9,0 0,-2.3 -2.6,0 0,-0.9 2.6,0 0,-1.4 -2.6,0 0,-0.9 2.6,0 0,-1.4 -2.6,0 0,-0.7 2.6,0 0,-1.4 -2.6,0 0,-0.9 2.6,0 0,-2.4 -3.9,0 c -0.8,0 -1.5,-0.7 -1.5,-1.5 0,-0.8 0.7,-1.5 1.5,-1.5 l 3.9,0 0,-4.3 -21,0 0,2.8 -2.2,0 0,22.4 2.2,0 0,1.9 21,0 0,-4.4 -3.9,0 c -0.8,0 -1.5,-0.7 -1.5,-1.5 0,-0.9 0.6,-1.6 1.5,-1.6 z m -9.9,3.9 -1.9,0 c -0.8,0 -1.5,-0.7 -1.5,-1.5 0,-0.8 0.7,-1.5 1.5,-1.5 l 1.9,0 c 0.8,0 1.5,0.7 1.5,1.5 0,0.8 -0.7,1.5 -1.5,1.5 z m 0,-17.7 -1.9,0 c -0.8,0 -1.5,-0.7 -1.5,-1.5 0,-0.8 0.7,-1.5 1.5,-1.5 l 1.9,0 c 0.8,0 1.5,0.7 1.5,1.5 0,0.9 -0.7,1.5 -1.5,1.5 z"
         id="path39"
         inkscape:connector-curvature="0"
         style="fill:#cacaca" />
      <path
         class="st3"
         d="m 1056.9286,-273.45922 0,1.1 -10.8,0 0,-0.8 c 0.3,-0.1 0.9,-0.4 1.7,-0.3 1.2,0.2 6.1,0.9 6.2,0.9 0.2,0 1.4,-0.1 1.9,-0.4 0.2,-0.1 0.3,-0.4 0.1,-0.6 -0.1,-0.2 -0.4,-0.3 -0.6,-0.1 -0.2,0.1 -1.1,0.3 -1.5,0.3 0,0 -4.8,-0.7 -6.1,-0.9 -1.4,-0.2 -2.4,0.5 -2.4,0.5 l 0,0 -21.7,0 c 0,0 -0.1,16.2 -0.1,20.5 0,4.3 -1.6,10.7 -1.6,10.7 l 0,8.9 35,0 0,-2.6 c 0.6,-1.2 1.4,0.1 1.4,0.1 l 2.6,0 0,-37.4 -4.1,0 c 0,0 0,0.1 0,0.1 z m -19.3,38.8 c 0,0.2 -0.2,0.4 -0.4,0.4 l -10.1,0 c -0.2,0 -0.4,-0.2 -0.4,-0.4 0,-0.2 0.2,-0.4 0.4,-0.4 l 9.7,0 0,-4.3 -2.3,0 -1.8,1.9 c -0.1,0.1 -0.2,0.1 -0.3,0.1 l -5.4,0 c -0.2,0 -0.4,-0.2 -0.4,-0.4 0,-0.2 0.2,-0.4 0.4,-0.4 l 5.2,0 1.8,-1.9 c 0.1,-0.1 0.2,-0.1 0.3,-0.1 l 2.9,0 c 0.2,0 0.4,0.2 0.4,0.4 0,0 0,5.1 0,5.1 z"
         id="path41"
         inkscape:connector-curvature="0"
         style="fill:#cacaca" />
      <path
         class="st4"
         d="M 1022.5286,-200.95922"
         id="path43"
         inkscape:connector-curvature="0"
         style="fill:none;stroke:#cacaca;stroke-width:0.64910001;stroke-linecap:round;stroke-linejoin:round;stroke-miterlimit:10" />
      <path
         class="st3"
         d="m 1056.1286,-214.05922 0,-1.8 -33.3,0 0,-1.6 -1.2,-1.2 -1.9,0.8 c -0.1,1.7 1.5,2.3 1.8,2.4 l 0,1.4 -2.6,0 0,31.6 2.6,0 0,1.5 c -0.3,0.1 -1.8,0.7 -1.8,2.4 l 1.9,0.8 1.2,-1.2 0,-1.2 33.2,0 0,-2.2 0,0 0.1,-31.7 0,0 z m -18.5,29.3 -14.3,-0.3 c 0,0 -1.5,-0.2 -1.5,-1.6 0,-1.3 0,-3 0,-3 l 0,-3 c 0,0 0,-1.2 1.3,-1.2 1.2,0 14.3,0 14.3,0 0,0 1.1,-0.1 1.1,0.6 0,0.7 -0.7,0.8 -1.1,0.8 -0.4,0 -11.5,1 -11.5,1 0,0 -1.1,0.3 -1.1,1.4 0,1 0,1.2 0,1.2 0,0 -0.2,1.8 1.6,1.8 1.8,0 11.3,1.1 11.3,1.1 0,0 0.9,0 0.9,0.7 -0.1,0.6 -1,0.5 -1,0.5 z m 0,-17 -14.3,-0.3 c 0,0 -1.5,-0.2 -1.5,-1.6 0,-1.3 0,-3 0,-3 l 0,-3 c 0,0 0,-1.2 1.3,-1.2 1.2,0 14.3,0 14.3,0 0,0 1.1,-0.1 1.1,0.6 0,0.7 -0.7,0.8 -1.1,0.8 -0.4,0 -11.5,1 -11.5,1 0,0 -1.1,0.3 -1.1,1.4 0,1 0,1.2 0,1.2 0,0 -0.2,1.8 1.6,1.8 1.8,0 11.3,1.1 11.3,1.1 0,0 0.9,0 0.9,0.7 -0.1,0.6 -1,0.5 -1,0.5 z"
         id="path45"
         inkscape:connector-curvature="0"
         style="fill:#cacaca" />
      <path
         class="st5"
         d="m 1127.4286,-190.55922 -14.7,0 0,41.6 1.8,0 0,1.5 c 0,3.1 2.5,5.6 5.6,5.6 3.1,0 5.6,-2.5 5.6,-5.6 l 0,-1.5 1.8,0 0,-41.6 -0.1,0 0,0 z"
         id="path47"
         inkscape:connector-curvature="0"
         style="fill:#4280b2" />
      <path
         class="st6"
         d="m 1149.5286,-190.55922 -14.7,0 0,41.6 1.8,0 0,1.5 c 0,3.1 2.5,5.6 5.6,5.6 3.1,0 5.6,-2.5 5.6,-5.6 l 0,-1.5 1.8,0 0,-41.6 -0.1,0 0,0 z"
         id="path49"
         inkscape:connector-curvature="0"
         style="fill:#b35984" />
      <path
         class="st7"
         d="m 1171.6286,-190.55922 -14.7,0 0,41.6 1.8,0 0,1.5 c 0,3.1 2.5,5.6 5.6,5.6 3.1,0 5.6,-2.5 5.6,-5.6 l 0,-1.5 1.8,0 0,-41.6 -0.1,0 0,0 z"
         id="path51"
         inkscape:connector-curvature="0"
         style="fill:#bcd58e" />
      <polygon
         class="st3"
         points="236.8,255.4 236.8,240.9 199.6,240.9 199.6,255.4 207.9,255.4 207.9,253.8 228.6,253.8 228.6,255.4 "
         id="polygon53"
         style="fill:#cacaca"
         transform="translate(979.72857,-407.75922)" />
      <path
         class="st3"
         d="m 1220.7286,-230.45922 0,4.9 -1.7,0 0,2.9 1.1,0 0,9.5 -1.1,0 0,3.2 1.1,0 0,9.5 -1.1,0 0,3.5 1.7,0 0,3.8 22.4,0 0,-37.3 -22.4,0 0,0 z m 18.2,31.8 c -0.5,0 -11.3,0.1 -11.3,0.1 0,0 -1.2,0 -1.2,-1.6 0,-1.6 0.1,-1.6 0.1,-1.6 l 0,-1.6 c 0,0 -0.1,-1.3 1,-1.3 1,0 11.6,0 11.6,0 0,0 1.2,-0.1 1.2,0.6 0,0.7 -1.3,0.7 -1.3,0.7 l -9.6,0.4 0,2.3 9.6,0.5 c 0,0 1.6,-0.1 1.6,0.7 -0.2,0.9 -1.2,0.8 -1.7,0.8 z m 0,-20.1 c -0.5,0 -11.3,0.1 -11.3,0.1 0,0 -1.2,0 -1.2,-1.6 0,-1.6 0.1,-1.6 0.1,-1.6 l 0,-1.6 c 0,0 -0.1,-1.3 1,-1.3 1,0 11.6,0 11.6,0 0,0 1.2,-0.1 1.2,0.6 0,0.7 -1.3,0.7 -1.3,0.7 l -9.6,0.4 0,2.3 9.6,0.5 c 0,0 1.6,-0.1 1.6,0.7 -0.2,0.8 -1.2,0.8 -1.7,0.8 z"
         id="path55"
         inkscape:connector-curvature="0"
         style="fill:#cacaca" />
      <path
         class="st3"
         d="m 1192.9286,-244.85922 50.9,0 0,-37.3 -50.9,0 0,37.3 0,0 z m 46,-5.4 c -0.7,0 -16.7,0.1 -16.7,0.1 0,0 -1.8,0 -1.8,-1.6 0,-1.6 0.1,-1.6 0.1,-1.6 l 0,-1.6 c 0,0 -0.1,-1.3 1.5,-1.3 1.6,0 17.2,0 17.2,0 0,0 1.8,-0.1 1.8,0.6 0,0.7 -1.9,0.7 -1.9,0.7 l -14.3,0.4 0,2.3 14.2,0.5 c 0,0 2.3,-0.1 2.3,0.7 -0.2,0.8 -1.7,0.8 -2.4,0.8 z m 0,-20.2 c -0.7,0 -16.7,0.1 -16.7,0.1 0,0 -1.8,0 -1.8,-1.6 0,-1.6 0.1,-1.6 0.1,-1.6 l 0,-1.6 c 0,0 -0.1,-1.3 1.5,-1.3 1.6,0 17.2,0 17.2,0 0,0 1.8,-0.1 1.8,0.6 0,0.7 -1.9,0.7 -1.9,0.7 l -14.3,0.4 0,2.3 14.2,0.5 c 0,0 2.3,-0.1 2.3,0.7 -0.2,0.9 -1.7,0.8 -2.4,0.8 z"
         id="path57"
         inkscape:connector-curvature="0"
         style="fill:#cacaca" />
      <path
         class="st8"
         d="m 1241.4286,-327.65922 -32.2,0 c -1.4,0 -2.5,-1.1 -2.5,-2.5 l 0,-17.4 c 0,-1.4 1.1,-2.5 2.5,-2.5 l 32.2,0 c 1.4,0 2.5,1.1 2.5,2.5 l 0,17.4 c 0,1.3 -1.1,2.5 -2.5,2.5 z"
         id="path59"
         inkscape:connector-curvature="0"
         style="fill:#192624" />
    </g>
    <g
       transform="matrix(0.76072945,0,0,1.000438,5.9734338,-3.76531e-5)"
       style="font-style:normal;font-weight:normal;font-size:20.30885887px;line-height:125%;font-family:sans-serif;letter-spacing:0px;word-spacing:0px;fill:#b81c22;fill-opacity:1;stroke:#ffff00;stroke-width:0.22925551;stroke-linecap:round;stroke-linejoin:round;stroke-opacity:1;stroke-miterlimit:4;stroke-dasharray:none"
       id="text4148">
      <path
         d="m -4.5345976,1021.156 0,11.5129 2.4196102,0 q 3.0641784,0 4.4822286,-1.3883 1.4279666,-1.3883 1.4279666,-4.383 0,-2.975 -1.4279666,-4.3533 -1.4180502,-1.3883 -4.4822286,-1.3883 l -2.4196102,0 z m -2.0031194,-1.6462 4.1153201,0 q 4.3037328,0 6.3167691,1.7949 2.0130363,1.785 2.0130363,5.5929 0,3.8277 -2.0229528,5.6226 -2.0229527,1.7949 -6.3068526,1.7949 l -4.1153201,0 0,-14.8053 z"
         id="path4162"
         inkscape:connector-curvature="0"
         style="stroke:#ffff00;stroke-opacity:1;stroke-width:0.22925551;stroke-miterlimit:4;stroke-dasharray:none;stroke-linejoin:round;stroke-linecap:round" />
      <path
         d="m 5.7708223,1019.5098 2.0229528,0 3.1137609,12.5146 3.103844,-12.5146 2.251031,0 3.11376,12.5146 3.103844,-12.5146 2.032869,0 -3.718663,14.8053 -2.518774,0 -3.123677,-12.8517 -3.153426,12.8517 -2.518775,0 -3.7087467,-14.8053 z"
         id="path4164"
         inkscape:connector-curvature="0"
         style="stroke:#ffff00;stroke-opacity:1;stroke-width:0.22925551;stroke-miterlimit:4;stroke-dasharray:none;stroke-linejoin:round;stroke-linecap:round" />
      <path
         d="m 28.997355,1021.4832 -2.717103,7.3679 5.444123,0 -2.72702,-7.3679 z m -1.130473,-1.9734 2.270864,0 5.642451,14.8053 -2.082451,0 -1.348635,-3.798 -6.673761,0 -1.348635,3.798 -2.112201,0 5.652368,-14.8053 z"
         id="path4166"
         inkscape:connector-curvature="0"
         style="stroke:#ffff00;stroke-opacity:1;stroke-width:0.22925551;stroke-miterlimit:4;stroke-dasharray:none;stroke-linejoin:round;stroke-linecap:round" />
      <path
         d="m 42.952025,1027.3736 q 0.644569,0.2181 1.249471,0.9321 0.614819,0.714 1.229638,1.9635 l 2.032869,4.0459 -2.151866,0 -1.894039,-3.798 q -0.733816,-1.4875 -1.427967,-1.9734 -0.684234,-0.4859 -1.874206,-0.4859 l -2.181616,0 0,6.2573 -2.00312,0 0,-14.8053 4.521895,0 q 2.538607,0 3.788078,1.0611 1.249471,1.061 1.249471,3.203 0,1.3982 -0.654485,2.3204 -0.644568,0.9223 -1.884123,1.2793 z m -5.017716,-6.2176 0,5.2557 2.518775,0 q 1.447799,0 2.181615,-0.6644 0.743733,-0.6744 0.743733,-1.9734 0,-1.2991 -0.743733,-1.9535 -0.733816,-0.6644 -2.181615,-0.6644 l -2.518775,0 z"
         id="path4168"
         inkscape:connector-curvature="0"
         style="stroke:#ffff00;stroke-opacity:1;stroke-width:0.22925551;stroke-miterlimit:4;stroke-dasharray:none;stroke-linejoin:round;stroke-linecap:round" />
      <path
         d="m 48.051315,1019.5098 8.508302,0 0,1.6858 -6.505182,0 0,4.3633 5.87053,0 0,1.6857 -5.87053,0 0,7.0705 -2.00312,0 0,-14.8053 z"
         id="path4170"
         inkscape:connector-curvature="0"
         style="stroke:#ffff00;stroke-opacity:1;stroke-width:0.22925551;stroke-miterlimit:4;stroke-dasharray:none;stroke-linejoin:round;stroke-linecap:round" />
    </g>
  </g>
</svg>
