<svg xmlns="http://www.w3.org/2000/svg" viewBox="0 0 96 96"><g id="backgroup-white"><rect x="0.01" width="96" height="96" style="fill:#fff"/></g><g id="board_dwarf"><g id="layer1"><g id="g4906"><path id="path11" d="M86.11,5.18h-36v2a2.62,2.62,0,0,1-1.61,4.69,2.61,2.61,0,0,1-2.62-2.63,2.69,2.69,0,0,1,1-2.06v-2H11.18A2.86,2.86,0,0,0,8.33,8V84.34a2.85,2.85,0,0,0,2.85,2.85H86.11A2.85,2.85,0,0,0,89,84.34V8a2.87,2.87,0,0,0-2.85-2.81Z" style="fill:#145f32"/><g id="g13"><circle id="circle15" cx="12.83" cy="9.23" r="2.63" style="fill:#ae7e20"/><circle id="circle17" cx="12.83" cy="9.23" r="1.65" style="fill:#fff"/></g><g id="g19"><circle id="circle21" cx="84.23" cy="9.23" r="2.63" style="fill:#ae7e20"/><circle id="circle23" cx="84.23" cy="9.23" r="1.65" style="fill:#fff"/></g><g id="g25"><circle id="circle27" cx="12.83" cy="82.84" r="2.63" style="fill:#ae7e20"/><circle id="circle29" cx="12.83" cy="82.84" r="1.65" style="fill:#fff"/></g><g id="g31"><circle id="circle33" cx="84.23" cy="82.84" r="2.63" style="fill:#ae7e20"/><circle id="circle35" cx="84.23" cy="82.84" r="1.65" style="fill:#fff"/></g><path id="path37" d="M45.87,9.23a2.63,2.63,0,1,0,5.25,0,2.69,2.69,0,0,0-1-2.06V9.23a1.65,1.65,0,1,1-3.3,0V7.17A2.8,2.8,0,0,0,45.87,9.23Z" style="fill:#ae7e20"/><path id="path39" d="M13.84,23h1.47v-.87h-1v-.33h1v-.53h-1v-.34h1v-.52h-1v-.26h1v-.53h-1v-.34h1v-.9H13.84a.56.56,0,0,1,0-1.12h1.47V15.61H7.43v1.05H6.61v8.4h.82v.71h7.88V24.12H13.84a.57.57,0,0,1-.56-.56A.56.56,0,0,1,13.84,23Zm-3.71,1.46H9.42a.57.57,0,0,1-.56-.56.58.58,0,0,1,.56-.57h.71a.58.58,0,0,1,.56.57A.57.57,0,0,1,10.13,24.42Zm0-6.64H9.42a.56.56,0,0,1,0-1.12h.71a.57.57,0,0,1,.56.56A.55.55,0,0,1,10.13,17.78Z" style="fill:#cacaca"/><path id="path41" d="M20.56,41.59V42h-4v-.3a1.28,1.28,0,0,1,.63-.12c.45.08,2.29.34,2.33.34a2.09,2.09,0,0,0,.71-.15.14.14,0,0,0,0-.22.14.14,0,0,0-.23,0,2,2,0,0,1-.56.11l-2.29-.34a1.39,1.39,0,0,0-.9.19H8.11s0,6.08,0,7.69a21.06,21.06,0,0,1-.6,4v3.34H20.59v-1c.23-.45.53,0,.53,0h1v-14H20.56ZM13.32,56.14a.16.16,0,0,1-.15.15H9.38a.16.16,0,0,1-.15-.15A.17.17,0,0,1,9.38,56H13V54.38h-.86l-.68.71a.13.13,0,0,1-.11,0h-2A.16.16,0,0,1,9.19,55a.17.17,0,0,1,.15-.15h1.95l.68-.71a.13.13,0,0,1,.11,0h1.09a.17.17,0,0,1,.15.15v1.91Z" style="fill:#cacaca"/><path id="path45" d="M20.26,63.87v-.68H7.77v-.6l-.45-.45-.71.3a.91.91,0,0,0,.67.9v.53h-1V75.72h1v.56a1,1,0,0,0-.67.9l.71.3L7.77,77v-.45H20.22v-.82h0l0-11.89Zm-6.94,11L8,74.74s-.57-.07-.57-.6V71.89a.45.45,0,0,1,.49-.45h5.36s.42,0,.42.23-.27.3-.42.3-4.31.37-4.31.37a.58.58,0,0,0-.41.53v.45a.58.58,0,0,0,.6.67c.67,0,4.24.42,4.24.42s.33,0,.33.26-.37.19-.37.19Zm0-6.38L8,68.37s-.57-.08-.57-.6V65.52a.45.45,0,0,1,.49-.45h5.36s.42,0,.42.22-.27.3-.42.3S8.93,66,8.93,66a.56.56,0,0,0-.41.52v.45a.58.58,0,0,0,.6.68c.67,0,4.24.41,4.24.41s.33,0,.33.26-.37.19-.37.19Z" style="fill:#cacaca"/><path id="path47" d="M47,72.68H41.48v15.6h.68v.56a2.1,2.1,0,0,0,4.2,0v-.56H47V72.68Z" style="fill:#4280b2"/><path id="path49" d="M55.28,72.68H49.77v15.6h.67v.56a2.1,2.1,0,0,0,4.2,0v-.56h.68V72.68Z" style="fill:#b35984"/><path id="path51" d="M63.57,72.68H58.06v15.6h.67v.56a2.1,2.1,0,1,0,4.2,0v-.56h.68V72.68Z" style="fill:#bcd58e"/><polygon id="polygon53" points="80.41 87.01 80.41 81.57 66.46 81.57 66.46 87.01 69.57 87.01 69.57 86.41 77.33 86.41 77.33 87.01 80.41 87.01" style="fill:#cacaca"/><path id="path55" d="M82,57.72v1.84h-.64v1.08h.42v3.57h-.42v1.2h.42V69h-.42v1.31H82v1.43h8.4v-14Zm6.83,11.92-4.24,0s-.45,0-.45-.6,0-.6,0-.6v-.6s0-.49.37-.49h4.35s.45,0,.45.23-.49.26-.49.26l-3.6.15v.86l3.6.19s.6,0,.6.26-.45.3-.63.3Zm0-7.53-4.24,0s-.45,0-.45-.6,0-.6,0-.6v-.6s0-.48.37-.48h4.35s.45,0,.45.22-.49.26-.49.26l-3.6.15v.87l3.6.18s.6,0,.6.27-.45.3-.63.3Z" style="fill:#cacaca"/><path id="path57" d="M71.56,52.32H90.64v-14H71.56v14Zm17.25-2-6.27,0s-.67,0-.67-.6,0-.6,0-.6v-.6s0-.49.56-.49h6.45s.67,0,.67.23-.71.26-.71.26l-5.36.15v.86l5.32.19s.87,0,.87.26-.64.3-.9.3Zm0-7.57-6.27,0s-.67,0-.67-.6,0-.6,0-.6V41s0-.49.56-.49h6.45s.67,0,.67.22-.71.27-.71.27l-5.36.15V42l5.32.19s.87,0,.87.26-.64.3-.9.3Z" style="fill:#cacaca"/><path id="path59" d="M89.74,21.27H77.67a.93.93,0,0,1-.94-.94V13.81a.93.93,0,0,1,.94-.94H89.74a.93.93,0,0,1,.94.94v6.52A1,1,0,0,1,89.74,21.27Z" style="fill:#192624"/></g><g id="text4148"><path id="path4162" d="M6.35,37.27V58.86H9.8q4.38,0,6.4-2.6t2-8.22q0-5.59-2-8.17c-1.35-1.74-3.48-2.6-6.4-2.6ZM3.49,34.18H9.36q6.15,0,9,3.36c1.92,2.24,2.88,5.73,2.88,10.5s-1,8.3-2.89,10.54S13.44,62,9.36,62H3.49V34.18Z" style="fill:#b81c22;stroke:#ff0;stroke-linecap:round;stroke-linejoin:round;stroke-width:0.22925551235675812px"/><path id="path4164" d="M21.05,34.18h2.89l4.44,23.47,4.43-23.47H36l4.44,23.47,4.42-23.47h2.9L42.48,62H38.89L34.43,37.84,29.93,62H26.34L21.05,34.18Z" style="fill:#b81c22;stroke:#ff0;stroke-linecap:round;stroke-linejoin:round;stroke-width:0.22925551235675812px"/><path id="path4166" d="M54.18,37.88,50.31,51.7h7.76L54.18,37.88Zm-1.61-3.7h3.24l8,27.77h-3L59,54.83H49.44L47.52,62h-3l8.06-27.77Z" style="fill:#b81c22;stroke:#ff0;stroke-linecap:round;stroke-linejoin:round;stroke-width:0.22925551235675812px"/><path id="path4168" d="M74.09,48.93a4.44,4.44,0,0,1,1.78,1.75,19.05,19.05,0,0,1,1.75,3.68L80.52,62H77.45l-2.7-7.12a10.15,10.15,0,0,0-2-3.71A3.79,3.79,0,0,0,70,50.21H66.93V62H64.07V34.18h6.45c2.41,0,4.22.66,5.4,2s1.79,3.33,1.79,6a9,9,0,0,1-.94,4.35,5,5,0,0,1-2.68,2.4ZM66.93,37.27v9.85h3.59a3.83,3.83,0,0,0,3.11-1.24,5.63,5.63,0,0,0,1.06-3.7,5.47,5.47,0,0,0-1.06-3.67,3.83,3.83,0,0,0-3.11-1.24Z" style="fill:#b81c22;stroke:#ff0;stroke-linecap:round;stroke-linejoin:round;stroke-width:0.22925551235675812px"/><path id="path4170" d="M81.36,34.18H93.49v3.16H84.22v8.18h8.37v3.17H84.22V62H81.36V34.18Z" style="fill:#b81c22;stroke:#ff0;stroke-linecap:round;stroke-linejoin:round;stroke-width:0.22925551235675812px"/></g></g></g></svg>