<svg xmlns="http://www.w3.org/2000/svg" viewBox="0 0 96 96"><g id="backgroup-white"><rect x="0.01" width="96" height="96" style="fill:#fff"/></g><g id="board_tek"><g id="g4141"><g id="g4158"><g id="g4145"><path id="path5" d="M13.79,23.31,79.18,10.93c4.2-.79,7.7,4.78,7.7,10.61v53c0,5.84-3.5,11.4-7.7,10.61L13.79,72.82C9.6,72,6.1,70.52,6.1,64.68V31.44C6.1,25.61,9.6,24.11,13.79,23.31Z" style="fill:#e6e6e6"/><path d="M80,85.34a4.45,4.45,0,0,1-.81-.08L13.78,72.89C9.12,72,6,70.27,6,64.68V31.44c0-5.59,3.09-7.32,7.75-8.2L79.17,10.86a4.78,4.78,0,0,1,4,1.17C85.42,13.91,87,17.74,87,21.54v53c0,3.81-1.53,7.63-3.81,9.52A4.94,4.94,0,0,1,80,85.34Zm-66.18-62c-4.58.87-7.63,2.57-7.63,8.06V64.68c0,5.5,3.05,7.2,7.63,8.07L79.2,85.12A4.61,4.61,0,0,0,83.05,84c2.25-1.86,3.75-5.64,3.75-9.41v-53c0-3.76-1.5-7.54-3.75-9.4A4.65,4.65,0,0,0,79.2,11Z"/><path id="path7" d="M78.28,74.45v-53c0-1.59-.78-2.82-1.92-2.65L11,28.66C9.82,28.84,9,29.72,9,31.31V64.55C9,66.14,9.82,67,11,67.21l65.4,9.9C77.5,77.28,78.28,76.05,78.28,74.45Z"/><path d="M76.57,77.19h-.23L11,67.27c-1.26-.19-2-1.18-2-2.72V31.31c0-1.53.72-2.53,2-2.72l65.39-9.9a1.38,1.38,0,0,1,1.14.33,3.15,3.15,0,0,1,.87,2.39v53a3.13,3.13,0,0,1-.87,2.39A1.37,1.37,0,0,1,76.57,77.19Zm0-58.37h-.2L11,28.73c-1.18.18-1.86,1.12-1.86,2.58V64.55C9.11,66,9.79,67,11,67.13L76.37,77a1.27,1.27,0,0,0,1-.3,3.06,3.06,0,0,0,.82-2.29v-53a3,3,0,0,0-.82-2.28A1.22,1.22,0,0,0,76.57,18.82Z"/><path id="path4162" d="M87.06,20.31V76l2.17-1.24c0-19.32,0-32.66,0-52Z" style="fill-rule:evenodd"/><path d="M87,76.12v-56l.13.14,2.19,2.5V38.07c0,12.09,0,22.86,0,36.69v0l0,0Zm.14-55.62V75.88l2-1.16c0-13.81,0-24.57,0-36.65V22.81Z"/><path id="path7-6" d="M71.08,70.45V25.36c0-1.35-.66-2.4-1.64-2.25L13.86,31.52c-1,.15-1.64.9-1.64,2.26V62c0,1.35.66,2.11,1.64,2.25L69.44,72.7c1,.15,1.64-.9,1.64-2.25Z" style="fill:#bbdefb"/><path d="M69.62,72.78h-.19L13.85,64.35A2.06,2.06,0,0,1,12.15,62V33.78a2.07,2.07,0,0,1,1.7-2.33L69.43,23a1.17,1.17,0,0,1,1,.28,2.72,2.72,0,0,1,.74,2V70.45a2.7,2.7,0,0,1-.74,2A1.18,1.18,0,0,1,69.62,72.78Zm0-49.62-.18,0L13.87,31.59c-1,.15-1.57.95-1.57,2.19V62c0,1.24.57,2,1.57,2.18l55.58,8.42a1,1,0,0,0,.87-.25A2.58,2.58,0,0,0,71,70.45V25.36a2.57,2.57,0,0,0-.69-1.93A1,1,0,0,0,69.63,23.16Z"/></g></g></g><g id="text4173"><path id="path4145" d="M35.05,35.2v2.93H26.74V60.92H23.26V38.13H14.91V35.2Z" style="fill:#b81c22"/><path d="M26.92,61.1H23.08V38.31H14.73V35h20.5v3.29H26.92Zm-3.48-.35h3.12V38h8.31V35.38H15.09V38h8.35Z" style="fill:#ff0"/><path id="path4147" d="M54.56,35.2V38H42.21v8.54h10v2.73h-10v8.78H54.56v2.83H38.71V35.2Z" style="fill:#b81c22"/><path d="M54.74,61.1H38.53V35H54.74v3.2H42.39V46.4h10v3.09h-10v8.42H54.74Zm-15.85-.35H54.38V58.27H42V49.13H52V46.76H42v-8.9H54.38V35.38H38.89Z" style="fill:#ff0"/><path id="path4149" d="M63.36,46.47h1.31a2.84,2.84,0,0,0,1.07-.16,2,2,0,0,0,.77-.59L75.08,36a2.56,2.56,0,0,1,.75-.63,2.06,2.06,0,0,1,1-.2h3l-9.8,11.08a9.2,9.2,0,0,1-.71.7,3.13,3.13,0,0,1-.7.46,2.48,2.48,0,0,1,.87.49,5.56,5.56,0,0,1,.79.81L80.43,60.92h-3a2.32,2.32,0,0,1-.57-.05,1.59,1.59,0,0,1-.42-.14,1.32,1.32,0,0,1-.3-.24c-.1-.09-.19-.19-.29-.3L67,50a3.82,3.82,0,0,0-.38-.35,1.28,1.28,0,0,0-.4-.27,1.45,1.45,0,0,0-.52-.15,4.67,4.67,0,0,0-.72-.05H63.36V60.92H59.89V35.2h3.47Z" style="fill:#b81c22"/><path d="M80.81,61.1h-3.4a3.58,3.58,0,0,1-.61-.05,3,3,0,0,1-.46-.16,1.49,1.49,0,0,1-.35-.27l-.29-.31L66.81,50.09a3.46,3.46,0,0,0-.35-.33,1.11,1.11,0,0,0-.36-.25,1.3,1.3,0,0,0-.47-.13,4.49,4.49,0,0,0-.7-.05h-1.4V61.1H59.71V35h3.82V46.29h1.14a3,3,0,0,0,1-.14,2,2,0,0,0,.71-.55l8.56-9.69a2.76,2.76,0,0,1,.81-.67,2.12,2.12,0,0,1,1-.22h3.36l-.26.3L70.08,46.4a8,8,0,0,1-.74.71,2.38,2.38,0,0,1-.4.31,2.3,2.3,0,0,1,.58.37,7.13,7.13,0,0,1,.81.83ZM63.18,49h1.75a4,4,0,0,1,.76.06,1.59,1.59,0,0,1,.56.16,1.37,1.37,0,0,1,.44.3,3.13,3.13,0,0,1,.39.36L76,60.07l.27.3a1.56,1.56,0,0,0,.27.2,2,2,0,0,0,.37.13,2.58,2.58,0,0,0,.53,0H80l-10-11.9a7.13,7.13,0,0,0-.77-.78,2.53,2.53,0,0,0-.82-.46L68,47.48l.41-.2a3,3,0,0,0,.66-.44,8.74,8.74,0,0,0,.7-.68l9.54-10.78H76.78a1.8,1.8,0,0,0-.86.18,2.26,2.26,0,0,0-.71.59l-8.56,9.69a2.48,2.48,0,0,1-.84.64,3,3,0,0,1-1.14.17H63.18V35.38H60.07V60.75h3.11Z" style="fill:#ff0"/></g></g></svg>