<?xml version="1.0" encoding="UTF-8" standalone="no"?>
<!-- Created with Inkscape (http://www.inkscape.org/) -->

<svg
   xmlns:dc="http://purl.org/dc/elements/1.1/"
   xmlns:cc="http://creativecommons.org/ns#"
   xmlns:rdf="http://www.w3.org/1999/02/22-rdf-syntax-ns#"
   xmlns:svg="http://www.w3.org/2000/svg"
   xmlns="http://www.w3.org/2000/svg"
   xmlns:sodipodi="http://sodipodi.sourceforge.net/DTD/sodipodi-0.dtd"
   xmlns:inkscape="http://www.inkscape.org/namespaces/inkscape"
   width="50"
   height="50"
   viewBox="0 0 50.000001 50.000001"
   id="svg4400"
   version="1.1"
   inkscape:version="0.91 r13725"
   sodipodi:docname="board_hobbit.svg">
  <defs
     id="defs4402" />
  <sodipodi:namedview
     id="base"
     pagecolor="#ffffff"
     bordercolor="#666666"
     borderopacity="1.0"
     inkscape:pageopacity="0.0"
     inkscape:pageshadow="2"
     inkscape:zoom="15.839192"
     inkscape:cx="4.6124945"
     inkscape:cy="28.541303"
     inkscape:document-units="px"
     inkscape:current-layer="layer1"
     showgrid="false"
     units="px"
     inkscape:window-width="1855"
     inkscape:window-height="1056"
     inkscape:window-x="65"
     inkscape:window-y="24"
     inkscape:window-maximized="1" />
  <metadata
     id="metadata4405">
    <rdf:RDF>
      <cc:Work
         rdf:about="">
        <dc:format>image/svg+xml</dc:format>
        <dc:type
           rdf:resource="http://purl.org/dc/dcmitype/StillImage" />
        <dc:title />
      </cc:Work>
    </rdf:RDF>
  </metadata>
  <g
     inkscape:label="Layer 1"
     inkscape:groupmode="layer"
     id="layer1"
     transform="translate(0,-1002.3622)">
    <g
       id="g5099"
       transform="matrix(0.17702596,0,0,0.17702596,-83.744518,967.51388)">
      <path
         class="st0"
         d="m 726.58571,278.37649 -72.4,0 0,0 -95.3,0 0,0 -63,0 c -4.8,0 -8.7,4.8 -8.7,10.8 l 0,87.5 c 0,6 3.9,10.8 8.7,10.8 l 230.7,0 c 4.8,0 8.7,-4.8 8.7,-10.8 l 0,-87.5 c 0,-6 -3.9,-10.8 -8.7,-10.8 z"
         id="path11"
         inkscape:connector-curvature="0"
         style="fill:#145f32" />
      <path
         class="st1"
         d="m 738.88571,326.77649 -32.2,0 c -1.4,0 -2.5,-1.1 -2.5,-2.5 l 0,-17.4 c 0,-1.4 1.1,-2.5 2.5,-2.5 l 32.2,0 c 1.4,0 2.5,1.1 2.5,2.5 l 0,17.4 c 0,1.4 -1.1,2.5 -2.5,2.5 z"
         id="path13"
         inkscape:connector-curvature="0"
         style="fill:#192624" />
      <g
         id="g15"
         transform="translate(460.18571,186.97649)">
        <circle
           class="st2"
           cx="38.799999"
           cy="101.7"
           r="7"
           id="circle17"
           style="fill:#ae7e20" />
        <circle
           class="st3"
           cx="38.799999"
           cy="101.7"
           r="4.4000001"
           id="circle19"
           style="fill:#ffffff" />
      </g>
      <g
         id="g21"
         transform="translate(460.18571,186.97649)">
        <circle
           class="st2"
           cx="145.8"
           cy="101.7"
           r="7"
           id="circle23"
           style="fill:#ae7e20" />
        <circle
           class="st3"
           cx="145.8"
           cy="101.7"
           r="4.4000001"
           id="circle25"
           style="fill:#ffffff" />
      </g>
      <g
         id="g27"
         transform="translate(460.18571,186.97649)">
        <circle
           class="st2"
           cx="264.20001"
           cy="101.7"
           r="7"
           id="circle29"
           style="fill:#ae7e20" />
        <circle
           class="st3"
           cx="264.20001"
           cy="101.7"
           r="4.4000001"
           id="circle31"
           style="fill:#ffffff" />
      </g>
      <g
         id="g33"
         transform="translate(460.18571,186.97649)">
        <circle
           class="st2"
           cx="38.799999"
           cy="191"
           r="7"
           id="circle35"
           style="fill:#ae7e20" />
        <circle
           class="st3"
           cx="38.799999"
           cy="191"
           r="4.4000001"
           id="circle37"
           style="fill:#ffffff" />
      </g>
      <g
         id="g39"
         transform="translate(460.18571,186.97649)">
        <circle
           class="st2"
           cx="264.20001"
           cy="191"
           r="7"
           id="circle41"
           style="fill:#ae7e20" />
        <circle
           class="st3"
           cx="264.20001"
           cy="191"
           r="4.4000001"
           id="circle43"
           style="fill:#ffffff" />
      </g>
      <path
         class="st4"
         d="m 678.58571,342.27649 0,50.9 37.3,0 0,-50.9 -37.3,0 0,0 z m 5.5,46 c 0,-0.7 -0.1,-16.7 -0.1,-16.7 0,0 0,-1.8 1.6,-1.8 1.6,0 1.6,0.1 1.6,0.1 l 1.6,0 c 0,0 1.3,-0.1 1.3,1.5 0,1.6 0,17.2 0,17.2 0,0 0.1,1.8 -0.6,1.8 -0.7,0 -0.7,-1.9 -0.7,-1.9 l -0.4,-14.3 -2.3,0 -0.5,14.2 c 0,0 0.1,2.3 -0.7,2.3 -0.9,-0.2 -0.8,-1.8 -0.8,-2.4 z m 20.1,0 c 0,-0.7 -0.1,-16.7 -0.1,-16.7 0,0 0,-1.8 1.6,-1.8 1.6,0 1.6,0.1 1.6,0.1 l 1.6,0 c 0,0 1.3,-0.1 1.3,1.5 0,1.6 0,17.2 0,17.2 0,0 0.1,1.8 -0.6,1.8 -0.7,0 -0.7,-1.9 -0.7,-1.9 l -0.4,-14.3 -2.3,0 -0.5,14.2 c 0,0 0.1,2.3 -0.7,2.3 -0.8,-0.2 -0.8,-1.8 -0.8,-2.4 z"
         id="path45"
         inkscape:connector-curvature="0"
         style="fill:#cacaca" />
      <g
         id="g47"
         transform="translate(460.18571,186.97649)">
        <path
           class="st5"
           d="m 65.5,210.1 -1.9,0 c -3,0 -5.4,-2.4 -5.4,-5.4 l 0,-9.2 c 0,-3 2.4,-5.4 5.4,-5.4 l 1.9,0 c 3,0 5.4,2.4 5.4,5.4 l 0,9.2 c -0.1,3 -2.5,5.4 -5.4,5.4 z"
           id="path49"
           inkscape:connector-curvature="0"
           style="fill:#141414" />
        <rect
           x="55"
           y="181"
           class="st5"
           width="19.1"
           height="22.4"
           id="rect51"
           style="fill:#141414" />
        <polygon
           class="st4"
           points="74.1,195.2 64.9,201.1 64.9,195.2 74.1,189.3 "
           id="polygon53"
           style="fill:#cacaca" />
      </g>
      <path
         class="st4"
         d="m 669.78571,396.37649 -0.7,0 0,-49.8 -15.2,0 0,49.8 -0.8,0 c -0.3,0 -0.6,0.3 -0.6,0.6 0,0.3 0.3,0.6 0.6,0.6 l 1,0 c 0.3,0 0.6,-0.3 0.6,-0.6 0,-0.1 0,-0.2 0,-0.2 l 2.3,0 0,0 c 0,0.5 0.4,1 1,1 l 7.6,0 c 0.5,0 1,-0.4 1,-1 l 0,0 1.8,0 c 0,0.1 0,0.1 0,0.2 0,0.3 0.3,0.6 0.6,0.6 l 1,0 c 0.3,0 0.6,-0.3 0.6,-0.6 -0.2,-0.4 -0.4,-0.6 -0.8,-0.6 z m -9.7,-22.9 c 0,-0.8 0.6,-1.4 1.4,-1.4 0.8,0 1.4,0.6 1.4,1.4 l 0,1.2 c 0,0.8 -0.6,1.4 -1.4,1.4 -0.8,0 -1.4,-0.6 -1.4,-1.4 l 0,-1.2 z m -2.4,18.6 1.1,-14.2 c 0,0 0,-0.7 0.6,-0.7 0.6,0 3.7,-0.1 3.7,-0.1 0,0 0.6,0 0.7,0.7 0.2,0.7 1,14 1,14 0,0 0.2,0.9 -0.6,0.9 -0.7,0 -0.8,-0.9 -0.8,-0.9 l -1.4,-12.2 -1.9,0 -1.4,12.3 c 0,0 -0.1,0.8 -0.8,0.8 -0.3,0.1 -0.2,-0.6 -0.2,-0.6 z"
         id="path55"
         inkscape:connector-curvature="0"
         style="fill:#cacaca" />
      <g
         id="g57"
         transform="translate(460.18571,186.97649)">
        <path
           class="st6"
           d="m 186.8,198.7 -88.8,0 c -0.6,0 -1.1,-0.5 -1.1,-1.1 l 0,-80 c 0,-0.6 0.5,-1.1 1.1,-1.1 l 88.8,0 c 0.6,0 1.1,0.5 1.1,1.1 l 0,80 c 0,0.6 -0.5,1.1 -1.1,1.1 z"
           id="path59"
           inkscape:connector-curvature="0"
           style="fill:#004727" />
        <g
           id="g61">
          <circle
             class="st2"
             cx="148.5"
             cy="123.3"
             r="4.4000001"
             id="circle63"
             style="fill:#ae7e20" />
          <circle
             class="st3"
             cx="148.5"
             cy="123.3"
             r="2.7"
             id="circle65"
             style="fill:#ffffff" />
        </g>
        <g
           id="g67">
          <circle
             class="st2"
             cx="181.8"
             cy="160.10001"
             r="4.4000001"
             id="circle69"
             style="fill:#ae7e20" />
          <circle
             class="st3"
             cx="181.8"
             cy="160.10001"
             r="2.7"
             id="circle71"
             style="fill:#ffffff" />
        </g>
        <g
           id="g73">
          <circle
             class="st2"
             cx="102.2"
             cy="177.10001"
             r="4.4000001"
             id="circle75"
             style="fill:#ae7e20" />
          <circle
             class="st3"
             cx="102.2"
             cy="177.10001"
             r="2.7"
             id="circle77"
             style="fill:#ffffff" />
        </g>
        <g
           id="g79">
          <g
             id="g81">
            <rect
               x="155.10001"
               y="118.8"
               class="st0"
               width="26.9"
               height="35.599998"
               id="rect83"
               style="fill:#145f32" />
            <polygon
               class="st4"
               points="180.8,153.5 180.8,126.2 173.9,126.2 173.9,119.7 163.2,119.7 163.2,126.2 156.3,126.2 156.3,153.5 "
               id="polygon85"
               style="fill:#cacaca" />
          </g>
          <rect
             x="103.1"
             y="128.39999"
             class="st7"
             width="42.5"
             height="42.099998"
             id="rect87"
             style="fill:#252726" />
          <rect
             x="114.2"
             y="178.10001"
             class="st7"
             width="27.6"
             height="15.9"
             id="rect89"
             style="fill:#252726" />
          <rect
             x="162.89999"
             y="170.5"
             class="st7"
             width="15.5"
             height="15.2"
             id="rect91"
             style="fill:#252726" />
        </g>
      </g>
    </g>
    <g
       transform="matrix(0.71048243,0,0,1.000438,7.2301595,6.23907e-5)"
       style="font-style:normal;font-weight:normal;font-size:20.30885887px;line-height:125%;font-family:sans-serif;letter-spacing:0px;word-spacing:0px;fill:#b81c22;fill-opacity:1;stroke:#ffff00;stroke-width:0.23722379;stroke-linecap:round;stroke-linejoin:round;stroke-opacity:1;stroke-miterlimit:4;stroke-dasharray:none"
       id="text4148">
      <path
         d="m -8.768914,1019.4998 2.00312,0 0,6.0689 7.2786633,0 0,-6.0689 2.0031199,0 0,14.8053 -2.0031199,0 0,-7.0506 -7.2786633,0 0,7.0506 -2.00312,0 0,-14.8053 z"
         id="path4178"
         inkscape:connector-curvature="0"
         style="stroke:#ffff00;stroke-opacity:1;stroke-width:0.23722379;stroke-miterlimit:4;stroke-dasharray:none;stroke-linecap:round;stroke-linejoin:round" />
      <path
         d="m 10.51088,1020.8584 q -2.181616,0 -3.4707526,1.6263 -1.2792202,1.6263 -1.2792202,4.4326 0,2.7964 1.2792202,4.4227 1.2891366,1.6263 3.4707526,1.6263 2.181615,0 3.450919,-1.6263 1.27922,-1.6263 1.27922,-4.4227 0,-2.8063 -1.27922,-4.4326 -1.269304,-1.6263 -3.450919,-1.6263 z m 0,-1.6263 q 3.11376,0 4.97805,2.0923 1.86429,2.0825 1.86429,5.5929 0,3.5005 -1.86429,5.5929 -1.86429,2.0824 -4.97805,2.0824 -3.1236774,0 -4.9978836,-2.0824 -1.8642898,-2.0825 -1.8642898,-5.5929 0,-3.5104 1.8642898,-5.5929 1.8742062,-2.0923 4.9978836,-2.0923 z"
         id="path4180"
         inkscape:connector-curvature="0"
         style="stroke:#ffff00;stroke-opacity:1;stroke-width:0.23722379;stroke-miterlimit:4;stroke-dasharray:none;stroke-linecap:round;stroke-linejoin:round" />
      <path
         d="m 20.489057,1027.2346 0,5.4243 3.212925,0 q 1.616379,0 2.389861,-0.6644 0.783398,-0.6743 0.783398,-2.0527 0,-1.3883 -0.783398,-2.0428 -0.773482,-0.6644 -2.389861,-0.6644 l -3.212925,0 z m 0,-6.0887 0,4.4624 2.965014,0 q 1.467633,0 2.181616,-0.5454 0.7239,-0.5553 0.7239,-1.6858 0,-1.1205 -0.7239,-1.6758 -0.713983,-0.5554 -2.181616,-0.5554 l -2.965014,0 z m -2.00312,-1.6461 5.116881,0 q 2.290696,0 3.530251,0.952 1.239554,0.952 1.239554,2.7072 0,1.3585 -0.634652,2.1618 -0.634652,0.8032 -1.86429,1.0015 1.477549,0.3173 2.290697,1.3288 0.823064,1.0016 0.823064,2.5089 0,1.9833 -1.348635,3.0642 -1.348635,1.0809 -3.83766,1.0809 l -5.31521,0 0,-14.8053 z"
         id="path4182"
         inkscape:connector-curvature="0"
         style="stroke:#ffff00;stroke-opacity:1;stroke-width:0.23722379;stroke-miterlimit:4;stroke-dasharray:none;stroke-linecap:round;stroke-linejoin:round" />
      <path
         d="m 32.410857,1027.2346 0,5.4243 3.212925,0 q 1.616379,0 2.389861,-0.6644 0.783398,-0.6743 0.783398,-2.0527 0,-1.3883 -0.783398,-2.0428 -0.773482,-0.6644 -2.389861,-0.6644 l -3.212925,0 z m 0,-6.0887 0,4.4624 2.965014,0 q 1.467633,0 2.181616,-0.5454 0.7239,-0.5553 0.7239,-1.6858 0,-1.1205 -0.7239,-1.6758 -0.713983,-0.5554 -2.181616,-0.5554 l -2.965014,0 z m -2.00312,-1.6461 5.116881,0 q 2.290696,0 3.530251,0.952 1.239554,0.952 1.239554,2.7072 0,1.3585 -0.634652,2.1618 -0.634652,0.8032 -1.864289,1.0015 1.477548,0.3173 2.290696,1.3288 0.823064,1.0016 0.823064,2.5089 0,1.9833 -1.348635,3.0642 -1.348635,1.0809 -3.83766,1.0809 l -5.31521,0 0,-14.8053 z"
         id="path4184"
         inkscape:connector-curvature="0"
         style="stroke:#ffff00;stroke-opacity:1;stroke-width:0.23722379;stroke-miterlimit:4;stroke-dasharray:none;stroke-linecap:round;stroke-linejoin:round" />
      <path
         d="m 42.329534,1019.4998 2.00312,0 0,14.8053 -2.00312,0 0,-14.8053 z"
         id="path4186"
         inkscape:connector-curvature="0"
         style="stroke:#ffff00;stroke-opacity:1;stroke-width:0.23722379;stroke-miterlimit:4;stroke-dasharray:none;stroke-linecap:round;stroke-linejoin:round" />
      <path
         d="m 46.266357,1019.4998 12.524457,0 0,1.6858 -5.255711,0 0,13.1195 -2.013036,0 0,-13.1195 -5.25571,0 0,-1.6858 z"
         id="path4188"
         inkscape:connector-curvature="0"
         style="stroke:#ffff00;stroke-opacity:1;stroke-width:0.23722379;stroke-miterlimit:4;stroke-dasharray:none;stroke-linecap:round;stroke-linejoin:round" />
    </g>
  </g>
</svg>
