<svg xmlns="http://www.w3.org/2000/svg" viewBox="0 0 96 96"><g id="backgroup-white"><rect x="0.01" width="96" height="96" style="fill:#fff"/></g><g id="board_fairy"><g id="g4141"><g id="g4158"><g id="g4145"><path id="path5" d="M13.86,23.35,79.21,11c4.19-.79,7.69,4.77,7.69,10.6v53c0,5.83-3.5,11.39-7.69,10.6L13.86,72.83C9.67,72,6.17,70.53,6.17,64.7V31.48C6.17,25.65,9.67,24.15,13.86,23.35Z" style="fill:#37474f"/><path id="path7" d="M79.34,74.6v-53c0-1.59-.77-2.82-1.92-2.65l-65.36,9.9c-1.14.17-1.92,1.06-1.92,2.65V64.7c0,1.59.78,2.48,1.92,2.65l65.36,9.9C78.57,77.42,79.34,76.19,79.34,74.6Z" style="fill:#bbdefb"/><path id="path4162" d="M87.09,20.35V76l2.17-1.24c0-19.3,0-32.64,0-51.95Z" style="fill-rule:evenodd"/></g></g></g><g id="text4148"><g id="g4149"><path id="path4139" d="M7.59,33.89H22.85v3H11.18v7.83H21.71v3H11.18V60.46H7.59Z" style="fill:#b81c22"/><path d="M11.36,60.64H7.41V33.71H23V37.1H11.36v7.47H21.89V48H11.36Zm-3.59-.35H11V47.59H21.53V44.93H11V36.74H22.67V34.07H7.77Z" style="fill:#ff0"/><path id="path4141" d="M30.52,37.43,25.65,50.66h9.76Zm-2-3.54h4.07L42.68,60.46H39l-2.42-6.81h-12l-2.42,6.81H18.36Z" style="fill:#b81c22"/><path d="M42.94,60.64H38.82l0-.12L36.4,53.83H24.69l-2.42,6.81H18.1L28.37,33.71h4.32l0,.12Zm-3.86-.35h3.34l-10-26.22H28.62l-10,26.22H22l2.42-6.82H36.66l0,.12Zm-3.41-9.45H25.39l5.13-13.92Zm-9.77-.36h9.25L30.52,38Z" style="fill:#ff0"/><path id="path4143" d="M43,33.89h3.6V60.46H43Z" style="fill:#b81c22"/><path d="M46.73,60.64h-4V33.71h4Zm-3.6-.35h3.24V34.07H43.13Z" style="fill:#ff0"/><path id="path4145" d="M62.7,48a5.15,5.15,0,0,1,2.24,1.67,16.83,16.83,0,0,1,2.2,3.52l3.65,7.26H66.93l-3.4-6.81A9.34,9.34,0,0,0,61,50.11a5.65,5.65,0,0,0-3.36-.88H53.7V60.46H50.11V33.89h8.11c3,0,5.3.64,6.79,1.91a7.12,7.12,0,0,1,2.24,5.74,7,7,0,0,1-1.17,4.17A6,6,0,0,1,62.7,48Zm-9-11.16v9.43h4.52a5.68,5.68,0,0,0,3.91-1.19,4.55,4.55,0,0,0,1.33-3.55A4.41,4.41,0,0,0,62.13,38a5.63,5.63,0,0,0-3.91-1.19Z" style="fill:#b81c22"/><path d="M71.08,60.64H66.82l0-.1-3.4-6.81a9.4,9.4,0,0,0-2.5-3.48,5.61,5.61,0,0,0-3.26-.84H53.88V60.64h-4V33.71h8.29c3.06,0,5.39.66,6.91,1.95a7.32,7.32,0,0,1,2.3,5.88,7.23,7.23,0,0,1-1.21,4.27,5.94,5.94,0,0,1-3,2.22,6.07,6.07,0,0,1,1.86,1.53,17.22,17.22,0,0,1,2.23,3.56Zm-4-.35H70.5l-3.52-7A16.05,16.05,0,0,0,64.8,49.8a5,5,0,0,0-2.16-1.62L62.1,48l.55-.16a5.82,5.82,0,0,0,3.28-2.22,6.89,6.89,0,0,0,1.14-4.07,7,7,0,0,0-2.18-5.61c-1.45-1.23-3.7-1.86-6.67-1.86H50.29V60.29h3.23V49.05h4.09a5.93,5.93,0,0,1,3.47.91,9.61,9.61,0,0,1,2.61,3.61ZM58.22,46.46h-4.7V36.67h4.7a5.87,5.87,0,0,1,4,1.23,4.64,4.64,0,0,1,1.39,3.64,4.76,4.76,0,0,1-1.39,3.68A5.85,5.85,0,0,1,58.22,46.46Zm-4.34-.36h4.34A5.52,5.52,0,0,0,62,45a4.39,4.39,0,0,0,1.27-3.41A4.3,4.3,0,0,0,62,38.17,5.52,5.52,0,0,0,58.22,37H53.88Z" style="fill:#ff0"/><path id="path4147" d="M65.85,33.89h3.86l7.36,10.93,7.31-10.93h3.86L78.85,47.81V60.46H75.24V47.81Z" style="fill:#b81c22"/><path d="M79,60.64h-4V47.87L65.51,33.71H69.8l.06.08L77.07,44.5l7.21-10.79h4.3l-.19.28L79,47.87Zm-3.61-.35h3.25V47.75l0,0,9.2-13.64H84.48L77.07,45.14,69.61,34.07H66.19l9.23,13.68Z" style="fill:#ff0"/></g></g></g></svg>