<svg id="圖層_1" data-name="圖層 1" xmlns="http://www.w3.org/2000/svg" viewBox="0 0 96 96"><rect x="0.01" y="0.02" width="96" height="96" style="fill:#fff"/><path id="path7-6" d="M69.93,68.94V27.24c0-1.25-.61-2.22-1.51-2.09L16.91,33A1.85,1.85,0,0,0,15.4,35V61.15a1.86,1.86,0,0,0,1.51,2.09L68.4,71c.93.14,1.51-.83,1.51-2.08Z" style="fill:#fff"/><path id="path5" d="M16.91,25.36,77.44,13.91c3.88-.74,7.12,4.41,7.12,9.81v49c0,5.4-3.24,10.55-7.12,9.81L16.91,71.13C13,70.39,9.79,69,9.79,63.61V32.87C9.75,27.48,13,26.06,16.91,25.36Z" style="fill:#10366a"/><path d="M78.17,82.71a3.82,3.82,0,0,1-.75-.08L16.86,71.2c-4.31-.82-7.18-2.42-7.18-7.59V32.87c0-5.17,2.87-6.76,7.18-7.58h0L77.42,13.85a4.37,4.37,0,0,1,3.71,1.07c2.11,1.74,3.53,5.27,3.53,8.8v49c0,3.53-1.42,7.06-3.53,8.8A4.58,4.58,0,0,1,78.17,82.71Zm0-68.81a3.53,3.53,0,0,0-.72.08L16.91,25.42c-4.24.8-7.07,2.37-7.07,7.41V63.61c0,5.08,2.83,6.65,7.07,7.41L77.45,82.5a4.26,4.26,0,0,0,3.57-1c2.08-1.73,3.47-5.22,3.47-8.71v-49c0-3.49-1.39-7-3.47-8.7A4.44,4.44,0,0,0,78.17,13.9Z" style="fill:#10366a"/><path id="path7" d="M76.6,72.64v-49c0-1.48-.72-2.62-1.78-2.45L14.25,30.3a2.17,2.17,0,0,0-1.78,2.45V63.49a2.17,2.17,0,0,0,1.78,2.45L74.82,75.1C75.88,75.26,76.6,74.12,76.6,72.64Z" style="fill:#fff"/><path d="M75,75.17h-.21L14.24,66a2.25,2.25,0,0,1-1.86-2.52V32.75a2.23,2.23,0,0,1,1.86-2.51l60.57-9.16a1.25,1.25,0,0,1,1,.31,2.92,2.92,0,0,1,.81,2.21v49a2.92,2.92,0,0,1-.81,2.21A1.24,1.24,0,0,1,75,75.17Zm0-54h-.19L14.26,30.37a2.11,2.11,0,0,0-1.73,2.38V63.49a2.12,2.12,0,0,0,1.73,2.39L74.83,75a1.15,1.15,0,0,0,.93-.27,2.77,2.77,0,0,0,.75-2.12v-49a2.79,2.79,0,0,0-.75-2.11A1.19,1.19,0,0,0,75,21.19Z" style="fill:#10366a"/><path id="path4162" d="M84.74,22.58V74.07l2-1.14V24.86Z" style="fill:#fff;fill-rule:evenodd"/><path d="M84.39,74.67v-53l2.71,3.08v48.4Zm.69-51.17v50l1.32-.74V25Z" style="fill:#10366a"/><path d="M68.59,71.1h-.18l-51.5-7.8a1.91,1.91,0,0,1-1.57-2.15V35a1.92,1.92,0,0,1,1.57-2.15l51.5-7.75a1.13,1.13,0,0,1,.93.27A2.5,2.5,0,0,1,70,27.26V69a2.5,2.5,0,0,1-.68,1.85A1.17,1.17,0,0,1,68.59,71.1Zm0-45.88h-.16L16.91,33a1.79,1.79,0,0,0-1.45,2V61.15a1.78,1.78,0,0,0,1.45,2L68.4,71a1,1,0,0,0,.8-.23,2.42,2.42,0,0,0,.64-1.79V27.24a2.38,2.38,0,0,0-.64-1.78A.94.94,0,0,0,68.59,25.22Z" style="fill:#10366a"/><path d="M68.59,71.44h-.18L16.86,63.65A2.25,2.25,0,0,1,15,61.1V35a2.22,2.22,0,0,1,1.85-2.49l51.51-7.75a1.41,1.41,0,0,1,1.21.35,2.88,2.88,0,0,1,.8,2.13V69a2.89,2.89,0,0,1-.78,2.09A1.48,1.48,0,0,1,68.59,71.44Zm-.16-45.88L17,33.35A1.45,1.45,0,0,0,15.8,35V61.15A1.46,1.46,0,0,0,17,62.83l51.48,7.78a.58.58,0,0,0,.51-.14A2,2,0,0,0,69.49,69V27.24a2,2,0,0,0-.55-1.54.59.59,0,0,0-.36-.14Z" style="fill:#10366a"/><g id="text4173"><path id="path4145" d="M33.65,36.35v2.93H25.34V62.07H21.86V39.28H13.51V36.35Z" style="fill:#103770;stroke:#fff;stroke-linecap:square;stroke-linejoin:round;stroke-width:0.5px"/><path d="M25.52,62.25H21.68V39.46H13.33V36.15h20.5v3.29H25.52ZM22,61.9h3.12V39.15h8.31V36.53H13.69v2.62H22Z" style="fill:#103770;stroke:#fff;stroke-linecap:square;stroke-linejoin:round;stroke-width:0.5px"/><path id="path4147" d="M53.16,36.35v2.8H40.81v8.54h10v2.73h-10V59.2H53.16V62H37.31V36.35Z" style="fill:#103770;stroke:#fff;stroke-linecap:square;stroke-linejoin:round;stroke-width:0.5px"/><path d="M53.34,62.25H37.13V36.15H53.34v3.2H41v8.2H51v3.09H41v8.42H53.34ZM37.49,61.9H53V59.42H40.6V50.28h10V47.91h-10V39H53V36.53H37.49Z" style="fill:#103770;stroke:#fff;stroke-linecap:square;stroke-linejoin:round;stroke-width:0.5px"/><path id="path4149" d="M62,47.62h1.31a3,3,0,0,0,1.07-.16,2,2,0,0,0,.77-.59l8.57-9.72a2.52,2.52,0,0,1,.75-.63,2,2,0,0,1,1-.2h3L68.63,47.4a9.39,9.39,0,0,1-.71.7,3.26,3.26,0,0,1-.7.46,2.42,2.42,0,0,1,.87.49,5.51,5.51,0,0,1,.79.81L79,62.07H76a2.75,2.75,0,0,1-.57,0,1.88,1.88,0,0,1-.42-.14,1.76,1.76,0,0,1-.3-.24c-.1-.09-.19-.19-.29-.3L65.6,51.15a3.09,3.09,0,0,0-.38-.35,1.18,1.18,0,0,0-.4-.27,1.2,1.2,0,0,0-.52-.15,3.49,3.49,0,0,0-.72-.05H62V62.07H58.49V36.35H62Z" style="fill:#103770;stroke:#fff;stroke-linecap:square;stroke-linejoin:round;stroke-width:0.5px"/><path d="M79.41,62.25H76a4.18,4.18,0,0,1-.61,0,3.57,3.57,0,0,1-.46-.16,1.91,1.91,0,0,1-.35-.27l-.29-.31L65.41,51.24a3.61,3.61,0,0,0-.35-.33.9.9,0,0,0-.36-.25,1.14,1.14,0,0,0-.47-.13,3.3,3.3,0,0,0-.7-.05h-1.4V62.25H58.31V36.15h3.82V47.44h1.14a3.06,3.06,0,0,0,1-.14,2,2,0,0,0,.71-.55l8.56-9.69a2.62,2.62,0,0,1,.81-.67,2,2,0,0,1,1-.22h3.36l-.26.3L68.68,47.55a8.27,8.27,0,0,1-.74.71,3,3,0,0,1-.4.31,2,2,0,0,1,.58.37,7.07,7.07,0,0,1,.81.83ZM61.78,50.15h1.75a3.25,3.25,0,0,1,.76.06,1.75,1.75,0,0,1,1,.46,3.33,3.33,0,0,1,.39.36L74.6,61.22l.27.3a1.89,1.89,0,0,0,.27.2,2.32,2.32,0,0,0,.37.13H78.6L68.6,50a7.09,7.09,0,0,0-.77-.78,2.38,2.38,0,0,0-.82-.46l-.41-.08.41-.2a3.3,3.3,0,0,0,.66-.44,9,9,0,0,0,.7-.68l9.54-10.78H75.38a1.71,1.71,0,0,0-.86.18,2.12,2.12,0,0,0-.71.59L65.25,47a2.51,2.51,0,0,1-.84.64,3.16,3.16,0,0,1-1.14.17H61.78V36.53H58.67V61.9h3.11Z" style="fill:#103770;stroke:#fff;stroke-linecap:square;stroke-linejoin:round;stroke-width:0.5px"/></g></svg>