<?xml version="1.0" encoding="UTF-8" standalone="no"?>
<!-- Generator: Adobe Illustrator 19.2.1, SVG Export Plug-In . SVG Version: 6.00 Build 0)  -->

<svg
   xmlns:dc="http://purl.org/dc/elements/1.1/"
   xmlns:cc="http://creativecommons.org/ns#"
   xmlns:rdf="http://www.w3.org/1999/02/22-rdf-syntax-ns#"
   xmlns:svg="http://www.w3.org/2000/svg"
   xmlns="http://www.w3.org/2000/svg"
   xmlns:sodipodi="http://sodipodi.sourceforge.net/DTD/sodipodi-0.dtd"
   xmlns:inkscape="http://www.inkscape.org/namespaces/inkscape"
   version="1.1"
   id="Ebene_1"
   x="0px"
   y="0px"
   viewBox="0 0 50 50"
   xml:space="preserve"
   inkscape:version="0.91 r13725"
   sodipodi:docname="board_tek.svg"
   width="50"
   height="50"><metadata
     id="metadata13"><rdf:RDF><cc:Work
         rdf:about=""><dc:format>image/svg+xml</dc:format><dc:type
           rdf:resource="http://purl.org/dc/dcmitype/StillImage" /><dc:title /></cc:Work></rdf:RDF></metadata><defs
     id="defs11" /><sodipodi:namedview
     pagecolor="#ffffff"
     bordercolor="#666666"
     borderopacity="1"
     objecttolerance="10"
     gridtolerance="10"
     guidetolerance="10"
     inkscape:pageopacity="0"
     inkscape:pageshadow="2"
     inkscape:window-width="1855"
     inkscape:window-height="1056"
     id="namedview9"
     showgrid="false"
     inkscape:zoom="9.8333331"
     inkscape:cx="20.86906"
     inkscape:cy="24.120224"
     inkscape:window-x="65"
     inkscape:window-y="24"
     inkscape:window-maximized="1"
     inkscape:current-layer="Ebene_1" /><style
     type="text/css"
     id="style3">
	.st0{fill:#37474F;}
	.st1{fill:#BBDEFB;}
</style><g
     id="g4141"
     transform="matrix(1.0714286,0,0,1.0714286,-1.3720149,-62.123485)"><g
       id="g4158"
       style="stroke:#000000;stroke-width:0.09333333;stroke-miterlimit:4;stroke-dasharray:none;stroke-opacity:1"><g
         id="g4145"
         transform="matrix(1,0,0,1.3788878,-1.688889e-8,-23.480216)"
         style="stroke:#000000;stroke-width:0.07948264;stroke-miterlimit:4;stroke-dasharray:none;stroke-opacity:1"><path
           sodipodi:nodetypes="sssssssss"
           style="fill:#e6e6e6;stroke:#000000;stroke-width:0.07948264;stroke-miterlimit:4;stroke-dasharray:none;stroke-opacity:1"
           inkscape:connector-curvature="0"
           id="path5"
           d="M 7,66.667079 41,62 c 2.179562,-0.299182 4,1.8 4,4 l 0,20 c 0,2.2 -1.820431,4.29913 -4,4 L 7,85.333745 C 4.8204309,85.034615 3,84.466667 3,82.266667 L 3,69.733333 c 0,-2.2 1.8204381,-2.767072 4,-3.066254 z"
           class="st0" /><path
           sodipodi:nodetypes="sssssssss"
           style="fill:#000000;stroke:#000000;stroke-width:0.07948264;stroke-miterlimit:4;stroke-dasharray:none;stroke-opacity:1"
           inkscape:connector-curvature="0"
           id="path7"
           d="m 40.530001,85.951327 0,-20 c 0,-0.6 -0.403585,-1.065489 -1,-1 L 5.5300008,68.68466 c -0.5964153,0.06549 -1,0.4 -1,1 l 0,12.533334 c 0,0.6 0.4035847,0.934511 1,1 l 34.0000002,3.733333 c 0.596415,0.06549 1,-0.4 1,-1 z"
           class="st1" /><path
           sodipodi:nodetypes="ccccc"
           inkscape:connector-curvature="0"
           id="path4162"
           d="m 45.095703,65.53401 0,21.000002 1.129285,-0.466667 c 0.0047,-7.284962 0.002,-12.315029 0.002,-19.599999 z"
           style="color:#000000;font-style:normal;font-variant:normal;font-weight:normal;font-stretch:normal;font-size:medium;line-height:normal;font-family:sans-serif;text-indent:0;text-align:start;text-decoration:none;text-decoration-line:none;text-decoration-style:solid;text-decoration-color:#000000;letter-spacing:normal;word-spacing:normal;text-transform:none;direction:ltr;block-progression:tb;writing-mode:lr-tb;baseline-shift:baseline;text-anchor:start;white-space:normal;clip-rule:nonzero;display:inline;overflow:visible;visibility:visible;opacity:1;isolation:auto;mix-blend-mode:normal;color-interpolation:sRGB;color-interpolation-filters:linearRGB;solid-color:#000000;solid-opacity:1;fill:#000000;fill-opacity:1;fill-rule:evenodd;stroke:#000000;stroke-width:0.07948264;stroke-linecap:butt;stroke-linejoin:miter;stroke-miterlimit:4;stroke-dasharray:none;stroke-dashoffset:0;stroke-opacity:1;color-rendering:auto;image-rendering:auto;shape-rendering:auto;text-rendering:auto;enable-background:accumulate" /><path
           sodipodi:nodetypes="sssssssss"
           style="fill:#bbdefb;stroke:#000000;stroke-width:0.07948264;stroke-miterlimit:4;stroke-dasharray:none;stroke-opacity:1"
           inkscape:connector-curvature="0"
           id="path7-6"
           d="m 36.785677,84.439854 0,-17 c 0,-0.51 -0.343048,-0.905666 -0.85,-0.85 L 7.0356766,69.763187 c -0.506953,0.05567 -0.85,0.34 -0.85,0.85 l 0,10.653334 c 0,0.51 0.343047,0.794334 0.85,0.85 l 28.9000004,3.173333 c 0.506952,0.05567 0.85,-0.34 0.85,-0.85 z"
           class="st1" /><text
           xml:space="preserve"
           style="font-style:normal;font-weight:normal;font-size:15.8965292px;line-height:125%;font-family:sans-serif;letter-spacing:0px;word-spacing:0px;fill:#000000;fill-opacity:1;stroke:#000000;stroke-width:0.07948264;stroke-linecap:butt;stroke-linejoin:miter;stroke-miterlimit:4;stroke-dasharray:none;stroke-opacity:1"
           x="-36.937298"
           y="67.406281"
           id="text4165"
           sodipodi:linespacing="125%"
           transform="scale(1.1742605,0.85159977)"><tspan
             sodipodi:role="line"
             id="tspan4167"
             x="-36.937298"
             y="67.406281" /></text>
</g></g></g><g
     style="font-style:normal;font-variant:normal;font-weight:normal;font-stretch:normal;font-size:20px;line-height:125%;font-family:Lato;-inkscape-font-specification:'Lato, Normal';text-align:start;letter-spacing:0px;word-spacing:0px;writing-mode:lr-tb;text-anchor:start;fill:#b81c22;fill-opacity:1;stroke:#ffff00;stroke-width:0.2;stroke-linecap:butt;stroke-linejoin:miter;stroke-miterlimit:4;stroke-dasharray:none;stroke-opacity:1"
     id="text4173"><path
       d="m 17.970781,17.835001 0,1.63 -4.63,0 0,12.7 -1.94,0 0,-12.7 -4.6499997,0 0,-1.63 11.2199997,0 z"
       style=""
       id="path4145" /><path
       d="m 28.837656,17.835001 0,1.58 -6.88,0 0,4.76 5.57,0 0,1.52 -5.57,0 0,4.89 6.88,0 0,1.58 -8.83,0 0,-14.33 8.83,0 z"
       style=""
       id="path4147" /><path
       d="m 33.739219,24.115001 0.73,0 q 0.38,0 0.6,-0.09 0.23,-0.1 0.43,-0.33 l 4.77,-5.4 q 0.22,-0.25 0.42,-0.35 0.21,-0.11 0.53,-0.11 l 1.65,0 -5.46,6.17 q -0.21,0.23 -0.4,0.39 -0.18,0.16 -0.39,0.26 0.28,0.09 0.49,0.27 0.21,0.18 0.44,0.45 l 5.7,6.79 -1.68,0 q -0.19,0 -0.32,-0.03 -0.13,-0.03 -0.23,-0.08 -0.09,-0.05 -0.17,-0.13 -0.08,-0.08 -0.16,-0.17 l -4.95,-5.69 q -0.11,-0.12 -0.21,-0.2 -0.09,-0.09 -0.22,-0.15 -0.12,-0.06 -0.29,-0.08 -0.16,-0.03 -0.4,-0.03 l -0.88,0 0,6.56 -1.93,0 0,-14.33 1.93,0 0,6.28 z"
       style=""
       id="path4149" /></g></svg>