<svg id="圖層_1" data-name="圖層 1" xmlns="http://www.w3.org/2000/svg" viewBox="0 0 96 96"><rect x="0.01" y="0.02" width="96" height="96" style="fill:#fff"/><path id="path5" d="M16.74,25.34,77.27,13.9c3.88-.73,7.12,4.42,7.12,9.82V72.8c0,5.4-3.24,10.55-7.12,9.82L16.74,71.16c-3.88-.77-7.12-2.13-7.12-7.53V32.87C9.62,27.47,12.86,26.08,16.74,25.34Z" style="fill:#10366a"/><path id="path7" d="M77.39,72.8V23.72c0-1.48-.72-2.62-1.78-2.46L15.08,30.43a2.17,2.17,0,0,0-1.78,2.45V63.63a2.18,2.18,0,0,0,1.78,2.46l60.53,9.17C76.67,75.41,77.39,74.27,77.39,72.8Z" style="fill:#fff"/><path id="path4162" d="M84.56,22.56V74.1l2-1.15V24.84Z" style="fill:#fff;stroke:#10366a;stroke-miterlimit:10;stroke-width:0.75px;fill-rule:evenodd"/><g id="text4148"><g id="g4149"><path id="path4139" d="M12.14,35.38H26v2.71H15.39v7.09h9.53v2.71H15.39V59.42H12.14Z" style="fill:#103770;stroke:#fff;stroke-miterlimit:10;stroke-width:0.5px"/><path d="M15.55,59.59H12V35.22H26.09v3.06H15.55V45h9.53v3.11H15.55Zm-3.25-.32h2.93V47.78h9.53V45.37H15.23V38H25.79V35.54H12.3Z" style="fill:#103770;stroke:#fff;stroke-miterlimit:10;stroke-width:0.5px"/><path id="path4141" d="M32.89,38.58l-4.4,12h8.83Zm-1.81-3.2h3.69l9.13,24H40.57l-2.19-6.16H27.52l-2.19,6.16H21.89Z" style="fill:#103770;stroke:#fff;stroke-miterlimit:10;stroke-width:0.5px"/><path d="M44.13,59.59H40.4v-.11l-2.19-6.06H27.62l-2.19,6.17H21.65L31,35.22h3.91v.1Zm-3.49-.32h3l-9-23.73H31.17l-9,23.73h3.06l2.19-6.17H38.45v.11Zm-3.09-8.55h-9.3l4.64-12.6Zm-8.84-.33h8.37L32.89,39.1Z" style="fill:#103770;stroke:#fff;stroke-miterlimit:10;stroke-width:0.5px"/><path id="path4143" d="M44.19,35.38h3.25v24H44.19Z" style="fill:#103770;stroke:#fff;stroke-miterlimit:10;stroke-width:0.5px"/><path d="M47.56,59.59H43.94V35.22h3.62Zm-3.26-.32h2.94V35.54H44.3Z" style="fill:#103770;stroke:#fff;stroke-miterlimit:10;stroke-width:0.5px"/><path id="path4145" d="M62,48.15a4.66,4.66,0,0,1,2,1.51,15.08,15.08,0,0,1,2,3.19l3.31,6.57h-3.5l-3.07-6.17a8.57,8.57,0,0,0-2.29-3.19,5.12,5.12,0,0,0-3-.8H53.87V59.42H50.62v-24H58c2.72,0,4.8.58,6.15,1.73a6.44,6.44,0,0,1,2,5.19,6.28,6.28,0,0,1-1.06,3.78A5.41,5.41,0,0,1,62,48.15Zm-8.15-10.1v8.53H58a5.14,5.14,0,0,0,3.54-1.07,4.11,4.11,0,0,0,1.2-3.22,4,4,0,0,0-1.2-3.19A5.08,5.08,0,0,0,58,38Z" style="fill:#103770;stroke:#fff;stroke-miterlimit:10;stroke-width:0.5px"/><path d="M69.6,59.59H65.74V59.5l-3.07-6.17a8.54,8.54,0,0,0-2.27-3.15,5.18,5.18,0,0,0-2.95-.76H54V59.59H50.41V35.22h7.51c2.76,0,4.87.59,6.25,1.76a6.62,6.62,0,0,1,2.08,5.32,6.58,6.58,0,0,1-1.09,3.87,5.47,5.47,0,0,1-2.72,2,5.34,5.34,0,0,1,1.68,1.38,15.41,15.41,0,0,1,2,3.22ZM66,59.27h3.09l-3.18-6.33a14.31,14.31,0,0,0-2-3.16,4.59,4.59,0,0,0-2-1.47l-.49-.16L62,48a5.28,5.28,0,0,0,3-2,6.21,6.21,0,0,0,1-3.68,6.34,6.34,0,0,0-2-5.08c-1.32-1.11-3.35-1.68-6-1.68H50.78V59.27h2.93V49.1h3.7a5.35,5.35,0,0,1,3.14.82,8.72,8.72,0,0,1,2.36,3.27ZM58,46.75H53.71V37.89H58A5.32,5.32,0,0,1,61.58,39a4.21,4.21,0,0,1,1.26,3.29,4.3,4.3,0,0,1-1.26,3.33A5.27,5.27,0,0,1,58,46.75ZM54,46.43H58a5,5,0,0,0,3.42-1,4,4,0,0,0,1.15-3.08,3.87,3.87,0,0,0-1.15-3.1A5,5,0,0,0,58,38.19H54Z" style="fill:#103770;stroke:#fff;stroke-miterlimit:10;stroke-width:0.5px"/><path id="path4147" d="M64.87,35.38h3.49L75,45.27l6.62-9.89h3.49L76.63,48V59.42H73.36V48Z" style="fill:#103770;stroke:#fff;stroke-miterlimit:10;stroke-width:0.5px"/><path d="M76.77,59.59H73.15V48L64.56,35.22h3.88l.06.07L75,45l6.52-9.76h3.9l-.18.25L76.77,48Zm-3.27-.32h2.94V47.92h0l8.33-12.34h-3L75,45.56l-6.75-10h-3.1l8.36,12.38Z" style="fill:#103770;stroke:#fff;stroke-miterlimit:10;stroke-width:0.5px"/></g></g></svg>