<svg xmlns="http://www.w3.org/2000/svg" viewBox="0 0 96 96"><g id="backgroup-white"><rect x="0.01" width="96" height="96" style="fill:#fff"/></g><g id="board_toucan"><g id="g4141"><g id="g4158"><g id="g4145"><path id="path5" d="M13.71,23.15l65.6-12.41c4.2-.8,7.71,4.79,7.71,10.64V74.59c0,5.85-3.51,11.43-7.71,10.64L13.71,72.81C9.5,72,6,70.51,6,64.65V31.31C6,25.46,9.5,24,13.71,23.15Z" style="fill:#37474f"/><path id="path7" d="M79.43,74.59V21.38c0-1.6-.77-2.83-1.92-2.66l-65.6,9.93c-1.15.18-1.93,1.07-1.93,2.66V64.65c0,1.6.78,2.49,1.93,2.66l65.6,9.94C78.66,77.42,79.43,76.18,79.43,74.59Z" style="fill:#bbdefb"/><path id="path4162" d="M87.21,20.14V76l2.18-1.25V22.62Z" style="fill-rule:evenodd"/></g></g></g><g id="text4148"><g id="g4193"><path id="path4181" d="M17.5,33.91v3H12.17V60.2H9.94V36.9H4.59v-3Z" style="fill:#b81c22"/><path d="M12.35,60.38H9.76V37.08H4.41V33.73H17.68v3.35H12.35ZM10.12,60H12V36.72h5.33V34.09H4.77v2.63h5.35Z" style="fill:#ff0"/><path id="path4183" d="M31.77,47.07a23.59,23.59,0,0,1-.59,5.43,14.72,14.72,0,0,1-1.66,4.24A8.6,8.6,0,0,1,27,59.51a6.15,6.15,0,0,1-6.63,0,8.71,8.71,0,0,1-2.57-2.77A15,15,0,0,1,16.1,52.5a23.06,23.06,0,0,1-.59-5.43,22.76,22.76,0,0,1,.59-5.41,14.91,14.91,0,0,1,1.65-4.26,8.48,8.48,0,0,1,2.57-2.79,6,6,0,0,1,6.63,0,8.38,8.38,0,0,1,2.57,2.79,14.62,14.62,0,0,1,1.66,4.26A23.29,23.29,0,0,1,31.77,47.07Zm-2.29,0a20.45,20.45,0,0,0-.42-4.35,11,11,0,0,0-1.17-3.25,5.86,5.86,0,0,0-1.84-2,4.39,4.39,0,0,0-4.82,0,5.88,5.88,0,0,0-1.85,2,11.32,11.32,0,0,0-1.18,3.25,23.28,23.28,0,0,0,0,8.7,11.47,11.47,0,0,0,1.18,3.24,6,6,0,0,0,1.85,2,4.5,4.5,0,0,0,4.82,0,6,6,0,0,0,1.84-2,11.18,11.18,0,0,0,1.17-3.24A20.58,20.58,0,0,0,29.48,47.07Z" style="fill:#b81c22"/><path d="M23.63,60.66a6.18,6.18,0,0,1-3.41-1,8.74,8.74,0,0,1-2.62-2.83,15.06,15.06,0,0,1-1.68-4.29,25.61,25.61,0,0,1,0-10.93,15,15,0,0,1,1.68-4.3,8.52,8.52,0,0,1,2.62-2.85,6.23,6.23,0,0,1,6.83,0,8.65,8.65,0,0,1,2.63,2.85,15.31,15.31,0,0,1,1.68,4.3A23.86,23.86,0,0,1,32,47.07a24,24,0,0,1-.59,5.47,15.36,15.36,0,0,1-1.68,4.29A8.79,8.79,0,0,1,27,59.66,6.16,6.16,0,0,1,23.63,60.66Zm0-26.86a5.68,5.68,0,0,0-3.21,1,8.21,8.21,0,0,0-2.51,2.73,15,15,0,0,0-1.64,4.21,23.57,23.57,0,0,0-.58,5.37,23.94,23.94,0,0,0,.58,5.39,14.42,14.42,0,0,0,1.64,4.18,8.37,8.37,0,0,0,2.51,2.72,5.94,5.94,0,0,0,6.43,0,8.26,8.26,0,0,0,2.52-2.71A15,15,0,0,0,31,52.46a23.94,23.94,0,0,0,.58-5.39A23.57,23.57,0,0,0,31,41.7a15,15,0,0,0-1.64-4.21,8.23,8.23,0,0,0-2.52-2.73A5.74,5.74,0,0,0,23.63,33.8Zm0,23.78a4.57,4.57,0,0,1-2.5-.73,6.3,6.3,0,0,1-1.91-2.1A11.48,11.48,0,0,1,18,51.45a23.1,23.1,0,0,1,0-8.77,11.26,11.26,0,0,1,1.19-3.3,6.24,6.24,0,0,1,1.91-2.11,4.58,4.58,0,0,1,5,0,6.12,6.12,0,0,1,1.9,2.11,11.79,11.79,0,0,1,1.19,3.3,20.91,20.91,0,0,1,.42,4.39,20.81,20.81,0,0,1-.42,4.38,12,12,0,0,1-1.19,3.3,6.17,6.17,0,0,1-1.9,2.1A4.61,4.61,0,0,1,23.63,57.58Zm0-20.7a4,4,0,0,0-2.3.69,5.83,5.83,0,0,0-1.8,2,11.16,11.16,0,0,0-1.15,3.2,22.86,22.86,0,0,0,0,8.62,11.43,11.43,0,0,0,1.15,3.19,5.79,5.79,0,0,0,1.8,2,4.32,4.32,0,0,0,4.62,0,5.74,5.74,0,0,0,1.78-2,11.24,11.24,0,0,0,1.16-3.19,20.89,20.89,0,0,0,.41-4.31,20.75,20.75,0,0,0-.41-4.31,11,11,0,0,0-1.16-3.2,5.78,5.78,0,0,0-1.78-2A4.1,4.1,0,0,0,23.63,36.88Z" style="fill:#ff0"/><path id="path4185" d="M39,57.38a3.23,3.23,0,0,0,1.83-.55,4.44,4.44,0,0,0,1.35-1.54A8.24,8.24,0,0,0,43,52.92a14.28,14.28,0,0,0,.3-3v-16h2.22v16a18.63,18.63,0,0,1-.46,4.22,12,12,0,0,1-1.3,3.38,6.79,6.79,0,0,1-2.06,2.22,5.09,5.09,0,0,1-5.48,0,6.93,6.93,0,0,1-2.07-2.22,11.74,11.74,0,0,1-1.31-3.38,18.64,18.64,0,0,1-.45-4.22v-16h2.22v16a14.3,14.3,0,0,0,.29,3,8.55,8.55,0,0,0,.85,2.37,4.65,4.65,0,0,0,1.37,1.56A3.24,3.24,0,0,0,39,57.38Z" style="fill:#b81c22"/><path d="M39,60.69a5.08,5.08,0,0,1-2.84-.83A7.1,7.1,0,0,1,34,57.58a12.39,12.39,0,0,1-1.33-3.43,19,19,0,0,1-.45-4.26V33.73h2.58V49.87a14.61,14.61,0,0,0,.28,3,8.86,8.86,0,0,0,.83,2.32,4.74,4.74,0,0,0,1.32,1.5A3.07,3.07,0,0,0,39,57.2a3,3,0,0,0,1.72-.52A4.31,4.31,0,0,0,42,55.2a8.31,8.31,0,0,0,.83-2.32,13.83,13.83,0,0,0,.3-3V33.73h2.58V49.89a18.41,18.41,0,0,1-.47,4.26,12.08,12.08,0,0,1-1.32,3.43,6.94,6.94,0,0,1-2.11,2.28A5.11,5.11,0,0,1,39,60.69Zm-6.39-26.6v15.8A19,19,0,0,0,33,54.07a12.11,12.11,0,0,0,1.29,3.33,6.68,6.68,0,0,0,2,2.16,4.91,4.91,0,0,0,5.28,0,6.63,6.63,0,0,0,2-2.16,11.5,11.5,0,0,0,1.28-3.33,18.33,18.33,0,0,0,.46-4.18V34.09H43.5v15.8A14.64,14.64,0,0,1,43.19,53a8.11,8.11,0,0,1-.87,2.42A4.6,4.6,0,0,1,40.91,57,3.52,3.52,0,0,1,37,57a5,5,0,0,1-1.43-1.62,8.71,8.71,0,0,1-.87-2.42,15.4,15.4,0,0,1-.29-3.07V34.09Z" style="fill:#ff0"/><path id="path4187" d="M58.73,54.77a.41.41,0,0,1,.34.24l.87,1.52a8.42,8.42,0,0,1-2.46,2.92,5.75,5.75,0,0,1-3.48,1,5.67,5.67,0,0,1-3.23-1,8.18,8.18,0,0,1-2.47-2.75,14.82,14.82,0,0,1-1.59-4.25,24.38,24.38,0,0,1-.57-5.45,23.15,23.15,0,0,1,.6-5.45,15,15,0,0,1,1.71-4.26,8.43,8.43,0,0,1,2.61-2.75,6.07,6.07,0,0,1,3.37-1,5.41,5.41,0,0,1,3.13.9A8.86,8.86,0,0,1,59.91,37l-.73,1.63a1.15,1.15,0,0,1-.18.31.37.37,0,0,1-.3.11.47.47,0,0,1-.32-.16l-.4-.44a6.86,6.86,0,0,0-.54-.55,3.87,3.87,0,0,0-.73-.55,4.47,4.47,0,0,0-1-.42,4,4,0,0,0-1.3-.19,4.32,4.32,0,0,0-2.43.74,6.07,6.07,0,0,0-1.89,2.05,11.45,11.45,0,0,0-1.24,3.27,19.57,19.57,0,0,0-.44,4.31,19.9,19.9,0,0,0,.44,4.38,12.21,12.21,0,0,0,1.21,3.27,6,6,0,0,0,1.82,2,4,4,0,0,0,2.25.69,5.9,5.9,0,0,0,1.32-.13,3.62,3.62,0,0,0,1.09-.44,4.53,4.53,0,0,0,.93-.73,10.21,10.21,0,0,0,.87-1.08C58.48,54.86,58.61,54.77,58.73,54.77Z" style="fill:#b81c22"/><path d="M54,60.68a5.86,5.86,0,0,1-3.33-1,8.44,8.44,0,0,1-2.53-2.81,15.6,15.6,0,0,1-1.61-4.3A25.36,25.36,0,0,1,46,47.07a23.42,23.42,0,0,1,.61-5.49,15.4,15.4,0,0,1,1.72-4.31A8.6,8.6,0,0,1,51,34.46a6.24,6.24,0,0,1,3.47-1,5.58,5.58,0,0,1,3.23.93,9.08,9.08,0,0,1,2.4,2.49l0,.08,0,.09-.72,1.63a1.55,1.55,0,0,1-.21.36.6.6,0,0,1-.89,0l-.4-.45c-.15-.17-.33-.35-.53-.54a3.75,3.75,0,0,0-.71-.53,3.69,3.69,0,0,0-.94-.4,4,4,0,0,0-1.25-.18,4.12,4.12,0,0,0-2.33.71,6,6,0,0,0-1.83,2A11.33,11.33,0,0,0,49,42.8a19.19,19.19,0,0,0-.44,4.27A19.59,19.59,0,0,0,49,51.41a12,12,0,0,0,1.19,3.22,5.72,5.72,0,0,0,1.76,2,3.83,3.83,0,0,0,2.15.66,6.29,6.29,0,0,0,1.29-.12,3.85,3.85,0,0,0,1-.42,4.57,4.57,0,0,0,.89-.7,10,10,0,0,0,.86-1.07c.34-.47.74-.45,1,0l.93,1.62,0,.09a8.69,8.69,0,0,1-2.52,3A6,6,0,0,1,54,60.68Zm.43-26.88a5.88,5.88,0,0,0-3.27,1,8.22,8.22,0,0,0-2.56,2.7,14.63,14.63,0,0,0-1.68,4.2,22.81,22.81,0,0,0-.6,5.41,24.47,24.47,0,0,0,.56,5.4,15.15,15.15,0,0,0,1.57,4.21,8.14,8.14,0,0,0,2.42,2.69,5.85,5.85,0,0,0,6.5-.07,8.11,8.11,0,0,0,2.36-2.77l-.82-1.43c0-.06-.11-.15-.18-.15s-.1,0-.23.2a9.59,9.59,0,0,1-.89,1.11,4.64,4.64,0,0,1-1,.76,4.47,4.47,0,0,1-1.13.46,6.38,6.38,0,0,1-1.37.13,4.1,4.1,0,0,1-2.35-.73,6.13,6.13,0,0,1-1.88-2.07,12.59,12.59,0,0,1-1.22-3.32,19.71,19.71,0,0,1-.45-4.42,19.94,19.94,0,0,1,.44-4.35A11.8,11.8,0,0,1,50,39.4a6.22,6.22,0,0,1,1.94-2.11,4.46,4.46,0,0,1,2.53-.77,4.72,4.72,0,0,1,2.38.63,4.3,4.3,0,0,1,.77.58c.2.19.39.38.55.56l.39.44a.28.28,0,0,0,.19.1.24.24,0,0,0,.17,0,1.19,1.19,0,0,0,.15-.26L59.7,37a8.53,8.53,0,0,0-2.24-2.31A5.22,5.22,0,0,0,54.43,33.8Z" style="fill:#ff0"/><path id="path4189" d="M74.19,60.2H72.46A.57.57,0,0,1,72,60a1.52,1.52,0,0,1-.28-.6L70.16,53h-7.4l-1.54,6.35a1.61,1.61,0,0,1-.28.59.58.58,0,0,1-.48.25H58.73l6.6-26.29h2.26ZM63.38,50.44h6.16L67,39.75c-.17-.66-.33-1.49-.5-2.48-.08.5-.16,1-.25,1.4s-.15.78-.23,1.1Z" style="fill:#b81c22"/><path d="M74.42,60.38h-2a.75.75,0,0,1-.63-.31,1.73,1.73,0,0,1-.3-.67L70,53.19H62.9L61.39,59.4a1.81,1.81,0,0,1-.3.66.79.79,0,0,1-.63.32h-2l.06-.22,6.63-26.43h2.54l0,.14Zm-11.8-7.55H70.3l0,.14,1.55,6.35a1.24,1.24,0,0,0,.24.53.4.4,0,0,0,.34.17H74L67.45,34.09h-2L59,60h1.5a.43.43,0,0,0,.34-.18,1.62,1.62,0,0,0,.25-.53Zm7.15-2.21H63.15l.06-.22,2.58-10.68c.08-.32.16-.69.23-1.09s.17-.89.26-1.39h.35c.17,1,.33,1.81.49,2.46Zm-6.16-.36h5.7L66.77,39.79c-.1-.42-.21-.91-.32-1.48,0,.13,0,.26-.07.39-.08.4-.15.78-.23,1.11Z" style="fill:#ff0"/><path id="path4191" d="M75.15,33.91a.65.65,0,0,1,.43.13,1.52,1.52,0,0,1,.34.48l9.55,19.81c0-.32,0-.62,0-.92s0-.59,0-.88V33.91h2V60.2H86.24a.73.73,0,0,1-.45-.14,1.65,1.65,0,0,1-.35-.5L75.9,39.77c0,.3,0,.6,0,.89s0,.57,0,.81V60.2H74V33.91Z" style="fill:#b81c22"/><path d="M87.54,60.38h-1.3a.87.87,0,0,1-.56-.18,1.88,1.88,0,0,1-.4-.56l-9.16-19v0c0,.3,0,.57,0,.81V60.38H73.81V33.73h1.34a.8.8,0,0,1,.56.18,1.64,1.64,0,0,1,.37.53l9.16,19v0c0-.31,0-.6,0-.89V33.73h2.31ZM76.07,39.69l9.54,19.79a1.43,1.43,0,0,0,.29.44.53.53,0,0,0,.34.1h1V34.09h-1.6V52.53c0,.28,0,.58,0,.88s0,.59.05.91l-.35.09L75.75,34.6a1.13,1.13,0,0,0-.27-.41.47.47,0,0,0-.33-.1h-1V60h1.6V41.47c0-.24,0-.51,0-.8s0-.59,0-.89Z" style="fill:#ff0"/></g></g></g></svg>