<svg id="圖層_1" data-name="圖層 1" xmlns="http://www.w3.org/2000/svg" viewBox="0 0 96 96"><rect x="0.01" y="0.02" width="96" height="96" style="fill:#fff"/><g id="text4188"><g style="isolation:isolate"><path d="M20.29,89V77.5h3.94a9.6,9.6,0,0,1,2,.16,3.89,3.89,0,0,1,1.68.82,4.68,4.68,0,0,1,1.36,2,7.88,7.88,0,0,1,.44,2.72,8.09,8.09,0,0,1-.3,2.31,5.4,5.4,0,0,1-.78,1.67,4.27,4.27,0,0,1-1,1,4.38,4.38,0,0,1-1.37.57,7.85,7.85,0,0,1-1.84.2ZM21.8,87.6h2.45A5.93,5.93,0,0,0,26,87.39a2.47,2.47,0,0,0,1-.6,3.59,3.59,0,0,0,.84-1.45,7,7,0,0,0,.3-2.2,5.24,5.24,0,0,0-.59-2.76,3,3,0,0,0-1.43-1.3,6.14,6.14,0,0,0-2-.23H21.8Z" style="fill:#10366a"/><path d="M33.84,89l-3-11.45h1.56L34.1,85c.19.79.35,1.57.48,2.35.29-1.23.47-1.93.52-2.12l2.18-7.73h1.83l1.64,5.79a30.58,30.58,0,0,1,.89,4.06q.21-1.09.57-2.49L44,77.5h1.53L42.39,89H40.93l-2.42-8.73c-.2-.73-.32-1.17-.36-1.34-.12.53-.23,1-.33,1.34L35.39,89Z" style="fill:#10366a"/><path d="M45.09,89l4.4-11.45h1.63L55.81,89H54.08l-1.33-3.47H48L46.7,89Zm3.31-4.7h3.88l-1.2-3.17c-.36-1-.63-1.76-.81-2.38a15,15,0,0,1-.62,2.19Z" style="fill:#10366a"/><path d="M57,89V77.5h5.08a6.66,6.66,0,0,1,2.33.31,2.49,2.49,0,0,1,1.27,1.09,3.21,3.21,0,0,1,.48,1.72,2.89,2.89,0,0,1-.79,2.06A4,4,0,0,1,63,83.74a3.68,3.68,0,0,1,.92.57,8.21,8.21,0,0,1,1.26,1.52l2,3.12H65.23l-1.51-2.38c-.45-.69-.81-1.22-1.1-1.58a3.25,3.25,0,0,0-.77-.77,2.33,2.33,0,0,0-.69-.3,4.11,4.11,0,0,0-.84-.06H58.56V89Zm1.52-6.4h3.26a5,5,0,0,0,1.62-.21,1.78,1.78,0,0,0,.89-.69,1.83,1.83,0,0,0,.31-1,1.69,1.69,0,0,0-.59-1.33,2.78,2.78,0,0,0-1.87-.53H58.56Z" style="fill:#10366a"/><path d="M68.65,89V77.5h7.73v1.35H70.17V82.4h5.37v1.35H70.17V89Z" style="fill:#10366a"/></g></g><path id="path11" d="M75.82,9.91H49.45v1.47a1.92,1.92,0,1,1-3.1,1.53v0a2,2,0,0,1,.74-1.5V9.91H20.94A2.09,2.09,0,0,0,18.85,12V67.89A2.08,2.08,0,0,0,20.94,70H75.82a2.08,2.08,0,0,0,2.12-2.06V12a2.1,2.1,0,0,0-2.09-2.06Z" style="fill:#10366a"/><circle id="circle15" cx="22.15" cy="12.88" r="1.93" style="fill:#fff"/><circle id="circle17" cx="22.15" cy="12.88" r="1.21" style="fill:#10366a"/><circle id="circle21" cx="74.45" cy="12.88" r="1.93" style="fill:#fff"/><circle id="circle23" cx="74.45" cy="12.88" r="1.21" style="fill:#10366a"/><circle id="circle27" cx="22.15" cy="66.8" r="1.93" style="fill:#fff"/><circle id="circle29" cx="22.15" cy="66.8" r="1.21" style="fill:#10366a"/><circle id="circle33" cx="74.45" cy="66.8" r="1.93" style="fill:#fff"/><circle id="circle35" cx="74.45" cy="66.8" r="1.21" style="fill:#10366a"/><path id="path37" d="M46.35,12.88a1.92,1.92,0,1,0,3.84.23.88.88,0,0,0,0-.23,1.93,1.93,0,0,0-.73-1.51v1.51a1.21,1.21,0,0,1-2.42,0h0V11.37A2.06,2.06,0,0,0,46.35,12.88Z" style="fill:#fff"/><path id="path39" d="M22.89,23H24v-.63h-.73v-.25H24V21.7h-.73v-.25H24v-.38h-.73v-.19H24v-.39h-.73v-.25H24v-.66H22.89a.41.41,0,0,1,0-.82H24V17.55H18.19v.77h-.6v6.15h.6V25H24V23.78H22.89a.41.41,0,0,1-.41-.41.41.41,0,0,1,.41-.41ZM20.17,24h-.52a.41.41,0,0,1-.41-.41.43.43,0,0,1,.41-.42h.52a.44.44,0,0,1,.41.42.41.41,0,0,1-.41.38Zm0-4.86h-.52a.41.41,0,0,1,0-.82h.52a.42.42,0,0,1,.41.41.4.4,0,0,1-.41.38Z" style="fill:#fff"/><path d="M24,25.29H18.19a.3.3,0,0,1-.3-.3v-.22h-.3a.31.31,0,0,1-.3-.3V18.32a.31.31,0,0,1,.3-.3h.3v-.47a.31.31,0,0,1,.3-.3H24a.3.3,0,0,1,.3.3v1.21a.29.29,0,0,1-.3.29H22.89a.12.12,0,0,0-.12.12.11.11,0,0,0,.12.11H24a.3.3,0,0,1,.3.3v.66a.27.27,0,0,1,0,.12.28.28,0,0,1,0,.13v.39a.29.29,0,0,1,0,.09.3.3,0,0,1,0,.1v.38a.27.27,0,0,1,0,.12.28.28,0,0,1,0,.13v.38a.21.21,0,0,1,0,.12.28.28,0,0,1,0,.13V23a.29.29,0,0,1-.3.3H22.89a.11.11,0,0,0-.12.11.13.13,0,0,0,.12.12H24a.29.29,0,0,1,.3.29V25A.29.29,0,0,1,24,25.29Zm-5.47-.59h5.18v-.62h-.78a.72.72,0,0,1-.71-.7.71.71,0,0,1,.71-.71h.78v-.05h-.44a.3.3,0,0,1-.3-.29v-.25a.27.27,0,0,1,.08-.19.27.27,0,0,1-.08-.19v-.25a.29.29,0,0,1,.07-.19.34.34,0,0,1-.07-.19v-.19a.28.28,0,0,1,.08-.2.27.27,0,0,1-.08-.19v-.25a.3.3,0,0,1,.3-.3h.44v-.07h-.78a.7.7,0,0,1-.71-.7.71.71,0,0,1,.71-.71h.78v-.61H18.49v.47a.3.3,0,0,1-.3.29h-.3v5.57h.3a.3.3,0,0,1,.3.29Zm1.68-.37h-.52a.71.71,0,0,1,0-1.42h.53a.69.69,0,0,1,.14,1.37A.24.24,0,0,1,20.17,24.33Zm0-.33h0Zm0-.5h-.51a.13.13,0,0,0-.12.13.13.13,0,0,0,.12.11H20c.09,0,.23,0,.24-.14A.12.12,0,0,0,20.16,23.5Zm0-4h-.52a.7.7,0,0,1-.71-.7.71.71,0,0,1,.71-.71h.52a.71.71,0,0,1,.7.7.7.7,0,0,1-.56.67A.23.23,0,0,1,20.17,19.46Zm0-.82h-.51a.12.12,0,0,0-.12.12.11.11,0,0,0,.12.11H20a.39.39,0,0,1,.13,0,.11.11,0,0,0,.11-.1S20.23,18.65,20.16,18.64Z" style="fill:#103770"/><path id="path41" d="M27.81,36.58v.3H24.88v-.22a.9.9,0,0,1,.46-.09c.33.06,1.68.25,1.71.25a1.39,1.39,0,0,0,.52-.11.1.1,0,0,0,0-.14s0,0,0,0a.1.1,0,0,0-.15,0l0,0a1.42,1.42,0,0,1-.41.08l-1.68-.25a1,1,0,0,0-.66.14h-6v5.63a15.25,15.25,0,0,1-.44,2.93v2.45h9.58V46.8c.17-.33.39,0,.39,0H29V36.54H27.81ZM22.5,47.24a.12.12,0,0,1-.11.11H19.62a.12.12,0,0,1-.11-.11.11.11,0,0,1,.11-.1h2.65V46h-.63l-.5.52H19.6a.12.12,0,0,1-.12-.07.14.14,0,0,1,.11-.11H21l.5-.52a.11.11,0,0,1,.08,0h.79a.12.12,0,0,1,.11.11v1.36Z" style="fill:#fff"/><path d="M28.13,47.83H18V45.08a15.5,15.5,0,0,0,.44-2.94V36.23h6.18a1.25,1.25,0,0,1,.78-.14l1.68.25.22-.05h0a.37.37,0,0,1,.29-.06.17.17,0,0,1,.1,0h1.6V47.09H28.13Zm-5.33-.59h4.73l0-.58a.48.48,0,0,1,.41-.3.51.51,0,0,1,.37.14h.31V36.84H28.1v.34H24.58v-.36H19v5.33a16,16,0,0,1-.44,3v2.08h.68a.42.42,0,0,1,.37-.4H22v-.6h-.2l-.5.5a.43.43,0,0,1-.25,0H19.6a.4.4,0,0,1-.39-.23l0-.08v-.08a.41.41,0,0,1,.37-.37h1.33l.5-.5a.43.43,0,0,1,.25,0h.75a.43.43,0,0,1,.41.37Zm-3.22-1.07h0Z" style="fill:#103770"/><path d="M27.59,52.9v-.5H18.44V52l-.33-.33-.52.22a.66.66,0,0,0,.49.66v.39h-.73v8.68h.73V62a.73.73,0,0,0-.49.66l.52.22.33-.35v-.33h9.12v-.6h0V52.88Z" style="fill:#fff"/><path d="M18.11,63.16a.25.25,0,0,1-.12,0l-.51-.22a.3.3,0,0,1-.19-.28,1,1,0,0,1,.39-.76h-.33a.31.31,0,0,1-.3-.3V52.9a.31.31,0,0,1,.3-.3h.28a1,1,0,0,1-.34-.76.32.32,0,0,1,.19-.26l.51-.22a.31.31,0,0,1,.33.06l.33.33a.33.33,0,0,1,.09.21v.15h8.85a.29.29,0,0,1,.29.29v.5a.28.28,0,0,1,0,.13v9.16a.29.29,0,0,1-.29.29l-8.82,0a.3.3,0,0,1-.08.2l-.34.35A.27.27,0,0,1,18.11,63.16Zm-.17-.68.09,0,.11-.12v-.12A.39.39,0,0,0,17.94,62.48Zm-.3-1.2h.44a.31.31,0,0,1,.3.3v.32h8.88v-9a.28.28,0,0,1,0-.13v0H18.38v.21a.31.31,0,0,1-.3.3h-.44ZM17.92,52a.38.38,0,0,0,.22.19v-.14L18,52Z" style="fill:#103770"/><path d="M22.5,61l-3.89-.1s-.42,0-.42-.44V58.77a.33.33,0,0,1,.33-.33h4s.3,0,.3.17-.19.22-.3.22l-3.16.27a.44.44,0,0,0-.3.39v.33a.43.43,0,0,0,.35.49h.09c.49,0,3.1.31,3.1.31s.24,0,.24.19-.27.14-.27.14Z" style="fill:#103770"/><path d="M22.5,56.28l-3.89-.08s-.42-.06-.42-.44V54.11a.33.33,0,0,1,.33-.33h4s.3,0,.3.16-.19.22-.3.22-3.19.3-3.19.3a.41.41,0,0,0-.3.38v.33a.42.42,0,0,0,.34.49h.1c.49,0,3.1.3,3.1.3s.25,0,.25.19-.28.14-.28.14Z" style="fill:#103770"/><path id="path47" d="M47.17,59.35h-4V70.78h.5v.41a1.54,1.54,0,0,0,3.08,0v-.41h.46Z" style="fill:#fff"/><path d="M45.17,73a1.84,1.84,0,0,1-1.84-1.83v-.11h-.2a.3.3,0,0,1-.29-.3V59.35a.29.29,0,0,1,.29-.29h4a.29.29,0,0,1,.3.29V70.78a.3.3,0,0,1-.3.3H47v.11A1.83,1.83,0,0,1,45.17,73Zm-1.74-2.54h.2a.31.31,0,0,1,.3.3v.41a1.24,1.24,0,0,0,2.48,0v-.41a.3.3,0,0,1,.3-.3h.17V59.65H43.43Z" style="fill:#103770"/><path id="path49" d="M53.24,59.35h-4V70.78h.49v.41a1.54,1.54,0,0,0,3.08,0v-.41h.5V59.35Z" style="fill:#fff"/><path d="M51.23,73a1.83,1.83,0,0,1-1.83-1.83v-.11h-.2a.3.3,0,0,1-.29-.3V59.35a.29.29,0,0,1,.29-.29h4.07a.29.29,0,0,1,.29.29V70.78a.3.3,0,0,1-.29.3h-.2v.11A1.84,1.84,0,0,1,51.23,73ZM49.5,70.48h.19a.3.3,0,0,1,.3.3v.41a1.25,1.25,0,0,0,2.49,0v-.41a.3.3,0,0,1,.29-.3H53V59.65H49.5Z" style="fill:#103770"/><path id="path51" d="M59.31,59.35h-4V70.78h.49v.41a1.54,1.54,0,1,0,3.07,0v-.41h.5V59.35Z" style="fill:#fff"/><path d="M57.31,73a1.83,1.83,0,0,1-1.84-1.83v-.11h-.19a.3.3,0,0,1-.3-.3V59.35a.29.29,0,0,1,.3-.29h4.06a.3.3,0,0,1,.3.29V70.78a.31.31,0,0,1-.3.3h-.2v.11A1.83,1.83,0,0,1,57.31,73Zm-1.74-2.54h.2a.3.3,0,0,1,.29.3v.41a1.25,1.25,0,0,0,2.49,0v-.41a.3.3,0,0,1,.29-.3h.21V59.65H55.57Z" style="fill:#103770"/><polygon id="polygon53" points="71.65 69.85 71.65 65.86 61.43 65.86 61.43 69.85 63.71 69.85 63.71 69.41 69.39 69.41 69.39 69.85 71.65 69.85" style="fill:#fff"/><path d="M71.65,70.15H69.39a.3.3,0,0,1-.29-.3v-.14H64v.14a.3.3,0,0,1-.29.3H61.43a.31.31,0,0,1-.3-.3v-4a.3.3,0,0,1,.3-.3H71.65a.29.29,0,0,1,.29.3v4A.3.3,0,0,1,71.65,70.15Zm-2-.6h1.66V66.16H61.73v3.39h1.68v-.14a.3.3,0,0,1,.3-.3h5.68a.31.31,0,0,1,.3.3Z" style="fill:#103770"/><polygon points="72.81 48.4 72.81 49.74 72.34 49.74 72.34 50.53 72.65 50.53 72.65 53.15 72.34 53.15 72.34 54.03 72.65 54.03 72.65 56.66 72.34 56.66 72.34 57.62 72.81 57.62 72.81 58.66 78.97 58.66 78.97 48.41 72.81 48.4" style="fill:#fff"/><path d="M79,59H72.81a.29.29,0,0,1-.29-.3v-.75h-.18a.29.29,0,0,1-.29-.29v-1a.29.29,0,0,1,.29-.3h0l0-2a.29.29,0,0,1-.29-.29v-.88a.3.3,0,0,1,.29-.3h0l0-2a.29.29,0,0,1-.29-.3v-.79a.29.29,0,0,1,.29-.29h.18V48.4a.3.3,0,0,1,.08-.21.29.29,0,0,1,.21-.09H79a.3.3,0,0,1,.29.3V58.66A.29.29,0,0,1,79,59Zm-5.86-.59h5.56V48.7H73.11v1.05a.29.29,0,0,1-.3.3h-.17v.2a.3.3,0,0,1,.3.29v2.62a.3.3,0,0,1-.3.29h0v.29a.3.3,0,0,1,.3.3v2.63a.3.3,0,0,1-.3.29h0v.37h.17a.29.29,0,0,1,.3.3Z" style="fill:#103770"/><path d="M77.82,57.13H74.71s-.33,0-.33-.44v-.88s0-.36.27-.36h3.19s.33,0,.33.17-.36.19-.36.19l-2.64.11v.63l2.64.14s.44,0,.44.19-.33.22-.46.22Z" style="fill:#103770"/><path d="M77.82,51.61H74.71s-.33,0-.33-.44v-.88s0-.35.27-.35h3.19s.33,0,.33.16-.36.19-.36.19l-2.64.11V51l2.64.13s.44,0,.44.2-.33.22-.46.22Z" style="fill:#103770"/><rect x="65.16" y="34.18" width="13.98" height="10.25" style="fill:#fff"/><path d="M79.14,44.74h-14a.3.3,0,0,1-.29-.3V34.18a.29.29,0,0,1,.29-.29h14a.3.3,0,0,1,.3.29V44.44A.31.31,0,0,1,79.14,44.74Zm-13.68-.6H78.85V34.48H65.46Z" style="fill:#103770"/><path d="M77.8,43H73.21s-.49,0-.49-.43v-.88a.37.37,0,0,1,.41-.36h4.72s.49,0,.49.17-.52.19-.52.19l-3.92.11v.63l3.89.14s.64,0,.64.19S78,43,77.77,43Z" style="fill:#103770"/><path d="M77.8,37.43H73.21s-.49,0-.49-.44v-.84a.37.37,0,0,1,.41-.36h4.72s.49,0,.49.16-.52.2-.52.2l-3.92.11v.62l3.89.14s.64,0,.64.19-.47.22-.66.22Z" style="fill:#103770"/><path id="path59" d="M78.48,21.7H69.64A.69.69,0,0,1,69,21h0V16.23a.7.7,0,0,1,.68-.69h8.85a.68.68,0,0,1,.69.68h0V21A.74.74,0,0,1,78.48,21.7Z" style="fill:#fff"/><path d="M69.63,22a1,1,0,0,1-.68-.28.93.93,0,0,1-.29-.69V16.23a1,1,0,0,1,1-1h8.87a1,1,0,0,1,1,1V21a1,1,0,0,1-1,1H69.63Zm8.86-6.15H69.64a.39.39,0,0,0-.39.39V21a.39.39,0,0,0,.11.28.57.57,0,0,0,.28.11h8.83a.45.45,0,0,0,.41-.41V16.23A.4.4,0,0,0,78.49,15.84Z" style="fill:#103770"/></svg>