<?xml version="1.0" encoding="UTF-8" standalone="no"?>
<!-- Generator: Adobe Illustrator 19.2.1, SVG Export Plug-In . SVG Version: 6.00 Build 0)  -->

<svg
   xmlns:dc="http://purl.org/dc/elements/1.1/"
   xmlns:cc="http://creativecommons.org/ns#"
   xmlns:rdf="http://www.w3.org/1999/02/22-rdf-syntax-ns#"
   xmlns:svg="http://www.w3.org/2000/svg"
   xmlns="http://www.w3.org/2000/svg"
   xmlns:sodipodi="http://sodipodi.sourceforge.net/DTD/sodipodi-0.dtd"
   xmlns:inkscape="http://www.inkscape.org/namespaces/inkscape"
   version="1.1"
   id="Ebene_1"
   x="0px"
   y="0px"
   viewBox="0 0 50 50"
   xml:space="preserve"
   inkscape:version="0.91 r13725"
   sodipodi:docname="board_wizard.svg"
   width="50"
   height="50"><metadata
     id="metadata13"><rdf:RDF><cc:Work
         rdf:about=""><dc:format>image/svg+xml</dc:format><dc:type
           rdf:resource="http://purl.org/dc/dcmitype/StillImage" /><dc:title /></cc:Work></rdf:RDF></metadata><defs
     id="defs11" /><sodipodi:namedview
     pagecolor="#ffffff"
     bordercolor="#666666"
     borderopacity="1"
     objecttolerance="10"
     gridtolerance="10"
     guidetolerance="10"
     inkscape:pageopacity="0"
     inkscape:pageshadow="2"
     inkscape:window-width="1855"
     inkscape:window-height="1056"
     id="namedview9"
     showgrid="false"
     inkscape:zoom="13.465274"
     inkscape:cx="-9.3809084"
     inkscape:cy="20.119902"
     inkscape:window-x="65"
     inkscape:window-y="24"
     inkscape:window-maximized="1"
     inkscape:current-layer="Ebene_1" /><style
     type="text/css"
     id="style3">
	.st0{fill:#37474F;}
	.st1{fill:#BBDEFB;}
</style><g
     id="g4141"
     transform="matrix(1.0714286,0,0,1.0714286,-1.5278457,-61.615015)"><g
       id="g4158"><g
         id="g4145"
         transform="matrix(1,0,0,1.3788878,0,-23.480216)"><path
           sodipodi:nodetypes="sssssssss"
           style="fill:#37474f"
           inkscape:connector-curvature="0"
           id="path5"
           d="M 7,66.667079 41,62 c 2.179562,-0.299182 4,1.8 4,4 l 0,20 c 0,2.2 -1.820431,4.29913 -4,4 L 7,85.333745 C 4.8204309,85.034615 3,84.466667 3,82.266667 L 3,69.733333 c 0,-2.2 1.8204381,-2.767072 4,-3.066254 z"
           class="st0" /><path
           sodipodi:nodetypes="sssssssss"
           style="fill:#bbdefb"
           inkscape:connector-curvature="0"
           id="path7"
           d="m 41.066923,86 0,-20 c 0,-0.6 -0.403585,-1.065489 -1,-1 L 6.0669225,68.733333 c -0.5964153,0.06549 -1,0.4 -1,1 l 0,12.533334 c 0,0.6 0.4035847,0.934511 1,1 L 40.066923,87 c 0.596415,0.06549 1,-0.4 1,-1 z"
           class="st1" /><path
           sodipodi:nodetypes="ccccc"
           inkscape:connector-curvature="0"
           id="path4162"
           d="m 45.095703,65.53401 0,21.000002 1.129285,-0.466667 c 0.0047,-7.284962 0.002,-12.315029 0.002,-19.599999 z"
           style="color:#000000;font-style:normal;font-variant:normal;font-weight:normal;font-stretch:normal;font-size:medium;line-height:normal;font-family:sans-serif;text-indent:0;text-align:start;text-decoration:none;text-decoration-line:none;text-decoration-style:solid;text-decoration-color:#000000;letter-spacing:normal;word-spacing:normal;text-transform:none;direction:ltr;block-progression:tb;writing-mode:lr-tb;baseline-shift:baseline;text-anchor:start;white-space:normal;clip-rule:nonzero;display:inline;overflow:visible;visibility:visible;opacity:1;isolation:auto;mix-blend-mode:normal;color-interpolation:sRGB;color-interpolation-filters:linearRGB;solid-color:#000000;solid-opacity:1;fill:#000000;fill-opacity:1;fill-rule:evenodd;stroke:none;stroke-width:0.93333334px;stroke-linecap:butt;stroke-linejoin:miter;stroke-miterlimit:4;stroke-dasharray:none;stroke-dashoffset:0;stroke-opacity:1;color-rendering:auto;image-rendering:auto;shape-rendering:auto;text-rendering:auto;enable-background:accumulate" /></g></g></g><text
     xml:space="preserve"
     style="font-style:normal;font-weight:normal;font-size:40px;line-height:125%;font-family:sans-serif;letter-spacing:0px;word-spacing:0px;fill:#000000;fill-opacity:1;stroke:none;stroke-width:1px;stroke-linecap:butt;stroke-linejoin:miter;stroke-opacity:1"
     x="-13.233367"
     y="36.55658"
     id="text4174"
     sodipodi:linespacing="125%"><tspan
       sodipodi:role="line"
       id="tspan4176"
       x="-13.233367"
       y="36.55658" /></text>
<g
     transform="scale(0.84538578,1.1828919)"
     style="font-style:normal;font-variant:normal;font-weight:normal;font-stretch:normal;font-size:14.83025074px;line-height:125%;font-family:Lato;-inkscape-font-specification:'Lato, Normal';text-align:start;letter-spacing:0px;word-spacing:0px;writing-mode:lr-tb;text-anchor:start;fill:#b81c22;fill-opacity:1;stroke:#ffff00;stroke-width:0.16948859;stroke-linecap:butt;stroke-linejoin:miter;stroke-miterlimit:4;stroke-dasharray:none;stroke-opacity:1"
     id="text4150"><path
       d="m 0.10134565,15.821708 1.19383515,0 q 0.1927933,0 0.3188504,0.0964 0.1260572,0.0964 0.1705479,0.244699 l 2.1948771,7.385465 q 0.059321,0.200209 0.1038118,0.430077 0.051906,0.229869 0.096397,0.481984 0.051906,-0.252115 0.1038118,-0.481984 0.051906,-0.237284 0.118642,-0.430077 l 2.4988972,-7.385465 q 0.044491,-0.126057 0.1705479,-0.229869 0.1334723,-0.111226 0.3188504,-0.111226 l 0.415247,0 q 0.1927933,0 0.3114353,0.0964 0.1260571,0.0964 0.177963,0.244699 l 2.4840668,7.385465 q 0.133472,0.385587 0.237284,0.8824 0.04449,-0.244699 0.08157,-0.467153 0.03707,-0.222454 0.0964,-0.415247 l 2.202292,-7.385465 q 0.03708,-0.133472 0.163133,-0.237284 0.133472,-0.103811 0.318851,-0.103811 l 1.119684,0 -3.314562,10.625874 -1.290231,0 -2.6916908,-8.104732 q -0.081566,-0.229869 -0.1483026,-0.533889 -0.037076,0.148303 -0.074151,0.28919 -0.02966,0.133472 -0.066736,0.244699 l -2.7065208,8.104732 -1.2902318,0 -3.31456105,-10.625874 z"
       style="stroke-width:0.16948859"
       id="path4144" /><path
       d="m 18.113149,26.447582 -1.438534,0 0,-10.625874 1.438534,0 0,10.625874 z"
       style="stroke-width:0.16948859"
       id="path4146" /><path
       d="m 28.355522,15.821708 0,0.533889 q 0,0.252114 -0.155717,0.474568 l -6.013667,8.445827 6.065572,0 0,1.17159 -7.949014,0 0,-0.563549 q 0,-0.222454 0.140887,-0.422662 l 6.021082,-8.468074 -5.880194,0 0,-1.171589 7.771051,0 z"
       style="stroke-width:0.16948859"
       id="path4148" /><path
       d="m 38.937602,26.447582 -1.112268,0 q -0.192794,0 -0.311436,-0.0964 -0.118642,-0.0964 -0.177963,-0.2447 l -0.993626,-2.565633 -4.767926,0 -0.993627,2.565633 q -0.05191,0.133473 -0.177963,0.237284 -0.126057,0.103812 -0.311435,0.103812 l -1.112269,0 4.248867,-10.625874 1.46078,0 4.248866,10.625874 z m -6.962802,-3.944846 3.967092,0 -1.668403,-4.323019 q -0.163133,-0.400416 -0.318851,-1.001041 -0.08157,0.30402 -0.163133,0.563549 -0.07415,0.252114 -0.148302,0.444908 L 31.9748,22.502736 Z"
       style="stroke-width:0.16948859"
       id="path4150" /><path
       d="m 41.854526,22.013337 0,4.434245 -1.431119,0 0,-10.625874 3.003126,0 q 1.008457,0 1.742554,0.207623 0.734098,0.200208 1.208666,0.585795 0.481983,0.385587 0.711852,0.934306 0.229869,0.541304 0.229869,1.21608 0,0.56355 -0.177963,1.052948 -0.177963,0.489398 -0.519059,0.8824 -0.333681,0.385587 -0.823079,0.659946 -0.481983,0.27436 -1.097438,0.415247 0.266944,0.155718 0.474568,0.452323 l 3.099522,4.219206 -1.275402,0 q -0.393001,0 -0.578379,-0.30402 l -2.758427,-3.796544 q -0.126057,-0.177963 -0.27436,-0.252114 -0.148302,-0.08157 -0.444907,-0.08157 l -1.090024,0 z m 0,-1.045532 1.505271,0 q 0.630286,0 1.104854,-0.148303 0.481983,-0.155718 0.800833,-0.430077 0.326266,-0.281775 0.489398,-0.667361 0.163133,-0.385587 0.163133,-0.85274 0,-0.949136 -0.630286,-1.431119 -0.62287,-0.481983 -1.861196,-0.481983 l -1.572007,0 0,4.011583 z"
       style="stroke-width:0.16948859"
       id="path4152" /><path
       d="m 59.04325,21.138352 q 0,1.193836 -0.378172,2.172632 -0.378171,0.978797 -1.067778,1.675819 -0.689606,0.697021 -1.653573,1.082608 -0.963966,0.378171 -2.135556,0.378171 l -3.974507,0 0,-10.625874 3.974507,0 q 1.17159,0 2.135556,0.385586 0.963967,0.378172 1.653573,1.082608 0.689607,0.697022 1.067778,1.675819 0.378172,0.978796 0.378172,2.172631 z m -1.47561,0 q 0,-0.978796 -0.266945,-1.749969 -0.266944,-0.771173 -0.756342,-1.305062 -0.489399,-0.533889 -1.18642,-0.815664 -0.697022,-0.281775 -1.549762,-0.281775 l -2.528557,0 0,8.297526 2.528557,0 q 0.85274,0 1.549762,-0.281775 0.697021,-0.281775 1.18642,-0.808249 0.489398,-0.533889 0.756342,-1.305062 0.266945,-0.771173 0.266945,-1.74997 z"
       style="stroke-width:0.16948859"
       id="path4154" /></g></svg>
