<svg id="圖層_1" data-name="圖層 1" xmlns="http://www.w3.org/2000/svg" viewBox="0 0 96 96"><rect x="0.01" y="0.02" width="96" height="96" style="fill:#fff"/><path id="path7-6" d="M69.93,68.94V27.24c0-1.25-.61-2.22-1.51-2.09L16.91,33A1.85,1.85,0,0,0,15.4,35V61.15a1.86,1.86,0,0,0,1.51,2.09L68.4,71c.93.14,1.51-.83,1.51-2.08Z" style="fill:#fff"/><path id="path5" d="M16.91,25.36,77.44,13.91c3.88-.74,7.12,4.41,7.12,9.81v49c0,5.4-3.24,10.55-7.12,9.81L16.91,71.13C13,70.39,9.79,69,9.79,63.61V32.87C9.75,27.48,13,26.06,16.91,25.36Z" style="fill:#10366a"/><path d="M78.17,82.71a3.82,3.82,0,0,1-.75-.08L16.86,71.2c-4.31-.82-7.18-2.42-7.18-7.59V32.87c0-5.17,2.87-6.76,7.18-7.58h0L77.42,13.85a4.37,4.37,0,0,1,3.71,1.07c2.11,1.74,3.53,5.27,3.53,8.8v49c0,3.53-1.42,7.06-3.53,8.8A4.58,4.58,0,0,1,78.17,82.71Zm0-68.81a3.53,3.53,0,0,0-.72.08L16.91,25.42c-4.24.8-7.07,2.37-7.07,7.41V63.61c0,5.08,2.83,6.65,7.07,7.41L77.45,82.5a4.26,4.26,0,0,0,3.57-1c2.08-1.73,3.47-5.22,3.47-8.71v-49c0-3.49-1.39-7-3.47-8.7A4.44,4.44,0,0,0,78.17,13.9Z" style="fill:#10366a"/><path id="path7" d="M76.6,72.64v-49c0-1.48-.72-2.62-1.78-2.45L14.25,30.3a2.17,2.17,0,0,0-1.78,2.45V63.49a2.17,2.17,0,0,0,1.78,2.45L74.82,75.1C75.88,75.26,76.6,74.12,76.6,72.64Z" style="fill:#fff"/><path d="M75,75.17h-.21L14.24,66a2.25,2.25,0,0,1-1.86-2.52V32.75a2.23,2.23,0,0,1,1.86-2.51l60.57-9.16a1.25,1.25,0,0,1,1,.31,2.92,2.92,0,0,1,.81,2.21v49a2.92,2.92,0,0,1-.81,2.21A1.24,1.24,0,0,1,75,75.17Zm0-54h-.19L14.26,30.37a2.11,2.11,0,0,0-1.73,2.38V63.49a2.12,2.12,0,0,0,1.73,2.39L74.83,75a1.15,1.15,0,0,0,.93-.27,2.77,2.77,0,0,0,.75-2.12v-49a2.79,2.79,0,0,0-.75-2.11A1.19,1.19,0,0,0,75,21.19Z" style="fill:#10366a"/><path id="path4162" d="M84.74,22.58V74.07l2-1.14V24.86Z" style="fill:#fff;fill-rule:evenodd"/><path d="M84.39,74.67v-53l2.71,3.08v48.4Zm.69-51.17v50l1.32-.74V25Z" style="fill:#10366a"/><path d="M68.59,71.1h-.18l-51.5-7.8a1.91,1.91,0,0,1-1.57-2.15V35a1.92,1.92,0,0,1,1.57-2.15l51.5-7.75a1.13,1.13,0,0,1,.93.27A2.5,2.5,0,0,1,70,27.26V69a2.5,2.5,0,0,1-.68,1.85A1.17,1.17,0,0,1,68.59,71.1Zm0-45.88h-.16L16.91,33a1.79,1.79,0,0,0-1.45,2V61.15a1.78,1.78,0,0,0,1.45,2L68.4,71a1,1,0,0,0,.8-.23,2.42,2.42,0,0,0,.64-1.79V27.24a2.38,2.38,0,0,0-.64-1.78A.94.94,0,0,0,68.59,25.22Z" style="fill:#10366a"/><path d="M68.59,71.44h-.18L16.86,63.65A2.25,2.25,0,0,1,15,61.1V35a2.22,2.22,0,0,1,1.85-2.49l51.51-7.75a1.41,1.41,0,0,1,1.21.35,2.88,2.88,0,0,1,.8,2.13V69a2.89,2.89,0,0,1-.78,2.09A1.48,1.48,0,0,1,68.59,71.44Zm-.16-45.88L17,33.35A1.45,1.45,0,0,0,15.8,35V61.15A1.46,1.46,0,0,0,17,62.83l51.48,7.78a.58.58,0,0,0,.51-.14A2,2,0,0,0,69.49,69V27.24a2,2,0,0,0-.55-1.54.59.59,0,0,0-.36-.14Z" style="fill:#10366a"/><g id="text4173"><path id="path4145" d="M33.92,36.31v2.93H25.61V62H22.12V39.24H13.78V36.31Z" style="fill:#103770;stroke:#fff;stroke-linecap:square;stroke-linejoin:round;stroke-width:0.5px"/><path d="M25.79,62.21H21.94V39.42H13.6V36.11H34.1V39.4H25.79Zm-3.49-.35h3.13V39.11h8.31V36.49H14v2.62H22.3Z" style="fill:#103770;stroke:#fff;stroke-linecap:square;stroke-linejoin:round;stroke-width:0.5px"/><path id="path4147" d="M53.42,36.31v2.8H41.07v8.54h10v2.73h-10v8.78H53.42V62H37.57V36.31Z" style="fill:#103770;stroke:#fff;stroke-linecap:square;stroke-linejoin:round;stroke-width:0.5px"/><path d="M53.6,62.21H37.39V36.11H53.6v3.2H41.25v8.2h10V50.6h-10V59H53.6Zm-15.85-.35h15.5V59.38H40.9V50.24h10V47.87h-10V39H53.25V36.49H37.75Z" style="fill:#103770;stroke:#fff;stroke-linecap:square;stroke-linejoin:round;stroke-width:0.5px"/><path id="path4149" d="M62.19,52.41V62H58.76V36.31h7.59a13.49,13.49,0,0,1,4.24.58,8,8,0,0,1,3,1.59A6.37,6.37,0,0,1,75.35,41a8.55,8.55,0,0,1,.59,3.28,8.3,8.3,0,0,1-.63,3.29,7,7,0,0,1-1.85,2.54,8.56,8.56,0,0,1-3,1.69,13.27,13.27,0,0,1-4.11.59Zm0-2.76h4.13a7.76,7.76,0,0,0,2.62-.4,5.38,5.38,0,0,0,1.92-1.09A4.55,4.55,0,0,0,72,46.45a5.76,5.76,0,0,0,.4-2.17,4.9,4.9,0,0,0-1.53-3.84,6.53,6.53,0,0,0-4.55-1.33H62.19Z" style="fill:#103770;stroke:#fff;stroke-linecap:square;stroke-linejoin:round;stroke-width:0.5px"/><path d="M62.4,62.21H58.58V36.11h7.77a14.15,14.15,0,0,1,4.29.58,8.15,8.15,0,0,1,3.07,1.64,6.49,6.49,0,0,1,1.8,2.58,9.32,9.32,0,0,1,0,6.71,7.49,7.49,0,0,1-1.9,2.63A8.9,8.9,0,0,1,70.52,52a13.36,13.36,0,0,1-4.17.6h-4Zm-3.46-.35h3.11V52.23h4.3a13.25,13.25,0,0,0,4.06-.58A8.41,8.41,0,0,0,73.34,50a7,7,0,0,0,1.85-2.5,8.3,8.3,0,0,0,.61-3.22,8.59,8.59,0,0,0-.61-3.17,6.15,6.15,0,0,0-1.71-2.44,7.66,7.66,0,0,0-2.94-1.56,13.51,13.51,0,0,0-4.19-.57H58.94Zm7.41-12h-4.3v-11h4.3a6.75,6.75,0,0,1,4.7,1.43,5.09,5.09,0,0,1,1.58,4,6,6,0,0,1-.4,2.24A4.87,4.87,0,0,1,71,48.32a5.82,5.82,0,0,1-2,1.13,8.3,8.3,0,0,1-2.67.38Zm-4-.36h4a7.91,7.91,0,0,0,2.56-.39,5.41,5.41,0,0,0,1.86-1,4.49,4.49,0,0,0,1.12-1.64,5.45,5.45,0,0,0,.39-2.11,4.74,4.74,0,0,0-1.47-3.71,6.45,6.45,0,0,0-4.46-1.33h-4Z" style="fill:#103770;stroke:#fff;stroke-linecap:square;stroke-linejoin:round;stroke-width:0.5px"/></g></svg>