<svg id="圖層_1" data-name="圖層 1" xmlns="http://www.w3.org/2000/svg" viewBox="0 0 96 96"><rect x="-0.1" y="0.02" width="96" height="96" style="fill:#fff"/><path id="path5" d="M20.2,22.76H75.91a6.57,6.57,0,0,1,6.55,6.55V62.08a6.57,6.57,0,0,1-6.55,6.55H20.2a6.57,6.57,0,0,1-6.55-6.55V29.31A6.57,6.57,0,0,1,20.2,22.76Z" style="fill:#10366a"/><path id="path7" d="M77.55,62.08V29.31a1.55,1.55,0,0,0-1.64-1.64H20.2a1.55,1.55,0,0,0-1.64,1.64V62.08a1.55,1.55,0,0,0,1.64,1.64H75.91A1.55,1.55,0,0,0,77.55,62.08Z" style="fill:#fff"/><path id="path4184" d="M21.29,37.51h2.22V52h8v1.86H21.29Z" style="fill:#10366a"/><path id="path4186" d="M35.57,53.89,29.32,37.51h2.31L36.82,51.3,42,37.51h2.31L38.08,53.89Z" style="fill:#10366a"/><path id="path4188" d="M48.93,39.33V52.07h2.68q3.39,0,5-1.54t1.58-4.85c0-2.19-.53-3.8-1.58-4.81s-2.7-1.54-5-1.54Zm-2.22-1.82h4.55q4.77,0,7,2t2.22,6.19c0,2.83-.74,4.9-2.24,6.23s-3.81,2-7,2H46.71Z" style="fill:#10366a"/><path id="path4190" d="M73.83,38v2.17a12.66,12.66,0,0,0-2.38-.9,8.39,8.39,0,0,0-2.17-.3,4.73,4.73,0,0,0-2.79.7,2.33,2.33,0,0,0-1,2,2.09,2.09,0,0,0,.65,1.65,5.84,5.84,0,0,0,2.48.89l1.34.27a6.73,6.73,0,0,1,3.65,1.67A4.85,4.85,0,0,1,73.21,53a7.54,7.54,0,0,1-4.67,1.23A13.08,13.08,0,0,1,66.06,54a19.34,19.34,0,0,1-2.71-.78V50.88A13,13,0,0,0,66,52a9.17,9.17,0,0,0,2.55.38,4.94,4.94,0,0,0,2.93-.75,2.45,2.45,0,0,0,1-2.13,2.4,2.4,0,0,0-.75-1.88,4.89,4.89,0,0,0-2.42-1L68,46.36a7.29,7.29,0,0,1-3.59-1.54,3.86,3.86,0,0,1-1.11-2.93,4.2,4.2,0,0,1,1.53-3.43A6.51,6.51,0,0,1,69,37.21a13.59,13.59,0,0,1,2.35.21A18.33,18.33,0,0,1,73.83,38Z" style="fill:#10366a"/><path id="rect4193" d="M41.52,65.93h36a4.41,4.41,0,0,1,4.58,4.23h0a4.42,4.42,0,0,1-4.58,4.24h-36a4.42,4.42,0,0,1-4.58-4.24h0A4.41,4.41,0,0,1,41.52,65.93Z" style="fill:#10366a"/><rect id="rect13" x="40.65" y="66.45" width="37.74" height="6.15" style="fill:#fff;stroke:#fff;stroke-miterlimit:5.607839226722717;stroke-width:0.31866198809196433px"/><g id="g4541"><circle id="circle17" cx="43.24" cy="68.37" r="0.52" style="fill:#10366a"/><circle id="circle19" cx="44.95" cy="68.37" r="0.52" style="fill:#10366a"/><circle id="circle21" cx="46.67" cy="68.37" r="0.52" style="fill:#10366a"/><circle id="circle23" cx="48.38" cy="68.37" r="0.52" style="fill:#10366a"/><circle id="circle25" cx="50.1" cy="68.37" r="0.52" style="fill:#10366a"/><circle id="circle27" cx="51.81" cy="68.37" r="0.52" style="fill:#10366a"/><circle id="circle29" cx="53.52" cy="68.37" r="0.52" style="fill:#10366a"/><circle id="circle31" cx="55.24" cy="68.37" r="0.52" style="fill:#10366a"/><circle id="circle33" cx="56.95" cy="68.37" r="0.52" style="fill:#10366a"/><circle id="circle35" cx="58.67" cy="68.37" r="0.52" style="fill:#10366a"/><circle id="circle37" cx="60.38" cy="68.37" r="0.52" style="fill:#10366a"/><circle id="circle39" cx="62.1" cy="68.37" r="0.52" style="fill:#10366a"/><circle id="circle41" cx="63.81" cy="68.37" r="0.52" style="fill:#10366a"/><circle id="circle43" cx="65.52" cy="68.37" r="0.52" style="fill:#10366a"/><circle id="circle45" cx="67.24" cy="68.37" r="0.52" style="fill:#10366a"/><circle id="circle47" cx="68.95" cy="68.37" r="0.52" style="fill:#10366a"/><circle id="circle49" cx="70.67" cy="68.37" r="0.52" style="fill:#10366a"/><circle id="circle51" cx="72.38" cy="68.37" r="0.52" style="fill:#10366a"/><circle id="circle53" cx="74.1" cy="68.37" r="0.52" style="fill:#10366a"/><circle id="circle55" cx="75.81" cy="68.37" r="0.52" style="fill:#10366a"/><circle id="circle59" cx="43.24" cy="71.13" r="0.52" style="fill:#10366a"/><circle id="circle61" cx="44.95" cy="71.13" r="0.52" style="fill:#10366a"/><circle id="circle63" cx="46.67" cy="71.13" r="0.52" style="fill:#10366a"/><circle id="circle65" cx="48.38" cy="71.13" r="0.52" style="fill:#10366a"/><circle id="circle67" cx="50.1" cy="71.13" r="0.52" style="fill:#10366a"/><circle id="circle69" cx="51.81" cy="71.13" r="0.52" style="fill:#10366a"/><circle id="circle71" cx="53.52" cy="71.13" r="0.52" style="fill:#10366a"/><circle id="circle73" cx="55.24" cy="71.13" r="0.52" style="fill:#10366a"/><circle id="circle75" cx="56.95" cy="71.13" r="0.52" style="fill:#10366a"/><circle id="circle77" cx="58.67" cy="71.13" r="0.52" style="fill:#10366a"/><circle id="circle79" cx="60.38" cy="71.13" r="0.52" style="fill:#10366a"/><circle id="circle81" cx="62.1" cy="71.13" r="0.52" style="fill:#10366a"/><circle id="circle83" cx="63.81" cy="71.13" r="0.52" style="fill:#10366a"/><circle id="circle85" cx="65.52" cy="71.13" r="0.52" style="fill:#10366a"/><circle id="circle87" cx="67.24" cy="71.13" r="0.52" style="fill:#10366a"/><circle id="circle89" cx="68.95" cy="71.13" r="0.52" style="fill:#10366a"/><circle id="circle91" cx="70.67" cy="71.13" r="0.52" style="fill:#10366a"/><circle id="circle93" cx="72.38" cy="71.13" r="0.52" style="fill:#10366a"/><circle id="circle95" cx="74.1" cy="71.13" r="0.52" style="fill:#10366a"/><circle id="circle97" cx="75.81" cy="71.13" r="0.52" style="fill:#10366a"/></g></svg>