<svg id="圖層_1" data-name="圖層 1" xmlns="http://www.w3.org/2000/svg" viewBox="0 0 96 96"><rect x="-0.1" y="0.02" width="96" height="96" style="fill:#fff"/><path id="path5" d="M20.13,22.73H75.86a6.78,6.78,0,0,1,6.55,7V64.43a6.77,6.77,0,0,1-6.55,6.94H20.13a6.77,6.77,0,0,1-6.56-6.94V29.68A6.78,6.78,0,0,1,20.13,22.73Z" style="fill:#10366a"/><path id="path7" d="M77.5,64.43V29.68a1.6,1.6,0,0,0-1.64-1.74H20.13a1.6,1.6,0,0,0-1.64,1.74V64.43a1.59,1.59,0,0,0,1.64,1.73H75.86A1.59,1.59,0,0,0,77.5,64.43Z" style="fill:#fff"/><g id="g4213"><path id="path4204" d="M21.81,35H41l-3.06,2.74h-5V59.06H29.86V37.78h-8Z" style="fill:#10366a"/><path id="path4206" d="M43.33,35H59.44v2.74h-8V59.06H48.31V37.78h-8Z" style="fill:#10366a"/><path id="path4208" d="M62.41,35h3.07V56.33h11v2.73H62.41Z" style="fill:#10366a"/></g><path id="rect4193" d="M41.47,68.5h36A4.54,4.54,0,0,1,82.06,73h0a4.54,4.54,0,0,1-4.59,4.49h-36A4.55,4.55,0,0,1,36.87,73h0A4.55,4.55,0,0,1,41.47,68.5Z" style="fill:#10366a"/><g id="g11"><rect id="rect13" x="41.88" y="70.07" width="0.34" height="1.37" style="fill:#fff"/><rect id="rect15" x="42.59" y="70.07" width="0.34" height="1.37" style="fill:#fff"/><rect id="rect17" x="43.3" y="70.07" width="0.34" height="1.37" style="fill:#fff"/><rect id="rect19" x="44.01" y="70.07" width="0.34" height="1.37" style="fill:#fff"/><rect id="rect21" x="44.72" y="70.07" width="0.34" height="1.37" style="fill:#fff"/><rect id="rect23" x="45.44" y="70.07" width="0.34" height="1.37" style="fill:#fff"/><rect id="rect25" x="46.15" y="70.07" width="0.34" height="1.37" style="fill:#fff"/><rect id="rect27" x="46.86" y="70.07" width="0.34" height="1.37" style="fill:#fff"/><rect id="rect29" x="47.57" y="70.07" width="0.34" height="1.37" style="fill:#fff"/><rect id="rect31" x="48.28" y="70.07" width="0.34" height="1.37" style="fill:#fff"/><rect id="rect33" x="48.99" y="70.07" width="0.34" height="1.37" style="fill:#fff"/><rect id="rect35" x="49.7" y="70.07" width="0.34" height="1.37" style="fill:#fff"/><rect id="rect37" x="50.41" y="70.07" width="0.34" height="1.37" style="fill:#fff"/><rect id="rect39" x="51.12" y="70.07" width="0.34" height="1.37" style="fill:#fff"/><rect id="rect41" x="51.83" y="70.07" width="0.34" height="1.37" style="fill:#fff"/><rect id="rect43" x="52.54" y="70.07" width="0.34" height="1.37" style="fill:#fff"/><rect id="rect45" x="53.25" y="70.07" width="0.34" height="1.37" style="fill:#fff"/><rect id="rect47" x="53.96" y="70.07" width="0.34" height="1.37" style="fill:#fff"/><rect id="rect49" x="54.68" y="70.07" width="0.34" height="1.37" style="fill:#fff"/><rect id="rect51" x="55.39" y="70.07" width="0.34" height="1.37" style="fill:#fff"/><rect id="rect53" x="56.1" y="70.07" width="0.34" height="1.37" style="fill:#fff"/><rect id="rect55" x="56.81" y="70.07" width="0.34" height="1.37" style="fill:#fff"/><rect id="rect57" x="57.52" y="70.07" width="0.34" height="1.37" style="fill:#fff"/><rect id="rect59" x="58.23" y="70.07" width="0.34" height="1.37" style="fill:#fff"/><rect id="rect61" x="58.94" y="70.07" width="0.34" height="1.37" style="fill:#fff"/><rect id="rect63" x="59.65" y="70.07" width="0.34" height="1.37" style="fill:#fff"/><rect id="rect65" x="60.36" y="70.07" width="0.34" height="1.37" style="fill:#fff"/><rect id="rect67" x="61.07" y="70.07" width="0.34" height="1.37" style="fill:#fff"/><rect id="rect69" x="61.78" y="70.07" width="0.34" height="1.37" style="fill:#fff"/><rect id="rect71" x="62.49" y="70.07" width="0.34" height="1.37" style="fill:#fff"/><rect id="rect73" x="63.2" y="70.07" width="0.34" height="1.37" style="fill:#fff"/><rect id="rect75" x="63.92" y="70.07" width="0.34" height="1.37" style="fill:#fff"/><rect id="rect77" x="64.63" y="70.07" width="0.34" height="1.37" style="fill:#fff"/><rect id="rect79" x="65.34" y="70.07" width="0.34" height="1.37" style="fill:#fff"/><rect id="rect81" x="66.05" y="70.07" width="0.34" height="1.37" style="fill:#fff"/><rect id="rect83" x="66.76" y="70.07" width="0.34" height="1.37" style="fill:#fff"/><rect id="rect85" x="67.47" y="70.07" width="0.34" height="1.37" style="fill:#fff"/><rect id="rect87" x="68.18" y="70.07" width="0.34" height="1.37" style="fill:#fff"/><rect id="rect89" x="68.89" y="70.07" width="0.34" height="1.37" style="fill:#fff"/><rect id="rect91" x="69.6" y="70.07" width="0.34" height="1.37" style="fill:#fff"/><rect id="rect93" x="70.31" y="70.07" width="0.34" height="1.37" style="fill:#fff"/><rect id="rect95" x="71.02" y="70.07" width="0.34" height="1.37" style="fill:#fff"/><rect id="rect97" x="71.73" y="70.07" width="0.34" height="1.37" style="fill:#fff"/><rect id="rect99" x="72.44" y="70.07" width="0.34" height="1.37" style="fill:#fff"/><rect id="rect101" x="73.15" y="70.07" width="0.34" height="1.37" style="fill:#fff"/><rect id="rect103" x="73.87" y="70.07" width="0.34" height="1.37" style="fill:#fff"/><rect id="rect105" x="74.58" y="70.07" width="0.34" height="1.37" style="fill:#fff"/><rect id="rect107" x="75.29" y="70.07" width="0.34" height="1.37" style="fill:#fff"/><rect id="rect109" x="76" y="70.07" width="0.34" height="1.37" style="fill:#fff"/><rect id="rect111" x="76.71" y="70.07" width="0.34" height="1.37" style="fill:#fff"/></g><polygon id="polygon113" points="78.35 69.43 77.66 69.43 77.66 71.35 41.28 71.35 41.28 69.43 40.59 69.43 40.59 76.56 78.35 76.56 78.35 69.43" style="fill:#fff"/><rect id="rect223" x="41.28" y="71.44" width="36.38" height="1.28" style="fill:#10366a"/></svg>