<svg id="圖層_1" data-name="圖層 1" xmlns="http://www.w3.org/2000/svg" viewBox="0 0 96 96"><rect x="-0.1" y="0.02" width="96" height="96" style="fill:#fff"/><path id="path15" d="M48.2,74.8H76.57V73s-6.46-1.12-6.8-1.83H26.62c-.34.71-6.8,1.83-6.8,1.83V74.8Z" style="fill:#10366a"/><path id="rect4178" d="M14.54,22.51H81.85c.52,0,1,.67,1,1.5V67.15c0,.82-.43,1.5-1,1.5H14.54c-.52,0-.95-.68-.95-1.5V24C13.59,23.18,14,22.51,14.54,22.51Z" style="fill:#10366a"/><rect id="rect9" x="18.57" y="24.92" width="59.24" height="40.36" style="fill:#fff"/><line id="line17" x1="77.5" y1="66.85" x2="73.13" y2="66.85" style="fill:none;stroke:#fff;stroke-miterlimit:10;stroke-width:0.33280688524246216px"/><rect id="rect4162" x="37.75" y="68.65" width="20.87" height="2.21" style="fill:#10366a"/><g id="g4173"><path id="path4160" d="M20.13,37.49h2.23v6.76h8.1V37.49h2.23V54H30.46V46.12h-8.1V54H20.13V37.49Z" style="fill:#10366a"/><path id="path4162" d="M39.36,39.32V52.14h2.69q3.41,0,5-1.55c1.06-1,1.59-2.65,1.59-4.88S48.1,41.89,47,40.87s-2.72-1.55-5-1.55Zm-2.23-1.83h4.58q4.78,0,7,2c1.49,1.32,2.24,3.4,2.24,6.22s-.75,4.93-2.26,6.26-3.84,2-7,2H37.13Z" style="fill:#10366a"/><path id="path4164" d="M54.52,37.49h3.32L62,48.7l4.23-11.21h3.32V54H67.42V39.5L63.17,50.8H60.93L56.68,39.5V54H54.52V37.49Z" style="fill:#10366a"/><path id="path4167" d="M74,37.49h2.23V54H74Z" style="fill:#10366a"/></g></svg>