<?xml version="1.0" encoding="UTF-8" standalone="no"?>
<!-- Generator: Adobe Illustrator 19.2.1, SVG Export Plug-In . SVG Version: 6.00 Build 0)  -->

<svg
   xmlns:dc="http://purl.org/dc/elements/1.1/"
   xmlns:cc="http://creativecommons.org/ns#"
   xmlns:rdf="http://www.w3.org/1999/02/22-rdf-syntax-ns#"
   xmlns:svg="http://www.w3.org/2000/svg"
   xmlns="http://www.w3.org/2000/svg"
   xmlns:sodipodi="http://sodipodi.sourceforge.net/DTD/sodipodi-0.dtd"
   xmlns:inkscape="http://www.inkscape.org/namespaces/inkscape"
   version="1.1"
   id="Ebene_1"
   x="0px"
   y="0px"
   viewBox="0 0 50 50"
   xml:space="preserve"
   inkscape:version="0.91 r13725"
   sodipodi:docname="display.svg"
   width="50"
   height="50"><metadata
     id="metadata13"><rdf:RDF><cc:Work
         rdf:about=""><dc:format>image/svg+xml</dc:format><dc:type
           rdf:resource="http://purl.org/dc/dcmitype/StillImage" /><dc:title /></cc:Work></rdf:RDF></metadata><defs
     id="defs11" /><sodipodi:namedview
     pagecolor="#ffffff"
     bordercolor="#666666"
     borderopacity="1"
     objecttolerance="10"
     gridtolerance="10"
     guidetolerance="10"
     inkscape:pageopacity="0"
     inkscape:pageshadow="2"
     inkscape:window-width="1855"
     inkscape:window-height="1056"
     id="namedview9"
     showgrid="false"
     inkscape:zoom="9.8333334"
     inkscape:cx="52.260973"
     inkscape:cy="14.211934"
     inkscape:window-x="1985"
     inkscape:window-y="24"
     inkscape:window-maximized="1"
     inkscape:current-layer="Ebene_1" /><style
     type="text/css"
     id="style3">
	.st0{fill:#37474F;}
	.st1{fill:#BBDEFB;}
</style><text
     xml:space="preserve"
     style="font-style:normal;font-weight:normal;font-size:20.30885887px;line-height:125%;font-family:sans-serif;letter-spacing:0px;word-spacing:0px;fill:#000000;fill-opacity:1;stroke:none;stroke-width:1px;stroke-linecap:butt;stroke-linejoin:miter;stroke-opacity:1"
     x="7.0145116"
     y="31.96813"
     id="text4148"
     sodipodi:linespacing="125%"
     transform="scale(0.99956219,1.000438)"><tspan
       sodipodi:role="line"
       id="tspan4150"
       x="7.0145116"
       y="31.96813">TTL</tspan></text>
<g
     id="g4141"
     transform="matrix(1.0714286,0,0,1.0714286,-0.7142864,-56.428574)"><path
       style="fill:#37474f"
       inkscape:connector-curvature="0"
       id="path5"
       d="m 7,62 34,0 c 2.2,0 4,1.8 4,4 l 0,20 c 0,2.2 -1.8,4 -4,4 L 7,90 C 4.8,90 3,88.2 3,86 L 3,66 c 0,-2.2 1.8,-4 4,-4 z"
       class="st0" /><path
       style="fill:#bbdefb"
       inkscape:connector-curvature="0"
       id="path7"
       d="m 42,86 0,-20 c 0,-0.6 -0.4,-1 -1,-1 L 7,65 c -0.6,0 -1,0.4 -1,1 l 0,20 c 0,0.6 0.4,1 1,1 l 34,0 c 0.6,0 1,-0.4 1,-1 z"
       class="st1" /></g></svg>