<svg id="圖層_1" data-name="圖層 1" xmlns="http://www.w3.org/2000/svg" viewBox="0 0 96 96"><rect x="-0.1" y="0.02" width="96" height="96" style="fill:#fff"/><g id="g4272"><path id="rect4193" d="M28.64,46.62H63.89c.44,0,.8.22.8.5V53c0,.27-.36.5-.8.5H28.64c-.44,0-.79-.23-.79-.5V47.12C27.85,46.84,28.2,46.62,28.64,46.62Z" style="fill:#fff;stroke:#b81c22;stroke-miterlimit:4.013182640075684;stroke-width:0.45918643095359357px"/><g id="g67"><path id="path69" d="M54.59,52.72H38a.49.49,0,0,1-.48-.48V47.91a.49.49,0,0,1,.48-.48H54.59a.49.49,0,0,1,.48.48v4.33A.51.51,0,0,1,54.59,52.72Z" style="fill:#fff;stroke:#424444;stroke-miterlimit:3.2153833497753226;stroke-width:0.05816628241328741px"/><g id="g71"><path id="path73" d="M49.66,52.32h-7A1.33,1.33,0,0,1,41.32,51l-.21-1.73A1.34,1.34,0,0,1,42.44,48H49.9a1.33,1.33,0,0,1,1.32,1.32L51,51A1.39,1.39,0,0,1,49.66,52.32Z" style="fill:#afafa5;stroke:#424444;stroke-miterlimit:3.2153833497753226;stroke-width:0.21314775293466343px"/><g id="g75"><circle id="ellipse77" cx="43.84" cy="50.88" r="0.24" style="fill:#ffd469"/><circle id="ellipse79" cx="45.41" cy="50.88" r="0.24" style="fill:#ffd469"/><circle id="ellipse81" cx="46.93" cy="50.88" r="0.24" style="fill:#ffd469"/><circle id="ellipse83" cx="48.45" cy="50.88" r="0.24" style="fill:#ffd469"/></g><g id="g85"><circle id="ellipse87" cx="43.08" cy="49.35" r="0.24" style="fill:#ffd469"/><circle id="ellipse89" cx="44.6" cy="49.35" r="0.24" style="fill:#ffd469"/><circle id="ellipse91" cx="46.17" cy="49.35" r="0.24" style="fill:#ffd469"/><circle id="ellipse93" cx="47.69" cy="49.35" r="0.24" style="fill:#ffd469"/><circle id="ellipse95" cx="49.26" cy="49.35" r="0.24" style="fill:#ffd469"/></g><circle id="ellipse97" cx="39.83" cy="50.23" r="0.52" style="fill:#afafa5;stroke:#424444;stroke-miterlimit:3.2153833497753226;stroke-width:0.21314775293466343px"/><circle id="ellipse99" cx="52.46" cy="50.23" r="0.52" style="fill:#afafa5;stroke:#424444;stroke-miterlimit:3.2153833497753226;stroke-width:0.21314775293466343px"/></g></g></g><path id="rect4969" d="M39.55,70.39l13.21,0c11.32,0,20.56,1.63,20.62,3.56h0c.06,1.94-9.07,3.48-20.4,3.45l-13.2,0c-11.33,0-20.56-1.63-20.62-3.57h0C19.1,71.9,28.23,70.35,39.55,70.39Z" style="fill:#10366a;stroke:#fff;stroke-miterlimit:4.013182640075684;stroke-width:0.5px"/><path id="rect4259" d="M40.46,63H52.07c3.23,0,5.85.64,5.85,1.42v7c0,.79-2.62,1.42-5.85,1.42H40.46c-3.22,0-5.84-.63-5.84-1.42v-7C34.62,63.66,37.24,63,40.46,63Z" style="fill:#10366a;stroke:#fff;stroke-miterlimit:4.013182640075684;stroke-width:0.5px"/><path id="rect4200" d="M30.77,32.68c28-13.38,28.53-13.53,42.25,1,.64.17.6,5.14.6,5.74V64.16c0,.6-.57.85-1.2,1.08-15,5.38-15,5.29-52.31,0-.66-.09-1.2-.48-1.2-1.08V39.38c0-.6,11.26-6.42,11.86-6.7Z" style="fill:#10366a;stroke:#fff;stroke-miterlimit:4.013182640075684;stroke-width:0.5px"/><path id="path4226" d="M55.83,22.86l-.06,45.92V69" style="fill:#fff;stroke:#fff;stroke-miterlimit:4.013182640075684;stroke-width:0.25px;fill-rule:evenodd"/><path id="rect4230" d="M22.1,41.78C30.39,36.67,38.88,33.51,48,30.72c2.41-.69,1.67.4,1.67,12.13V59.37c0,.6,0,.76,0,1.67,0,2.82-.37,1.19-27.52-.59a1.17,1.17,0,0,1-1.2-1.08V42.85c0-.59.64-.73,1.2-1.07Z" style="fill:#fff"/><path id="path4140" d="M49.47,66.05a.9.9,0,0,1-1.21.6,1.14,1.14,0,0,1-.53-1.4.9.9,0,0,1,1.2-.62A1.12,1.12,0,0,1,49.48,66" style="fill:#fff"/><g id="g4196"><path id="path4140-3" d="M35.37,64.87a.59.59,0,0,1-.81.29.71.71,0,0,1-.25-.9.58.58,0,0,1,.81-.3.7.7,0,0,1,.26.89" style="fill:#fff"/><path id="path4140-3-6" d="M30.56,64.36a.57.57,0,0,1-.81.29.69.69,0,0,1-.25-.89.59.59,0,0,1,.81-.31.7.7,0,0,1,.26.89" style="fill:#fff"/><path id="path4140-3-7" d="M28.16,64.11a.58.58,0,0,1-.81.29.69.69,0,0,1-.25-.89.59.59,0,0,1,.81-.31.7.7,0,0,1,.26.89" style="fill:#fff"/><path id="path4140-3-5" d="M25.76,63.86a.6.6,0,0,1-.82.29.71.71,0,0,1-.25-.9.59.59,0,0,1,.81-.3.7.7,0,0,1,.27.89" style="fill:#fff"/><path id="path4140-3-3" d="M23.35,63.6a.58.58,0,0,1-.81.29.69.69,0,0,1-.25-.89.59.59,0,0,1,.81-.31.7.7,0,0,1,.26.89" style="fill:#fff"/><path id="path4140-3-56" d="M33,64.61a.59.59,0,0,1-.81.3.69.69,0,0,1-.25-.9.57.57,0,0,1,.81-.3.69.69,0,0,1,.26.89" style="fill:#fff"/></g><g id="g4181"><path id="path4172" d="M28.6,59.63,22,42.32h2.45L29.92,56.9l5.5-14.58h2.43l-6.6,17.31Z" style="fill:#10366a;stroke:#fff;stroke-miterlimit:4.013182640075684;stroke-width:0.5px"/><path id="path4174" d="M52.17,57.16V52.51H48.34V50.59h6.15V58a10.39,10.39,0,0,1-3,1.46A12,12,0,0,1,48,60a8.44,8.44,0,0,1-6.36-2.37A9.14,9.14,0,0,1,39.37,51a9.11,9.11,0,0,1,2.28-6.6A8.41,8.41,0,0,1,48,42a12,12,0,0,1,3.21.42A10.19,10.19,0,0,1,54,43.66v2.49a9.44,9.44,0,0,0-2.76-1.66,8.62,8.62,0,0,0-3.08-.56,6.11,6.11,0,0,0-4.77,1.78A7.68,7.68,0,0,0,41.84,51a7.68,7.68,0,0,0,1.59,5.28A6.1,6.1,0,0,0,48.2,58a10.6,10.6,0,0,0,2.22-.21,6,6,0,0,0,1.75-.67Z" style="fill:#10366a;stroke:#fff;stroke-miterlimit:4.013182640075684;stroke-width:0.5px"/><path id="path4176" d="M64.56,44.63l-3.17,8.61h6.36Zm-1.32-2.31H65.9l6.59,17.31H70.06l-1.58-4.44h-7.8L59.1,59.63H56.63l6.61-17.31Z" style="fill:#10366a;stroke:#fff;stroke-miterlimit:4.013182640075684;stroke-width:0.5px"/></g></svg>