<svg id="圖層_1" data-name="圖層 1" xmlns="http://www.w3.org/2000/svg" viewBox="0 0 96 96"><rect width="96" height="96" style="fill:#fff"/><rect x="13.5" y="22.5" width="70" height="50" rx="3.68" style="fill:#10366a"/><rect x="28.5" y="17.5" width="40" height="60" transform="translate(96 -1) rotate(90)" style="fill:#fff"/><path d="M30.55,48.45a2.78,2.78,0,0,1-1.36-1A2.46,2.46,0,0,1,28.74,46a2.91,2.91,0,0,1,1-2.21,3.49,3.49,0,0,1,2.51-.9,3.52,3.52,0,0,1,2.54.92,3,3,0,0,1,1,2.23,2.5,2.5,0,0,1-.44,1.46,2.87,2.87,0,0,1-1.34,1,3.28,3.28,0,0,1,1.69,1.16,3.2,3.2,0,0,1,.58,1.93,3.47,3.47,0,0,1-1.09,2.59,4,4,0,0,1-2.88,1,4,4,0,0,1-2.88-1,3.51,3.51,0,0,1-1.09-2.63,3.14,3.14,0,0,1,.6-2A2.94,2.94,0,0,1,30.55,48.45Zm-.77,3a2.72,2.72,0,0,0,.3,1.23,2.11,2.11,0,0,0,.89.91,2.6,2.6,0,0,0,1.28.33A2.41,2.41,0,0,0,34,53.29a2.54,2.54,0,0,0,0-3.5,2.44,2.44,0,0,0-1.78-.7,2.36,2.36,0,0,0-2.42,2.41Zm.48-5.56a1.88,1.88,0,0,0,.55,1.4,1.94,1.94,0,0,0,1.43.54,1.92,1.92,0,0,0,1.4-.54A1.8,1.8,0,0,0,34.19,46a1.84,1.84,0,0,0-.57-1.37,1.9,1.9,0,0,0-1.4-.55,1.93,1.93,0,0,0-1.4.54A1.71,1.71,0,0,0,30.26,45.94Z" style="fill:#10366a"/><rect x="39.63" y="41.85" width="1.44" height="2.15" style="fill:#10366a"/><rect x="42.5" y="41.85" width="1.44" height="2.15" style="fill:#10366a"/><path d="M55.77,54.63H54.29V45.21a7.36,7.36,0,0,1-1.4,1,10,10,0,0,1-1.56.76V45.56a9,9,0,0,0,2.17-1.41,5.71,5.71,0,0,0,1.32-1.61h1Z" style="fill:#10366a"/><path d="M59.56,48.69A11.15,11.15,0,0,1,60,45.25a4.23,4.23,0,0,1,1.31-2,3.32,3.32,0,0,1,2.18-.7,3.58,3.58,0,0,1,1.7.39,3.24,3.24,0,0,1,1.21,1.12,6.26,6.26,0,0,1,.75,1.79,12,12,0,0,1,.27,2.85A11,11,0,0,1,67,52.11a4.3,4.3,0,0,1-1.3,2,3.37,3.37,0,0,1-2.19.71,3.33,3.33,0,0,1-2.74-1.25C60,52.59,59.56,51,59.56,48.69Zm1.52,0c0,2,.23,3.3.7,4a2,2,0,0,0,1.71,1,2,2,0,0,0,1.71-1c.47-.66.7-2,.7-4s-.23-3.3-.7-3.95a2.06,2.06,0,0,0-1.73-1,1.91,1.91,0,0,0-1.63.86A7.66,7.66,0,0,0,61.08,48.69Z" style="fill:#10366a"/><rect x="67.13" y="39.51" width="1.44" height="2.15" style="fill:#10366a"/><rect x="70" y="39.51" width="1.44" height="2.15" style="fill:#10366a"/><path d="M53.48,19.66V5.92h4.73a11.67,11.67,0,0,1,2.45.19,4.62,4.62,0,0,1,2,1A5.58,5.58,0,0,1,64.3,9.45a9.17,9.17,0,0,1,.54,3.26,9.76,9.76,0,0,1-.36,2.78,7,7,0,0,1-.94,2,4.54,4.54,0,0,1-2.89,1.93,9.18,9.18,0,0,1-2.21.24ZM55.3,18h2.93a7.1,7.1,0,0,0,2.14-.26,3,3,0,0,0,1.23-.71,4.33,4.33,0,0,0,1-1.74A8.53,8.53,0,0,0,63,12.68a6.41,6.41,0,0,0-.71-3.31,3.57,3.57,0,0,0-1.72-1.55,7,7,0,0,0-2.35-.28H55.3Z" style="fill:#10366a"/><path d="M66.72,15.24l1.72-.15a3.8,3.8,0,0,0,.57,1.7,3.05,3.05,0,0,0,1.38,1.06,5.09,5.09,0,0,0,2.11.41A5,5,0,0,0,74.34,18a2.49,2.49,0,0,0,1.18-.85,1.94,1.94,0,0,0,.39-1.17,1.78,1.78,0,0,0-.37-1.13A2.84,2.84,0,0,0,74.3,14a22.21,22.21,0,0,0-2.45-.67,12.9,12.9,0,0,1-2.65-.86,3.66,3.66,0,0,1-1.47-1.28,3.15,3.15,0,0,1-.48-1.71,3.56,3.56,0,0,1,.59-2,3.63,3.63,0,0,1,1.73-1.37,6.54,6.54,0,0,1,2.52-.47,7,7,0,0,1,2.69.49,4,4,0,0,1,1.8,1.45,4.14,4.14,0,0,1,.67,2.17l-1.74.13a2.83,2.83,0,0,0-1-2,3.73,3.73,0,0,0-2.4-.66,3.84,3.84,0,0,0-2.4.6A1.8,1.8,0,0,0,69,9.35a1.57,1.57,0,0,0,.54,1.22,7.47,7.47,0,0,0,2.74,1,17.78,17.78,0,0,1,3,.87,4.2,4.2,0,0,1,1.77,1.4,3.44,3.44,0,0,1,.57,2A3.76,3.76,0,0,1,77,17.84a4.11,4.11,0,0,1-1.81,1.51,6.28,6.28,0,0,1-2.65.54,7.93,7.93,0,0,1-3.12-.54,4.38,4.38,0,0,1-2-1.64A4.64,4.64,0,0,1,66.72,15.24Z" style="fill:#10366a"/><path d="M80.46,19.66V5.92h1.82V19.66Z" style="fill:#10366a"/></svg>