<?xml version="1.0" encoding="UTF-8" standalone="no"?>
<!-- Created with Inkscape (http://www.inkscape.org/) -->

<svg
   xmlns:dc="http://purl.org/dc/elements/1.1/"
   xmlns:cc="http://creativecommons.org/ns#"
   xmlns:rdf="http://www.w3.org/1999/02/22-rdf-syntax-ns#"
   xmlns:svg="http://www.w3.org/2000/svg"
   xmlns="http://www.w3.org/2000/svg"
   xmlns:sodipodi="http://sodipodi.sourceforge.net/DTD/sodipodi-0.dtd"
   xmlns:inkscape="http://www.inkscape.org/namespaces/inkscape"
   width="50"
   height="50"
   viewBox="0 0 50.000001 50.000001"
   id="svg2"
   version="1.1"
   inkscape:version="0.91 r13725"
   sodipodi:docname="no_storage.svg">
  <defs
     id="defs4">
    <inkscape:perspective
       sodipodi:type="inkscape:persp3d"
       inkscape:vp_x="-9.3472975 : 68.489014 : 1"
       inkscape:vp_y="5913.7368 : 201.38274 : 0"
       inkscape:vp_z="-2.8297062 : -113.5145 : 1"
       inkscape:persp3d-origin="-55.369639 : -24.190931 : 1"
       id="perspective4136" />
    <inkscape:perspective
       sodipodi:type="inkscape:persp3d"
       inkscape:vp_x="16.139325 : -464.05781 : 1"
       inkscape:vp_y="1583.303 : 55.290159 : 0"
       inkscape:vp_z="17.8843 : -514.02733 : 1"
       inkscape:persp3d-origin="3.8176216 : -489.50333 : 1"
       id="perspective4136-0" />
  </defs>
  <sodipodi:namedview
     id="base"
     pagecolor="#ffffff"
     bordercolor="#666666"
     borderopacity="1.0"
     inkscape:pageopacity="0.0"
     inkscape:pageshadow="2"
     inkscape:zoom="2.8284272"
     inkscape:cx="-67.993717"
     inkscape:cy="6.7963528"
     inkscape:document-units="px"
     inkscape:current-layer="g4313"
     showgrid="false"
     units="px"
     inkscape:window-width="1855"
     inkscape:window-height="1056"
     inkscape:window-x="65"
     inkscape:window-y="24"
     inkscape:window-maximized="1" />
  <metadata
     id="metadata7">
    <rdf:RDF>
      <cc:Work
         rdf:about="">
        <dc:format>image/svg+xml</dc:format>
        <dc:type
           rdf:resource="http://purl.org/dc/dcmitype/StillImage" />
        <dc:title />
      </cc:Work>
    </rdf:RDF>
  </metadata>
  <g
     inkscape:label="Layer 1"
     inkscape:groupmode="layer"
     id="layer1"
     transform="translate(0,-1002.3622)">
    <g
       id="g4313"
       transform="translate(-4.331029,3.5355339)">
      <g
         transform="matrix(3.7350632,0,0,3.642289,-23.05808,-2681.6513)"
         id="g4138"
         style="opacity:1;fill:#000000;fill-opacity:1;stroke:#b81c22;stroke-width:6;stroke-linecap:butt;stroke-linejoin:miter;stroke-miterlimit:4;stroke-dasharray:none;stroke-dashoffset:0;stroke-opacity:1">
        <path
           d="m 13.403454,1019.5733 2.940674,3.9865 -4.822106,0.1684 -1.8217672,-4.0256 z"
           style="fill:#e9e9ff;fill-rule:evenodd;stroke:none;stroke-width:1px;stroke-linecap:butt;stroke-linejoin:round;stroke-opacity:1"
           id="path4296"
           inkscape:connector-curvature="0" />
      </g>
      <path
         inkscape:connector-curvature="0"
         style="opacity:1;fill:#102d52;fill-opacity:1;fill-rule:evenodd;stroke:#000000;stroke-width:0.5;stroke-linecap:butt;stroke-linejoin:round;stroke-miterlimit:4;stroke-dasharray:none;stroke-dashoffset:0;stroke-opacity:1"
         d="m 29.961467,1018.6543 -15.202503,0.5175 -1.585979,13.2285 13.831683,-0.471 z"
         id="path4140" />
      <path
         inkscape:connector-curvature="0"
         style="opacity:1;fill:#103770;fill-opacity:1;fill-rule:evenodd;stroke:#000000;stroke-width:0.5;stroke-linecap:butt;stroke-linejoin:round;stroke-miterlimit:4;stroke-dasharray:none;stroke-dashoffset:0;stroke-opacity:1"
         d="m 29.961467,1018.6543 13.457052,11.907 -5.430248,15.888 -10.983603,-14.52 z"
         id="path4142" />
      <path
         inkscape:connector-curvature="0"
         id="path4148"
         d="m 14.758964,1019.1718 8.252596,12.0844 -3.03416,15.8065 -6.804415,-14.6624 z"
         style="opacity:1;fill:#b81c22;fill-opacity:1;fill-rule:evenodd;stroke:#000000;stroke-width:0.5;stroke-linecap:round;stroke-linejoin:round;stroke-miterlimit:4;stroke-dasharray:none;stroke-dashoffset:0;stroke-opacity:1" />
      <path
         inkscape:connector-curvature="0"
         id="path4146"
         d="m 43.418519,1030.5613 -20.406959,0.6949 -3.03416,15.8065 18.010871,-0.6134 z"
         style="opacity:1;fill:#ea4e54;fill-opacity:1;fill-rule:evenodd;stroke:#000000;stroke-width:0.5;stroke-linecap:round;stroke-linejoin:round;stroke-miterlimit:4;stroke-dasharray:none;stroke-dashoffset:0;stroke-opacity:1" />
      <path
         sodipodi:nodetypes="ccccc"
         inkscape:connector-curvature="0"
         id="path4144"
         d="m 5.1715094,1017.2658 5.9820656,12.645 11.857985,1.3454 -8.252596,-12.0844 z"
         style="opacity:1;fill:#4269a2;fill-opacity:1;fill-rule:evenodd;stroke:#000000;stroke-width:0.5;stroke-linecap:butt;stroke-linejoin:round;stroke-miterlimit:4;stroke-dasharray:none;stroke-dashoffset:0;stroke-opacity:1" />
      <path
         sodipodi:nodetypes="ccccc"
         id="path4144-6"
         d="m 29.972695,1018.6579 13.457051,11.907 10.023801,-4.1832 -15.333346,-10.3881 z"
         style="opacity:1;fill:#4269a2;fill-opacity:1;fill-rule:evenodd;stroke:#000000;stroke-width:0.5;stroke-linecap:round;stroke-linejoin:round;stroke-miterlimit:4;stroke-dasharray:none;stroke-dashoffset:0;stroke-opacity:1"
         inkscape:connector-curvature="0" />
      <g
         id="g4203"
         transform="matrix(0.36908464,-0.17210699,0.17210699,0.36908464,6.6208753,1010.4409)">
        <g
           id="g5">
          <rect
             id="rect7"
             height="4.5999999"
             width="3"
             class="st0"
             y="3"
             x="39.900002"
             style="fill:#b2b2b2" />
          <rect
             id="rect9"
             height="4.5999999"
             width="3"
             class="st0"
             y="3"
             x="33.400002"
             style="fill:#b2b2b2" />
          <rect
             id="rect11"
             height="4.5999999"
             width="3"
             class="st0"
             y="3"
             x="26.9"
             style="fill:#b2b2b2" />
          <rect
             id="rect13"
             height="4.5999999"
             width="3"
             class="st0"
             y="3"
             x="20.4"
             style="fill:#b2b2b2" />
          <rect
             id="rect15"
             height="4.5999999"
             width="3"
             class="st0"
             y="3"
             x="13.8"
             style="fill:#b2b2b2" />
          <rect
             id="rect17"
             height="4.5999999"
             width="3"
             class="st0"
             y="2.9000001"
             x="7.3000002"
             style="fill:#b2b2b2" />
          <rect
             id="rect19"
             height="3"
             width="4.5999999"
             class="st0"
             y="5.3000002"
             x="5"
             style="fill:#b2b2b2" />
          <rect
             id="rect21"
             height="3"
             width="4.5999999"
             class="st0"
             y="11.3"
             x="5"
             style="fill:#b2b2b2" />
          <rect
             id="rect23"
             height="3"
             width="4.5999999"
             class="st0"
             y="17.4"
             x="5"
             style="fill:#b2b2b2" />
          <rect
             id="rect25"
             height="3"
             width="4.5999999"
             class="st0"
             y="23.5"
             x="5"
             style="fill:#b2b2b2" />
          <rect
             id="rect27"
             height="3"
             width="4.5999999"
             class="st0"
             y="29.6"
             x="5"
             style="fill:#b2b2b2" />
          <rect
             id="rect29"
             height="3"
             width="4.5999999"
             class="st0"
             y="35.599998"
             x="5"
             style="fill:#b2b2b2" />
          <rect
             id="rect31"
             height="3"
             width="4.5999999"
             class="st0"
             y="41.700001"
             x="5"
             style="fill:#b2b2b2" />
          <rect
             id="rect33"
             height="3"
             width="4.5999999"
             class="st0"
             y="5.3000002"
             x="40.700001"
             style="fill:#b2b2b2" />
          <rect
             id="rect35"
             height="3"
             width="4.5999999"
             class="st0"
             y="11.3"
             x="40.700001"
             style="fill:#b2b2b2" />
          <rect
             id="rect37"
             height="3"
             width="4.5999999"
             class="st0"
             y="17.4"
             x="40.700001"
             style="fill:#b2b2b2" />
          <rect
             id="rect39"
             height="3"
             width="4.5999999"
             class="st0"
             y="23.5"
             x="40.700001"
             style="fill:#b2b2b2" />
          <rect
             id="rect41"
             height="3"
             width="4.5999999"
             class="st0"
             y="29.6"
             x="40.700001"
             style="fill:#b2b2b2" />
          <rect
             id="rect43"
             height="3"
             width="4.5999999"
             class="st0"
             y="35.599998"
             x="40.700001"
             style="fill:#b2b2b2" />
          <rect
             id="rect45"
             height="3"
             width="4.5999999"
             class="st0"
             y="41.700001"
             x="40.700001"
             style="fill:#b2b2b2" />
          <rect
             id="rect47"
             height="4.5999999"
             width="3"
             class="st0"
             y="42.5"
             x="40"
             style="fill:#b2b2b2" />
          <rect
             id="rect49"
             height="4.5999999"
             width="3"
             class="st0"
             y="42.400002"
             x="33.400002"
             style="fill:#b2b2b2" />
          <rect
             id="rect51"
             height="4.5999999"
             width="3"
             class="st0"
             y="42.400002"
             x="26.9"
             style="fill:#b2b2b2" />
          <rect
             id="rect53"
             height="4.5999999"
             width="3"
             class="st0"
             y="42.400002"
             x="20.4"
             style="fill:#b2b2b2" />
          <rect
             id="rect55"
             height="4.5999999"
             width="3"
             class="st0"
             y="42.5"
             x="13.9"
             style="fill:#b2b2b2" />
          <rect
             id="rect57"
             height="4.5999999"
             width="3"
             class="st0"
             y="42.400002"
             x="7.3000002"
             style="fill:#b2b2b2" />
          <rect
             id="rect59"
             height="39.400002"
             width="35.700001"
             class="st1"
             y="5.3000002"
             x="7.3000002"
             style="fill:#40423f" />
        </g>
        <g
           id="g61">
          <path
             id="path63"
             d="m 14.8,26.7 0.9,0.1 c -0.1,0.4 -0.3,0.7 -0.7,0.9 -0.3,0.2 -0.7,0.4 -1.2,0.4 -0.6,0 -1.1,-0.2 -1.4,-0.6 -0.4,-0.4 -0.5,-0.9 -0.5,-1.6 0,-0.6 0.2,-1.2 0.5,-1.6 0.4,-0.4 0.8,-0.6 1.5,-0.6 0.6,0 1.1,0.2 1.4,0.6 0.3,0.4 0.5,0.9 0.5,1.6 l 0,0.1 -2.9,0 c 0,0.3 0,0.5 0.1,0.7 0.1,0.2 0.2,0.3 0.3,0.5 0.1,0.2 0.4,0.2 0.6,0.2 0.4,0 0.7,-0.3 0.9,-0.7 z m -0.1,-1.3 c 0,-0.3 -0.1,-0.6 -0.3,-0.7 -0.2,-0.2 -0.4,-0.3 -0.7,-0.3 -0.3,0 -0.5,0.1 -0.7,0.3 -0.2,0.2 -0.3,0.4 -0.3,0.8 l 2,0 z"
             class="st2"
             inkscape:connector-curvature="0"
             style="fill:#ffffff" />
          <path
             id="path65"
             d="m 23.5,28 -1,0 0,-5 -1.6,5 -0.5,0 -1.6,-5 0,5 -0.8,0 0,-5.7 1.6,0 1.2,3.7 1.2,-3.7 1.6,0 0,5.7 z"
             class="st2"
             inkscape:connector-curvature="0"
             style="fill:#ffffff" />
          <path
             id="path67"
             d="m 31.7,28 -1,0 0,-5 -1.7,5 -0.5,0 -1.6,-5 0,5 -0.8,0 0,-5.7 1.6,0 1.2,3.7 1.2,-3.7 1.6,0 0,5.7 z"
             class="st2"
             inkscape:connector-curvature="0"
             style="fill:#ffffff" />
          <path
             id="path69"
             d="m 37.4,26 1,0.1 c -0.1,0.6 -0.3,1 -0.7,1.4 -0.4,0.4 -0.9,0.6 -1.5,0.6 -0.5,0 -0.9,-0.1 -1.3,-0.4 -0.4,-0.3 -0.6,-0.6 -0.7,-1.1 -0.2,-0.4 -0.3,-0.9 -0.3,-1.5 0,-0.9 0.2,-1.6 0.6,-2.1 0.4,-0.5 1,-0.8 1.7,-0.8 0.6,0 1,0.2 1.4,0.5 0.4,0.3 0.6,0.8 0.7,1.5 l -1,0.1 C 37.1,23.4 36.7,23 36.1,23 c -0.4,0 -0.7,0.2 -0.9,0.5 -0.1,0.5 -0.2,1 -0.2,1.7 0,0.7 0.1,1.2 0.3,1.6 0.2,0.4 0.5,0.5 0.9,0.5 0.3,0 0.6,-0.1 0.8,-0.4 0.2,-0.2 0.4,-0.5 0.4,-0.9 z"
             class="st2"
             inkscape:connector-curvature="0"
             style="fill:#ffffff" />
        </g>
      </g>
      <g
         id="g4852"
         transform="matrix(0.47330365,0.12682133,-0.12682133,0.47330365,384.69223,1029.074)">
        <path
           class="st0"
           d="m -698.08031,176.53464 0,-10.16411 0,-3.86496 c 0,-0.35305 -0.14865,-0.68752 -0.42738,-0.9105 l -3.53049,-3.04737 c -0.26014,-0.22298 -0.42738,-0.55745 -0.42738,-0.9105 l 0,-2.58283 c 0,-0.66894 0.53887,-1.2078 1.20781,-1.2078 0.66893,0 1.2078,-0.53887 1.2078,-1.2078 l 0,-2.15546 c 0,-0.37163 -0.16724,-0.72468 -0.46454,-0.94766 l -1.48653,-1.15206 c -0.2973,-0.22298 -0.46454,-0.57603 -0.46454,-0.94766 l 0,-11.52056 c 0,-1.74666 1.43078,-3.19602 3.19603,-3.19602 l 27.11048,0 c 1.76525,0 3.19603,1.43078 3.19603,3.19602 l 0,30.43658 0,10.21985 c 0,1.30071 -1.20781,1.13347 -1.20781,1.13347 l -26.70168,0 c 0,0.0372 -1.2078,0.0929 -1.2078,-1.17063 z"
           id="path11"
           inkscape:connector-curvature="0"
           style="fill:#40423f" />
        <g
           id="g4233"
           transform="matrix(0.18581548,0,0,0.18581548,-711.99789,126.95907)">
          <path
             class="st1"
             d="m 131.5,120.4 c 0,-5.9 -4.8,-10.7 -10.7,-10.7 -2.7,0 -5.2,1 -7.1,2.7 -1.9,-1.7 -4.4,-2.7 -7.1,-2.7 -5.9,0 -10.7,4.8 -10.7,10.7 0,0 0,0 0,0 l 0,30.8 7.3,0 0,-30.8 c 0,-1.9 1.6,-3.5 3.5,-3.5 1.9,0 3.5,1.6 3.5,3.5 l 0,30.8 0,0 7.2,0 0,0 0,-30.8 c 0,-1.9 1.6,-3.5 3.5,-3.5 1.9,0 3.5,1.6 3.5,3.5 l 0,30.8 7.3,0 -0.2,-30.8 0,0 0,0 z"
             id="path15"
             inkscape:connector-curvature="0"
             style="clip-rule:evenodd;fill:#ffffff;fill-rule:evenodd" />
          <path
             class="st1"
             d="m 150.1,152.5 c 0,0.9 -1.4,1 -5.4,0.9 -6.2,-0.1 -11.3,-0.7 -11.3,-0.7 l -2.4,6.7 c 0,0 5.9,0.4 12.1,0.4 8.9,0 16.3,0.3 17.6,-5.6 1,-4.2 -2.7,-6.1 -7,-7.4 -2.9,-0.9 -8.2,-2.1 -8.2,-3.1 0,-1.3 3.6,-1.3 6.1,-1.4 2.7,-0.1 13.2,-0.1 13.2,-0.1 l 1.3,-3.8 c 0,0 -7.5,-0.2 -15,0.2 -10.8,0.5 -12.8,2.9 -13,5.2 -0.3,3 3.7,5 6.1,6 2.2,0.9 5.9,1.6 5.9,2.7 l 0,0 z"
             id="path17"
             inkscape:connector-curvature="0"
             style="clip-rule:evenodd;fill:#ffffff;fill-rule:evenodd" />
          <path
             class="st1"
             d="m 178.9,145.4 c 0,-0.1 -0.1,-0.2 -0.2,-0.3 l 13,-3.3 c 2.1,1 3.8,2.3 4.7,4 0.8,1.5 0.6,3 -0.3,4.4 -7.4,9.2 -26.8,9.2 -33.8,9.5 l 3,-8.5 0,0 c 1.8,-0.1 4.5,-0.3 6.1,-0.6 1.6,-0.3 3,-0.7 4.2,-1.2 1.2,-0.5 2.1,-1 2.6,-1.6 0.6,-0.6 0.8,-1.2 0.7,-1.8 0.1,-0.3 0,-0.4 0,-0.6 l 0,0 z"
             id="path19"
             inkscape:connector-curvature="0"
             style="clip-rule:evenodd;fill:#ffffff;fill-rule:evenodd" />
          <path
             class="st1"
             d="m 188.9,140.7 c -0.8,-0.3 -1.8,-0.7 -2.6,-0.9 l -9.5,3.8 c 0.3,0.1 0.7,0.4 0.9,0.6 0.1,0 0.1,0.1 0.2,0.1 l 11,-3.6 0,0 z"
             id="path21"
             inkscape:connector-curvature="0"
             style="clip-rule:evenodd;fill:#ffffff;fill-rule:evenodd" />
          <path
             class="st1"
             d="m 181.1,138.9 c -1.6,-0.2 -2.9,-0.3 -3.6,-0.3 -3,-0.1 -4.2,-0.1 -7.6,-0.1 l -1.3,3.8 c 0.8,0 1.2,0 2.6,0.1 1.3,0.1 2.5,0.3 3.5,0.6 l 6.4,-4.1 0,0 z"
             id="path23"
             inkscape:connector-curvature="0"
             style="clip-rule:evenodd;fill:#ffffff;fill-rule:evenodd" />
          <polygon
             class="st1"
             points="197.4,107.7 200.7,107.7 200.7,108.3 200.7,108.3 199.3,108.3 198.7,112.4 198.1,112.4 198.7,108.3 197.3,108.3 "
             id="polygon25"
             style="clip-rule:evenodd;fill:#ffffff;fill-rule:evenodd" />
          <polygon
             class="st1"
             points="205,108.8 203,112.4 202.2,108.8 202.2,108.8 201,112.4 200.4,112.4 202,107.7 202.5,107.7 203.3,110.9 205,107.7 205.6,107.7 205.6,112.4 205.6,112.4 205,112.4 205,108.8 "
             id="polygon27"
             style="clip-rule:evenodd;fill:#ffffff;fill-rule:evenodd" />
          <path
             class="st2"
             d="m 189.4,113.8 c -5.6,0 -10.2,4.5 -10.2,10.2 0,5.6 4.6,10.2 10.2,10.2 5.7,0 10.2,-4.5 10.2,-10.2 0.1,-5.7 -4.5,-10.2 -10.2,-10.2 z m 0,13.7 c -2,0 -3.6,-1.6 -3.6,-3.6 0,-2 1.6,-3.6 3.6,-3.6 2,0 3.6,1.6 3.6,3.6 0,2 -1.6,3.6 -3.6,3.6 z"
             id="path29"
             inkscape:connector-curvature="0"
             style="fill:#ffffff" />
          <path
             class="st2"
             d="m 152.9,133.5 3.4,0 c 2.1,0 2.9,-1.4 2.9,-3.2 0,-1.8 -0.9,-3.2 -3,-3.2 0,0 -2.2,0 -2.8,0 -0.7,0 -2.8,-0.5 -2.8,-3.3 0,-2.4 2,-3.3 2.8,-3.3 0.6,0 3.3,0 3.3,0 1.6,0 2.6,-1.5 2.6,-3.2 0,-1.8 -1.2,-3.1 -2.7,-3.2 -0.6,0 -3.8,0 -3.8,0 -2.8,0 -8.7,3.3 -8.7,9.5 -0.1,6.8 5.9,9.9 8.8,9.9 z"
             id="path31"
             inkscape:connector-curvature="0"
             style="fill:#ffffff" />
          <path
             class="st2"
             d="m 138.4,118.5 c 2,0 3.5,-1.4 3.5,-3.2 0,-1.8 -1.6,-3.2 -3.5,-3.2 -1.9,0 -3.5,1.4 -3.5,3.2 0,1.8 1.5,3.2 3.5,3.2 z"
             id="path33"
             inkscape:connector-curvature="0"
             style="fill:#ffffff" />
          <path
             class="st2"
             d="m 138.4,119.5 c -2.5,0 -3.4,1.1 -3.4,2.5 l 0,11.2 c 0,0.2 0.1,0.3 0.3,0.3 l 6.1,0 c 0.2,0 0.3,-0.2 0.3,-0.3 0,0 0,-10.7 0,-11.1 0.1,-1.5 -0.8,-2.6 -3.3,-2.6 z"
             id="path35"
             inkscape:connector-curvature="0"
             style="fill:#ffffff" />
          <path
             class="st2"
             d="m 161.4,133.4 5.2,0 c 0.2,0 0.3,-0.2 0.3,-0.4 0,0 0,-11 0,-12 0,-1.6 0.9,-2.5 2.4,-2.6 2.6,-0.1 2.4,2.3 2.4,2.3 0,1 1.2,2 2.7,2 1.5,0 2.6,-1.1 2.6,-2 0,-0.4 0,-1.4 0,-1.4 0,-3.6 -3.5,-5.9 -7.7,-5.9 -5.5,0 -8.2,3.7 -8.2,7.4 l 0,12.3 c 0,0.1 0.2,0.3 0.3,0.3 z"
             id="path37"
             inkscape:connector-curvature="0"
             style="fill:#ffffff" />
        </g>
        <polygon
           class="st2"
           points="150.7,253.6 163.7,237.7 137.8,237.7 "
           id="polygon39"
           style="fill:#ffffff"
           transform="matrix(0.18581548,0,0,0.18581548,-711.99789,126.95907)" />
      </g>
    </g>
  </g>
</svg>
