<?xml version="1.0" encoding="UTF-8" standalone="no"?>
<!-- Created with Inkscape (http://www.inkscape.org/) -->

<svg
   xmlns:dc="http://purl.org/dc/elements/1.1/"
   xmlns:cc="http://creativecommons.org/ns#"
   xmlns:rdf="http://www.w3.org/1999/02/22-rdf-syntax-ns#"
   xmlns:svg="http://www.w3.org/2000/svg"
   xmlns="http://www.w3.org/2000/svg"
   xmlns:sodipodi="http://sodipodi.sourceforge.net/DTD/sodipodi-0.dtd"
   xmlns:inkscape="http://www.inkscape.org/namespaces/inkscape"
   width="50"
   height="50"
   viewBox="0 0 50.000001 50.000001"
   id="svg4158"
   version="1.1"
   inkscape:version="0.91 r13725"
   sodipodi:docname="os_android.svg">
  <defs
     id="defs4160" />
  <sodipodi:namedview
     id="base"
     pagecolor="#ffffff"
     bordercolor="#666666"
     borderopacity="1.0"
     inkscape:pageopacity="0.0"
     inkscape:pageshadow="2"
     inkscape:zoom="7.9195959"
     inkscape:cx="44.058366"
     inkscape:cy="16.696461"
     inkscape:document-units="px"
     inkscape:current-layer="layer1"
     showgrid="false"
     units="px"
     inkscape:window-width="1855"
     inkscape:window-height="1056"
     inkscape:window-x="65"
     inkscape:window-y="24"
     inkscape:window-maximized="1" />
  <metadata
     id="metadata4163">
    <rdf:RDF>
      <cc:Work
         rdf:about="">
        <dc:format>image/svg+xml</dc:format>
        <dc:type
           rdf:resource="http://purl.org/dc/dcmitype/StillImage" />
        <dc:title></dc:title>
      </cc:Work>
    </rdf:RDF>
  </metadata>
  <g
     inkscape:label="Layer 1"
     inkscape:groupmode="layer"
     id="layer1"
     transform="translate(0,-1002.3622)">
    <g
       id="g4718"
       transform="matrix(0.19567233,0,0,0.19567233,-0.69565721,834.29187)">
      <path
         id="XMLID_15_"
         class="st0"
         d="m 90.969831,873.39183 10.699999,18.5 c -19.599999,9.6 -32.799999,28.3 -32.799999,49.8 l 62.299999,0 62.4,0 c 0,-21.5 -13.2,-40.3 -32.8,-49.8 l 10.8,-18.5 c 0,0 0.6,-1 -0.5,-1.5 -1,-0.6 -1.6,0.5 -1.6,0.5 l -10.9,18.8 c -8.3,-3.6 -17.6,-5.7 -27.4,-5.7 -9.8,0 -19.1,2 -27.4,5.7 l -10.899999,-18.8 c 0,0 -0.7,-1 -1.6,-0.5 -0.7,0.4 -0.3,1.5 -0.3,1.5 m 10.699999,36 c 3.3,0 5.9,2.7 5.9,5.9 0,3.2 -2.7,5.8 -5.9,5.8 -3.199999,0 -5.899999,-2.6 -5.899999,-5.8 0,-3.2 2.6,-5.9 5.899999,-5.9 m 59.4,0 c 3.3,0 5.9,2.7 5.9,5.9 0,3.2 -2.7,5.8 -5.9,5.8 -3.3,0 -5.9,-2.6 -5.9,-5.8 -0.1,-3.2 2.6,-5.9 5.9,-5.9"
         inkscape:connector-curvature="0"
         style="fill:#a4c639" />
      <path
         id="XMLID_4_"
         class="st0"
         d="m 68.469831,949.09183 0,94.69997 c 0,4.7 5.7,10.8 10.3,10.8 l 14.8,0 0,32.3 c 0,8.2 5.9,14.8 13.399999,14.8 7.5,0 13.4,-6.6 13.4,-14.8 l 0,-32.3 21.6,0 0,32.3 c 0,8.2 5.9,14.8 13.4,14.8 7.5,0 13.5,-6.6 13.5,-14.8 l 0,-32.3 14.8,0 c 4.7,0 10.3,-6.1 10.3,-10.8 l 0,-94.69997 -125.499999,0 z"
         inkscape:connector-curvature="0"
         style="fill:#a4c639" />
      <path
         id="XMLID_3_"
         class="st0"
         d="m 47.669831,946.99183 0,0 c 7.5,0 13.5,6.7 13.5,14.8 l 0,56.19997 c 0,8.2 -6,14.8 -13.5,14.8 -7.5,0 -13.4,-6.6 -13.4,-14.8 l 0,-56.19997 c 0.1,-8.1 6.1,-14.8 13.4,-14.8"
         inkscape:connector-curvature="0"
         style="fill:#a4c639" />
      <path
         id="XMLID_2_"
         class="st0"
         d="m 214.96983,946.99183 0,0 c 7.5,0 13.4,6.7 13.4,14.8 l 0,56.19997 c 0,8.2 -6,14.8 -13.4,14.8 -7.5,0 -13.4,-6.6 -13.4,-14.8 l 0,-56.19997 c 0,-8.1 6,-14.8 13.4,-14.8"
         inkscape:connector-curvature="0"
         style="fill:#a4c639" />
    </g>
  </g>
</svg>
