<svg xmlns="http://www.w3.org/2000/svg" viewBox="0 0 96 96"><g id="backgroup-white"><rect x="0.01" width="96" height="96" style="fill:#fff"/></g><g id="os_androidthings"><g id="layer1"><g id="g4722"><path id="path11" d="M93,44.13V25.85H89.53v5.38a5.47,5.47,0,0,0-3.92-1.46,7,7,0,0,0-7,7.29,7.11,7.11,0,0,0,7,7.37,5.45,5.45,0,0,0,3.92-1.5v1.2Zm-7-3.06a4,4,0,1,1,3.44-6.14.72.72,0,0,1,.11.34v3.59a.36.36,0,0,1-.07.22,3.89,3.89,0,0,1-3.48,2ZM77,44.13V30.07H73.57V44.13ZM75.32,29a2,2,0,1,0-2-2,2,2,0,0,0,2,2ZM64.63,44.39a7.31,7.31,0,1,0-7.33-7.33,7.35,7.35,0,0,0,7.33,7.33Zm0-3.47a3.84,3.84,0,1,1,3.85-3.86,3.84,3.84,0,0,1-3.85,3.86ZM53.68,44.13V36.62c0-2.21,1.15-3.41,3.4-3.41V29.77c-4.49,0-6.84,2.4-6.84,6.85v7.51Zm-5.35,0V25.85H44.85v5.38a5.5,5.5,0,0,0-3.93-1.49,7.1,7.1,0,0,0-7,7.32,7.08,7.08,0,0,0,7,7.33,5.5,5.5,0,0,0,3.93-1.49v1.19h3.48v0Zm-7-3.06a4,4,0,0,1,0-8,4,4,0,0,1,3.44,1.87.85.85,0,0,1,.11.34v3.55a.47.47,0,0,1-.08.26,3.92,3.92,0,0,1-3.47,2Zm-8.83,3.06V36.54a6.62,6.62,0,1,0-13.23,0v7.59h3.44V36.54a3.14,3.14,0,1,1,6.28,0v7.59Zm-15.1,0V30.07H13.93v1.2A5.44,5.44,0,0,0,10,29.81,7.05,7.05,0,0,0,3,37.1a7.08,7.08,0,0,0,7,7.33,5.46,5.46,0,0,0,3.93-1.5v1.2Zm-7-3.06a4,4,0,0,1,0-8,3.81,3.81,0,0,1,3.44,1.87.71.71,0,0,1,.12.34v3.55a.47.47,0,0,1-.08.26,3.92,3.92,0,0,1-3.48,2Z" style="fill:#75b857"/><path id="path13" d="M10,64.51V62h-.3a3,3,0,0,1-3.33-3.1V52.62H9.85V50.3H6.34V46.08H3.8V58.9c0,3.55,2.28,5.61,5.83,5.61Zm4.3-18.43H11.76V64.36h2.51V55a4.32,4.32,0,0,1,4-2.5,3.61,3.61,0,0,1,3.66,3.66v8.15H24.4V56a5.86,5.86,0,0,0-5.69-6,6,6,0,0,0-4.48,1.87l0-5.75ZM29.63,64.32V50.26H27.09V64.32ZM28.36,48.77a1.52,1.52,0,0,0,1.53-1.54,1.53,1.53,0,1,0-3.06,0,1.57,1.57,0,0,0,1.53,1.54Zm17,15.55v-7.7a6.6,6.6,0,1,0-13.2,0v7.7h2.54v-7.7a4.08,4.08,0,1,1,8.15,0v7.7Zm9-2.13a4.86,4.86,0,0,1,0-9.72,4.63,4.63,0,0,1,4.08,2.17,1,1,0,0,1,.11.41v4.52a1.08,1.08,0,0,1-.11.42,5,5,0,0,1-4.08,2.2ZM48.48,69.3a10.3,10.3,0,0,0,6,1.6c4-.11,6.62-2.76,6.62-6.39V50.26H58.54v1.5A6.54,6.54,0,0,0,54,50.26a7.05,7.05,0,0,0,0,14.1,6.54,6.54,0,0,0,4.57-1.5v1.65c0,2.21-1.65,3.78-4.34,3.93a8,8,0,0,1-4.56-1.35L48.48,69.3ZM71.85,51a9,9,0,0,0-4.08-1c-2.62,0-5,1.83-5,4.38,0,2.28,1.87,3.29,4,3.7,1.46.3,3.26.9,3.26,2.2s-1.24,2.14-2.77,2.14a10.11,10.11,0,0,1-3.63-.86l-.45,2.2a11.67,11.67,0,0,0,4.12.86c2.95,0,5.08-1.91,5.08-4.45,0-2.28-1.76-3.4-4-3.85-1.2-.22-3.18-.67-3.18-2a2.49,2.49,0,0,1,2.5-2.2,7.25,7.25,0,0,1,3.44.89l.68-2Z" style="fill:#666"/></g></g></g></svg>