<?xml version="1.0" encoding="UTF-8" standalone="no"?>
<!-- Created with Inkscape (http://www.inkscape.org/) -->

<svg
   xmlns:dc="http://purl.org/dc/elements/1.1/"
   xmlns:cc="http://creativecommons.org/ns#"
   xmlns:rdf="http://www.w3.org/1999/02/22-rdf-syntax-ns#"
   xmlns:svg="http://www.w3.org/2000/svg"
   xmlns="http://www.w3.org/2000/svg"
   xmlns:sodipodi="http://sodipodi.sourceforge.net/DTD/sodipodi-0.dtd"
   xmlns:inkscape="http://www.inkscape.org/namespaces/inkscape"
   width="50"
   height="50"
   viewBox="0 0 50.000001 50.000001"
   id="svg4166"
   version="1.1"
   inkscape:version="0.91 r13725"
   sodipodi:docname="os_androidthings.svg">
  <defs
     id="defs4168" />
  <sodipodi:namedview
     id="base"
     pagecolor="#ffffff"
     bordercolor="#666666"
     borderopacity="1.0"
     inkscape:pageopacity="0.0"
     inkscape:pageshadow="2"
     inkscape:zoom="2.8"
     inkscape:cx="133.93568"
     inkscape:cy="126.0965"
     inkscape:document-units="px"
     inkscape:current-layer="layer1"
     showgrid="false"
     units="px"
     inkscape:window-width="1855"
     inkscape:window-height="1056"
     inkscape:window-x="65"
     inkscape:window-y="24"
     inkscape:window-maximized="1" />
  <metadata
     id="metadata4171">
    <rdf:RDF>
      <cc:Work
         rdf:about="">
        <dc:format>image/svg+xml</dc:format>
        <dc:type
           rdf:resource="http://purl.org/dc/dcmitype/StillImage" />
        <dc:title></dc:title>
      </cc:Work>
    </rdf:RDF>
  </metadata>
  <g
     inkscape:label="Layer 1"
     inkscape:groupmode="layer"
     id="layer1"
     transform="translate(0,-1002.3622)">
    <g
       id="g4722"
       transform="matrix(0.18695471,0,0,0.18695471,10.778088,856.25763)">
      <path
         class="st0"
         d="m 196.42143,905.05802 0,-48.9 -9.3,0 0,14.4 c -2.6,-2.5 -6.1,-3.9 -10.5,-3.9 -10.6,0 -18.7,8.6 -18.7,19.5 0,10.9 8.1,19.7 18.7,19.7 4.4,0 7.9,-1.5 10.5,-4 l 0,3.2 9.3,0 0,0 z m -18.8,-8.2 c -5.7,0 -10.3,-4.8 -10.3,-10.7 0,-5.8 4.6,-10.7 10.3,-10.7 3.8,0 7.4,1.9 9.2,5 0.1,0.2 0.3,0.5 0.3,0.9 l 0,9.6 c 0,0.2 -0.1,0.5 -0.2,0.6 -1.7,3.3 -5.4,5.3 -9.3,5.3 l 0,0 0,0 z m -23.9,8.2 0,-37.6 -9.3,0 0,37.6 9.3,0 0,0 z m -4.6,-40.5 c 3,0 5.4,-2.4 5.4,-5.4 0,-3 -2.4,-5.4 -5.4,-5.4 -3,0 -5.4,2.4 -5.4,5.4 0,3 2.4,5.4 5.4,5.4 l 0,0 0,0 z m -28.6,41.2 c 10.9,0 19.7,-8.8 19.7,-19.6 0,-10.8 -8.8,-19.5 -19.7,-19.5 -10.8,0 -19.6,8.6 -19.6,19.5 0,10.9 8.8,19.6 19.6,19.6 l 0,0 0,0 z m 0,-9.3 c -5.6,0 -10.2,-4.6 -10.2,-10.3 0,-5.6 4.6,-10.2 10.2,-10.2 5.7,0 10.3,4.6 10.3,10.2 0,5.7 -4.6,10.3 -10.3,10.3 l 0,0 0,0 z m -29.300001,8.6 0,-20.1 c 0,-5.9 3.1,-9.1 9.100001,-9.1 l 0,-9.2 c -12.000001,0 -18.300001,6.4 -18.300001,18.3 l 0,20.1 9.2,0 0,0 z m -14.3,0 0,-48.9 -9.3,0 0,14.4 c -2.6,-2.5 -6.1,-4 -10.5,-4 -10.6,0 -18.7,8.8 -18.7,19.6 0,10.9 8.1,19.6 18.7,19.6 4.4,0 7.9,-1.5 10.5,-4 l 0,3.2 9.3,0 0,0.1 z m -18.7,-8.2 c -5.7,0 -10.3,-4.8 -10.3,-10.7 0,-5.8 4.6,-10.7 10.3,-10.7 3.8,0 7.4,1.9 9.2,5 0.1,0.2 0.3,0.5 0.3,0.9 l 0,9.5 c 0,0.2 -0.1,0.6 -0.2,0.7 -1.8,3.3 -5.4,5.3 -9.3,5.3 l 0,0 0,0 z m -23.6,8.2 0,-20.3 c 0,-10 -7.8,-18 -17.7,-18 -10.0000003,0 -17.70000031,8 -17.70000031,18 l 0,20.3 9.20000001,0 0,-20.3 c 0,-4.9 3.5000003,-8.7 8.4000003,-8.7 4.9,0 8.4,3.8 8.4,8.7 l 0,20.3 9.4,0 0,0 z m -40.4000003,0 0,-37.6 -9.2999997,0 0,3.2 c -2.6,-2.5 -6.1,-3.9 -10.5,-3.9 -10.6,0 -18.7,8.6 -18.7,19.5 0,10.9 8.1,19.6 18.7,19.6 4.4,0 7.9,-1.5 10.5,-4 l 0,3.2 9.2999997,0 0,0 z m -18.6999997,-8.2 c -5.7,0 -10.3,-4.8 -10.3,-10.7 0,-5.8 4.6,-10.7 10.3,-10.7 3.8,0 7.6,1.8 9.2,5 0.1,0.2 0.3,0.5 0.3,0.9 l 0,9.5 c 0,0.2 -0.1,0.6 -0.2,0.7 -1.8,3.3 -5.4,5.3 -9.3,5.3 l 0,0 0,0 z"
         id="path11"
         inkscape:connector-curvature="0"
         style="fill:#75b857" />
      <path
         class="st1"
         d="m -25.678571,959.55802 0,-6.7 -0.8,0 c -5.2,0 -8.9,-3.1 -8.9,-8.3 l 0,-16.8 9.4,0 0,-6.2 -9.4,0 0,-11.3 -6.8,0 0,34.3 c 0,9.5 6.1,15 15.6,15 l 0.9,0 0,0 z m 11.5,-49.3 -6.7,0 0,48.9 6.7,0 0,-25 c 1.8,-3.9 5.7999997,-6.7 10.5999997,-6.7 5.5,0 9.8,4.3 9.8,9.8 l 0,21.8 6.7000003,0 0,-22.3 c 0,-8.9 -6.8000003,-16.1 -15.2000003,-16.1 -4.7,0 -8.8999997,1.7 -11.9999997,5 l 0.1,-15.4 0,0 z m 41.1,48.8 0,-37.6 -6.8,0 0,37.6 6.8,0 0,0 z m -3.4,-41.6 c 2.3,0 4.1,-1.8 4.1,-4.1 0,-2.3 -1.8,-4.2 -4.1,-4.2 -2.3,0 -4.1,1.9 -4.1,4.2 0.1,2.3 1.9,4.1 4.1,4.1 l 0,0 0,0 z m 45.4,41.6 0,-20.6 c 0,-10.1 -7.8,-17.7 -17.7,-17.7 -9.8,0 -17.6,7.6 -17.6,17.7 l 0,20.6 6.8,0 0,-20.6 c 0,-6.4 4.7,-10.9 10.9,-10.9 6.2,0 10.9,4.5 10.9,10.9 l 0,20.6 6.7,0 0,0 z m 24,-5.7 c -7.1,0 -12.8,-5.8 -12.8,-13 0,-7.1 5.7,-13 12.8,-13 4.5,0 8.800001,2.1 10.900001,5.8 0.1,0.2 0.3,0.6 0.3,1.1 l 0,12.1 c 0,0.5 -0.2,0.9 -0.3,1.1 -2.3,3.5 -6.400001,5.9 -10.900001,5.9 l 0,0 0,0 z m -15.6,19 c 6.4,3.4 10,4.5 16,4.3 10.600001,-0.3 17.700001,-7.4 17.700001,-17.1 l 0,-38.1 -6.8,0 0,4 c -3,-2.9 -7.600001,-4 -12.200001,-4 -10.3,0 -18.4,8.4 -18.4,18.8 0,10.5 8,18.9 18.4,18.9 4.6,0 9.200001,-1.1 12.200001,-4 l 0,4.4 c 0,5.9 -4.400001,10.1 -11.600001,10.5 -4.3,0.2 -7.5,-1 -12.2,-3.6 l -3.1,5.9 z m 62.500001,-49 c -3.2,-1.7 -7.1,-2.6 -10.9,-2.6 -7,0 -13.3,4.9 -13.3,11.7 0,6.1 5,8.8 10.6,9.9 3.9,0.8 8.7,2.4 8.7,5.9 0,3.3 -3.3,5.7 -7.4,5.7 -3.3,0 -6.8,-1.1 -9.7,-2.3 l -1.2,5.9 c 3.2,1.3 7.4,2.3 11,2.3 7.9,0 13.6,-5.1 13.6,-11.9 0,-6.1 -4.7,-9.1 -10.6,-10.3 -3.2,-0.6 -8.5,-1.8 -8.5,-5.4 0,-3 3.2,-5.9 6.7,-5.9 3.2,0 6.5,0.9 9.2,2.4 l 1.8,-5.4 0,0 z"
         id="path13"
         inkscape:connector-curvature="0"
         style="fill:#666666" />
    </g>
  </g>
</svg>
