<svg xmlns="http://www.w3.org/2000/svg" viewBox="0 0 96 96"><g id="backgroup-white"><rect x="0.01" width="96" height="96" style="fill:#fff"/></g><g id="os_boot2qt"><g id="g4145"><path id="path6" d="M15.38,14.93H93V68.46Q86.76,74.73,80.47,81H3V27.28C7.12,23.14,11.26,19,15.38,14.93Z" style="fill:#41cd52"/><path id="path8" d="M26.85,28.82c2.95-1.95,6.59-2.44,10.06-2.41,3.3,0,6.76.62,9.5,2.59a12.33,12.33,0,0,1,4.13,5.78,33.14,33.14,0,0,1,1.85,11.51A35,35,0,0,1,50.92,58a13,13,0,0,1-4.7,6.36c1.57,2.55,3.17,5.07,4.74,7.62l-5.91,2.73c-1.69-2.77-3.36-5.55-5-8.32a25.71,25.71,0,0,1-6.9.09,14.08,14.08,0,0,1-7.67-3A12.34,12.34,0,0,1,22.08,58a34.61,34.61,0,0,1-1.51-10.57A37.53,37.53,0,0,1,22,36C22.85,33.22,24.34,30.45,26.85,28.82Z" style="fill:#fff"/><path id="path10" d="M60.31,28.7H66.5c0,2.73,0,5.46,0,8.19h7.92l-.15,5.32H66.37c0,4.48,0,9,0,13.43a9.19,9.19,0,0,0,.56,3.65,2.48,2.48,0,0,0,2.32,1.13c1.63,0,3.25-.1,4.88-.13.1,1.63.19,3.26.29,4.89-3.24.54-6.64,1.19-9.85.18a4.81,4.81,0,0,1-3.16-2.64,18.82,18.82,0,0,1-1.11-7.26c0-4.42,0-8.83,0-13.25H56c0-1.77,0-3.54,0-5.32H60.3C60.31,34.16,60.3,31.43,60.31,28.7Z" style="fill:#fff"/><path id="path12" d="M34.28,32a12,12,0,0,1,6,.57,6.56,6.56,0,0,1,3.54,3.31,21.45,21.45,0,0,1,1.66,7.29,48.75,48.75,0,0,1-.26,10,11.09,11.09,0,0,1-2.11,5.58,7.87,7.87,0,0,1-5.42,2.37,11.53,11.53,0,0,1-6.22-1,6.05,6.05,0,0,1-2.6-2.65,15.56,15.56,0,0,1-1.29-4.33,37.33,37.33,0,0,1,.09-14.25A10.54,10.54,0,0,1,30,34,7.31,7.31,0,0,1,34.28,32Z" style="fill:#41cd52"/></g></g></svg>