<svg xmlns="http://www.w3.org/2000/svg" viewBox="0 0 96 96"><g id="backgroup-white"><rect x="0.01" width="96" height="96" style="fill:#fff"/></g><g id="os_rescue"><g id="g4154"><path id="path11" d="M86.06,15.28H10a7,7,0,0,0-7,7V74.65a7,7,0,0,0,7,6.95h76.1a7,7,0,0,0,7-6.95V22.23A7,7,0,0,0,86.06,15.28ZM48,67.9A19.46,19.46,0,1,1,67.47,48.44,19.46,19.46,0,0,1,48,67.9Z" style="fill:#007f00;fill-rule:evenodd"/><polygon id="polygon13" points="43.84 59.45 52.18 59.45 52.18 52.61 59.02 52.61 59.02 44.27 52.18 44.27 52.18 37.43 43.84 37.43 43.84 44.27 37 44.27 37 52.61 43.84 52.61 43.84 59.45" style="fill:#007f00;fill-rule:evenodd"/></g></g></svg>