<?xml version="1.0" encoding="UTF-8" standalone="no"?>
<!-- Created with Inkscape (http://www.inkscape.org/) -->

<svg
   xmlns:dc="http://purl.org/dc/elements/1.1/"
   xmlns:cc="http://creativecommons.org/ns#"
   xmlns:rdf="http://www.w3.org/1999/02/22-rdf-syntax-ns#"
   xmlns:svg="http://www.w3.org/2000/svg"
   xmlns="http://www.w3.org/2000/svg"
   xmlns:sodipodi="http://sodipodi.sourceforge.net/DTD/sodipodi-0.dtd"
   xmlns:inkscape="http://www.inkscape.org/namespaces/inkscape"
   width="50"
   height="50"
   viewBox="0 0 49.999997 49.999997"
   id="svg4167"
   version="1.1"
   inkscape:version="0.91 r13725"
   sodipodi:docname="os_ubuntu.svg">
  <defs
     id="defs4169" />
  <sodipodi:namedview
     id="base"
     pagecolor="#ffffff"
     bordercolor="#666666"
     borderopacity="1.0"
     inkscape:pageopacity="0.0"
     inkscape:pageshadow="2"
     inkscape:zoom="5.6"
     inkscape:cx="56.242669"
     inkscape:cy="18.076492"
     inkscape:document-units="px"
     inkscape:current-layer="layer1"
     showgrid="false"
     units="px"
     inkscape:window-width="1855"
     inkscape:window-height="1056"
     inkscape:window-x="65"
     inkscape:window-y="24"
     inkscape:window-maximized="1" />
  <metadata
     id="metadata4172">
    <rdf:RDF>
      <cc:Work
         rdf:about="">
        <dc:format>image/svg+xml</dc:format>
        <dc:type
           rdf:resource="http://purl.org/dc/dcmitype/StillImage" />
        <dc:title></dc:title>
      </cc:Work>
    </rdf:RDF>
  </metadata>
  <g
     inkscape:label="Layer 1"
     inkscape:groupmode="layer"
     id="layer1"
     transform="translate(0,-1002.3622)">
    <g
       id="g4733"
       transform="matrix(0.20276254,0,0,0.20276254,11.965264,814.63431)">
      <path
         id="XMLID_1449_"
         class="st0"
         d="m 64.023858,1160.152 c -61.699999,-0.4 -111.299993,-50.3 -110.699993,-111.3 0.6,-62.69995 50.199994,-111.49995 112.999993,-110.69995 60.999992,0.9 110.299982,50.8 108.899982,113.39995 -1.2,61.6 -51.49999,108.9 -111.199982,108.6 z m -24.200003,-75.4 c -22.599998,-16 -26.399997,-52 -0.2,-71.3 -3.6,-6 -7.199999,-12.2 -10.999999,-18.39995 -13.299998,9.29995 -22.299997,21.09995 -26.499997,36.29995 -0.3,0.9 0.5,2.6 1.4,3.5 7.699999,8.4 7.799999,20.2 0.2,28.3 -1.7,1.8 -1.8,3.3 -1.2,5.4 3.5,10.5 8.999999,19.7 16.999998,27.4 2.7,2.6 5.699999,4.8 8.999999,7.5 3.9,-6.5 7.499999,-12.6 11.299999,-18.7 z m -4.2,21.9 c 0.3,0.5 0.5,0.6 0.6,0.8 14.199998,6.9 28.900003,8.3 44.099993,4.5 0.8,-0.2 1.7,-1.4 2,-2.1 3.8,-11.7 13.4,-17.5 25.300002,-14.9 1.1,0.2 2.7,0 3.5,-0.8 10.4,-10.7 16.4,-23.3 17.9,-38.3 0.3,-2.3 -0.6,-3 -2.7,-3 -5.3,0 -10.4,0.2 -15.7,-0.2 -2.4,-0.2 -3.3,0.8 -3.6,3.2 -2.9,20 -20.500002,35.5 -40.699992,36.2 -6.9,0.2 -13.600005,-1.2 -20.200004,-3.9 -3.8,6.3 -7.199999,12.5 -10.499999,18.5 z m 10.199999,-96.5 c 1.5,-0.6 2.4,-0.9 3.5,-1.4 24.000004,-8.89995 50.499994,5 56.599996,29.7 0.6,2.3 0.3,5.6 1.8,6.6 1.7,1.2 4.8,0.3 7.2,0.3 4.5,0 9,0 13.6,0 0.2,-1.1 0.3,-1.4 0.3,-1.7 -1.1,-15.4 -7.2,-28.5 -17.8,-39.6 -0.6,-0.8 -2.4,-0.9 -3.5,-0.8 -11.600002,2.6 -21.700002,-3.29995 -25.300002,-14.49995 -0.3,-1.2 -1.7,-2.4 -2.9,-2.7 -7.99999,-2.1 -16.09999,-2.4 -24.29999,-1.2 -6.800004,1.1 -13.300004,2.9 -19.700003,6.3 3.6,6.5 6.999999,12.69995 10.499999,18.99995 z m -57.199993,54.1 c 8.599999,0 15.199998,-6.5 15.199998,-14.9 0,-8.6 -6.599999,-15.5 -15.099998,-15.5 -8.099999,0 -15.199998,6.9 -15.199998,15.2 -0.2,8.4 6.599999,15.2 15.099998,15.2 z M 102.02385,998.85205 c 8.4,0 15.2,-6.6 15.4,-14.9 0.2,-8.1 -6.8,-15.2 -15.1,-15.4 -8.400002,0 -15.200002,6.6 -15.200002,15.1 -0.2,8.3 6.4,15.2 14.900002,15.2 z m 0,130.89995 c 8.4,0 15.5,-6.8 15.4,-15.2 -0.2,-8.1 -7.1,-15.2 -15.2,-15.1 -8.300002,0 -15.100002,6.8 -15.100002,15.2 -0.2,8.3 6.4,15.1 14.900002,15.1 z"
         inkscape:connector-curvature="0"
         style="fill:#b1492b" />
      <path
         id="XMLID_1447_"
         class="st1"
         d="m 39.823855,1084.752 c -3.6,6.2 -7.199999,12.2 -11.099999,18.7 -3.3,-2.7 -6.299999,-4.8 -8.999999,-7.5 -7.999999,-7.7 -13.699998,-16.9 -16.999998,-27.4 -0.8,-2.1 -0.6,-3.6 1.2,-5.4 7.699999,-8.1 7.499999,-19.9 -0.2,-28.3 -0.8,-0.9 -1.7,-2.6 -1.4,-3.5 4.2,-15.2 13.099999,-27 26.499997,-36.29995 3.8,6.19995 7.399999,12.39995 10.999999,18.39995 -26.399997,19.3 -22.599998,55.3 0,71.3 z"
         inkscape:connector-curvature="0"
         style="fill:#ffffff" />
      <path
         id="XMLID_1445_"
         class="st1"
         d="m 35.623855,1106.652 c 3.3,-6 6.799999,-12.2 10.399999,-18.5 6.599999,2.7 13.300004,4.2 20.200004,3.9 20.19999,-0.6 37.799992,-16.1 40.699992,-36.2 0.3,-2.6 1.2,-3.3 3.6,-3.2 5.3,0.2 10.4,0.2 15.7,0.2 2.1,0 2.9,0.8 2.7,3 -1.5,14.9 -7.5,27.6 -17.9,38.3 -0.8,0.8 -2.4,0.9 -3.5,0.8 -11.900002,-2.6 -21.500002,3.2 -25.300002,14.9 -0.3,0.9 -1.2,2 -2,2.1 -15.19999,3.8 -29.999995,2.4 -44.099993,-4.5 -0.1,-0.2 -0.2,-0.5 -0.5,-0.8 z"
         inkscape:connector-curvature="0"
         style="fill:#ffffff" />
      <path
         id="XMLID_1415_"
         class="st1"
         d="m 45.823854,1010.152 c -3.6,-6.3 -6.899999,-12.49995 -10.499999,-18.79995 6.299999,-3.5 12.999999,-5.3 19.700003,-6.3 8.1,-1.2 16.3,-0.9 24.29999,1.2 1.2,0.3 2.6,1.7 2.9,2.7 3.6,11.09995 13.7,16.99995 25.300002,14.49995 1.1,-0.3 2.7,0 3.5,0.8 10.5,11.1 16.7,24.3 17.8,39.6 0,0.3 -0.2,0.6 -0.3,1.7 -4.4,0 -8.9,0 -13.6,0 -2.4,0 -5.6,0.9 -7.2,-0.3 -1.5,-1.1 -1.2,-4.4 -1.8,-6.6 -6.200002,-24.6 -32.699992,-38.4 -56.599996,-29.7 -0.9,0.3 -2,0.6 -3.5,1.2 z"
         inkscape:connector-curvature="0"
         style="fill:#ffffff" />
      <path
         id="XMLID_1414_"
         class="st1"
         d="m -11.376139,1064.252 c -8.399999,0 -15.199998,-6.8 -15.099998,-15.2 0,-8.3 7.099999,-15.2 15.199998,-15.2 8.399999,0 15.199998,6.8 15.099998,15.5 0,8.4 -6.699999,14.9 -15.199998,14.9 z"
         inkscape:connector-curvature="0"
         style="fill:#ffffff" />
      <path
         id="XMLID_1413_"
         class="st1"
         d="m 102.02385,998.85205 c -8.400002,0 -15.100002,-6.8 -14.900002,-15.4 0.2,-8.4 6.8,-15.1 15.200002,-15.1 8.3,0 15.2,7.2 15.1,15.4 -0.2,8.5 -7,15.1 -15.4,15.1 z"
         inkscape:connector-curvature="0"
         style="fill:#ffffff" />
      <path
         id="XMLID_1412_"
         class="st1"
         d="m 102.02385,1129.752 c -8.400002,0 -15.100002,-6.8 -14.900002,-15.2 0,-8.4 6.8,-15.2 15.100002,-15.2 8.1,0 15.2,6.9 15.2,15.1 0.1,8.5 -7,15.3 -15.4,15.3 z"
         inkscape:connector-curvature="0"
         style="fill:#ffffff" />
    </g>
  </g>
</svg>
