<?xml version="1.0" encoding="UTF-8" standalone="no"?>
<!-- Created with Inkscape (http://www.inkscape.org/) -->

<svg
   xmlns:dc="http://purl.org/dc/elements/1.1/"
   xmlns:cc="http://creativecommons.org/ns#"
   xmlns:rdf="http://www.w3.org/1999/02/22-rdf-syntax-ns#"
   xmlns:svg="http://www.w3.org/2000/svg"
   xmlns="http://www.w3.org/2000/svg"
   xmlns:sodipodi="http://sodipodi.sourceforge.net/DTD/sodipodi-0.dtd"
   xmlns:inkscape="http://www.inkscape.org/namespaces/inkscape"
   width="50"
   height="50"
   viewBox="0 0 50.000001 50.000001"
   id="svg4226"
   version="1.1"
   inkscape:version="0.91 r13725"
   sodipodi:docname="os_yocto (copy).svg">
  <defs
     id="defs4228" />
  <sodipodi:namedview
     id="base"
     pagecolor="#ffffff"
     bordercolor="#666666"
     borderopacity="1.0"
     inkscape:pageopacity="0.0"
     inkscape:pageshadow="2"
     inkscape:zoom="15.839192"
     inkscape:cx="36.88163"
     inkscape:cy="16.813847"
     inkscape:document-units="px"
     inkscape:current-layer="layer1"
     showgrid="false"
     units="px"
     inkscape:window-width="1855"
     inkscape:window-height="1056"
     inkscape:window-x="65"
     inkscape:window-y="24"
     inkscape:window-maximized="1" />
  <metadata
     id="metadata4231">
    <rdf:RDF>
      <cc:Work
         rdf:about="">
        <dc:format>image/svg+xml</dc:format>
        <dc:type
           rdf:resource="http://purl.org/dc/dcmitype/StillImage" />
        <dc:title></dc:title>
      </cc:Work>
    </rdf:RDF>
  </metadata>
  <g
     inkscape:label="Layer 1"
     inkscape:groupmode="layer"
     id="layer1"
     transform="translate(0,-1002.3622)">
    <g
       id="g4802"
       transform="matrix(0.18101368,0,0,0.18101368,-3.0209177,864.14901)">
      <path
         class="st0"
         d="m 76.3,870.9622 -6.9,-3.9 -14,28.3 -14.9,-28.3 -7,3.9 17.7,33.3 c -0.1,0.3 -0.5,1.2 -1.2,2.6 -0.7,1.4 -1.4,2.8 -2.2,4.1 -1.3,2.4 -2.7,4.3 -4,5.8 -1.4,1.6 -2.8,2.8 -4.2,3.8 -1.4,0.9 -2.9,1.7 -4.5,2.2 -1.5,0.5 -3,0.9 -4.6,1.2 l 3.2,6.7 c 1,-0.1 2.3,-0.4 4,-0.9 1.8,-0.4 3.7,-1.3 5.7,-2.5 2.1,-1.2 4.2,-3 6.3,-5.3 2.2,-2.3 4.2,-5.4 6.1,-9.2 l 20.5,-41.8"
         id="path11"
         inkscape:connector-curvature="0"
         style="fill:#243446" />
      <path
         class="st0"
         d="m 123,891.6622 c 0,-3.2 -0.6,-6.3 -1.8,-9.1 -1.1,-2.8 -2.7,-5.2 -4.8,-7.3 -2.1,-2.1 -4.5,-3.7 -7.3,-4.8 -2.8,-1.2 -5.8,-1.8 -9.1,-1.8 -3.2,0 -6.3,0.6 -9.1,1.8 -2.8,1.1 -5.3,2.7 -7.3,4.8 -2.1,2.1 -3.7,4.5 -4.9,7.3 -1.2,2.8 -1.8,5.8 -1.8,9.1 0,3.2 0.6,6.3 1.8,9.1 1.2,2.8 2.8,5.2 4.9,7.2 2.1,2.1 4.5,3.7 7.3,4.9 2.8,1.1 5.8,1.7 9.1,1.7 3.2,0 6.3,-0.6 9.1,-1.7 2.8,-1.2 5.2,-2.8 7.3,-4.9 2.1,-2.1 3.7,-4.5 4.8,-7.2 1.2,-2.8 1.8,-5.9 1.8,-9.1 m -8.8,0 c 0,2.2 -0.4,4.2 -1.1,6.1 -0.8,1.9 -1.8,3.5 -3.1,4.9 -1.3,1.3 -2.8,2.4 -4.5,3.2 -1.7,0.7 -3.5,1.1 -5.5,1.1 -2,0 -3.9,-0.4 -5.6,-1.1 -1.8,-0.8 -3.3,-1.9 -4.6,-3.2 -1.2,-1.4 -2.2,-3 -3,-4.9 -0.8,-1.9 -1.1,-3.9 -1.1,-6.1 0,-2.2 0.4,-4.2 1.1,-6.1 0.8,-1.9 1.8,-3.5 3,-4.9 1.3,-1.4 2.8,-2.4 4.6,-3.2 1.7,-0.8 3.6,-1.2 5.6,-1.2 2,0 3.8,0.4 5.5,1.2 1.8,0.7 3.2,1.8 4.5,3.2 1.3,1.4 2.3,3 3.1,4.9 0.8,1.9 1.1,3.9 1.1,6.1"
         id="path13"
         inkscape:connector-curvature="0"
         style="fill:#243446" />
      <path
         class="st0"
         d="m 246.3,891.6622 c 0,-3.2 -0.6,-6.3 -1.8,-9.1 -1.1,-2.8 -2.7,-5.2 -4.8,-7.3 -2.1,-2.1 -4.5,-3.7 -7.3,-4.8 -2.8,-1.2 -5.8,-1.8 -9.1,-1.8 -3.3,0 -6.3,0.6 -9.1,1.8 -2.8,1.1 -5.3,2.7 -7.3,4.8 -2.1,2.1 -3.7,4.5 -4.9,7.3 -1.2,2.8 -1.8,5.8 -1.8,9.1 0,3.2 0.6,6.3 1.8,9.1 1.2,2.8 2.8,5.2 4.9,7.2 2.1,2.1 4.5,3.7 7.3,4.9 2.8,1.1 5.8,1.7 9.1,1.7 3.2,0 6.3,-0.6 9.1,-1.7 2.8,-1.2 5.2,-2.8 7.3,-4.9 2.1,-2.1 3.7,-4.5 4.8,-7.2 1.2,-2.8 1.8,-5.9 1.8,-9.1 m -8.7,0 c 0,2.2 -0.4,4.2 -1.1,6.1 -0.8,1.9 -1.8,3.5 -3.1,4.9 -1.2,1.3 -2.7,2.4 -4.5,3.2 -1.7,0.7 -3.5,1.1 -5.5,1.1 -2,0 -3.9,-0.4 -5.6,-1.1 -1.7,-0.8 -3.3,-1.9 -4.6,-3.2 -1.2,-1.4 -2.2,-3 -3,-4.9 -0.8,-1.9 -1.1,-3.9 -1.1,-6.1 0,-2.2 0.4,-4.2 1.1,-6.1 0.8,-1.9 1.8,-3.5 3,-4.9 1.3,-1.4 2.8,-2.4 4.6,-3.2 1.8,-0.8 3.6,-1.2 5.6,-1.2 2,0 3.8,0.4 5.5,1.2 1.8,0.7 3.2,1.8 4.5,3.2 1.3,1.4 2.3,3 3.1,4.9 0.7,1.9 1.1,3.9 1.1,6.1"
         id="path15"
         inkscape:connector-curvature="0"
         style="fill:#243446" />
      <path
         class="st1"
         d="m 279.1,891.5622 c 0,2.6 -2.1,4.8 -4.8,4.8 -2.6,0 -4.8,-2.1 -4.8,-4.8 0,-2.6 2.1,-4.8 4.8,-4.8 2.7,0.1 4.8,2.2 4.8,4.8"
         id="path17"
         inkscape:connector-curvature="0"
         style="fill:#0095d8" />
      <path
         class="st0"
         d="m 184.5,854.4622 -8.4,4.7 0,10.3 -22.6,0 c -16.3,0 -26.1,7.9 -26.1,22.4 0,22.5 23.4,26.7 40.1,18.7 l -3.5,-6.8 c -13.2,5.8 -27.8,3.3 -27.8,-12 0,-9.9 5.2,-15.3 17.1,-15.3 l 22.8,0 0,27.3 c 0,12.1 13.8,12.3 22.4,7.4 l -3.3,-6.5 c -5.5,2.8 -10.8,3.2 -10.8,-2.2 l 0,-26 11.4,0 0,-7 -11.4,0 0,-15 c 0,0 0.1,0 0.1,0 z"
         id="path19"
         inkscape:connector-curvature="0"
         style="fill:#243446" />
      <path
         class="st0"
         d="m 87.2,932.8622 0,15.8 3,0 0,-6.7 c 5.4,0.3 7.4,-1.5 7.4,-4.8 0,-3 -2.7,-4.3 -5.2,-4.3 l -5.2,0 z m 3,2.5 2.1,0 c 1.1,0 2.1,0.7 2.1,1.8 0,1.8 -2,2.1 -2,2.1 l -2.2,0 0,-3.9 z"
         id="path21"
         inkscape:connector-curvature="0"
         style="fill:#243446" />
      <path
         class="st0"
         d="m 147.9,940.7622 c 0,-1.1 -0.2,-2.2 -0.7,-3.2 -0.4,-1 -1,-1.8 -1.8,-2.6 -0.8,-0.7 -1.6,-1.3 -2.7,-1.7 -1,-0.4 -2.1,-0.6 -3.3,-0.6 -1.2,0 -2.3,0.2 -3.3,0.6 -1,0.4 -1.9,1 -2.7,1.7 -0.8,0.7 -1.4,1.6 -1.8,2.6 -0.4,1 -0.6,2 -0.6,3.2 0,1.1 0.2,2.2 0.6,3.2 0.5,1 1,1.8 1.8,2.6 0.8,0.7 1.6,1.3 2.7,1.7 1,0.4 2.2,0.6 3.3,0.6 1.2,0 2.3,-0.2 3.3,-0.6 1,-0.4 1.9,-1 2.7,-1.7 0.8,-0.7 1.4,-1.6 1.8,-2.6 0.4,-1 0.7,-2.1 0.7,-3.2 m -3.1,0 c 0,0.8 -0.1,1.5 -0.4,2.2 -0.3,0.6 -0.6,1.2 -1.1,1.7 -0.5,0.5 -1.1,0.9 -1.7,1.2 -0.6,0.3 -1.4,0.4 -2.1,0.4 -0.8,0 -1.5,-0.1 -2.1,-0.4 -0.7,-0.3 -1.2,-0.7 -1.7,-1.2 -0.5,-0.5 -0.8,-1.1 -1.1,-1.7 -0.3,-0.7 -0.4,-1.4 -0.4,-2.2 0,-0.8 0.1,-1.5 0.4,-2.1 0.3,-0.7 0.7,-1.2 1.1,-1.7 0.5,-0.5 1.1,-0.9 1.7,-1.1 0.6,-0.3 1.4,-0.4 2.1,-0.4 0.8,0 1.5,0.1 2.1,0.4 0.7,0.3 1.2,0.6 1.7,1.1 0.5,0.5 0.9,1.1 1.1,1.7 0.3,0.6 0.4,1.3 0.4,2.1"
         id="path23"
         inkscape:connector-curvature="0"
         style="fill:#243446" />
      <path
         class="st0"
         d="m 160.2,932.8622 0,12 c 0,0.5 -0.4,1 -0.9,1 l -0.9,0 0.1,2.9 0.9,0 c 2.9,0 4,-2.7 4,-4 l 0,-11.9 -3.2,0 z"
         id="path25"
         inkscape:connector-curvature="0"
         style="fill:#243446" />
      <polygon
         class="st0"
         points="178.8,189.5 184.7,189.5 184.7,187 178.8,187 178.8,183 185.8,183 185.8,180.5 175.8,180.5 175.8,196.2 185.9,196.2 185.8,193.6 178.8,193.6 "
         id="polygon27"
         style="fill:#243446"
         transform="translate(0,752.3622)" />
      <path
         class="st0"
         d="m 210.3,934.0622 c -7.2,-3.7 -14.6,-0.2 -14.6,6.6 0,7.5 8.3,10 14.7,6.5 l -1,-2.6 c -6.6,3.4 -10.6,0.2 -10.6,-3.9 0,-5.2 5.1,-6.9 10.2,-4.1 l 1.3,-2.5 z"
         id="path29"
         inkscape:connector-curvature="0"
         style="fill:#243446" />
      <polygon
         class="st0"
         points="225.1,183 225.1,196.2 228.1,196.2 228.1,183 233.2,183 233.2,180.5 220.4,180.5 220.3,183 "
         id="polygon31"
         style="fill:#243446"
         transform="translate(0,752.3622)" />
      <path
         class="st0"
         d="m 109.5,932.8622 0,15.8 3,0 0,-6.8 2,0 3.5,6.8 3.4,0 -4.2,-7.6 c 1.6,-0.7 2.5,-2 2.5,-3.9 0,-3.1 -2.7,-4.3 -5.7,-4.3 l -4.5,0 z m 3.1,2.5 2.1,0 c 1.1,0 2.1,0.7 2.1,1.8 0,1.8 -2,2.1 -2,2.1 l -2.2,0 0,-3.9 z"
         id="path33"
         inkscape:connector-curvature="0"
         style="fill:#243446" />
    </g>
  </g>
</svg>
