<?xml version="1.0" encoding="UTF-8" standalone="no"?>
<!-- Created with Inkscape (http://www.inkscape.org/) -->

<svg
   xmlns:dc="http://purl.org/dc/elements/1.1/"
   xmlns:cc="http://creativecommons.org/ns#"
   xmlns:rdf="http://www.w3.org/1999/02/22-rdf-syntax-ns#"
   xmlns:svg="http://www.w3.org/2000/svg"
   xmlns="http://www.w3.org/2000/svg"
   xmlns:sodipodi="http://sodipodi.sourceforge.net/DTD/sodipodi-0.dtd"
   xmlns:inkscape="http://www.inkscape.org/namespaces/inkscape"
   width="50"
   height="50"
   viewBox="0 0 50.000001 50.000001"
   id="svg4270"
   version="1.1"
   inkscape:version="0.91 r13725"
   sodipodi:docname="storage_sd.svg">
  <defs
     id="defs4272" />
  <sodipodi:namedview
     id="base"
     pagecolor="#ffffff"
     bordercolor="#666666"
     borderopacity="1.0"
     inkscape:pageopacity="0.0"
     inkscape:pageshadow="2"
     inkscape:zoom="7.9195959"
     inkscape:cx="41.440246"
     inkscape:cy="30.116182"
     inkscape:document-units="px"
     inkscape:current-layer="layer1"
     showgrid="false"
     units="px"
     inkscape:window-width="1855"
     inkscape:window-height="1056"
     inkscape:window-x="65"
     inkscape:window-y="24"
     inkscape:window-maximized="1" />
  <metadata
     id="metadata4275">
    <rdf:RDF>
      <cc:Work
         rdf:about="">
        <dc:format>image/svg+xml</dc:format>
        <dc:type
           rdf:resource="http://purl.org/dc/dcmitype/StillImage" />
        <dc:title></dc:title>
      </cc:Work>
    </rdf:RDF>
  </metadata>
  <g
     inkscape:label="Layer 1"
     inkscape:groupmode="layer"
     id="layer1"
     transform="translate(0,-1002.3622)">
    <g
       id="g4852"
       transform="translate(710.71429,872.14285)">
      <path
         class="st0"
         d="m -698.08031,176.53464 0,-10.16411 0,-3.86496 c 0,-0.35305 -0.14865,-0.68752 -0.42738,-0.9105 l -3.53049,-3.04737 c -0.26014,-0.22298 -0.42738,-0.55745 -0.42738,-0.9105 l 0,-2.58283 c 0,-0.66894 0.53887,-1.2078 1.20781,-1.2078 0.66893,0 1.2078,-0.53887 1.2078,-1.2078 l 0,-2.15546 c 0,-0.37163 -0.16724,-0.72468 -0.46454,-0.94766 l -1.48653,-1.15206 c -0.2973,-0.22298 -0.46454,-0.57603 -0.46454,-0.94766 l 0,-11.52056 c 0,-1.74666 1.43078,-3.19602 3.19603,-3.19602 l 27.11048,0 c 1.76525,0 3.19603,1.43078 3.19603,3.19602 l 0,30.43658 0,10.21985 c 0,1.30071 -1.20781,1.13347 -1.20781,1.13347 l -26.70168,0 c 0,0.0372 -1.2078,0.0929 -1.2078,-1.17063 z"
         id="path11"
         inkscape:connector-curvature="0"
         style="fill:#40423f" />
      <g
         id="g4233"
         transform="matrix(0.18581548,0,0,0.18581548,-711.99789,126.95907)">
        <path
           class="st1"
           d="m 131.5,120.4 c 0,-5.9 -4.8,-10.7 -10.7,-10.7 -2.7,0 -5.2,1 -7.1,2.7 -1.9,-1.7 -4.4,-2.7 -7.1,-2.7 -5.9,0 -10.7,4.8 -10.7,10.7 0,0 0,0 0,0 l 0,30.8 7.3,0 0,-30.8 c 0,-1.9 1.6,-3.5 3.5,-3.5 1.9,0 3.5,1.6 3.5,3.5 l 0,30.8 0,0 7.2,0 0,0 0,-30.8 c 0,-1.9 1.6,-3.5 3.5,-3.5 1.9,0 3.5,1.6 3.5,3.5 l 0,30.8 7.3,0 -0.2,-30.8 0,0 0,0 z"
           id="path15"
           inkscape:connector-curvature="0"
           style="clip-rule:evenodd;fill:#ffffff;fill-rule:evenodd" />
        <path
           class="st1"
           d="m 150.1,152.5 c 0,0.9 -1.4,1 -5.4,0.9 -6.2,-0.1 -11.3,-0.7 -11.3,-0.7 l -2.4,6.7 c 0,0 5.9,0.4 12.1,0.4 8.9,0 16.3,0.3 17.6,-5.6 1,-4.2 -2.7,-6.1 -7,-7.4 -2.9,-0.9 -8.2,-2.1 -8.2,-3.1 0,-1.3 3.6,-1.3 6.1,-1.4 2.7,-0.1 13.2,-0.1 13.2,-0.1 l 1.3,-3.8 c 0,0 -7.5,-0.2 -15,0.2 -10.8,0.5 -12.8,2.9 -13,5.2 -0.3,3 3.7,5 6.1,6 2.2,0.9 5.9,1.6 5.9,2.7 l 0,0 z"
           id="path17"
           inkscape:connector-curvature="0"
           style="clip-rule:evenodd;fill:#ffffff;fill-rule:evenodd" />
        <path
           class="st1"
           d="m 178.9,145.4 c 0,-0.1 -0.1,-0.2 -0.2,-0.3 l 13,-3.3 c 2.1,1 3.8,2.3 4.7,4 0.8,1.5 0.6,3 -0.3,4.4 -7.4,9.2 -26.8,9.2 -33.8,9.5 l 3,-8.5 0,0 c 1.8,-0.1 4.5,-0.3 6.1,-0.6 1.6,-0.3 3,-0.7 4.2,-1.2 1.2,-0.5 2.1,-1 2.6,-1.6 0.6,-0.6 0.8,-1.2 0.7,-1.8 0.1,-0.3 0,-0.4 0,-0.6 l 0,0 z"
           id="path19"
           inkscape:connector-curvature="0"
           style="clip-rule:evenodd;fill:#ffffff;fill-rule:evenodd" />
        <path
           class="st1"
           d="m 188.9,140.7 c -0.8,-0.3 -1.8,-0.7 -2.6,-0.9 l -9.5,3.8 c 0.3,0.1 0.7,0.4 0.9,0.6 0.1,0 0.1,0.1 0.2,0.1 l 11,-3.6 0,0 z"
           id="path21"
           inkscape:connector-curvature="0"
           style="clip-rule:evenodd;fill:#ffffff;fill-rule:evenodd" />
        <path
           class="st1"
           d="m 181.1,138.9 c -1.6,-0.2 -2.9,-0.3 -3.6,-0.3 -3,-0.1 -4.2,-0.1 -7.6,-0.1 l -1.3,3.8 c 0.8,0 1.2,0 2.6,0.1 1.3,0.1 2.5,0.3 3.5,0.6 l 6.4,-4.1 0,0 z"
           id="path23"
           inkscape:connector-curvature="0"
           style="clip-rule:evenodd;fill:#ffffff;fill-rule:evenodd" />
        <polygon
           class="st1"
           points="197.4,107.7 200.7,107.7 200.7,108.3 200.7,108.3 199.3,108.3 198.7,112.4 198.1,112.4 198.7,108.3 197.3,108.3 "
           id="polygon25"
           style="clip-rule:evenodd;fill:#ffffff;fill-rule:evenodd" />
        <polygon
           class="st1"
           points="202,107.7 202.5,107.7 203.3,110.9 205,107.7 205.6,107.7 205.6,112.4 205.6,112.4 205,112.4 205,108.8 205,108.8 203,112.4 202.2,108.8 202.2,108.8 201,112.4 200.4,112.4 "
           id="polygon27"
           style="clip-rule:evenodd;fill:#ffffff;fill-rule:evenodd" />
        <path
           class="st2"
           d="m 189.4,113.8 c -5.6,0 -10.2,4.5 -10.2,10.2 0,5.6 4.6,10.2 10.2,10.2 5.7,0 10.2,-4.5 10.2,-10.2 0.1,-5.7 -4.5,-10.2 -10.2,-10.2 z m 0,13.7 c -2,0 -3.6,-1.6 -3.6,-3.6 0,-2 1.6,-3.6 3.6,-3.6 2,0 3.6,1.6 3.6,3.6 0,2 -1.6,3.6 -3.6,3.6 z"
           id="path29"
           inkscape:connector-curvature="0"
           style="fill:#ffffff" />
        <path
           class="st2"
           d="m 152.9,133.5 3.4,0 c 2.1,0 2.9,-1.4 2.9,-3.2 0,-1.8 -0.9,-3.2 -3,-3.2 0,0 -2.2,0 -2.8,0 -0.7,0 -2.8,-0.5 -2.8,-3.3 0,-2.4 2,-3.3 2.8,-3.3 0.6,0 3.3,0 3.3,0 1.6,0 2.6,-1.5 2.6,-3.2 0,-1.8 -1.2,-3.1 -2.7,-3.2 -0.6,0 -3.8,0 -3.8,0 -2.8,0 -8.7,3.3 -8.7,9.5 -0.1,6.8 5.9,9.9 8.8,9.9 z"
           id="path31"
           inkscape:connector-curvature="0"
           style="fill:#ffffff" />
        <path
           class="st2"
           d="m 138.4,118.5 c 2,0 3.5,-1.4 3.5,-3.2 0,-1.8 -1.6,-3.2 -3.5,-3.2 -1.9,0 -3.5,1.4 -3.5,3.2 0,1.8 1.5,3.2 3.5,3.2 z"
           id="path33"
           inkscape:connector-curvature="0"
           style="fill:#ffffff" />
        <path
           class="st2"
           d="m 138.4,119.5 c -2.5,0 -3.4,1.1 -3.4,2.5 l 0,11.2 c 0,0.2 0.1,0.3 0.3,0.3 l 6.1,0 c 0.2,0 0.3,-0.2 0.3,-0.3 0,0 0,-10.7 0,-11.1 0.1,-1.5 -0.8,-2.6 -3.3,-2.6 z"
           id="path35"
           inkscape:connector-curvature="0"
           style="fill:#ffffff" />
        <path
           class="st2"
           d="m 161.4,133.4 5.2,0 c 0.2,0 0.3,-0.2 0.3,-0.4 0,0 0,-11 0,-12 0,-1.6 0.9,-2.5 2.4,-2.6 2.6,-0.1 2.4,2.3 2.4,2.3 0,1 1.2,2 2.7,2 1.5,0 2.6,-1.1 2.6,-2 0,-0.4 0,-1.4 0,-1.4 0,-3.6 -3.5,-5.9 -7.7,-5.9 -5.5,0 -8.2,3.7 -8.2,7.4 l 0,12.3 c 0,0.1 0.2,0.3 0.3,0.3 z"
           id="path37"
           inkscape:connector-curvature="0"
           style="fill:#ffffff" />
      </g>
      <polygon
         class="st2"
         points="150.7,253.6 163.7,237.7 137.8,237.7 "
         id="polygon39"
         style="fill:#ffffff"
         transform="matrix(0.18581548,0,0,0.18581548,-711.99789,126.95907)" />
    </g>
  </g>
</svg>
