<?xml version="1.0" encoding="UTF-8" standalone="no"?>
<!-- Created with Inkscape (http://www.inkscape.org/) -->

<svg
   xmlns:dc="http://purl.org/dc/elements/1.1/"
   xmlns:cc="http://creativecommons.org/ns#"
   xmlns:rdf="http://www.w3.org/1999/02/22-rdf-syntax-ns#"
   xmlns:svg="http://www.w3.org/2000/svg"
   xmlns="http://www.w3.org/2000/svg"
   xmlns:xlink="http://www.w3.org/1999/xlink"
   xmlns:sodipodi="http://sodipodi.sourceforge.net/DTD/sodipodi-0.dtd"
   xmlns:inkscape="http://www.inkscape.org/namespaces/inkscape"
   width="50"
   height="50"
   viewBox="0 0 50.000001 50.000001"
   id="svg4259"
   version="1.1"
   inkscape:version="0.91 r13725"
   sodipodi:docname="storage_usb.svg">
  <defs
     id="defs4261">
    <linearGradient
       x1="27.622152"
       y1="11.729075"
       x2="27.622152"
       y2="33.562592"
       id="linearGradient2448"
       xlink:href="#linearGradient4184"
       gradientUnits="userSpaceOnUse"
       gradientTransform="matrix(-1.5364549,-1.5364549,1.5364549,-1.5364549,-901.17428,179.45334)" />
    <linearGradient
       id="linearGradient4184">
      <stop
         id="stop4186"
         style="stop-color:#8c8c8c;stop-opacity:1"
         offset="0" />
      <stop
         id="stop4188"
         style="stop-color:#9f9f9f;stop-opacity:0"
         offset="1" />
    </linearGradient>
    <linearGradient
       x1="16.684771"
       y1="11.777248"
       x2="29.936295"
       y2="46.365616"
       id="linearGradient2451"
       xlink:href="#linearGradient4184"
       gradientUnits="userSpaceOnUse"
       gradientTransform="matrix(2.1728755,0,0,2.1728755,510.33374,-764.11913)" />
    <linearGradient
       x1="31.621063"
       y1="48"
       x2="15"
       y2="10.142864"
       id="linearGradient2455"
       xlink:href="#linearGradient4192"
       gradientUnits="userSpaceOnUse"
       gradientTransform="matrix(2.1728755,-7.4466857e-8,-7.4466857e-8,2.1728755,510.33373,-764.11913)" />
    <linearGradient
       id="linearGradient4192">
      <stop
         id="stop4194"
         style="stop-color:#9f9f9f;stop-opacity:1"
         offset="0" />
      <stop
         id="stop4196"
         style="stop-color:#e7e7e7;stop-opacity:1"
         offset="1" />
    </linearGradient>
    <linearGradient
       x1="18.810532"
       y1="0.52716595"
       x2="27.810532"
       y2="9.5271664"
       id="linearGradient2458"
       xlink:href="#linearGradient4245"
       gradientUnits="userSpaceOnUse"
       gradientTransform="matrix(2.1728755,0,0,2.1728755,510.33374,-764.11913)" />
    <linearGradient
       id="linearGradient4245">
      <stop
         id="stop4247"
         style="stop-color:#7f7f7f;stop-opacity:1"
         offset="0" />
      <stop
         id="stop4249"
         style="stop-color:#9f9f9f;stop-opacity:0"
         offset="1" />
    </linearGradient>
    <linearGradient
       x1="28.989502"
       y1="10.727782"
       x2="17.915873"
       y2="-0.075758651"
       id="linearGradient2462"
       xlink:href="#linearGradient4265"
       gradientUnits="userSpaceOnUse"
       gradientTransform="matrix(2.1728755,-7.4466857e-8,-7.4466857e-8,2.1728755,510.33373,-764.11913)" />
    <linearGradient
       id="linearGradient4265">
      <stop
         id="stop4267"
         style="stop-color:#7f7f7f;stop-opacity:1"
         offset="0" />
      <stop
         id="stop4269"
         style="stop-color:#bfbfbf;stop-opacity:1"
         offset="1" />
    </linearGradient>
  </defs>
  <sodipodi:namedview
     id="base"
     pagecolor="#ffffff"
     bordercolor="#666666"
     borderopacity="1.0"
     inkscape:pageopacity="0.0"
     inkscape:pageshadow="2"
     inkscape:zoom="5.6"
     inkscape:cx="62.93562"
     inkscape:cy="40.15148"
     inkscape:document-units="px"
     inkscape:current-layer="layer1"
     showgrid="false"
     units="px"
     inkscape:window-width="1855"
     inkscape:window-height="1056"
     inkscape:window-x="65"
     inkscape:window-y="24"
     inkscape:window-maximized="1" />
  <metadata
     id="metadata4264">
    <rdf:RDF>
      <cc:Work
         rdf:about="">
        <dc:format>image/svg+xml</dc:format>
        <dc:type
           rdf:resource="http://purl.org/dc/dcmitype/StillImage" />
        <dc:title></dc:title>
      </cc:Work>
    </rdf:RDF>
  </metadata>
  <g
     inkscape:label="Layer 1"
     inkscape:groupmode="layer"
     id="layer1"
     transform="translate(0,-1002.3622)">
    <g
       id="g4864"
       transform="matrix(0.47368428,0,0,0.47368428,451.31585,976.84475)">
      <rect
         width="24.248428"
         height="24.366484"
         x="548.86041"
         y="-765.37897"
         transform="matrix(-0.70710678,-0.70710678,0.70710678,-0.70710678,0,0)"
         id="rect4230"
         style="display:inline;fill:url(#linearGradient2462);fill-opacity:1;stroke:#404040;stroke-width:2.09247899;stroke-linejoin:round;stroke-miterlimit:4;stroke-dasharray:none;stroke-opacity:1" />
      <rect
         width="19.55588"
         height="19.55588"
         x="551.20673"
         y="-762.97363"
         transform="matrix(-0.70710678,-0.70710678,0.70710678,-0.70710678,0,0)"
         id="rect4253"
         style="display:inline;fill:#bfbfbf;fill-opacity:1;stroke:none;stroke-width:1;stroke-linejoin:round;stroke-miterlimit:4;stroke-dasharray:none;stroke-opacity:1" />
      <rect
         width="19.55588"
         height="19.55588"
         x="551.20673"
         y="-762.97363"
         transform="matrix(-0.70710678,-0.70710678,0.70710678,-0.70710678,0,0)"
         id="rect4233"
         style="display:inline;fill:url(#linearGradient2458);fill-opacity:1;stroke:none;stroke-width:1;stroke-linejoin:round;stroke-miterlimit:4;stroke-dasharray:none;stroke-opacity:1" />
      <rect
         width="33.942631"
         height="80.085968"
         rx="3.5739057"
         ry="4.0822625"
         x="544.01331"
         y="-740.99353"
         transform="matrix(-0.70710678,-0.70710678,0.70710678,-0.70710678,0,0)"
         id="rect4227"
         style="fill:url(#linearGradient2455);fill-opacity:1;stroke:#4e4e4e;stroke-width:2.17287564;stroke-linejoin:round;stroke-miterlimit:4;stroke-dasharray:none;stroke-opacity:1" />
      <rect
         width="28.793907"
         height="75.156219"
         rx="2.1728754"
         ry="2.1728754"
         x="546.58771"
         y="-738.52863"
         transform="matrix(-0.70710678,-0.70710678,0.70710678,-0.70710678,0,0)"
         id="rect3209"
         style="display:inline;fill:#e7e7e7;fill-opacity:1;stroke:none;stroke-width:1;stroke-linejoin:round;stroke-miterlimit:4;stroke-dasharray:none;stroke-opacity:1" />
      <rect
         width="28.793907"
         height="75.156219"
         rx="2.1728754"
         ry="2.1728754"
         x="546.58771"
         y="-738.52863"
         transform="matrix(-0.70710678,-0.70710678,0.70710678,-0.70710678,0,0)"
         id="rect4182"
         style="display:inline;fill:url(#linearGradient2451);fill-opacity:1;stroke:none;stroke-width:1;stroke-linejoin:round;stroke-miterlimit:4;stroke-dasharray:none;stroke-opacity:1" />
      <path
         d="m -910.24897,134.17594 c 0.8512,0.85119 2.22172,0.85119 3.07291,0 l 31.92946,-31.92946 c -3.84751,-1.48767 -20.63233,-7.037982 -27.80023,6.86604 -6.56013,12.72506 -20.08892,8.49139 -25.11144,6.38588 0.0332,0.50719 0.23489,1.00312 0.62419,1.39241 l 17.28511,17.28513 z"
         id="rect4200"
         style="display:inline;opacity:0.9;fill:url(#linearGradient2448);fill-opacity:1;stroke:none;stroke-width:1;stroke-linejoin:round;stroke-miterlimit:4;stroke-opacity:1"
         inkscape:connector-curvature="0" />
      <path
         d="m -910.66134,101.91169 2.03761,-2.0376 8.89613,8.89614 c 1.54745,1.54747 2.60126,2.95139 3.16144,4.21174 0.56015,1.26039 0.66868,2.6328 0.32559,4.11722 -0.34311,1.48445 -1.25688,2.96889 -2.74131,4.45332 -1.44243,1.44243 -2.87085,2.37371 -4.28527,2.79383 -1.41442,0.42013 -2.78857,0.35536 -4.12247,-0.19431 -1.33389,-0.54966 -2.81658,-1.64023 -4.44807,-3.27172 l -8.89613,-8.89613 2.0376,-2.03761 8.88563,8.88564 c 1.3374,1.3374 2.44723,2.19865 3.32949,2.58376 0.88226,0.38512 1.79778,0.44639 2.74656,0.18381 0.94878,-0.26257 1.8608,-0.83149 2.73606,-1.70676 1.49844,-1.49843 2.22666,-2.90585 2.18465,-4.22225 -0.042,-1.31638 -1.02931,-2.94086 -2.96188,-4.87344 l -8.88563,-8.88564 z m 15.198,5.70319 1.75402,-2.09011 c 0.86126,0.6792 1.70501,1.09933 2.53125,1.26037 0.82625,0.16105 1.74177,0.0438 2.74657,-0.35186 1.00479,-0.39561 1.94482,-1.03104 2.82008,-1.90631 0.77722,-0.77722 1.34789,-1.57896 1.71201,-2.40521 0.3641,-0.82624 0.49014,-1.58596 0.37811,-2.279179 -0.11204,-0.693191 -0.40613,-1.277863 -0.88226,-1.754019 -0.48315,-0.483127 -1.04507,-0.764961 -1.68575,-0.8455 -0.64069,-0.08051 -1.40567,0.07879 -2.29493,0.477891 -0.57417,0.25209 -1.73827,0.915535 -3.49228,1.99034 -1.75402,1.074827 -3.06516,1.745277 -3.93342,2.011347 -1.12033,0.35011 -2.14613,0.42013 -3.07741,0.21006 -0.93127,-0.21005 -1.75051,-0.66869 -2.45773,-1.37591 -0.77722,-0.777214 -1.28312,-1.724244 -1.5177,-2.841089 -0.23455,-1.116813 -0.10327,-2.273905 0.39387,-3.471278 0.49716,-1.197334 1.26388,-2.314163 2.30018,-3.350492 1.14135,-1.141314 2.3317,-1.964057 3.57106,-2.468231 1.23937,-0.504124 2.45073,-0.633662 3.63407,-0.388614 1.18335,0.245096 2.24417,0.801761 3.18245,1.669994 l -1.80654,2.100622 c -1.07832,-0.868234 -2.16889,-1.248097 -3.27172,-1.139587 -1.10282,0.108555 -2.24591,0.754495 -3.42926,1.937823 -1.23236,1.232385 -1.90456,2.356217 -2.0166,3.371499 -0.11202,1.015317 0.15055,1.841561 0.78773,2.478734 0.55317,0.553178 1.20787,0.808753 1.96409,0.766727 0.74922,-0.035 2.13913,-0.693191 4.16973,-1.974584 2.0306,-1.281363 3.49403,-2.090101 4.3903,-2.426219 1.30938,-0.483124 2.49448,-0.621415 3.5553,-0.414874 1.06081,0.206581 2.00434,0.722982 2.83059,1.549209 0.81924,0.81926 1.35664,1.825807 1.61223,3.019644 0.25556,1.193866 0.14528,2.431486 -0.33085,3.712846 -0.47615,1.28139 -1.26388,2.47174 -2.3632,3.57106 -1.39342,1.39342 -2.76407,2.35796 -4.11197,2.89361 -1.3479,0.53566 -2.69755,0.66345 -4.04895,0.38336 -1.35139,-0.28008 -2.55575,-0.92076 -3.61307,-1.92207 l 0,0 z m 19.92441,-10.030468 -15.39757,-15.397561 5.77671,-5.776709 c 1.17636,-1.176326 2.27569,-1.964057 3.29798,-2.3632 1.02231,-0.399094 2.05862,-0.476116 3.10892,-0.231069 1.05031,0.245098 1.92907,0.721238 2.63628,1.428423 0.6582,0.658218 1.09933,1.456454 1.32339,2.394709 0.22407,0.938298 0.15405,1.946597 -0.21006,3.024896 1.20436,-0.658176 2.38596,-0.908499 3.5448,-0.750972 1.15884,0.157565 2.18639,0.684471 3.08267,1.580719 0.7212,0.721229 1.23935,1.543972 1.55446,2.468231 0.31508,0.924287 0.41661,1.778538 0.30459,2.562757 -0.11205,0.784244 -0.42014,1.599986 -0.92428,2.447225 -0.50416,0.847261 -1.24637,1.761031 -2.22666,2.741313 l -5.87123,5.871238 z m -6.89005,-10.965247 3.32949,-3.329486 c 0.90327,-0.903251 1.49144,-1.61046 1.76452,-2.121628 0.36411,-0.67218 0.4989,-1.318122 0.40437,-1.937824 -0.0945,-0.619664 -0.41137,-1.199084 -0.95053,-1.738265 -0.51115,-0.511129 -1.08357,-0.838477 -1.71726,-0.982041 -0.63368,-0.14352 -1.24986,-0.0595 -1.84855,0.252075 -0.59867,0.311614 -1.45117,1.020573 -2.5575,2.126879 l -3.07741,3.077412 4.65287,4.652878 z m 7.11061,7.110606 3.83364,-3.833636 c 0.65818,-0.658184 1.09581,-1.144828 1.31289,-1.459929 0.3851,-0.553159 0.63718,-1.085309 0.75622,-1.596472 0.11903,-0.511139 0.0928,-1.05555 -0.0788,-1.633235 -0.17156,-0.577657 -0.50241,-1.111564 -0.99254,-1.601724 -0.57418,-0.574154 -1.22012,-0.926008 -1.93783,-1.055563 -0.71771,-0.129522 -1.42317,-0.01924 -2.11637,0.330848 -0.69321,0.35012 -1.52996,1.015316 -2.51025,1.995592 l -3.56055,3.560554 5.29357,5.293568 z"
         id="text6167"
         style="font-style:normal;font-weight:normal;font-size:15.36942005px;font-family:'Arial Narrow';fill:#404040;fill-opacity:1;stroke:none;stroke-width:1px;stroke-linecap:butt;stroke-linejoin:miter;stroke-opacity:1"
         inkscape:connector-curvature="0" />
    </g>
  </g>
</svg>
