<?xml version="1.0" encoding="UTF-8" standalone="no"?>
<!-- Generator: Adobe Illustrator 22.1.0, SVG Export Plug-In . SVG Version: 6.00 Build 0)  -->

<svg
   xmlns:dc="http://purl.org/dc/elements/1.1/"
   xmlns:cc="http://creativecommons.org/ns#"
   xmlns:rdf="http://www.w3.org/1999/02/22-rdf-syntax-ns#"
   xmlns:svg="http://www.w3.org/2000/svg"
   xmlns="http://www.w3.org/2000/svg"
   xmlns:sodipodi="http://sodipodi.sourceforge.net/DTD/sodipodi-0.dtd"
   xmlns:inkscape="http://www.inkscape.org/namespaces/inkscape"
   version="1.1"
   id="圖層_1"
   x="0px"
   y="0px"
   viewBox="0 0 50 50"
   style="enable-background:new 0 0 50 50;"
   xml:space="preserve"
   inkscape:version="0.91 r13725"
   sodipodi:docname="storage_emmc.svg"><metadata
     id="metadata75"><rdf:RDF><cc:Work
         rdf:about=""><dc:format>image/svg+xml</dc:format><dc:type
           rdf:resource="http://purl.org/dc/dcmitype/StillImage" /><dc:title></dc:title></cc:Work></rdf:RDF></metadata><defs
     id="defs73" /><sodipodi:namedview
     pagecolor="#ffffff"
     bordercolor="#666666"
     borderopacity="1"
     objecttolerance="10"
     gridtolerance="10"
     guidetolerance="10"
     inkscape:pageopacity="0"
     inkscape:pageshadow="2"
     inkscape:window-width="1855"
     inkscape:window-height="1056"
     id="namedview71"
     showgrid="false"
     inkscape:zoom="4.72"
     inkscape:cx="25"
     inkscape:cy="25"
     inkscape:window-x="65"
     inkscape:window-y="24"
     inkscape:window-maximized="1"
     inkscape:current-layer="圖層_1" /><style
     type="text/css"
     id="style3">
	.st0{fill:#B2B2B2;}
	.st1{fill:#40423F;}
	.st2{fill:#FFFFFF;}
</style><g
     id="g4203"
     transform="matrix(1.0180996,0,0,1.0180996,-0.60520528,-0.45249)"><g
       id="g5"><rect
         id="rect7"
         height="4.5999999"
         width="3"
         class="st0"
         y="3"
         x="39.900002"
         style="fill:#b2b2b2" /><rect
         id="rect9"
         height="4.5999999"
         width="3"
         class="st0"
         y="3"
         x="33.400002"
         style="fill:#b2b2b2" /><rect
         id="rect11"
         height="4.5999999"
         width="3"
         class="st0"
         y="3"
         x="26.9"
         style="fill:#b2b2b2" /><rect
         id="rect13"
         height="4.5999999"
         width="3"
         class="st0"
         y="3"
         x="20.4"
         style="fill:#b2b2b2" /><rect
         id="rect15"
         height="4.5999999"
         width="3"
         class="st0"
         y="3"
         x="13.8"
         style="fill:#b2b2b2" /><rect
         id="rect17"
         height="4.5999999"
         width="3"
         class="st0"
         y="2.9000001"
         x="7.3000002"
         style="fill:#b2b2b2" /><rect
         id="rect19"
         height="3"
         width="4.5999999"
         class="st0"
         y="5.3000002"
         x="5"
         style="fill:#b2b2b2" /><rect
         id="rect21"
         height="3"
         width="4.5999999"
         class="st0"
         y="11.3"
         x="5"
         style="fill:#b2b2b2" /><rect
         id="rect23"
         height="3"
         width="4.5999999"
         class="st0"
         y="17.4"
         x="5"
         style="fill:#b2b2b2" /><rect
         id="rect25"
         height="3"
         width="4.5999999"
         class="st0"
         y="23.5"
         x="5"
         style="fill:#b2b2b2" /><rect
         id="rect27"
         height="3"
         width="4.5999999"
         class="st0"
         y="29.6"
         x="5"
         style="fill:#b2b2b2" /><rect
         id="rect29"
         height="3"
         width="4.5999999"
         class="st0"
         y="35.599998"
         x="5"
         style="fill:#b2b2b2" /><rect
         id="rect31"
         height="3"
         width="4.5999999"
         class="st0"
         y="41.700001"
         x="5"
         style="fill:#b2b2b2" /><rect
         id="rect33"
         height="3"
         width="4.5999999"
         class="st0"
         y="5.3000002"
         x="40.700001"
         style="fill:#b2b2b2" /><rect
         id="rect35"
         height="3"
         width="4.5999999"
         class="st0"
         y="11.3"
         x="40.700001"
         style="fill:#b2b2b2" /><rect
         id="rect37"
         height="3"
         width="4.5999999"
         class="st0"
         y="17.4"
         x="40.700001"
         style="fill:#b2b2b2" /><rect
         id="rect39"
         height="3"
         width="4.5999999"
         class="st0"
         y="23.5"
         x="40.700001"
         style="fill:#b2b2b2" /><rect
         id="rect41"
         height="3"
         width="4.5999999"
         class="st0"
         y="29.6"
         x="40.700001"
         style="fill:#b2b2b2" /><rect
         id="rect43"
         height="3"
         width="4.5999999"
         class="st0"
         y="35.599998"
         x="40.700001"
         style="fill:#b2b2b2" /><rect
         id="rect45"
         height="3"
         width="4.5999999"
         class="st0"
         y="41.700001"
         x="40.700001"
         style="fill:#b2b2b2" /><rect
         id="rect47"
         height="4.5999999"
         width="3"
         class="st0"
         y="42.5"
         x="40"
         style="fill:#b2b2b2" /><rect
         id="rect49"
         height="4.5999999"
         width="3"
         class="st0"
         y="42.400002"
         x="33.400002"
         style="fill:#b2b2b2" /><rect
         id="rect51"
         height="4.5999999"
         width="3"
         class="st0"
         y="42.400002"
         x="26.9"
         style="fill:#b2b2b2" /><rect
         id="rect53"
         height="4.5999999"
         width="3"
         class="st0"
         y="42.400002"
         x="20.4"
         style="fill:#b2b2b2" /><rect
         id="rect55"
         height="4.5999999"
         width="3"
         class="st0"
         y="42.5"
         x="13.9"
         style="fill:#b2b2b2" /><rect
         id="rect57"
         height="4.5999999"
         width="3"
         class="st0"
         y="42.400002"
         x="7.3000002"
         style="fill:#b2b2b2" /><rect
         id="rect59"
         height="39.400002"
         width="35.700001"
         class="st1"
         y="5.3000002"
         x="7.3000002"
         style="fill:#40423f" /></g><g
       id="g61"><path
         id="path63"
         d="m 14.8,26.7 0.9,0.1 c -0.1,0.4 -0.3,0.7 -0.7,0.9 -0.3,0.2 -0.7,0.4 -1.2,0.4 -0.6,0 -1.1,-0.2 -1.4,-0.6 -0.4,-0.4 -0.5,-0.9 -0.5,-1.6 0,-0.6 0.2,-1.2 0.5,-1.6 0.4,-0.4 0.8,-0.6 1.5,-0.6 0.6,0 1.1,0.2 1.4,0.6 0.3,0.4 0.5,0.9 0.5,1.6 l 0,0.1 -2.9,0 c 0,0.3 0,0.5 0.1,0.7 0.1,0.2 0.2,0.3 0.3,0.5 0.1,0.2 0.4,0.2 0.6,0.2 0.4,0 0.7,-0.3 0.9,-0.7 z m -0.1,-1.3 c 0,-0.3 -0.1,-0.6 -0.3,-0.7 -0.2,-0.2 -0.4,-0.3 -0.7,-0.3 -0.3,0 -0.5,0.1 -0.7,0.3 -0.2,0.2 -0.3,0.4 -0.3,0.8 l 2,0 z"
         class="st2"
         inkscape:connector-curvature="0"
         style="fill:#ffffff" /><path
         id="path65"
         d="m 23.5,28 -1,0 0,-5 -1.6,5 -0.5,0 -1.6,-5 0,5 -0.8,0 0,-5.7 1.6,0 1.2,3.7 1.2,-3.7 1.6,0 0,5.7 z"
         class="st2"
         inkscape:connector-curvature="0"
         style="fill:#ffffff" /><path
         id="path67"
         d="m 31.7,28 -1,0 0,-5 -1.7,5 -0.5,0 -1.6,-5 0,5 -0.8,0 0,-5.7 1.6,0 1.2,3.7 1.2,-3.7 1.6,0 0,5.7 z"
         class="st2"
         inkscape:connector-curvature="0"
         style="fill:#ffffff" /><path
         id="path69"
         d="m 37.4,26 1,0.1 c -0.1,0.6 -0.3,1 -0.7,1.4 -0.4,0.4 -0.9,0.6 -1.5,0.6 -0.5,0 -0.9,-0.1 -1.3,-0.4 -0.4,-0.3 -0.6,-0.6 -0.7,-1.1 -0.2,-0.4 -0.3,-0.9 -0.3,-1.5 0,-0.9 0.2,-1.6 0.6,-2.1 0.4,-0.5 1,-0.8 1.7,-0.8 0.6,0 1,0.2 1.4,0.5 0.4,0.3 0.6,0.8 0.7,1.5 l -1,0.1 C 37.1,23.4 36.7,23 36.1,23 c -0.4,0 -0.7,0.2 -0.9,0.5 -0.1,0.5 -0.2,1 -0.2,1.7 0,0.7 0.1,1.2 0.3,1.6 0.2,0.4 0.5,0.5 0.9,0.5 0.3,0 0.6,-0.1 0.8,-0.4 0.2,-0.2 0.4,-0.5 0.4,-0.9 z"
         class="st2"
         inkscape:connector-curvature="0"
         style="fill:#ffffff" /></g></g></svg>