<?xml version="1.0" encoding="UTF-8" standalone="no"?>
<!-- Created with Inkscape (http://www.inkscape.org/) -->

<svg
   xmlns:dc="http://purl.org/dc/elements/1.1/"
   xmlns:cc="http://creativecommons.org/ns#"
   xmlns:rdf="http://www.w3.org/1999/02/22-rdf-syntax-ns#"
   xmlns:svg="http://www.w3.org/2000/svg"
   xmlns="http://www.w3.org/2000/svg"
   xmlns:sodipodi="http://sodipodi.sourceforge.net/DTD/sodipodi-0.dtd"
   xmlns:inkscape="http://www.inkscape.org/namespaces/inkscape"
   width="192.806"
   height="40.000019"
   viewBox="0 0 192.806 40.00002"
   id="svg4407"
   version="1.1"
   inkscape:version="0.91 r13725"
   sodipodi:docname="tn_logo_blue.svg">
  <defs
     id="defs4409" />
  <sodipodi:namedview
     id="base"
     pagecolor="#ffffff"
     bordercolor="#666666"
     borderopacity="1.0"
     inkscape:pageopacity="0.0"
     inkscape:pageshadow="2"
     inkscape:zoom="3.959798"
     inkscape:cx="20.008949"
     inkscape:cy="70.333131"
     inkscape:document-units="px"
     inkscape:current-layer="layer1"
     showgrid="false"
     units="px"
     inkscape:window-width="1855"
     inkscape:window-height="1056"
     inkscape:window-x="1985"
     inkscape:window-y="24"
     inkscape:window-maximized="1"
     fit-margin-top="2.5"
     fit-margin-bottom="2.5"
     fit-margin-right="2.5"
     fit-margin-left="2.5" />
  <metadata
     id="metadata4412">
    <rdf:RDF>
      <cc:Work
         rdf:about="">
        <dc:format>image/svg+xml</dc:format>
        <dc:type
           rdf:resource="http://purl.org/dc/dcmitype/StillImage" />
        <dc:title></dc:title>
      </cc:Work>
    </rdf:RDF>
  </metadata>
  <g
     inkscape:label="Layer 1"
     inkscape:groupmode="layer"
     id="layer1"
     transform="translate(-28.597,-1007.3622)">
    <g
       id="g5023"
       transform="matrix(0.54858967,0,0,0.54858967,67.006235,508.04093)"
       style="fill:#103770;fill-opacity:1">
      <path
         class="st0"
         d="m -62.007366,914.74791 36.45,0 -3.45,10.05 -12.25,0 -10.45,30.75 -11.95,0 10.45,-30.75 -12.25,0 3.45,-10.05 z"
         id="path15"
         inkscape:connector-curvature="0"
         style="fill:#103770;fill-opacity:1" />
      <path
         class="st0"
         d="m -2.7573657,943.64791 -21.5000003,0 c -0.45,1.8 -0.45,3.2 0,4.1 0.6,1.3 1.7,1.95 3.35,1.95 1.05,0 2.15,-0.3 3.25,-0.85 0.7,-0.35 1.55,-1 2.5,-1.9 l 10.3000003,1 c -2.65,3 -5.3000003,5.1 -8.0500003,6.4 -2.75,1.3 -6.25,1.95 -10.5,1.95 -3.7,0 -6.45,-0.55 -8.2,-1.65 -1.75,-1.1 -2.9,-2.85 -3.5,-5.25 -0.6,-2.4 -0.3,-5.25 0.8,-8.5 1.55,-4.6 4.25,-8.35 8.05,-11.25 3.8,-2.85 8.15,-4.3 13.1,-4.3 4.0000003,0 6.9500003,0.65 8.8500003,1.95 1.9,1.3 3,3.15 3.39999999,5.6 0.4,2.45 -0.1,5.6 -1.39999999,9.5 l -0.45,1.25 z m -9.1500003,-5.4 c 0.55,-2.2 0.55,-3.8 -0.05,-4.75 -0.6,-0.95 -1.6,-1.45 -3.05,-1.45 -1.7,0 -3.3,0.75 -4.8,2.15 -0.95,0.9 -1.8,2.25 -2.6,4.05 l 10.5,0 z"
         id="path19"
         inkscape:connector-curvature="0"
         style="fill:#103770;fill-opacity:1" />
      <path
         class="st0"
         d="m 23.042634,944.04791 9.8,1.2 c -1.35,2.25 -2.9,4.2 -4.75,5.8 -1.85,1.65 -3.9,2.9 -6.25,3.8 -2.3,0.9 -5,1.35 -8.1,1.35 -3,0 -5.3499997,-0.3 -7.1499997,-0.9 -1.8,-0.6 -3.15,-1.55 -4.15,-2.85 -1,-1.3 -1.60000001,-2.85 -1.80000001,-4.6 -0.2,-1.75 0.2,-4.1 1.15000001,-7 1.05,-3.05 2.4,-5.6 4.05,-7.6 1.25,-1.5 2.65,-2.8 4.2999997,-4 1.65,-1.2 3.25,-2.05 4.75,-2.65 2.4,-0.9 5.25,-1.35 8.55,-1.35 4.6,0 7.8,0.85 9.6,2.55 1.8,1.7 2.65,4.2 2.5,7.5 l -10.55,1.65 c 0.15,-1.3 -0.1,-2.3 -0.7,-2.95 -0.6,-0.65 -1.6,-1 -3.05,-1 -1.8,0 -3.45,0.7 -5,2.05 -1.55,1.35 -2.8,3.4 -3.75,6.15 -0.85,2.45 -0.9,4.3 -0.25,5.6 0.65,1.25 1.85,1.9 3.5,1.9 1.4,0 2.7,-0.4 3.95,-1.15 1.2,-0.8 2.3,-1.95 3.35,-3.5 z"
         id="path23"
         inkscape:connector-curvature="0"
         style="fill:#103770;fill-opacity:1" />
      <path
         class="st0"
         d="m 47.242634,914.74791 10.75,0 -5.1,15 c 2,-1.6 3.85,-2.7 5.5,-3.4 1.7,-0.7 3.5,-1.05 5.45,-1.05 2.9,0 4.9,0.95 5.95,2.8 1.05,1.85 0.9,4.75 -0.4,8.65 l -6.4,18.8 -10.85,0 5.55,-16.25 c 0.65,-1.85 0.75,-3.15 0.35,-3.95 -0.4,-0.75 -1.15,-1.15 -2.35,-1.15 -1.3,0 -2.5,0.5 -3.7,1.55 -1.15,1.05 -2.2,2.9 -3.1,5.6 l -4.85,14.2 -10.7,0 13.9,-40.8 z"
         id="path27"
         inkscape:connector-curvature="0"
         style="fill:#103770;fill-opacity:1" />
      <path
         class="st1"
         d="m 84.242634,914.74791 11.2,0 6.899996,22.55 7.65,-22.55 11.3,0 -13.9,40.8 -11.299996,0 -6.9,-22.45 -7.65,22.45 -11.2,0 13.9,-40.8 z"
         id="path31"
         inkscape:connector-curvature="0"
         style="fill:#103770;fill-opacity:1" />
      <path
         class="st1"
         d="m 149.84263,943.64791 -21.5,0 c -0.45,1.8 -0.45,3.2 0,4.1 0.6,1.3 1.7,1.95 3.35,1.95 1.05,0 2.15,-0.3 3.25,-0.85 0.7,-0.35 1.55,-1 2.5,-1.9 l 10.3,1 c -2.65,3 -5.3,5.1 -8.05,6.4 -2.7,1.3 -6.2,1.95 -10.5,1.95 -3.7,0 -6.45,-0.55 -8.2,-1.65 -1.75,-1.1 -2.9,-2.85 -3.5,-5.25 -0.6,-2.4 -0.3,-5.25 0.8,-8.5 1.6,-4.6 4.25,-8.35 8.05,-11.25 3.8,-2.85 8.15,-4.3 13.1,-4.3 4,0 6.95,0.65 8.85,1.95 1.9,1.3 3,3.15 3.4,5.6 0.4,2.45 -0.1,5.6 -1.4,9.5 l -0.45,1.25 z m -9.15,-5.4 c 0.55,-2.2 0.55,-3.8 -0.05,-4.75 -0.55,-0.95 -1.6,-1.45 -3.05,-1.45 -1.7,0 -3.3,0.75 -4.8,2.15 -0.95,0.9 -1.8,2.25 -2.6,4.05 l 10.5,0 z"
         id="path35"
         inkscape:connector-curvature="0"
         style="fill:#103770;fill-opacity:1" />
      <path
         class="st1"
         d="m 157.04263,926.04791 12.8,0 1.65,8.25 8,-8.25 11.95,0 -14.4,14.05 5,15.45 -12.6,0 -2,-9.5 -9.3,9.5 -11.7,0 15.5,-15.45 -4.9,-14.05 z"
         id="path39"
         inkscape:connector-curvature="0"
         style="fill:#103770;fill-opacity:1" />
      <path
         class="st1"
         d="m 195.94263,926.04791 10.75,0 -10.05,29.5 -10.75,0 10.05,-29.5 z m 3.85,-11.3 10.75,0 -2.65,7.75 -10.75,0 2.65,-7.75 z"
         id="path43"
         inkscape:connector-curvature="0"
         style="fill:#103770;fill-opacity:1" />
      <path
         class="st1"
         d="m 207.24263,940.89791 c 1.55,-4.5 4.25,-8.25 8.15,-11.15 3.9,-2.95 8.3,-4.4 13.2,-4.4 5.6,0 9.3,1.7 11,5.15 1.35,2.75 1.35,6.2 0,10.25 -1.55,4.55 -4.25,8.3 -8.1,11.2 -3.85,2.9 -8.3,4.35 -13.35,4.35 -4.5,0 -7.75,-1.2 -9.7,-3.6 -2.5,-3.05 -2.85,-6.95 -1.2,-11.8 z m 10.75,0 c -0.9,2.65 -1.05,4.6 -0.45,5.85 0.6,1.25 1.65,1.9 3.15,1.9 1.55,0 3.05,-0.6 4.45,-1.85 1.4,-1.25 2.6,-3.25 3.55,-6 0.85,-2.55 1,-4.45 0.45,-5.75 -0.6,-1.25 -1.6,-1.9 -3.1,-1.9 -1.55,0 -3.1,0.65 -4.55,1.9 -1.45,1.3 -2.6,3.25 -3.5,5.85 z"
         id="path47"
         inkscape:connector-curvature="0"
         style="fill:#103770;fill-opacity:1" />
      <path
         class="st1"
         d="m 249.69263,926.04791 10,0 -1.6,4.75 c 2.15,-1.95 4.15,-3.35 6,-4.2 1.8,-0.85 3.85,-1.25 6.05,-1.25 3,0 5,0.95 6.05,2.8 1.05,1.85 0.9,4.75 -0.4,8.65 l -6.45,18.75 -10.85,0 5.55,-16.25 c 0.65,-1.85 0.75,-3.15 0.35,-3.95 -0.4,-0.75 -1.15,-1.15 -2.35,-1.15 -1.3,0 -2.5,0.5 -3.7,1.55 -1.15,1.05 -2.2,2.9 -3.1,5.6 l -4.85,14.2 -10.75,0 10.05,-29.5 z"
         id="path51"
         inkscape:connector-curvature="0"
         style="fill:#103770;fill-opacity:1" />
      <path
         inkscape:connector-curvature="0"
         id="path55"
         d="m 44.342634,967.64791 0,10.7 -1.45,0 0,-10.7 1.45,0 z"
         style="fill:#103770;fill-opacity:1" />
      <path
         inkscape:connector-curvature="0"
         id="path57"
         d="m 47.092634,978.34791 0,-10.7 1.65,0 3.9,5.55 c 0.9,1.3 1.55,2.3 2.1,3.4 l 0.05,0 c -0.15,-1.35 -0.15,-2.6 -0.15,-4.25 l 0,-4.7 1.35,0 0,10.7 -1.5,0 -3.85,-5.5 c -0.85,-1.25 -1.65,-2.45 -2.25,-3.55 l -0.05,0 c 0.1,1.35 0.1,2.6 0.1,4.2 l 0,4.85 -1.35,0 z"
         style="fill:#103770;fill-opacity:1" />
      <path
         inkscape:connector-curvature="0"
         id="path59"
         d="m 58.792634,978.34791 0,-10.7 1.65,0 3.9,5.55 c 0.9,1.3 1.55,2.3 2.1,3.4 l 0.05,0 c -0.15,-1.35 -0.15,-2.6 -0.15,-4.25 l 0,-4.7 1.35,0 0,10.7 -1.5,0 -3.85,-5.5 c -0.85,-1.25 -1.65,-2.45 -2.25,-3.55 l -0.05,0 c 0.1,1.35 0.1,2.6 0.1,4.2 l 0,4.85 -1.35,0 z"
         style="fill:#103770;fill-opacity:1" />
      <path
         inkscape:connector-curvature="0"
         id="path61"
         d="m 75.192634,978.54791 c -3.2,0 -5.4,-2.3 -5.4,-5.4 0,-3.35 2.35,-5.65 5.55,-5.65 3.3,0 5.45,2.3 5.45,5.45 0,3.5 -2.55,5.6 -5.6,5.6 l 0,0 z m 0.05,-1.15 c 2.45,0 4,-1.9 4,-4.45 0,-2.2 -1.35,-4.35 -3.95,-4.35 -2.6,0 -4,2.1 -4,4.5 0,2.3 1.5,4.3 3.95,4.3 l 0,0 z"
         style="fill:#103770;fill-opacity:1" />
      <path
         inkscape:connector-curvature="0"
         id="path63"
         d="m 85.542634,978.34791 -3.85,-10.7 1.55,0 1.85,5.35 c 0.55,1.5 0.95,2.75 1.25,3.95 l 0.05,0 c 0.35,-1.2 0.85,-2.5 1.4,-3.9 l 2.05,-5.4 1.55,0 -4.25,10.7 -1.6,0 z"
         style="fill:#103770;fill-opacity:1" />
      <path
         inkscape:connector-curvature="0"
         id="path65"
         d="m 93.642634,974.94791 -1.25,3.4 -1.5,0 4.05,-10.7 1.75,0 4.099996,10.7 -1.549996,0 -1.3,-3.4 -4.3,0 z m 3.95,-1.15 -1.2,-3.2 c -0.25,-0.7 -0.45,-1.25 -0.6,-1.8 l -0.05,0 c -0.15,0.55 -0.3,1.15 -0.55,1.8 l -1.2,3.2 3.6,0 z"
         style="fill:#103770;fill-opacity:1" />
      <path
         inkscape:connector-curvature="0"
         id="path67"
         d="m 103.59263,968.79791 -3.699996,0 0,-1.2 8.849996,0 0,1.2 -3.7,0 0,9.55 -1.45,0 0,-9.55 z"
         style="fill:#103770;fill-opacity:1" />
      <path
         inkscape:connector-curvature="0"
         id="path69"
         d="m 114.49263,978.54791 c -3.2,0 -5.4,-2.3 -5.4,-5.4 0,-3.35 2.35,-5.65 5.55,-5.65 3.3,0 5.45,2.3 5.45,5.45 0,3.5 -2.55,5.6 -5.6,5.6 l 0,0 z m 0.1,-1.15 c 2.45,0 4,-1.9 4,-4.45 0,-2.2 -1.35,-4.35 -3.95,-4.35 -2.6,0 -4,2.1 -4,4.5 -0.05,2.3 1.45,4.3 3.95,4.3 l 0,0 z"
         style="fill:#103770;fill-opacity:1" />
      <path
         inkscape:connector-curvature="0"
         id="path71"
         d="m 122.19263,967.79791 c 0.75,-0.15 1.9,-0.25 2.95,-0.25 1.6,0 2.65,0.3 3.35,0.9 0.5,0.45 0.85,1.2 0.85,2 0,1.45 -1,2.4 -2.15,2.75 l 0,0.05 c 0.85,0.3 1.35,1.1 1.6,2.1 0.4,1.5 0.65,2.55 0.9,3 l -1.5,0 c -0.15,-0.3 -0.45,-1.2 -0.75,-2.55 -0.35,-1.45 -0.95,-2.05 -2.3,-2.1 l -1.55,0 0,4.65 -1.45,0 0,-10.55 z m 1.45,4.8 1.7,0 c 1.6,0 2.55,-0.8 2.55,-2 0,-1.45 -1.15,-2 -2.65,-2 -0.8,0 -1.35,0.1 -1.6,0.15 l 0,3.85 z"
         style="fill:#103770;fill-opacity:1" />
      <path
         inkscape:connector-curvature="0"
         id="path73"
         d="m 131.49263,976.59791 c 0.7,0.45 1.7,0.8 2.8,0.8 1.5,0 2.4,-0.75 2.4,-1.85 0,-1 -0.6,-1.55 -2.2,-2.1 -2.05,-0.65 -3.1,-1.55 -3.1,-3.05 0,-1.7 1.5,-2.95 3.7,-2.95 1.25,0 2.1,0.25 2.65,0.55 l -0.4,1.15 c -0.35,-0.2 -1.2,-0.55 -2.25,-0.55 -1.6,0 -2.2,0.9 -2.2,1.6 0,1 0.7,1.5 2.3,2 2,0.65 3,1.5 3,3.2 0,1.6 -1.2,3.1 -4,3.1 -1.15,0 -2.4,-0.35 -3.05,-0.75 l 0.35,-1.15 z"
         style="fill:#103770;fill-opacity:1" />
      <path
         inkscape:connector-curvature="0"
         id="path75"
         d="m 148.99263,978.54791 c -3.2,0 -5.4,-2.3 -5.4,-5.4 0,-3.35 2.35,-5.65 5.55,-5.65 3.3,0 5.45,2.3 5.45,5.45 0,3.5 -2.55,5.6 -5.6,5.6 l 0,0 z m 0.05,-1.15 c 2.45,0 4,-1.9 4,-4.45 0,-2.2 -1.35,-4.35 -3.95,-4.35 -2.6,0 -4,2.1 -4,4.5 0,2.3 1.5,4.3 3.95,4.3 l 0,0 z"
         style="fill:#103770;fill-opacity:1" />
      <path
         inkscape:connector-curvature="0"
         id="path77"
         d="m 156.69263,967.64791 6.3,0 0,1.2 -4.9,0 0,3.5 4.5,0 0,1.2 -4.5,0 0,4.85 -1.45,0 0,-10.75 z"
         style="fill:#103770;fill-opacity:1" />
      <path
         inkscape:connector-curvature="0"
         id="path79"
         d="m 170.84263,968.79791 -3.7,0 0,-1.2 8.85,0 0,1.2 -3.7,0 0,9.55 -1.45,0 0,-9.55 z"
         style="fill:#103770;fill-opacity:1" />
      <path
         inkscape:connector-curvature="0"
         id="path81"
         d="m 183.49263,973.34791 -4.65,0 0,3.85 5.2,0 0,1.2 -6.6,0 0,-10.7 6.35,0 0,1.2 -4.95,0 0,3.35 4.65,0 0,1.1 z"
         style="fill:#103770;fill-opacity:1" />
      <path
         inkscape:connector-curvature="0"
         id="path83"
         d="m 194.54263,977.94791 c -0.55,0.25 -1.75,0.6 -3.25,0.6 -3.3,0 -5.85,-2 -5.85,-5.45 0,-3.05 2.35,-5.6 6.2,-5.6 1.55,0 2.55,0.35 2.95,0.55 l -0.35,1.15 c -0.6,-0.3 -1.5,-0.5 -2.5,-0.5 -2.95,0 -4.75,1.75 -4.75,4.45 0,2.4 1.6,4.25 4.6,4.25 1,0 2,-0.2 2.65,-0.5 l 0.3,1.05 z"
         style="fill:#103770;fill-opacity:1" />
      <path
         inkscape:connector-curvature="0"
         id="path85"
         d="m 198.09263,967.64791 0,4.45 5.9,0 0,-4.45 1.45,0 0,10.7 -1.45,0 0,-5.05 -5.9,0 0,5.05 -1.45,0 0,-10.7 1.45,0 z"
         style="fill:#103770;fill-opacity:1" />
      <path
         inkscape:connector-curvature="0"
         id="path87"
         d="m 208.19263,978.34791 0,-10.7 1.65,0 3.9,5.55 c 0.9,1.3 1.55,2.3 2.1,3.4 l 0.05,0 c -0.15,-1.35 -0.15,-2.6 -0.15,-4.25 l 0,-4.7 1.35,0 0,10.7 -1.5,0 -3.85,-5.5 c -0.85,-1.25 -1.65,-2.45 -2.25,-3.55 l -0.05,0 c 0.1,1.35 0.1,2.6 0.1,4.2 l 0,4.85 -1.35,0 z"
         style="fill:#103770;fill-opacity:1" />
      <path
         inkscape:connector-curvature="0"
         id="path89"
         d="m 224.64263,978.54791 c -3.2,0 -5.4,-2.3 -5.4,-5.4 0,-3.35 2.35,-5.65 5.55,-5.65 3.3,0 5.45,2.3 5.45,5.45 -0.05,3.5 -2.55,5.6 -5.6,5.6 l 0,0 z m 0.05,-1.15 c 2.45,0 4,-1.9 4,-4.45 0,-2.2 -1.35,-4.35 -3.95,-4.35 -2.6,0 -4,2.1 -4,4.5 0,2.3 1.5,4.3 3.95,4.3 l 0,0 z"
         style="fill:#103770;fill-opacity:1" />
      <path
         inkscape:connector-curvature="0"
         id="path91"
         d="m 232.34263,967.64791 1.45,0 0,9.5 5.05,0 0,1.2 -6.5,0 0,-10.7 z"
         style="fill:#103770;fill-opacity:1" />
      <path
         inkscape:connector-curvature="0"
         id="path93"
         d="m 244.84263,978.54791 c -3.2,0 -5.4,-2.3 -5.4,-5.4 0,-3.35 2.35,-5.65 5.55,-5.65 3.3,0 5.45,2.3 5.45,5.45 0,3.5 -2.55,5.6 -5.6,5.6 l 0,0 z m 0.1,-1.15 c 2.45,0 4,-1.9 4,-4.45 0,-2.2 -1.35,-4.35 -3.95,-4.35 -2.6,0 -4,2.1 -4,4.5 -0.05,2.3 1.45,4.3 3.95,4.3 l 0,0 z"
         style="fill:#103770;fill-opacity:1" />
      <path
         inkscape:connector-curvature="0"
         id="path95"
         d="m 261.64263,977.79791 c -0.7,0.25 -2.05,0.65 -3.75,0.65 -1.85,0 -3.35,-0.45 -4.5,-1.55 -0.95,-0.9 -1.55,-2.3 -1.55,-3.9 0,-2.85 2.2,-5.5 6.35,-5.5 1.45,0 2.55,0.3 3.05,0.55 l -0.35,1.15 c -0.65,-0.3 -1.5,-0.5 -2.75,-0.5 -3,0 -4.8,1.8 -4.8,4.25 0,2.5 1.75,4.3 4.65,4.3 1.05,0 1.8,-0.15 2.2,-0.35 l 0,-3.1 -2.45,0 0,-1.15 3.85,0 0,5.15 z"
         style="fill:#103770;fill-opacity:1" />
      <path
         inkscape:connector-curvature="0"
         id="path97"
         d="m 266.79263,978.34791 0,-4.55 -3.75,-6.15 1.65,0 1.7,3.05 c 0.45,0.85 0.8,1.4 1.15,2.15 l 0.05,0 c 0.3,-0.65 0.7,-1.35 1.2,-2.15 l 1.75,-3.05 1.65,0 -3.95,6.15 0,4.55 -1.45,0 z"
         style="fill:#103770;fill-opacity:1" />
    </g>
  </g>
</svg>
